<svg width="410" height="473" viewBox="0 0 410 473" fill="none" xmlns="http://www.w3.org/2000/svg">
<path d="M141.057 242.881L277.362 321.89L277.362 163.862L141.057 84.8532L141.057 242.881Z" stroke="#6F6F6F" stroke-linejoin="round"/>
<path d="M152.03 119.904L266.726 186.686L266.726 169.986L152.03 103.205L152.03 119.904Z" fill="#9E4EC4" fill-opacity="0.21" stroke="#9E4EC4" stroke-linejoin="round"/>
<path d="M152.03 148.215L266.726 214.996L266.726 198.297L152.03 131.516L152.03 148.215Z" stroke="#6F6F6F" stroke-linejoin="round"/>
<path d="M152.03 148.215L266.726 214.996L266.726 198.297L152.03 131.516L152.03 148.215Z" fill="#1F0A28" stroke="#FF4C4C" stroke-linejoin="round"/>
<path d="M63.6232 287.753L196.387 364.714L196.377 326.253L63.6134 249.303L63.6232 287.753Z" stroke="#6F6F6F" stroke-linejoin="round"/>
<path d="M72.9147 280.96L72.9147 265.418L186.61 331.618L186.61 347.159L72.9147 280.96Z" fill="#1155CC" fill-opacity="0.12" stroke="#1155CC"/>
<path d="M271.32 164.827L138.567 87.8565L5.80286 164.797L138.557 241.768L271.32 164.827Z" stroke="#6F6F6F" stroke-linejoin="round"/>
<path d="M138.557 241.767L5.79333 164.807L5.80317 203.267L138.567 280.218L138.557 241.767Z" stroke="#6F6F6F" stroke-linejoin="round"/>
<path d="M72.4866 124.432L30.5735 99.8711L30.5833 138.332L72.4964 162.883L72.4866 124.432Z" stroke="#6F6F6F" stroke-linejoin="round"/>
<path d="M129.766 248.275L15.0704 181.493V198.192L129.766 264.974V248.275Z" fill="#1F0A28" stroke="#FF4C4C" stroke-linejoin="round"/>
<path d="M152.531 205.279L152.531 189.743L176.574 204.027L176.574 219.563L152.531 205.279Z" fill="#1155CC" fill-opacity="0.12" stroke="#1155CC"/>
<path d="M183.971 223.71L209.015 238.589L209.015 221.89L183.971 207.011L183.971 223.71Z" fill="#1F0A28" stroke="#FF4C4C" stroke-linejoin="round"/>
<path d="M38.8427 132.503L63.887 147.382L63.887 130.683L38.8427 115.804L38.8427 132.503Z" fill="#1F0A28" stroke="#FF4C4C" stroke-linejoin="round"/>
<path d="M215.185 242.584L266.363 272.344L266.363 255.645L215.185 225.885L215.185 242.584Z" fill="#9E4EC4" fill-opacity="0.21" stroke="#9E4EC4" stroke-linejoin="round"/>
<path d="M146.949 206.285L271.807 279.603L271.807 254.555L146.949 181.237L146.949 206.285Z" stroke="#6F6F6F" stroke-linejoin="round" stroke-dasharray="2 2"/>
<path d="M152.03 234.599L266.726 301.381L266.726 284.682L152.03 217.9L152.03 234.599Z" fill="#1F0A28" stroke="#FF4C4C" stroke-linejoin="round"/>
<path d="M152.531 176.965L152.531 161.423L266.226 227.623L266.226 243.164L152.531 176.965Z" fill="#1155CC" fill-opacity="0.12" stroke="#1155CC"/>
<path d="M271.288 314.373L266.342 317.232L266.818 318.057L271.764 315.198L271.288 314.373Z" fill="#50DBD9"/>
<path d="M150.134 385.442L149.651 384.616L159.374 379L159.856 379.826L150.134 385.442ZM169.578 374.197L169.096 373.372L178.818 367.756L179.3 368.581L169.578 374.197ZM189.022 362.953L188.54 362.127L198.262 356.511L198.744 357.337L189.022 362.953ZM208.467 351.721L207.984 350.895L217.706 345.279L218.189 346.105L208.467 351.721ZM227.924 340.476L227.441 339.65L237.163 334.034L237.646 334.86L227.924 340.476ZM247.368 329.244L246.886 328.418L256.608 322.802L257.09 323.628L247.368 329.244Z" fill="#50DBD9"/>
<path d="M139.926 390.278L134.979 393.137L135.455 393.962L140.402 391.103L139.926 390.278Z" fill="#50DBD9"/>
<path d="M271.288 314.373L266.342 317.232L266.818 318.057L271.764 315.198L271.288 314.373Z" fill="#50DBD9"/>
<path d="M150.134 385.442L149.651 384.616L159.374 379L159.856 379.826L150.134 385.442ZM169.578 374.197L169.096 373.372L178.818 367.756L179.3 368.581L169.578 374.197ZM189.022 362.953L188.54 362.127L198.262 356.511L198.744 357.337L189.022 362.953ZM208.467 351.721L207.984 350.895L217.706 345.279L218.189 346.105L208.467 351.721ZM227.924 340.476L227.441 339.65L237.163 334.034L237.646 334.86L227.924 340.476ZM247.368 329.244L246.886 328.418L256.608 322.802L257.09 323.628L247.368 329.244Z" fill="#50DBD9"/>
<path d="M139.926 390.278L134.979 393.137L135.455 393.962L140.402 391.103L139.926 390.278Z" fill="#50DBD9"/>
<path d="M271.302 156.811L266.355 159.67L266.831 160.495L271.778 157.636L271.302 156.811Z" fill="#50DBD9"/>
<path d="M150.134 227.889L149.652 227.063L159.374 221.447L159.856 222.273L150.134 227.889ZM169.578 216.645L169.096 215.819L178.818 210.203L179.3 211.029L169.578 216.645ZM189.023 205.4L188.54 204.574L198.262 198.958L198.745 199.784L189.023 205.4ZM208.467 194.168L207.985 193.342L217.707 187.726L218.189 188.552L208.467 194.168ZM227.924 182.923L227.442 182.097L237.164 176.481L237.646 177.307L227.924 182.923ZM247.368 171.691L246.886 170.865L256.608 165.249L257.09 166.075L247.368 171.691Z" fill="#50DBD9"/>
<path d="M139.938 232.729L134.992 235.587L135.468 236.413L140.414 233.554L139.938 232.729Z" fill="#50DBD9"/>
<path d="M271.302 156.811L266.355 159.67L266.831 160.495L271.778 157.636L271.302 156.811Z" fill="#50DBD9"/>
<path d="M150.134 227.889L149.652 227.063L159.374 221.447L159.856 222.273L150.134 227.889ZM169.578 216.645L169.096 215.819L178.818 210.203L179.3 211.029L169.578 216.645ZM189.023 205.4L188.54 204.574L198.262 198.958L198.745 199.784L189.023 205.4ZM208.467 194.168L207.985 193.342L217.707 187.726L218.189 188.552L208.467 194.168ZM227.924 182.923L227.442 182.097L237.164 176.481L237.646 177.307L227.924 182.923ZM247.368 171.691L246.886 170.865L256.608 165.249L257.09 166.075L247.368 171.691Z" fill="#50DBD9"/>
<path d="M139.938 232.729L134.992 235.587L135.468 236.413L140.414 233.554L139.938 232.729Z" fill="#50DBD9"/>
<path d="M266.778 311.408L266.302 312.233L271.248 315.092L271.724 314.267L266.778 311.408Z" fill="#50DBD9"/>
<path d="M256.608 306.665L246.886 301.049L247.368 300.224L257.09 305.84L256.608 306.665ZM237.163 295.421L227.441 289.805L227.924 288.979L237.646 294.595L237.163 295.421ZM217.719 284.176L207.997 278.56L208.479 277.734L218.201 283.35L217.719 284.176ZM198.275 272.944L188.553 267.328L189.035 266.502L198.757 272.118L198.275 272.944ZM178.831 261.699L169.108 256.083L169.591 255.257L179.313 260.873L178.831 261.699ZM159.374 250.467L149.651 244.851L150.134 244.025L159.856 249.642L159.374 250.467Z" fill="#50DBD9"/>
<path d="M135.427 235.49L134.952 236.316L139.898 239.175L140.374 238.349L135.427 235.49Z" fill="#50DBD9"/>
<path d="M271.302 3.936e-05L266.356 2.85886L266.832 3.68413L271.778 0.82531L271.302 3.936e-05Z" fill="#50DBD9"/>
<path d="M150.135 71.0873L149.653 70.2614L159.375 64.6454L159.857 65.4713L150.135 71.0873ZM169.579 59.8426L169.097 59.0167L178.819 53.4007L179.301 54.2266L169.579 59.8426ZM189.023 48.5979L188.541 47.772L198.263 42.156L198.746 42.9819L189.023 48.5979ZM208.468 37.3659L207.985 36.5401L217.708 30.9241L218.19 31.7499L208.468 37.3659ZM227.925 26.1212L227.442 25.2954L237.165 19.6794L237.647 20.5052L227.925 26.1212ZM247.369 14.8892L246.887 14.0634L256.609 8.44736L257.091 9.27324L247.369 14.8892Z" fill="#50DBD9"/>
<path d="M139.952 75.9176L135.005 78.7765L135.481 79.6017L140.428 76.7429L139.952 75.9176Z" fill="#50DBD9"/>
<path d="M271.302 3.936e-05L266.355 2.85886L266.831 3.68413L271.778 0.82531L271.302 3.936e-05Z" fill="#50DBD9"/>
<path d="M150.134 71.0873L149.652 70.2614L159.374 64.6454L159.856 65.4713L150.134 71.0873ZM169.578 59.8426L169.096 59.0167L178.818 53.4007L179.3 54.2266L169.578 59.8426ZM189.023 48.5979L188.54 47.772L198.262 42.156L198.745 42.9819L189.023 48.5979ZM208.467 37.3659L207.984 36.5401L217.707 30.9241L218.189 31.7499L208.467 37.3659ZM227.924 26.1212L227.441 25.2954L237.164 19.6794L237.646 20.5052L227.924 26.1212ZM247.368 14.8892L246.886 14.0634L256.608 8.44736L257.09 9.27324L247.368 14.8892Z" fill="#50DBD9"/>
<path d="M139.951 75.9176L135.005 78.7765L135.48 79.6017L140.427 76.7429L139.951 75.9176Z" fill="#50DBD9"/>
<path d="M402.658 237.288L397.712 240.147L398.188 240.972L403.134 238.113L402.658 237.288Z" fill="#50DBD9"/>
<path d="M281.491 308.376L281.009 307.55L290.731 301.934L291.213 302.76L281.491 308.376ZM300.935 297.131L300.453 296.305L310.175 290.689L310.657 291.515L300.935 297.131ZM320.38 285.886L319.897 285.06L329.619 279.444L330.102 280.27L320.38 285.886ZM339.824 274.654L339.342 273.828L349.064 268.212L349.546 269.038L339.824 274.654ZM359.281 263.409L358.799 262.584L368.521 256.968L369.003 257.793L359.281 263.409ZM378.725 252.177L378.243 251.352L387.965 245.736L388.447 246.561L378.725 252.177Z" fill="#50DBD9"/>
<path d="M271.308 313.206L266.361 316.065L266.837 316.89L271.784 314.031L271.308 313.206Z" fill="#50DBD9"/>
<path d="M402.658 81.0984L397.712 83.9573L398.188 84.7825L403.134 81.9237L402.658 81.0984Z" fill="#50DBD9"/>
<path d="M281.491 152.186L281.009 151.36L290.731 145.744L291.213 146.57L281.491 152.186ZM300.935 140.941L300.453 140.115L310.175 134.499L310.657 135.325L300.935 140.941ZM320.38 129.696L319.897 128.871L329.619 123.255L330.102 124.08L320.38 129.696ZM339.824 118.464L339.342 117.639L349.064 112.023L349.546 112.848L339.824 118.464ZM359.281 107.22L358.799 106.394L368.521 100.778L369.003 101.604L359.281 107.22ZM378.725 95.9878L378.243 95.1619L387.965 89.5459L388.447 90.3718L378.725 95.9878Z" fill="#50DBD9"/>
<path d="M271.308 157.016L266.361 159.875L266.837 160.7L271.784 157.841L271.308 157.016Z" fill="#50DBD9"/>
<path d="M408.665 238.044L403.719 235.185L404.195 234.36L409.141 237.219L408.665 238.044Z" fill="#50DBD9"/>
<path d="M287.498 166.957L287.016 167.783L296.738 173.399L297.22 172.573L287.498 166.957ZM306.943 178.202L306.46 179.027L316.182 184.643L316.665 183.818L306.943 178.202ZM326.387 189.446L325.905 190.272L335.627 195.888L336.109 195.062L326.387 189.446ZM345.831 200.678L345.349 201.504L355.071 207.12L355.553 206.294L345.831 200.678ZM365.288 211.923L364.806 212.749L374.528 218.365L375.01 217.539L365.288 211.923ZM384.732 223.155L384.25 223.981L393.972 229.597L394.455 228.771L384.732 223.155Z" fill="#50DBD9"/>
<path d="M277.315 162.127L272.369 159.268L272.845 158.443L277.791 161.301L277.315 162.127Z" fill="#50DBD9"/>
<path d="M408.665 394.234L403.719 391.375L404.195 390.55L409.141 393.409L408.665 394.234Z" fill="#50DBD9"/>
<path d="M287.498 323.147L287.016 323.972L296.738 329.588L297.22 328.763L287.498 323.147ZM306.943 334.391L306.46 335.217L316.182 340.833L316.665 340.007L306.943 334.391ZM326.387 345.636L325.905 346.462L335.627 352.078L336.109 351.252L326.387 345.636ZM345.831 356.868L345.349 357.694L355.071 363.31L355.553 362.484L345.831 356.868ZM365.288 368.113L364.806 368.938L374.528 374.554L375.01 373.729L365.288 368.113ZM384.732 379.345L384.25 380.17L393.972 385.786L394.455 384.961L384.732 379.345Z" fill="#50DBD9"/>
<path d="M277.315 318.316L272.369 315.457L272.845 314.632L277.791 317.491L277.315 318.316Z" fill="#50DBD9"/>
<path d="M266.769 154.606L266.293 155.432L271.239 158.29L271.715 157.465L266.769 154.606Z" fill="#50DBD9"/>
<path d="M256.608 149.864L246.886 144.248L247.368 143.422L257.09 149.038L256.608 149.864ZM237.164 138.619L227.442 133.003L227.924 132.177L237.646 137.793L237.164 138.619ZM217.719 127.374L207.997 121.758L208.48 120.932L218.202 126.548L217.719 127.374ZM198.275 116.142L188.553 110.526L189.035 109.7L198.757 115.316L198.275 116.142ZM178.831 104.898L169.109 99.2816L169.591 98.4557L179.313 104.072L178.831 104.898ZM159.374 93.6656L149.652 88.0496L150.134 87.2237L159.856 92.8397L159.374 93.6656Z" fill="#50DBD9"/>
<path d="M135.431 78.7013L134.955 79.5266L139.902 82.3854L140.378 81.5601L135.431 78.7013Z" fill="#50DBD9"/>
<path d="M0.489294 314.373L5.43555 317.232L4.95959 318.057L0.0133401 315.198L0.489294 314.373Z" fill="#50DBD9"/>
<path d="M121.644 385.442L122.126 384.616L112.404 379L111.921 379.826L121.644 385.442ZM102.199 374.197L102.682 373.371L92.9596 367.755L92.4773 368.581L102.199 374.197ZM82.7551 362.953L83.2374 362.127L73.5153 356.511L73.033 357.337L82.7551 362.953ZM63.3108 351.721L63.7931 350.895L54.071 345.279L53.5887 346.105L63.3108 351.721ZM43.8539 340.476L44.3361 339.65L34.614 334.034L34.1317 334.86L43.8539 340.476ZM24.4096 329.244L24.8919 328.418L15.1697 322.802L14.6874 323.628L24.4096 329.244Z" fill="#50DBD9"/>
<path d="M131.852 390.278L136.798 393.137L136.322 393.962L131.376 391.103L131.852 390.278Z" fill="#50DBD9"/>
<path d="M0.489294 314.373L5.43555 317.232L4.95959 318.057L0.0133401 315.198L0.489294 314.373Z" fill="#50DBD9"/>
<path d="M121.644 385.442L122.126 384.616L112.404 379L111.921 379.826L121.644 385.442ZM102.199 374.197L102.682 373.371L92.9596 367.755L92.4773 368.581L102.199 374.197ZM82.7551 362.953L83.2374 362.127L73.5153 356.511L73.033 357.337L82.7551 362.953ZM63.3108 351.721L63.7931 350.895L54.071 345.279L53.5887 346.105L63.3108 351.721ZM43.8539 340.476L44.3361 339.65L34.614 334.034L34.1317 334.86L43.8539 340.476ZM24.4096 329.244L24.8919 328.418L15.1697 322.802L14.6874 323.628L24.4096 329.244Z" fill="#50DBD9"/>
<path d="M131.852 390.278L136.798 393.137L136.322 393.962L131.376 391.103L131.852 390.278Z" fill="#50DBD9"/>
<path d="M4.99145 468.948L5.46741 469.774L0.521154 472.632L0.0452005 471.807L4.99145 468.948Z" fill="#50DBD9"/>
<path d="M15.1701 464.218L24.8922 458.602L24.4099 457.777L14.6877 463.393L15.1701 464.218ZM34.6143 452.974L44.3365 447.358L43.8542 446.532L34.132 452.148L34.6143 452.974ZM54.0586 441.729L63.7808 436.113L63.2984 435.287L53.5763 440.903L54.0586 441.729ZM73.5029 430.497L83.225 424.881L82.7427 424.055L73.0206 429.671L73.5029 430.497ZM92.9472 419.252L102.669 413.636L102.187 412.81L92.4649 418.426L92.9472 419.252ZM112.404 408.02L122.126 402.404L121.644 401.578L111.922 407.194L112.404 408.02Z" fill="#50DBD9"/>
<path d="M136.342 393.043L136.818 393.869L131.871 396.727L131.395 395.902L136.342 393.043Z" fill="#50DBD9"/>
<path d="M0.475988 157.562L5.42224 160.421L4.94629 161.246L3.44388e-05 158.387L0.475988 157.562Z" fill="#50DBD9"/>
<path d="M121.644 228.64L122.126 227.814L112.404 222.198L111.921 223.024L121.644 228.64ZM102.199 217.396L102.682 216.57L92.9596 210.954L92.4773 211.78L102.199 217.396ZM82.7551 206.151L83.2374 205.325L73.5153 199.709L73.033 200.535L82.7551 206.151ZM63.3108 194.919L63.7931 194.093L54.071 188.477L53.5887 189.303L63.3108 194.919ZM43.8539 183.674L44.3361 182.848L34.614 177.232L34.1317 178.058L43.8539 183.674ZM24.4096 172.442L24.8919 171.616L15.1697 166L14.6874 166.826L24.4096 172.442Z" fill="#50DBD9"/>
<path d="M131.839 233.48L136.786 236.338L136.31 237.164L131.363 234.305L131.839 233.48Z" fill="#50DBD9"/>
<path d="M0.475988 157.562L5.42224 160.421L4.94629 161.246L3.44388e-05 158.387L0.475988 157.562Z" fill="#50DBD9"/>
<path d="M121.644 228.64L122.126 227.814L112.404 222.198L111.921 223.024L121.644 228.64ZM102.199 217.396L102.682 216.57L92.9596 210.954L92.4773 211.78L102.199 217.396ZM82.7551 206.151L83.2374 205.325L73.5153 199.709L73.033 200.535L82.7551 206.151ZM63.3108 194.919L63.7931 194.093L54.071 188.477L53.5887 189.303L63.3108 194.919ZM43.8539 183.674L44.3361 182.848L34.614 177.232L34.1317 178.058L43.8539 183.674ZM24.4096 172.442L24.8919 171.616L15.1697 166L14.6874 166.826L24.4096 172.442Z" fill="#50DBD9"/>
<path d="M131.839 233.48L136.786 236.338L136.31 237.164L131.363 234.305L131.839 233.48Z" fill="#50DBD9"/>
<path d="M5.00024 312.159L5.4762 312.984L0.529943 315.843L0.0539895 315.018L5.00024 312.159Z" fill="#50DBD9"/>
<path d="M15.1701 307.416L24.8922 301.8L24.4099 300.975L14.6877 306.591L15.1701 307.416ZM34.6143 296.172L44.3365 290.556L43.8542 289.73L34.132 295.346L34.6143 296.172ZM54.0586 284.927L63.7808 279.311L63.2984 278.485L53.5763 284.101L54.0586 284.927ZM73.5029 273.695L83.225 268.079L82.7427 267.253L73.0206 272.869L73.5029 273.695ZM92.9472 262.45L102.669 256.834L102.187 256.008L92.4649 261.624L92.9472 262.45ZM112.404 251.218L122.126 245.602L121.644 244.776L111.922 250.392L112.404 251.218Z" fill="#50DBD9"/>
<path d="M136.35 236.241L136.826 237.067L131.88 239.926L131.404 239.1L136.35 236.241Z" fill="#50DBD9"/>
<path d="M5.00867 153.855L5.48462 154.681L0.538366 157.539L0.0624124 156.714L5.00867 153.855Z" fill="#50DBD9"/>
<path d="M15.1697 149.113L24.8919 143.497L24.4096 142.671L14.6874 148.287L15.1697 149.113ZM34.614 137.868L44.3361 132.252L43.8539 131.426L34.1317 137.042L34.614 137.868ZM54.0583 126.623L63.7804 121.007L63.2981 120.181L53.576 125.797L54.0583 126.623ZM73.5026 115.391L83.2247 109.775L82.7424 108.949L73.0203 114.565L73.5026 115.391ZM92.9469 104.147L102.669 98.5306L102.187 97.7047L92.4646 103.321L92.9469 104.147ZM112.404 92.9146L122.126 87.2986L121.644 86.4728L111.921 92.0887L112.404 92.9146Z" fill="#50DBD9"/>
<path d="M136.346 77.9503L136.822 78.7756L131.876 81.6344L131.4 80.8092L136.346 77.9503Z" fill="#50DBD9"/>
</svg>
