<svg width="910" height="480" viewBox="0 0 910 480" fill="none" xmlns="http://www.w3.org/2000/svg">
<g clip-path="url(#clip0_1018_6866)">
<rect width="910" height="480" fill="#630D09"/>
<path d="M308.67 0.319824V4.81982" stroke="white" stroke-width="0.75" stroke-miterlimit="10"/>
<path d="M308.67 13.3799V145.97" stroke="white" stroke-width="0.75" stroke-miterlimit="10" stroke-dasharray="8.55 8.55"/>
<path d="M308.67 150.24V154.74" stroke="white" stroke-width="0.75" stroke-miterlimit="10"/>
<path d="M308.671 154.74L304.771 152.49" stroke="white" stroke-width="0.75" stroke-miterlimit="10"/>
<path d="M296.63 147.79L170.41 74.9199" stroke="white" stroke-width="0.75" stroke-miterlimit="10" stroke-dasharray="9.4 9.4"/>
<path d="M166.34 72.5698L162.45 70.3198" stroke="white" stroke-width="0.75" stroke-miterlimit="10"/>
<path d="M308.671 154.74L304.771 156.99" stroke="white" stroke-width="0.75" stroke-miterlimit="10"/>
<path d="M296.63 161.7L170.41 234.57" stroke="white" stroke-width="0.75" stroke-miterlimit="10" stroke-dasharray="9.4 9.4"/>
<path d="M166.34 236.92L162.45 239.17" stroke="white" stroke-width="0.75" stroke-miterlimit="10"/>
<path d="M308.67 154.74V159.24" stroke="white" stroke-width="0.75" stroke-miterlimit="10"/>
<path d="M308.67 168.65V314.39" stroke="white" stroke-width="0.75" stroke-miterlimit="10" stroke-dasharray="9.4 9.4"/>
<path d="M308.67 319.09V323.59" stroke="white" stroke-width="0.75" stroke-miterlimit="10"/>
<path d="M308.671 323.59L304.771 321.34" stroke="white" stroke-width="0.75" stroke-miterlimit="10"/>
<path d="M296.63 316.64L170.41 243.77" stroke="white" stroke-width="0.75" stroke-miterlimit="10" stroke-dasharray="9.4 9.4"/>
<path d="M166.34 241.42L162.45 239.17" stroke="white" stroke-width="0.75" stroke-miterlimit="10"/>
<path d="M308.671 323.59L304.771 325.84" stroke="white" stroke-width="0.75" stroke-miterlimit="10"/>
<path d="M296.63 330.54L170.41 403.41" stroke="white" stroke-width="0.75" stroke-miterlimit="10" stroke-dasharray="9.4 9.4"/>
<path d="M166.34 405.76L162.45 408.01" stroke="white" stroke-width="0.75" stroke-miterlimit="10"/>
<path d="M308.671 323.59L304.771 325.84" stroke="white" stroke-width="0.75" stroke-miterlimit="10"/>
<path d="M296.63 330.54L170.41 403.41" stroke="white" stroke-width="0.75" stroke-miterlimit="10" stroke-dasharray="9.4 9.4"/>
<path d="M166.34 405.76L162.45 408.01" stroke="white" stroke-width="0.75" stroke-miterlimit="10"/>
<path d="M308.67 323.59V328.09" stroke="white" stroke-width="0.75" stroke-miterlimit="10"/>
<path d="M308.67 336.8V471.81" stroke="white" stroke-width="0.75" stroke-miterlimit="10" stroke-dasharray="8.71 8.71"/>
<path d="M308.67 476.17V480.67" stroke="white" stroke-width="0.75" stroke-miterlimit="10"/>
<path d="M574.459 1.29004L570.569 3.54004" stroke="white" stroke-width="0.75" stroke-miterlimit="10"/>
<path d="M563.11 7.83984L462.51 65.9198" stroke="white" stroke-width="0.75" stroke-miterlimit="10" stroke-dasharray="8.6 8.6"/>
<path d="M458.79 68.0701L454.89 70.3201" stroke="white" stroke-width="0.75" stroke-miterlimit="10"/>
<path d="M601.109 0.879883V5.37988" stroke="white" stroke-width="0.75" stroke-miterlimit="10"/>
<path d="M601.109 13.8999V145.98" stroke="white" stroke-width="0.75" stroke-miterlimit="10" stroke-dasharray="8.52 8.52"/>
<path d="M601.109 150.24V154.74" stroke="white" stroke-width="0.75" stroke-miterlimit="10"/>
<path d="M601.11 154.74L597.22 152.49" stroke="white" stroke-width="0.75" stroke-miterlimit="10"/>
<path d="M589.069 147.79L462.859 74.9199" stroke="white" stroke-width="0.75" stroke-miterlimit="10" stroke-dasharray="9.4 9.4"/>
<path d="M458.79 72.5698L454.89 70.3198" stroke="white" stroke-width="0.75" stroke-miterlimit="10"/>
<path d="M601.11 154.74L597.22 156.99" stroke="white" stroke-width="0.75" stroke-miterlimit="10"/>
<path d="M589.069 161.7L462.859 234.57" stroke="white" stroke-width="0.75" stroke-miterlimit="10" stroke-dasharray="9.4 9.4"/>
<path d="M458.79 236.92L454.89 239.17" stroke="white" stroke-width="0.75" stroke-miterlimit="10"/>
<path d="M601.11 154.74L597.22 156.99" stroke="white" stroke-width="0.75" stroke-miterlimit="10"/>
<path d="M589.069 161.7L462.859 234.57" stroke="white" stroke-width="0.75" stroke-miterlimit="10" stroke-dasharray="9.4 9.4"/>
<path d="M458.79 236.92L454.89 239.17" stroke="white" stroke-width="0.75" stroke-miterlimit="10"/>
<path d="M601.109 154.74V159.24" stroke="white" stroke-width="0.75" stroke-miterlimit="10"/>
<path d="M601.109 168.65V314.39" stroke="white" stroke-width="0.75" stroke-miterlimit="10" stroke-dasharray="9.4 9.4"/>
<path d="M601.109 319.09V323.59" stroke="white" stroke-width="0.75" stroke-miterlimit="10"/>
<path d="M601.11 323.59L597.22 321.34" stroke="white" stroke-width="0.75" stroke-miterlimit="10"/>
<path d="M589.069 316.64L462.859 243.77" stroke="white" stroke-width="0.75" stroke-miterlimit="10" stroke-dasharray="9.4 9.4"/>
<path d="M458.79 241.42L454.89 239.17" stroke="white" stroke-width="0.75" stroke-miterlimit="10"/>
<path d="M601.11 323.59L597.22 325.84" stroke="white" stroke-width="0.75" stroke-miterlimit="10"/>
<path d="M589.069 330.54L462.859 403.41" stroke="white" stroke-width="0.75" stroke-miterlimit="10" stroke-dasharray="9.4 9.4"/>
<path d="M458.79 405.76L454.89 408.01" stroke="white" stroke-width="0.75" stroke-miterlimit="10"/>
<path d="M601.11 323.59L597.22 325.84" stroke="white" stroke-width="0.75" stroke-miterlimit="10"/>
<path d="M589.069 330.54L462.859 403.41" stroke="white" stroke-width="0.75" stroke-miterlimit="10" stroke-dasharray="9.4 9.4"/>
<path d="M458.79 405.76L454.89 408.01" stroke="white" stroke-width="0.75" stroke-miterlimit="10"/>
<path d="M601.109 323.59V328.09" stroke="white" stroke-width="0.75" stroke-miterlimit="10"/>
<path d="M601.109 336.8V471.81" stroke="white" stroke-width="0.75" stroke-miterlimit="10" stroke-dasharray="8.71 8.71"/>
<path d="M601.109 476.17V480.67" stroke="white" stroke-width="0.75" stroke-miterlimit="10"/>
<path d="M578.48 479.36L574.58 477.11" stroke="white" stroke-width="0.75" stroke-miterlimit="10"/>
<path d="M566.859 472.66L462.649 412.49" stroke="white" stroke-width="0.75" stroke-miterlimit="10" stroke-dasharray="8.91 8.91"/>
<path d="M458.79 410.26L454.89 408.01" stroke="white" stroke-width="0.75" stroke-miterlimit="10"/>
<path d="M866.91 1.29004L863.01 3.54004" stroke="white" stroke-width="0.75" stroke-miterlimit="10"/>
<path d="M855.56 7.83984L754.96 65.9198" stroke="white" stroke-width="0.75" stroke-miterlimit="10" stroke-dasharray="8.6 8.6"/>
<path d="M751.23 68.0701L747.33 70.3201" stroke="white" stroke-width="0.75" stroke-miterlimit="10"/>
<path d="M893.56 154.74L889.66 156.99" stroke="white" stroke-width="0.75" stroke-miterlimit="10"/>
<path d="M881.521 161.7L755.301 234.57" stroke="white" stroke-width="0.75" stroke-miterlimit="10" stroke-dasharray="9.4 9.4"/>
<path d="M751.23 236.92L747.33 239.17" stroke="white" stroke-width="0.75" stroke-miterlimit="10"/>
<path d="M893.56 154.74L889.66 156.99" stroke="white" stroke-width="0.75" stroke-miterlimit="10"/>
<path d="M881.521 161.7L755.301 234.57" stroke="white" stroke-width="0.75" stroke-miterlimit="10" stroke-dasharray="9.4 9.4"/>
<path d="M751.23 236.92L747.33 239.17" stroke="white" stroke-width="0.75" stroke-miterlimit="10"/>
<path d="M893.56 323.59L889.66 321.34" stroke="white" stroke-width="0.75" stroke-miterlimit="10"/>
<path d="M881.521 316.64L755.301 243.77" stroke="white" stroke-width="0.75" stroke-miterlimit="10" stroke-dasharray="9.4 9.4"/>
<path d="M751.23 241.42L747.33 239.17" stroke="white" stroke-width="0.75" stroke-miterlimit="10"/>
<path d="M873.32 480.74L869.42 478.49" stroke="white" stroke-width="0.75" stroke-miterlimit="10"/>
<path d="M861.54 473.95L755.17 412.53" stroke="white" stroke-width="0.75" stroke-miterlimit="10" stroke-dasharray="9.1 9.1"/>
<path d="M751.23 410.26L747.33 408.01" stroke="white" stroke-width="0.75" stroke-miterlimit="10"/>
<path d="M16.2201 154.74L12.3301 152.49" stroke="white" stroke-width="0.75" stroke-miterlimit="10"/>
<path d="M4.18021 147.79L-122.03 74.9199" stroke="white" stroke-width="0.75" stroke-miterlimit="10" stroke-dasharray="9.4 9.4"/>
<path d="M16.2201 323.59L12.3301 325.84" stroke="white" stroke-width="0.75" stroke-miterlimit="10"/>
<path d="M4.18021 330.54L-122.03 403.41" stroke="white" stroke-width="0.75" stroke-miterlimit="10" stroke-dasharray="9.4 9.4"/>
<path d="M162.45 70.4099L158.55 68.1599" stroke="white" stroke-width="0.75" stroke-miterlimit="10"/>
<path d="M150.98 63.7798L48.7402 4.75977" stroke="white" stroke-width="0.75" stroke-miterlimit="10" stroke-dasharray="8.74 8.74"/>
<path d="M44.9601 2.56982L41.0601 0.319824" stroke="white" stroke-width="0.75" stroke-miterlimit="10"/>
<path d="M162.45 239.25L158.55 237" stroke="white" stroke-width="0.75" stroke-miterlimit="10"/>
<path d="M150.41 232.3L24.1904 159.43" stroke="white" stroke-width="0.75" stroke-miterlimit="10" stroke-dasharray="9.4 9.4"/>
<path d="M20.1202 157.08L16.2202 154.83" stroke="white" stroke-width="0.75" stroke-miterlimit="10"/>
<path d="M162.45 239.25L158.55 241.5" stroke="white" stroke-width="0.75" stroke-miterlimit="10"/>
<path d="M150.41 246.2L24.1904 319.07" stroke="white" stroke-width="0.75" stroke-miterlimit="10" stroke-dasharray="9.4 9.4"/>
<path d="M20.1202 321.42L16.2202 323.67" stroke="white" stroke-width="0.75" stroke-miterlimit="10"/>
<path d="M162.45 408.09L158.55 410.34" stroke="white" stroke-width="0.75" stroke-miterlimit="10"/>
<path d="M150.72 414.86L45.0703 475.86" stroke="white" stroke-width="0.75" stroke-miterlimit="10" stroke-dasharray="9.04 9.04"/>
<path d="M41.1503 478.12L37.2603 480.37" stroke="white" stroke-width="0.75" stroke-miterlimit="10"/>
<path d="M454.89 70.4099L450.99 68.1599" stroke="white" stroke-width="0.75" stroke-miterlimit="10"/>
<path d="M443.42 63.7798L341.19 4.75977" stroke="white" stroke-width="0.75" stroke-miterlimit="10" stroke-dasharray="8.74 8.74"/>
<path d="M337.4 2.56982L333.5 0.319824" stroke="white" stroke-width="0.75" stroke-miterlimit="10"/>
<path d="M454.89 70.4099L450.99 72.6599" stroke="white" stroke-width="0.75" stroke-miterlimit="10"/>
<path d="M442.85 77.3599L316.64 150.23" stroke="white" stroke-width="0.75" stroke-miterlimit="10" stroke-dasharray="9.4 9.4"/>
<path d="M312.56 152.58L308.67 154.83" stroke="white" stroke-width="0.75" stroke-miterlimit="10"/>
<path d="M454.89 70.4099L450.99 72.6599" stroke="white" stroke-width="0.75" stroke-miterlimit="10"/>
<path d="M442.85 77.3599L316.64 150.23" stroke="white" stroke-width="0.75" stroke-miterlimit="10" stroke-dasharray="9.4 9.4"/>
<path d="M312.56 152.58L308.67 154.83" stroke="white" stroke-width="0.75" stroke-miterlimit="10"/>
<path d="M454.89 70.4099V74.9099" stroke="white" stroke-width="0.75" stroke-miterlimit="10"/>
<path d="M454.89 84.3098V230.05" stroke="white" stroke-width="0.75" stroke-miterlimit="10" stroke-dasharray="9.4 9.4"/>
<path d="M454.89 234.75V239.25" stroke="white" stroke-width="0.75" stroke-miterlimit="10"/>
<path d="M454.89 239.25L450.99 237" stroke="white" stroke-width="0.75" stroke-miterlimit="10"/>
<path d="M442.85 232.3L316.64 159.43" stroke="white" stroke-width="0.75" stroke-miterlimit="10" stroke-dasharray="9.4 9.4"/>
<path d="M312.56 157.08L308.67 154.83" stroke="white" stroke-width="0.75" stroke-miterlimit="10"/>
<path d="M454.89 239.25L450.99 241.5" stroke="white" stroke-width="0.75" stroke-miterlimit="10"/>
<path d="M442.85 246.2L316.64 319.07" stroke="white" stroke-width="0.75" stroke-miterlimit="10" stroke-dasharray="9.4 9.4"/>
<path d="M312.56 321.42L308.67 323.67" stroke="white" stroke-width="0.75" stroke-miterlimit="10"/>
<path d="M454.89 239.25L450.99 241.5" stroke="white" stroke-width="0.75" stroke-miterlimit="10"/>
<path d="M442.85 246.2L316.64 319.07" stroke="white" stroke-width="0.75" stroke-miterlimit="10" stroke-dasharray="9.4 9.4"/>
<path d="M312.56 321.42L308.67 323.67" stroke="white" stroke-width="0.75" stroke-miterlimit="10"/>
<path d="M454.89 239.25V243.75" stroke="white" stroke-width="0.75" stroke-miterlimit="10"/>
<path d="M454.89 253.15V398.89" stroke="white" stroke-width="0.75" stroke-miterlimit="10" stroke-dasharray="9.4 9.4"/>
<path d="M454.89 403.59V408.09" stroke="white" stroke-width="0.75" stroke-miterlimit="10"/>
<path d="M454.89 408.09L450.99 405.84" stroke="white" stroke-width="0.75" stroke-miterlimit="10"/>
<path d="M442.85 401.14L316.64 328.27" stroke="white" stroke-width="0.75" stroke-miterlimit="10" stroke-dasharray="9.4 9.4"/>
<path d="M312.56 325.92L308.67 323.67" stroke="white" stroke-width="0.75" stroke-miterlimit="10"/>
<path d="M454.889 408.09L450.989 410.34" stroke="white" stroke-width="0.75" stroke-miterlimit="10"/>
<path d="M443.179 414.85L337.729 475.73" stroke="white" stroke-width="0.75" stroke-miterlimit="10" stroke-dasharray="9.02 9.02"/>
<path d="M333.83 477.99L329.93 480.24" stroke="white" stroke-width="0.75" stroke-miterlimit="10"/>
<path d="M747.33 70.4099L743.44 72.6599" stroke="white" stroke-width="0.75" stroke-miterlimit="10"/>
<path d="M735.29 77.3599L609.08 150.23" stroke="white" stroke-width="0.75" stroke-miterlimit="10" stroke-dasharray="9.4 9.4"/>
<path d="M605.01 152.58L601.11 154.83" stroke="white" stroke-width="0.75" stroke-miterlimit="10"/>
<path d="M747.33 70.4099L743.44 72.6599" stroke="white" stroke-width="0.75" stroke-miterlimit="10"/>
<path d="M735.29 77.3599L609.08 150.23" stroke="white" stroke-width="0.75" stroke-miterlimit="10" stroke-dasharray="9.4 9.4"/>
<path d="M605.01 152.58L601.11 154.83" stroke="white" stroke-width="0.75" stroke-miterlimit="10"/>
<path d="M747.33 239.25L743.44 237" stroke="white" stroke-width="0.75" stroke-miterlimit="10"/>
<path d="M735.29 232.3L609.08 159.43" stroke="white" stroke-width="0.75" stroke-miterlimit="10" stroke-dasharray="9.4 9.4"/>
<path d="M605.01 157.08L601.11 154.83" stroke="white" stroke-width="0.75" stroke-miterlimit="10"/>
<path d="M747.33 239.25L743.44 241.5" stroke="white" stroke-width="0.75" stroke-miterlimit="10"/>
<path d="M735.29 246.2L609.08 319.07" stroke="white" stroke-width="0.75" stroke-miterlimit="10" stroke-dasharray="9.4 9.4"/>
<path d="M605.01 321.42L601.11 323.67" stroke="white" stroke-width="0.75" stroke-miterlimit="10"/>
<path d="M747.33 239.25L743.44 241.5" stroke="white" stroke-width="0.75" stroke-miterlimit="10"/>
<path d="M735.29 246.2L609.08 319.07" stroke="white" stroke-width="0.75" stroke-miterlimit="10" stroke-dasharray="9.4 9.4"/>
<path d="M605.01 321.42L601.11 323.67" stroke="white" stroke-width="0.75" stroke-miterlimit="10"/>
<path d="M747.33 408.09L743.44 405.84" stroke="white" stroke-width="0.75" stroke-miterlimit="10"/>
<path d="M735.29 401.14L609.08 328.27" stroke="white" stroke-width="0.75" stroke-miterlimit="10" stroke-dasharray="9.4 9.4"/>
<path d="M605.01 325.92L601.11 323.67" stroke="white" stroke-width="0.75" stroke-miterlimit="10"/>
<path d="M1027.74 77.3599L901.529 150.23" stroke="white" stroke-width="0.75" stroke-miterlimit="10" stroke-dasharray="9.4 9.4"/>
<path d="M897.45 152.58L893.56 154.83" stroke="white" stroke-width="0.75" stroke-miterlimit="10"/>
<path d="M1027.74 77.3599L901.529 150.23" stroke="white" stroke-width="0.75" stroke-miterlimit="10" stroke-dasharray="9.4 9.4"/>
<path d="M897.45 152.58L893.56 154.83" stroke="white" stroke-width="0.75" stroke-miterlimit="10"/>
<path d="M1027.74 401.14L901.529 328.27" stroke="white" stroke-width="0.75" stroke-miterlimit="10" stroke-dasharray="9.4 9.4"/>
<path d="M897.45 325.92L893.56 323.67" stroke="white" stroke-width="0.75" stroke-miterlimit="10"/>
<path d="M454.89 69.7698L308.11 154.51L454.89 239.25L601.67 154.51L454.89 69.7698Z" fill="#509DEA"/>
<path d="M454.891 239.25V408.73L601.671 323.99V154.51L454.891 239.25Z" fill="#2C80CE"/>
<path d="M308.11 154.51V323.99L454.89 408.73V239.25L308.11 154.51Z" fill="#10487B"/>
</g>
<defs>
<clipPath id="clip0_1018_6866">
<rect width="910" height="480" fill="white"/>
</clipPath>
</defs>
</svg>
