<svg width="910" height="480" viewBox="0 0 910 480" fill="none" xmlns="http://www.w3.org/2000/svg">
<g clip-path="url(#clip0_1018_11745)">
<rect width="910" height="480" fill="#0D3152"/>
<g clip-path="url(#clip1_1018_11745)">
<path d="M511 -33.2902L444.54 5.07985L378.08 -33.2902L444.54 -71.6602L511 -33.2902Z" fill="#0D3152" stroke="white" stroke-width="0.5" stroke-linecap="round" stroke-linejoin="round"/>
<path d="M511 43.46L444.54 81.83V5.07996L511 -33.29V43.46Z" fill="#0D3152" stroke="white" stroke-width="0.5" stroke-linecap="round" stroke-linejoin="round"/>
<path d="M444.54 5.07996V81.83L378.08 43.46V-33.29L444.54 5.07996Z" fill="#0D3152" stroke="white" stroke-width="0.5" stroke-linecap="round" stroke-linejoin="round"/>
<path d="M427.91 14.6698L361.45 53.0398L294.99 14.6698L361.45 -23.7002L427.91 14.6698Z" fill="#0D3152" stroke="white" stroke-width="0.5" stroke-linecap="round" stroke-linejoin="round"/>
<path d="M427.91 91.4199L361.45 129.79L361.46 53.0399L427.91 14.6699V91.4199Z" fill="#0D3152" stroke="white" stroke-width="0.5" stroke-linecap="round" stroke-linejoin="round"/>
<path d="M361.46 53.0399L361.45 129.79L294.99 91.4199V14.6699L361.46 53.0399Z" fill="#0D3152" stroke="white" stroke-width="0.5" stroke-linecap="round" stroke-linejoin="round"/>
<path d="M511 -33.38L444.54 4.99L378.08 -33.38L444.54 -71.75L511 -33.38Z" fill="#0D3152" stroke="white" stroke-width="0.5" stroke-linecap="round" stroke-linejoin="round"/>
<path d="M511 43.3701L444.54 81.7401V4.99012L511 -33.3799V43.3701Z" fill="#0D3152" stroke="white" stroke-width="0.5" stroke-linecap="round" stroke-linejoin="round"/>
<path d="M444.54 4.99012V81.7401L378.08 43.3701V-33.3799L444.54 4.99012Z" fill="#0D3152" stroke="white" stroke-width="0.5" stroke-linecap="round" stroke-linejoin="round"/>
<path d="M594.09 14.6698L527.63 53.0398L461.16 14.6698L527.62 -23.7002L594.09 14.6698Z" fill="#0D3152" stroke="white" stroke-width="0.5" stroke-linecap="round" stroke-linejoin="round"/>
<path d="M594.09 91.4199L527.62 129.79L527.63 53.0399L594.09 14.6699V91.4199Z" fill="#0D3152" stroke="white" stroke-width="0.5" stroke-linecap="round" stroke-linejoin="round"/>
<path d="M527.63 53.0399L527.62 129.79L461.16 91.4199V14.6699L527.63 53.0399Z" fill="#0D3152" stroke="white" stroke-width="0.5" stroke-linecap="round" stroke-linejoin="round"/>
<path d="M594.07 14.6698L527.61 53.0398L461.15 14.6698L527.61 -23.7002L594.07 14.6698Z" fill="#0D3152" stroke="white" stroke-width="0.5" stroke-linecap="round" stroke-linejoin="round"/>
<path d="M594.07 91.4099L527.61 129.78L527.62 53.0399L594.07 14.6699V91.4099Z" fill="#0D3152" stroke="white" stroke-width="0.5" stroke-linecap="round" stroke-linejoin="round"/>
<path d="M527.62 53.0399L527.61 129.78L461.15 91.4099V14.6699L527.62 53.0399Z" fill="#0D3152" stroke="white" stroke-width="0.5" stroke-linecap="round" stroke-linejoin="round"/>
<path d="M427.92 14.6598L361.46 53.0298L295 14.6698L361.46 -23.7002L427.92 14.6598Z" fill="#0D3152" stroke="white" stroke-width="0.5" stroke-linecap="round" stroke-linejoin="round"/>
<path d="M427.92 91.4097L361.46 129.78L361.47 53.0297L427.92 14.6597V91.4097Z" fill="#0D3152" stroke="white" stroke-width="0.5" stroke-linecap="round" stroke-linejoin="round"/>
<path d="M361.47 53.0299L361.46 129.78L295 91.4099V14.6699L361.47 53.0299Z" fill="#0D3152" stroke="white" stroke-width="0.5" stroke-linecap="round" stroke-linejoin="round"/>
<path d="M511 32.62L444.54 70.99L378.08 32.62L444.54 -5.75L511 32.62Z" fill="#0D3152" stroke="white" stroke-width="0.5" stroke-linecap="round" stroke-linejoin="round"/>
<path d="M511 109.37L444.54 147.74V70.9901L511 32.6201V109.37Z" fill="#0D3152" stroke="white" stroke-width="0.5" stroke-linecap="round" stroke-linejoin="round"/>
<path d="M444.54 70.9901V147.74L378.08 109.37V32.6201L444.54 70.9901Z" fill="#0D3152" stroke="white" stroke-width="0.5" stroke-linecap="round" stroke-linejoin="round"/>
<path d="M677.16 158.29L610.7 196.66L544.24 158.29L610.7 119.92L677.16 158.29Z" fill="#0D3152" stroke="white" stroke-width="0.5" stroke-linecap="round" stroke-linejoin="round"/>
<path d="M677.16 235.03L610.7 273.41V196.66L677.16 158.29V235.03Z" fill="#0D3152" stroke="white" stroke-width="0.5" stroke-linecap="round" stroke-linejoin="round"/>
<path d="M610.7 196.66V273.41L544.24 235.04V158.29L610.7 196.66Z" fill="#0D3152" stroke="white" stroke-width="0.5" stroke-linecap="round" stroke-linejoin="round"/>
<path d="M594.07 302.27L527.61 340.64L461.15 302.27L527.61 263.9L594.07 302.27Z" fill="#0D3152" stroke="white" stroke-width="0.5" stroke-linecap="round" stroke-linejoin="round"/>
<path d="M594.07 379.02L527.61 417.39L527.62 340.64L594.07 302.27V379.02Z" fill="#0D3152" stroke="white" stroke-width="0.5" stroke-linecap="round" stroke-linejoin="round"/>
<path d="M527.62 340.64L527.61 417.39L461.15 379.02V302.27L527.62 340.64Z" fill="#0D3152" stroke="white" stroke-width="0.5" stroke-linecap="round" stroke-linejoin="round"/>
<path d="M594.07 206.26L527.61 244.64L461.15 206.27L527.61 167.9L594.07 206.26Z" fill="#0D3152" stroke="white" stroke-width="0.5" stroke-linecap="round" stroke-linejoin="round"/>
<path d="M594.07 283.01L527.61 321.38L527.62 244.64L594.07 206.26V283.01Z" fill="#0D3152" stroke="white" stroke-width="0.5" stroke-linecap="round" stroke-linejoin="round"/>
<path d="M527.62 244.64L527.61 321.38L461.15 283.01V206.27L527.62 244.64Z" fill="#0D3152" stroke="white" stroke-width="0.5" stroke-linecap="round" stroke-linejoin="round"/>
<path d="M706.69 45.3998L640.23 83.7698L573.77 45.3998L640.23 7.02979L706.69 45.3998Z" fill="#0D3152" stroke="white" stroke-width="0.5" stroke-linecap="round" stroke-linejoin="round"/>
<path d="M706.689 122.15L640.229 160.52V83.7699L706.689 45.3999V122.15Z" fill="#0D3152" stroke="white" stroke-width="0.5" stroke-linecap="round" stroke-linejoin="round"/>
<path d="M640.23 83.7699V160.52L573.77 122.15V45.3999L640.23 83.7699Z" fill="#0D3152" stroke="white" stroke-width="0.5" stroke-linecap="round" stroke-linejoin="round"/>
<path d="M344.84 253.84L278.38 292.21L211.92 253.84L278.38 215.47L344.84 253.84Z" fill="#0D3152" stroke="white" stroke-width="0.5" stroke-linecap="round" stroke-linejoin="round"/>
<path d="M344.84 330.59L278.38 368.96V292.21L344.84 253.84V330.59Z" fill="#0D3152" stroke="white" stroke-width="0.5" stroke-linecap="round" stroke-linejoin="round"/>
<path d="M278.38 292.21V368.96L211.92 330.59V253.84L278.38 292.21Z" fill="#0D3152" stroke="white" stroke-width="0.5" stroke-linecap="round" stroke-linejoin="round"/>
<path d="M312.17 175.96L245.71 214.33L179.25 175.97L245.71 137.6L312.17 175.96Z" fill="#0D3152" stroke="white" stroke-width="0.5" stroke-linecap="round" stroke-linejoin="round"/>
<path d="M312.17 252.71L245.71 291.08V214.33L312.17 175.96V252.71Z" fill="#0D3152" stroke="white" stroke-width="0.5" stroke-linecap="round" stroke-linejoin="round"/>
<path d="M245.71 214.33V291.08L179.25 252.71V175.97L245.71 214.33Z" fill="#0D3152" stroke="white" stroke-width="0.5" stroke-linecap="round" stroke-linejoin="round"/>
<path d="M344.84 61.9198L278.38 100.29L211.92 61.9198L278.38 23.5498L344.84 61.9198Z" fill="#0D3152" stroke="white" stroke-width="0.5" stroke-linecap="round" stroke-linejoin="round"/>
<path d="M344.84 138.66L278.38 177.03V100.29L344.84 61.9199V138.66Z" fill="#0D3152" stroke="white" stroke-width="0.5" stroke-linecap="round" stroke-linejoin="round"/>
<path d="M278.38 100.29V177.03L211.92 138.66V61.9199L278.38 100.29Z" fill="#0D3152" stroke="white" stroke-width="0.5" stroke-linecap="round" stroke-linejoin="round"/>
<path d="M344.84 62.2499L278.38 100.62L211.92 62.2499L278.38 23.8799L344.84 62.2499Z" fill="#0D3152" stroke="white" stroke-width="0.5" stroke-linecap="round" stroke-linejoin="round"/>
<path d="M344.84 138.99L278.38 177.37V100.62L344.84 62.25V138.99Z" fill="#0D3152" stroke="white" stroke-width="0.5" stroke-linecap="round" stroke-linejoin="round"/>
<path d="M278.38 100.62V177.37L211.92 139V62.25L278.38 100.62Z" fill="#0D3152" stroke="white" stroke-width="0.5" stroke-linecap="round" stroke-linejoin="round"/>
<path d="M762.5 303.53L696.04 341.9L629.58 303.53L696.04 265.16L762.5 303.53Z" fill="#0D3152" stroke="white" stroke-width="0.5" stroke-linecap="round" stroke-linejoin="round"/>
<path d="M762.5 380.27L696.04 418.64V341.9L762.5 303.53V380.27Z" fill="#0D3152" stroke="white" stroke-width="0.5" stroke-linecap="round" stroke-linejoin="round"/>
<path d="M696.04 341.9V418.64L629.58 380.28V303.53L696.04 341.9Z" fill="#0D3152" stroke="white" stroke-width="0.5" stroke-linecap="round" stroke-linejoin="round"/>
<path d="M427.92 302.27L361.46 340.64L295 302.27L361.46 263.9L427.92 302.27Z" fill="#0D3152" stroke="white" stroke-width="0.5" stroke-linecap="round" stroke-linejoin="round"/>
<path d="M427.92 379.01L361.46 417.39L361.47 340.64L427.92 302.27V379.01Z" fill="#0D3152" stroke="white" stroke-width="0.5" stroke-linecap="round" stroke-linejoin="round"/>
<path d="M361.47 340.64L361.46 417.39L295 379.02V302.27L361.47 340.64Z" fill="#0D3152" stroke="white" stroke-width="0.5" stroke-linecap="round" stroke-linejoin="round"/>
<path d="M427.92 206.26L361.46 244.63L295 206.26L361.46 167.89L427.92 206.26Z" fill="#0D3152" stroke="white" stroke-width="0.5" stroke-linecap="round" stroke-linejoin="round"/>
<path d="M427.92 283.01L361.46 321.38L361.47 244.63L427.92 206.26V283.01Z" fill="#0D3152" stroke="white" stroke-width="0.5" stroke-linecap="round" stroke-linejoin="round"/>
<path d="M361.47 244.63L361.46 321.38L295 283.01V206.26L361.47 244.63Z" fill="#0D3152" stroke="white" stroke-width="0.5" stroke-linecap="round" stroke-linejoin="round"/>
<path d="M511 350.23L444.54 388.6L378.08 350.23L444.54 311.86L511 350.23Z" fill="#F35048"/>
<path d="M511 426.97L444.54 465.34V388.6L511 350.23V426.97Z" fill="#DC150B"/>
<path d="M444.54 388.6V465.34L378.08 426.97V350.23L444.54 388.6Z" fill="#630D09"/>
<path d="M511 254.22L444.54 292.59L378.08 254.22L444.54 215.85L511 254.22Z" fill="#0D3152" stroke="white" stroke-width="0.5" stroke-linecap="round" stroke-linejoin="round"/>
<path d="M511 330.96L444.54 369.34V292.59L511 254.22V330.96Z" fill="#0D3152" stroke="white" stroke-width="0.5" stroke-linecap="round" stroke-linejoin="round"/>
<path d="M444.54 292.59V369.34L378.08 330.97V254.22L444.54 292.59Z" fill="#0D3152" stroke="white" stroke-width="0.5" stroke-linecap="round" stroke-linejoin="round"/>
<path d="M427.92 110.34L361.46 148.72L295 110.35L361.46 71.98L427.92 110.34Z" fill="#0D3152" stroke="white" stroke-width="0.5" stroke-linecap="round" stroke-linejoin="round"/>
<path d="M427.92 187.09L361.46 225.46L361.47 148.72L427.92 110.34V187.09Z" fill="#0D3152" stroke="white" stroke-width="0.5" stroke-linecap="round" stroke-linejoin="round"/>
<path d="M361.47 148.72L361.46 225.46L295 187.09V110.35L361.47 148.72Z" fill="#0D3152" stroke="white" stroke-width="0.5" stroke-linecap="round" stroke-linejoin="round"/>
<path d="M594.07 110.35L527.61 148.72L461.15 110.35L527.61 71.98L594.07 110.35Z" fill="#0D3152" stroke="white" stroke-width="0.5" stroke-linecap="round" stroke-linejoin="round"/>
<path d="M594.07 187.09L527.61 225.46L527.62 148.72L594.07 110.35V187.09Z" fill="#0D3152" stroke="white" stroke-width="0.5" stroke-linecap="round" stroke-linejoin="round"/>
<path d="M527.62 148.72L527.61 225.46L461.15 187.1V110.35L527.62 148.72Z" fill="#0D3152" stroke="white" stroke-width="0.5" stroke-linecap="round" stroke-linejoin="round"/>
<path d="M511 158.3L444.54 196.67L378.08 158.3L444.54 119.93L511 158.3Z" fill="#0D3152" stroke="white" stroke-width="0.5" stroke-linecap="round" stroke-linejoin="round"/>
<path d="M511 235.05L444.54 273.42V196.67L511 158.3V235.05Z" fill="#0D3152" stroke="white" stroke-width="0.5" stroke-linecap="round" stroke-linejoin="round"/>
<path d="M444.54 196.67V273.42L378.08 235.05V158.3L444.54 196.67Z" fill="#0D3152" stroke="white" stroke-width="0.5" stroke-linecap="round" stroke-linejoin="round"/>
</g>
</g>
<defs>
<clipPath id="clip0_1018_11745">
<rect width="910" height="480" fill="white"/>
</clipPath>
<clipPath id="clip1_1018_11745">
<rect width="583.75" height="537.34" fill="white" transform="translate(179 -72)"/>
</clipPath>
</defs>
</svg>
