<svg width="910" height="480" viewBox="0 0 910 480" fill="none" xmlns="http://www.w3.org/2000/svg">
<g clip-path="url(#clip0_1018_11595)">
<rect width="910" height="480" fill="#3C174C"/>
<g clip-path="url(#clip1_1018_11595)">
<path d="M981.583 -7.10303L870.731 56.9487L759.878 -7.10303L870.731 -71.1548L981.583 -7.10303Z" fill="#3C174C" stroke="white" stroke-width="0.5" stroke-linecap="round" stroke-linejoin="round"/>
<path d="M981.583 121L870.73 185.052V56.9487L981.583 -7.10303V121Z" fill="#3C174C" stroke="white" stroke-width="0.5" stroke-linecap="round" stroke-linejoin="round"/>
<path d="M870.731 56.9487V185.052L759.878 121.017V-7.10303L870.731 56.9487Z" fill="#3C174C" stroke="white" stroke-width="0.5" stroke-linecap="round" stroke-linejoin="round"/>
<path d="M981.583 -39.2543L870.73 24.7974V-103.323L981.583 -167.375V-39.2543Z" fill="#3C174C" stroke="white" stroke-width="0.5" stroke-linecap="round" stroke-linejoin="round"/>
<path d="M870.731 -103.323V24.7974L759.878 -39.2543V-167.375L870.731 -103.323Z" fill="#3C174C" stroke="white" stroke-width="0.5" stroke-linecap="round" stroke-linejoin="round"/>
<path d="M842.992 72.707L732.14 136.759L621.287 72.707L732.14 8.65527L842.992 72.707Z" fill="#3C174C" stroke="white" stroke-width="0.5" stroke-linecap="round" stroke-linejoin="round"/>
<path d="M842.992 200.811L732.14 264.862V136.759L842.992 72.707V200.811Z" fill="#3C174C" stroke="white" stroke-width="0.5" stroke-linecap="round" stroke-linejoin="round"/>
<path d="M732.14 136.759V264.862L621.287 200.811V72.707L732.14 136.759Z" fill="#3C174C" stroke="white" stroke-width="0.5" stroke-linecap="round" stroke-linejoin="round"/>
<path d="M842.992 40.5558L732.14 104.607V-23.5127L842.992 -87.5645V40.5558Z" fill="#3C174C" stroke="white" stroke-width="0.5" stroke-linecap="round" stroke-linejoin="round"/>
<path d="M732.14 -23.5127V104.607L621.287 40.5558V-87.5645L732.14 -23.5127Z" fill="#3C174C" stroke="white" stroke-width="0.5" stroke-linecap="round" stroke-linejoin="round"/>
<path d="M704.401 152.784L593.549 216.836L482.696 152.801L593.549 88.7324L704.401 152.784Z" fill="#3C174C" stroke="white" stroke-width="0.5" stroke-linecap="round" stroke-linejoin="round"/>
<path d="M704.401 280.904L593.549 344.956V216.836L704.401 152.784V280.904Z" fill="#3C174C" stroke="white" stroke-width="0.5" stroke-linecap="round" stroke-linejoin="round"/>
<path d="M593.549 216.836V344.956L482.696 280.904V152.801L593.549 216.836Z" fill="#3C174C" stroke="white" stroke-width="0.5" stroke-linecap="round" stroke-linejoin="round"/>
<path d="M704.401 -7.47022L593.549 56.5815L482.696 -7.47022L593.549 -71.522L704.401 -7.47022Z" fill="#3C174C" stroke="white" stroke-width="0.5" stroke-linecap="round" stroke-linejoin="round"/>
<path d="M704.401 120.633L593.549 184.685V56.5815L704.401 -7.47021V120.633Z" fill="#3C174C" stroke="white" stroke-width="0.5" stroke-linecap="round" stroke-linejoin="round"/>
<path d="M593.549 56.5815V184.685L482.696 120.633V-7.47021L593.549 56.5815Z" fill="#3C174C" stroke="white" stroke-width="0.5" stroke-linecap="round" stroke-linejoin="round"/>
<path d="M704.401 -39.4711L593.549 24.5807V-103.54L704.401 -167.591V-39.4711Z" fill="#3C174C" stroke="white" stroke-width="0.5" stroke-linecap="round" stroke-linejoin="round"/>
<path d="M593.549 -103.54V24.5807L482.696 -39.4711V-167.591L593.549 -103.54Z" fill="#3C174C" stroke="white" stroke-width="0.5" stroke-linecap="round" stroke-linejoin="round"/>
<path d="M150.122 -7.48682L39.2696 56.5649L-71.583 -7.48682L39.2696 -71.5386L150.122 -7.48682Z" fill="#3C174C" stroke="white" stroke-width="0.5" stroke-linecap="round" stroke-linejoin="round"/>
<path d="M150.122 120.633L39.2695 184.685V56.5649L150.122 -7.48682V120.633Z" fill="#3C174C" stroke="white" stroke-width="0.5" stroke-linecap="round" stroke-linejoin="round"/>
<path d="M39.2696 56.5649V184.685L-71.583 120.633V-7.48682L39.2696 56.5649Z" fill="#3C174C" stroke="white" stroke-width="0.5" stroke-linecap="round" stroke-linejoin="round"/>
<path d="M150.122 -39.6382L39.2695 24.4136V-103.69L150.122 -167.742V-39.6382Z" fill="#3C174C" stroke="white" stroke-width="0.5" stroke-linecap="round" stroke-linejoin="round"/>
<path d="M39.2696 -103.69V24.4136L-71.583 -39.6382V-167.742L39.2696 -103.69Z" fill="#3C174C" stroke="white" stroke-width="0.5" stroke-linecap="round" stroke-linejoin="round"/>
<path d="M288.696 72.5732L177.844 136.625L66.9912 72.5732L177.827 8.52148L288.696 72.5732Z" fill="#3C174C" stroke="white" stroke-width="0.5" stroke-linecap="round" stroke-linejoin="round"/>
<path d="M288.696 200.693L177.844 264.745V136.625L288.696 72.5732V200.693Z" fill="#3C174C" stroke="white" stroke-width="0.5" stroke-linecap="round" stroke-linejoin="round"/>
<path d="M177.844 136.625V264.745L66.9912 200.693V72.5732L177.844 136.625Z" fill="#3C174C" stroke="white" stroke-width="0.5" stroke-linecap="round" stroke-linejoin="round"/>
<path d="M288.696 40.4224L177.844 104.474V-23.646L288.696 -87.6978V40.4224Z" fill="#3C174C" stroke="white" stroke-width="0.5" stroke-linecap="round" stroke-linejoin="round"/>
<path d="M177.844 -23.646V104.474L66.9912 40.4224V-87.6978L177.844 -23.646Z" fill="#3C174C" stroke="white" stroke-width="0.5" stroke-linecap="round" stroke-linejoin="round"/>
<path d="M427.27 152.784L316.417 216.836L205.565 152.784L316.417 88.7324L427.27 152.784Z" fill="#3C174C" stroke="white" stroke-width="0.5" stroke-linecap="round" stroke-linejoin="round"/>
<path d="M427.27 280.904L316.417 344.956V216.836L427.27 152.784V280.904Z" fill="#3C174C" stroke="white" stroke-width="0.5" stroke-linecap="round" stroke-linejoin="round"/>
<path d="M316.417 216.836V344.956L205.565 280.904V152.784L316.417 216.836Z" fill="#3C174C" stroke="white" stroke-width="0.5" stroke-linecap="round" stroke-linejoin="round"/>
<path d="M427.27 -7.48682L316.417 56.5649L205.565 -7.48682L316.417 -71.5386L427.27 -7.48682Z" fill="#3C174C" stroke="white" stroke-width="0.5" stroke-linecap="round" stroke-linejoin="round"/>
<path d="M427.27 120.633L316.417 184.685V56.5649L427.27 -7.48682V120.633Z" fill="#3C174C" stroke="white" stroke-width="0.5" stroke-linecap="round" stroke-linejoin="round"/>
<path d="M316.417 56.5649V184.685L205.565 120.633V-7.48682L316.417 56.5649Z" fill="#3C174C" stroke="white" stroke-width="0.5" stroke-linecap="round" stroke-linejoin="round"/>
<path d="M565.844 232.845L454.992 296.896L344.123 232.845L454.975 168.793L565.844 232.845Z" fill="#509DEA"/>
<path d="M565.844 360.948L454.992 425V296.896L565.844 232.845V360.948Z" fill="#2C80CE"/>
<path d="M454.992 296.896V425L344.123 360.965V232.845L454.992 296.896Z" fill="#10487B"/>
<path d="M565.844 72.5732L454.992 136.625L344.123 72.5732L454.975 8.52148L565.844 72.5732Z" fill="#3C174C" stroke="white" stroke-width="0.5" stroke-linecap="round" stroke-linejoin="round"/>
<path d="M565.844 200.693L454.992 264.745V136.625L565.844 72.5732V200.693Z" fill="#3C174C" stroke="white" stroke-width="0.5" stroke-linecap="round" stroke-linejoin="round"/>
<path d="M454.992 136.625V264.745L344.123 200.693V72.5732L454.992 136.625Z" fill="#3C174C" stroke="white" stroke-width="0.5" stroke-linecap="round" stroke-linejoin="round"/>
<path d="M427.27 -39.4878L316.417 24.564V-103.54L427.27 -167.591V-39.4878Z" fill="#3C174C" stroke="white" stroke-width="0.5" stroke-linecap="round" stroke-linejoin="round"/>
<path d="M316.417 -103.54V24.564L205.565 -39.4878V-167.591L316.417 -103.54Z" fill="#3C174C" stroke="white" stroke-width="0.5" stroke-linecap="round" stroke-linejoin="round"/>
<path d="M565.844 40.5728L454.992 104.625V-23.4956L565.844 -87.5474V40.5728Z" fill="#3C174C" stroke="white" stroke-width="0.5" stroke-linecap="round" stroke-linejoin="round"/>
<path d="M454.992 -23.4956V104.625L344.123 40.5728V-87.5474L454.992 -23.4956Z" fill="#3C174C" stroke="white" stroke-width="0.5" stroke-linecap="round" stroke-linejoin="round"/>
</g>
</g>
<defs>
<clipPath id="clip0_1018_11595">
<rect width="910" height="480" fill="white"/>
</clipPath>
<clipPath id="clip1_1018_11595">
<rect width="1054" height="1217" fill="white" transform="translate(-72 -792)"/>
</clipPath>
</defs>
</svg>
