<svg width="100" height="60" viewBox="0 0 100 60" fill="none" xmlns="http://www.w3.org/2000/svg">
<g clip-path="url(#clip0_9881_18261)">
<path d="M28.1797 21.7933C28.1797 23.0247 28.3115 24.0329 28.5421 24.7602C28.8057 25.4958 29.1434 26.2974 29.6047 27.1652C29.7695 27.4296 29.8354 27.7024 29.8354 27.9338C29.8354 28.2644 29.6377 28.6032 29.2011 28.9338L27.1088 30.3387C26.8123 30.5371 26.5075 30.6363 26.2439 30.6363C25.9144 30.6363 25.5767 30.471 25.2472 30.1652C24.7777 29.661 24.3823 29.1321 24.0528 28.5949C23.7233 28.0247 23.3856 27.3966 23.0232 26.628C20.4284 29.7024 17.1665 31.2313 13.2456 31.2313C10.4531 31.2313 8.22086 30.4296 6.58989 28.8263C4.95891 27.223 4.12695 25.0908 4.12695 22.4214C4.12695 19.5867 5.12366 17.2809 7.15002 15.5453C9.17638 13.8098 11.87 12.942 15.2966 12.942C16.4251 12.942 17.5948 13.0412 18.8222 13.2065C20.0495 13.3718 21.3181 13.6363 22.6443 13.942V11.504C22.6443 8.96683 22.1088 7.19824 21.0792 6.16518C20.0166 5.13212 18.2209 4.62799 15.6591 4.62799C14.4976 4.62799 13.295 4.76022 12.0676 5.05774C10.8403 5.35526 9.63766 5.72716 8.47621 6.18997C7.94079 6.42138 7.5454 6.55361 7.31476 6.61973C7.08412 6.68584 6.91937 6.7189 6.77934 6.7189C6.30982 6.7189 6.07918 6.38832 6.07918 5.68584V4.04948C6.07918 3.51229 6.14507 3.11559 6.30982 2.88419C6.47456 2.65278 6.77934 2.41311 7.24063 2.18171C8.40208 1.5784 9.80241 1.08254 11.4334 0.677577C13.0644 0.247825 14.7942 0.0412134 16.6228 0.0412134C20.5767 0.0412134 23.4762 0.94204 25.3378 2.74369C27.1665 4.54535 28.0973 7.28088 28.0973 10.9503V21.7602H28.1632L28.1797 21.7933ZM14.6788 26.8677C15.7744 26.8677 16.9111 26.6693 18.1055 26.2644C19.2999 25.8677 20.3708 25.1321 21.2686 24.1321C21.8041 23.4958 22.1994 22.7933 22.3971 21.9999C22.5948 21.1982 22.7266 20.2313 22.7266 19.0991V17.6941C21.7629 17.4627 20.7332 17.2644 19.6706 17.1239C18.608 16.9916 17.5784 16.9255 16.5405 16.9255C14.3082 16.9255 12.6854 17.3553 11.5816 18.2644C10.4861 19.1652 9.95068 20.4296 9.95068 22.0991C9.95068 23.6693 10.3461 24.8346 11.178 25.6363C11.977 26.471 13.1385 26.8677 14.6706 26.8677H14.6788ZM41.384 30.471C40.7826 30.471 40.3872 30.3718 40.1237 30.1404C39.8601 29.942 39.6212 29.471 39.4235 28.8429L31.6064 3.03295C31.4087 2.36353 31.3098 1.93378 31.3098 1.69411C31.3098 1.15692 31.5734 0.859395 32.1088 0.859395H35.3708C36.005 0.859395 36.4334 0.958569 36.664 1.18997C36.9276 1.38832 37.1335 1.8594 37.3312 2.48749L42.9161 24.5784L48.1055 2.48749C48.2703 1.81807 48.468 1.38832 48.7398 1.18997C49.0034 0.991627 49.4729 0.859395 50.066 0.859395H52.7266C53.3609 0.859395 53.7892 0.958569 54.0528 1.18997C54.3164 1.38832 54.5553 1.8594 54.6871 2.48749L59.9424 24.8511L65.692 2.48749C65.8897 1.81807 66.1204 1.38832 66.3592 1.18997C66.6228 0.991627 67.0594 0.859395 67.6525 0.859395H70.7414C71.2769 0.859395 71.5734 1.12386 71.5734 1.69411C71.5734 1.8594 71.5405 2.02468 71.5075 2.2313C71.4746 2.42964 71.4087 2.70237 71.2769 3.06601L63.262 28.8677C63.0644 29.5371 62.8337 29.9668 62.5619 30.1652C62.2983 30.3635 61.8617 30.4958 61.3016 30.4958H58.4433C57.809 30.4958 57.3807 30.3966 57.1171 30.1652C56.8535 29.9338 56.6146 29.4958 56.4828 28.8263L51.3263 7.29741L46.2027 28.7933C46.038 29.4627 45.8403 29.8925 45.5685 30.1321C45.3049 30.3635 44.8354 30.4627 44.2423 30.4627H41.384V30.471ZM84.1187 31.3718C82.3889 31.3718 80.6591 31.1734 78.9952 30.7685C77.3312 30.3718 76.038 29.9338 75.1731 29.4296C74.6377 29.1321 74.2752 28.7933 74.1434 28.4958C74.0116 28.1982 73.9457 27.8594 73.9457 27.5619V25.8594C73.9457 25.1569 74.2093 24.8263 74.7118 24.8263C74.9095 24.8263 75.1072 24.8594 75.3131 24.9255C75.5108 24.9916 75.8156 25.1239 76.1451 25.2561C77.2736 25.7602 78.5092 26.1569 79.8024 26.4214C81.1286 26.6858 82.4301 26.8181 83.7563 26.8181C85.8485 26.8181 87.4795 26.4544 88.608 25.7189C89.7365 24.9834 90.3378 23.9172 90.3378 22.5453C90.3378 21.6115 90.0413 20.8429 89.44 20.2065C88.8387 19.5701 87.7102 19.0082 86.0792 18.471L81.2522 16.9668C78.8222 16.1982 77.0265 15.066 75.9309 13.5619C74.8354 12.0908 74.267 10.4544 74.267 8.7189C74.267 7.31394 74.5635 6.08254 75.1648 5.01642C75.7662 3.9503 76.5652 3.01642 77.5619 2.28088C78.5586 1.51229 79.6871 0.94204 81.0215 0.545346C82.3559 0.148651 83.748 -0.0249023 85.2143 -0.0249023C85.9474 -0.0249023 86.7134 0.00815551 87.4466 0.107329C88.2126 0.206503 88.9128 0.338734 89.6047 0.470965C90.2719 0.636255 90.898 0.801544 91.4993 1.00816C92.1006 1.2065 92.5619 1.40485 92.8996 1.61146C93.3691 1.87592 93.6986 2.14865 93.8963 2.44617C94.094 2.71063 94.1928 3.08254 94.1928 3.54535V5.11559C94.1928 5.81807 93.9293 6.18171 93.4268 6.18171C93.1632 6.18171 92.7266 6.04948 92.1665 5.78502C90.2719 4.91725 88.1385 4.48749 85.7826 4.48749C83.8881 4.48749 82.3889 4.78502 81.3592 5.42138C80.3296 6.05774 79.7942 7.02468 79.7942 8.38832C79.7942 9.3222 80.1237 10.1239 80.7909 10.7602C81.4581 11.3966 82.6854 12.0247 84.4482 12.5949L89.1681 14.0991C91.5652 14.8677 93.295 15.9338 94.3246 17.3057C95.3543 18.6776 95.8568 20.2396 95.8568 21.9751C95.8568 23.4131 95.5602 24.7106 94.9919 25.8429C94.3905 26.9751 93.5915 27.9751 92.5619 28.7768C91.5322 29.6115 90.2966 30.2148 88.8716 30.6445C87.3724 31.1156 85.8156 31.347 84.1187 31.347V31.3718Z" fill="white"/>
<path fill-rule="evenodd" clip-rule="evenodd" d="M90.4035 47.5867C79.4644 55.6941 63.5666 59.9999 49.8928 59.9999C30.733 59.9999 13.476 52.8925 0.436436 41.0743C-0.593218 40.1404 0.337589 38.8677 1.56494 39.6032C15.6671 47.8098 33.0641 52.785 51.0542 52.785C63.1959 52.785 76.532 50.2479 88.8055 45.0412C90.6341 44.2065 92.1992 46.2396 90.4035 47.5784V47.5867Z" fill="white"/>
<path fill-rule="evenodd" clip-rule="evenodd" d="M94.9586 42.38C93.5583 40.5784 85.7164 41.5123 82.1579 41.9503C81.0953 42.0825 80.9306 41.1486 81.8944 40.4461C88.1464 36.0412 98.4265 37.3056 99.6209 38.7767C100.815 40.2809 99.2914 50.5949 93.4347 55.5288C92.5369 56.2974 91.6719 55.8924 92.0673 54.8924C93.3935 51.5866 96.3589 44.1486 94.9586 42.38Z" fill="white"/>
</g>
<defs>
<clipPath id="clip0_9881_18261">
<rect width="100" height="60" fill="white"/>
</clipPath>
</defs>
</svg>
