<svg version="1.2" xmlns="http://www.w3.org/2000/svg" viewBox="0 0 67 42" width="67" height="42">
	<title>Bolt</title>
	<style>
		.s0 { fill: #ffffff } 
	</style>
	<path fill-rule="evenodd" class="s0" d="m53.5 2v28.6h-6.8v-27.2zm-19.3 38c-1.9 0-3.4-1.5-3.4-3.3 0-1.9 1.5-3.4 3.4-3.4 1.9 0 3.4 1.5 3.4 3.4 0 1.8-1.5 3.3-3.4 3.3zm0-9.1c-5.8 0-10.4-4.7-10.4-10.4 0-5.8 4.6-10.4 10.4-10.4 5.8 0 10.5 4.6 10.5 10.4 0 5.7-4.7 10.4-10.5 10.4zm3.4-10.4c0-1.9-1.5-3.4-3.4-3.4-1.9 0-3.4 1.5-3.4 3.4 0 1.9 1.5 3.4 3.4 3.4 1.9 0 3.4-1.5 3.4-3.4zm-18.5-5c1.7 1.6 2.7 3.8 2.7 6.3 0 4.8-4 8.8-8.9 8.8h-11.9v-28.6h10.6c4.9 0 8.9 3.9 8.9 8.8 0 1.7-0.5 3.3-1.4 4.7zm-11.3-6.8v4.2h3.8c1.1 0 2.1-0.9 2.1-2.1 0-1.1-1-2.1-2.1-2.1zm5.1 15.2c1.1 0 2.1-1 2.1-2.1 0-1.2-1-2.1-2.1-2.1h-5.1v4.2zm53.4-6.7h-3.4v5.3c0 1.6 0.5 2.8 1.9 2.8 0.9 0 1.5-0.2 1.5-0.2v4.9c0 0-1.4 0.9-3.3 0.9-0.1 0-0.2 0-0.3 0-0.1 0-0.2 0-0.2 0-3.8-0.2-6.4-2.6-6.4-6.7v-17.4l6.8-1.5v5.2h3.4z"/>
</svg>