<svg width="111" height="28" viewBox="0 0 111 28" fill="none" xmlns="http://www.w3.org/2000/svg">
<g clip-path="url(#clip0_10033_21890)">
<path fill-rule="evenodd" clip-rule="evenodd" d="M13.9537 0.468933C11.2905 0.468727 8.68699 1.26313 6.4725 2.75176C4.258 4.24035 2.53196 6.35626 1.51261 8.83193C0.493284 11.3076 0.226473 14.0318 0.745908 16.66C1.26534 19.2882 2.5477 21.7025 4.43083 23.5974C6.31393 25.4922 8.71322 26.7828 11.3253 27.3056C13.9373 27.8285 16.6448 27.5602 19.1053 26.5349C21.5659 25.5095 23.6689 23.7729 25.1486 21.5448C26.6281 19.3167 27.4178 16.6971 27.4178 14.0175C27.418 12.2383 27.0698 10.4766 26.3933 8.83278C25.7167 7.18897 24.725 5.69538 23.4746 4.4373C22.2244 3.17919 20.74 2.18116 19.1065 1.50028C17.4729 0.819391 15.7219 0.468933 13.9537 0.468933ZM18.1159 6.67167C18.8425 6.67145 19.5529 6.88809 20.1571 7.29414C20.7615 7.70021 21.2325 8.27743 21.5107 8.95287C21.7888 9.6283 21.8616 10.3716 21.7199 11.0887C21.5782 11.8058 21.2284 12.4644 20.7146 12.9815C20.2007 13.4984 19.546 13.8505 18.8334 13.993C18.1208 14.1356 17.3819 14.0624 16.7107 13.7825C16.0394 13.5026 15.4658 13.0286 15.0622 12.4206C14.6586 11.8127 14.4433 11.0979 14.4436 10.3667C14.4438 9.38682 14.8309 8.44714 15.5195 7.75425C16.2081 7.0614 17.142 6.67196 18.1159 6.67167ZM14.0153 23.2606C11.5968 23.2636 9.27548 22.3029 7.5591 20.5883C5.84274 18.8738 4.87103 16.5451 4.85648 14.1117H12.6999C12.8038 15.1213 13.1954 16.0793 13.8275 16.8704C14.4596 17.6616 15.3053 18.2523 16.263 18.5714C17.2206 18.8905 18.2495 18.9245 19.2261 18.6695C20.2024 18.4143 21.085 17.8808 21.7673 17.1333H22.648C22.0134 18.9261 20.8432 20.4775 19.2974 21.5746C17.7518 22.6715 15.9068 23.2606 14.0153 23.2606ZM33.8053 14.0684C33.8053 9.66893 36.6398 6.45018 41.0706 6.45018C43.9242 6.45018 45.9483 7.77934 47.1019 9.93367L44.5921 10.9305C43.7623 9.56592 42.6108 8.87365 41.1311 8.87365C38.2569 8.87365 36.6177 11.1542 36.6177 14.0263C36.6177 16.9594 38.4396 19.2001 41.2127 19.2001C42.7923 19.2001 43.8645 18.3241 44.6342 17.1222L47.1859 18.0803C46.0928 20.1372 43.9879 21.6247 41.1311 21.6247C36.5958 21.6247 33.8053 18.406 33.8053 14.0684ZM52.9179 10.3412C49.8819 10.3412 47.7969 12.7238 47.7969 15.9625C47.7969 19.2987 49.9632 21.6037 52.8574 21.607C54.5385 21.607 55.8329 20.8915 56.5011 20.0564V21.2992H58.9119V10.606H56.38V11.7059C55.7526 10.9106 54.5173 10.3412 52.9179 10.3412ZM53.4453 12.541C55.2264 12.541 56.4815 13.9278 56.4815 15.9215C56.4815 17.9783 55.3278 19.384 53.421 19.384C51.5617 19.384 50.4489 17.9783 50.4489 16.0035C50.4489 14.0075 51.5617 12.541 53.4453 12.541ZM61.6112 12.7459H60.3352V10.606H61.6112V7.6929H64.2013V10.606H67.0557V12.7459H64.2013V21.2992H61.6112V12.7459ZM72.3883 10.3412C69.3509 10.3412 67.2659 12.7238 67.2659 15.9625C67.2659 19.2987 69.4325 21.6037 72.3277 21.607C74.0075 21.607 75.3032 20.8915 75.9701 20.0564V21.2992H78.3808V10.606H75.849V11.7059C75.2215 10.9106 73.9863 10.3412 72.3883 10.3412ZM72.9143 12.541C74.6954 12.541 75.9504 13.9278 75.9504 15.9215C75.9504 17.9783 74.7946 19.384 72.8902 19.384C71.032 19.384 69.9179 17.9783 69.9179 16.0035C69.9179 14.0075 71.032 12.541 72.9143 12.541ZM80.172 6.73591H82.7636V21.2992H80.172V6.73591ZM83.6971 10.606L87.6232 21.0344L85.9436 24.9642H88.5956L94.2791 10.6049H91.6082L90.3973 14.1493C89.8868 15.6158 89.4606 16.9804 89.0763 18.2232H89.0359C88.7405 17.2902 88.4182 16.3752 88.1103 15.502C87.9549 15.0597 87.8026 14.628 87.6599 14.2102L86.449 10.606H83.6971ZM94.6359 19.1802H99.1094C100.202 19.1802 100.85 19.0583 100.85 18.304C100.85 17.6255 100.354 17.5111 99.5658 17.329C99.4531 17.3031 99.3346 17.2758 99.2109 17.2452L97.8742 16.9195C96.0327 16.492 94.474 16.0035 94.474 13.5966C94.474 12.6385 94.7974 11.9672 95.324 11.4988C96.0326 10.8674 97.0036 10.6027 98.4614 10.6027H102.534V12.7404H98.4412C97.4504 12.7404 96.9233 12.8633 96.9233 13.5357C96.9233 14.208 97.2875 14.3299 98.4645 14.5946L99.6391 14.8792C101.522 15.2869 103.323 15.7554 103.323 18.118C103.323 19.3608 102.837 20.1338 102.089 20.6234C101.278 21.1317 100.206 21.2958 98.9301 21.2958H94.6368L94.6359 19.1802ZM103.856 12.7459H105.125V21.2992H107.717V12.7459H110.571V10.606H107.722V7.6929H105.131V10.606H103.856V12.7459Z" fill="white"/>
</g>
<defs>
<clipPath id="clip0_10033_21890">
<rect width="111" height="28" fill="white"/>
</clipPath>
</defs>
</svg>
