<svg width="54" height="24" viewBox="0 0 54 24" fill="none" xmlns="http://www.w3.org/2000/svg">
<g clip-path="url(#clip0_10033_21874)">
<path d="M23.8492 4.20121C25.3814 4.20121 25.9499 3.2619 25.9499 2.10061C25.9499 0.93932 25.3841 0 23.8492 0C22.3143 0 21.7485 0.93932 21.7485 2.10061C21.7485 3.2619 22.3143 4.20121 23.8492 4.20121Z" fill="white"/>
<path d="M6.37508 0.00305176H0V19.5014H6.37508C14.2498 19.5014 16.4994 15.0024 16.4994 9.75085C16.4994 4.49933 14.2498 0.00305176 6.37508 0.00305176ZM6.45087 16.5021H3.60037V3.00237H6.45087C10.9797 3.00237 12.9017 5.2248 12.9017 9.75085C12.9017 14.2769 10.9797 16.4993 6.45087 16.4993V16.5021Z" fill="white"/>
<path d="M31.1986 4.65326V6.00403H27.7499V9.00336H31.1986V16.5044H25.4976V6.00133H17.9991V9.00066H22.1978V16.5017H17.2466V19.501H39.7449V16.5017H34.4958V9.00066H39.7449V6.00133H34.4958V3.00201H39.7449V0.00268555H35.8439C33.2803 0.00268555 31.1932 2.08976 31.1932 4.65326H31.1986Z" fill="white"/>
<path d="M50.4377 6.00134L47.4383 15.7518L44.4388 6.00134H40.8765L45.2264 18.6131C45.6787 19.926 44.9124 21.0007 43.5238 21.0007H41.9997V24H44.2412C46.1957 24 47.9553 22.7629 48.6157 20.9249L54.0001 6.00134H50.4377Z" fill="white"/>
</g>
<defs>
<clipPath id="clip0_10033_21874">
<rect width="54" height="24" fill="white"/>
</clipPath>
</defs>
</svg>
