<svg width="78" height="21" viewBox="0 0 78 21" fill="none" xmlns="http://www.w3.org/2000/svg">
<path d="M21.7658 0.0725552C22.4158 -0.0254922 23.1638 -0.0867772 23.7156 0.317696C24.0589 0.575031 24.1815 1.04079 24.157 1.45764C24.1815 2.14401 23.8627 2.87948 23.2497 3.235C22.7101 3.52918 22.0602 3.55357 21.4593 3.49233C21.0546 3.44337 20.65 3.2228 20.4415 2.85505C19.9754 1.78863 20.5518 0.280934 21.7658 0.0725552ZM2.3171 0.844784C2.35384 0.477029 2.68497 0.146079 3.06508 0.158408C5.89787 0.158408 8.71828 0.170602 11.5387 0.158408C11.8453 0.133885 12.1764 0.26865 12.3235 0.538314C12.5319 0.90607 12.348 1.31054 12.3235 1.69058C12.2377 2.2053 12.2622 2.89181 11.6614 3.08786C9.60121 3.14914 7.54103 3.08786 5.48085 3.11238C5.28467 4.41161 5.10074 5.69864 4.90447 6.98567C4.90447 7.03472 4.9168 7.14514 4.9168 7.19401C6.42509 7.18181 7.93338 7.19401 9.44168 7.18181C9.85866 7.15729 10.3 7.5129 10.2633 7.95404C10.2265 8.40761 10.1284 8.84884 10.0671 9.30241C10.018 9.60879 9.77276 9.89074 9.45392 9.95202C7.77389 9.98878 6.06933 9.91526 4.38949 9.98878C4.11962 11.8397 3.80077 13.6905 3.51871 15.5414C3.48202 15.9092 3.18762 16.2279 2.81975 16.24C2.12085 16.2523 1.42178 16.2523 0.722882 16.24C0.26917 16.2523 -0.098745 15.7496 0.0238325 15.3207C0.77208 10.4914 1.54459 5.6743 2.3171 0.844784ZM14.776 0.182797C15.4137 0.13384 16.0636 0.170602 16.7013 0.158408C17.0937 0.133885 17.4861 0.440266 17.5228 0.844784C17.5228 1.1634 17.437 1.48216 17.4002 1.80082C16.8852 5.08588 16.3579 8.37093 15.8428 11.6559C15.7692 12.183 15.6344 12.7468 15.7938 13.2862C15.9778 13.8254 16.7992 13.5925 16.9955 14.1564C17.1181 14.6099 16.9832 15.0879 16.9464 15.5538C16.9097 16.1666 16.2107 16.3014 15.7325 16.4364C14.6902 16.6325 13.427 16.4854 12.679 15.6272C12.1395 15.0022 12.1026 14.1196 12.2131 13.3352C12.863 9.16769 13.5129 5.00016 14.1752 0.820262C14.212 0.513791 14.4572 0.231888 14.776 0.182797ZM39.1175 0.844784C39.1542 0.477029 39.4854 0.158408 39.8532 0.158408H41.7172C42.1832 0.146079 42.5634 0.648689 42.453 1.08988C42.0238 3.81108 41.5824 6.53229 41.1532 9.25332C41.8031 9.15531 42.5389 9.03274 42.9926 8.5057C43.7528 7.64757 44.3783 6.65491 44.8442 5.61301C45.0036 5.20845 45.0895 4.62012 45.6168 4.54655C46.3158 4.52203 47.027 4.53427 47.726 4.54655C48.2043 4.53427 48.5598 5.0736 48.4004 5.51483C48.2165 6.16462 47.9099 6.76515 47.5911 7.34128C46.8799 8.4935 46.0951 9.6334 45.065 10.5404C45.5187 11.901 46.0951 13.2248 46.5978 14.561C46.7449 15.0022 47.1007 15.517 46.7695 15.9461C46.3893 16.4608 45.6781 16.2033 45.1508 16.2646C44.599 16.2033 43.8019 16.4853 43.4953 15.8602C42.9189 14.5241 42.4408 13.1514 41.8521 11.8152C41.5087 11.8274 41.1532 11.8398 40.8097 11.803C40.7853 11.852 40.7362 11.95 40.7116 11.9991C40.5277 13.2248 40.3315 14.4506 40.1353 15.6763C40.0617 15.9705 39.8287 16.2279 39.5099 16.2525C38.86 16.277 38.1978 16.2646 37.5356 16.2646C37.2535 16.2646 36.9961 16.0808 36.8734 15.8357C36.7508 15.5904 36.8243 15.3086 36.8612 15.039C37.6214 10.3075 38.3694 5.57612 39.1175 0.844784ZM73.1956 2.18086C73.2815 1.83754 73.6125 1.60473 73.9559 1.61692C74.4465 1.62925 74.9492 1.60473 75.4519 1.62925C75.8566 1.64145 76.1754 2.04596 76.1263 2.4382C76.0528 3.1369 75.881 3.83561 75.8321 4.53418C76.3103 4.53418 76.8008 4.52198 77.279 4.53418C77.7083 4.53418 78.0639 4.9755 77.9903 5.39217C77.9289 5.7723 77.8431 6.14006 77.7818 6.51987C77.7205 6.83867 77.4508 7.09605 77.1442 7.14505C76.5556 7.18181 75.9793 7.12053 75.4029 7.18181C75.1576 8.82423 74.8879 10.4667 74.6303 12.1094C74.5935 12.4893 74.569 12.9183 74.7897 13.2493C75.1209 13.6538 75.6971 13.5066 76.1632 13.5557C76.5311 13.666 76.764 14.0706 76.7027 14.4384C76.6414 14.855 76.6291 15.2718 76.5311 15.6762C76.3839 16.1297 75.8566 16.2156 75.4519 16.3259C74.336 16.6201 73.0484 16.6201 72.0552 15.9704C71.1355 15.3453 70.9883 14.1318 71.0864 13.1021C71.3438 11.1164 71.7487 9.14298 71.9693 7.14501C71.626 7.1572 71.209 7.20629 70.9516 6.89982C70.6573 6.59344 70.8044 6.13988 70.8534 5.75979C70.9271 5.35532 70.9147 4.82828 71.3563 4.60761C71.7118 4.47271 72.1166 4.5709 72.4967 4.52181C72.7296 3.73747 72.9503 2.95305 73.1956 2.18086ZM66.2672 6.1522C67.0397 5.37998 67.9716 4.7426 69.0385 4.42398C69.5044 4.21556 70.1054 4.60784 70.0932 5.12264C70.0073 5.79682 69.8479 6.45863 69.7375 7.12053C69.6883 7.45152 69.4064 7.73347 69.0752 7.77023C67.8735 7.97852 66.8312 8.70161 65.9973 9.55974C65.7889 9.81726 65.4823 10.0624 65.4455 10.4178C65.1881 12.1338 64.9183 13.8499 64.6485 15.5659C64.6118 15.9336 64.2928 16.2892 63.9127 16.2647H62.0487C61.6196 16.2892 61.2395 15.8602 61.2885 15.4311C61.828 12.0358 62.3677 8.65279 62.8949 5.25736C62.9194 4.91422 63.1647 4.58327 63.5203 4.54646C63.974 4.52194 64.4277 4.53418 64.8937 4.53418C65.2616 4.53418 65.6049 4.86513 65.6049 5.24517C65.6049 5.77221 65.5559 6.31149 65.5436 6.85082C65.838 6.6671 66.0219 6.37287 66.2672 6.1522ZM20.4291 4.59551C21.0913 4.46074 21.778 4.57107 22.4402 4.53422C22.8204 4.48527 23.225 4.73036 23.2863 5.1104C23.3355 5.45355 23.2372 5.78454 23.2004 6.11553C22.6977 9.26578 22.1949 12.4159 21.7044 15.566C21.6676 15.9217 21.3734 16.277 20.9932 16.2647C20.331 16.2647 19.6688 16.277 18.9944 16.2526C18.5774 16.2034 18.2708 15.7255 18.3813 15.3209C18.9086 12.0483 19.4114 8.78769 19.9387 5.51488C19.9632 5.1594 20.0613 4.7426 20.4291 4.59551ZM60.1112 4.75498C58.2841 4.41165 56.4202 4.16651 54.5685 4.35037C52.913 4.55879 51.2453 5.30654 50.2276 6.6671C48.8173 8.45665 48.339 10.8592 48.6578 13.0901C48.8296 14.1564 49.2955 15.2351 50.1662 15.897C50.9755 16.5222 52.0669 16.6079 53.048 16.4486C54.4213 16.1789 55.5862 15.2965 56.5428 14.3158C56.5918 14.7325 56.4937 15.1493 56.5183 15.5539C56.5428 15.9337 56.8861 16.2892 57.2662 16.2647H58.5171C58.885 16.2647 59.1916 15.9216 59.2161 15.566C59.7434 12.2442 60.2707 8.93465 60.7857 5.62521C60.8592 5.20841 60.5283 4.80393 60.1112 4.75498ZM56.6655 10.5282C56.1749 11.4475 55.4882 12.281 54.7156 12.9918C54.2742 13.3596 53.7101 13.7396 53.1093 13.6171C52.5207 13.4945 52.2386 12.8817 52.1038 12.3546C51.7972 10.9818 52.0792 9.48626 52.8517 8.29737C53.1951 7.74566 53.7469 7.329 54.3846 7.15734C55.2797 6.93667 56.224 7.047 57.0947 7.29214L57.1437 7.34128C57.0334 8.40761 56.8249 9.46178 56.6655 10.5282ZM36.0396 8.6896C36.0273 7.46381 35.6962 6.17682 34.8379 5.25745C34.2493 4.60784 33.3663 4.27689 32.508 4.28904C31.0854 4.24013 29.7488 4.93883 28.7065 5.8703C28.4734 6.05425 28.3141 6.32391 28.0566 6.47096C28.0566 6.06635 28.0934 5.66192 28.081 5.24521C28.0934 4.86513 27.7377 4.53422 27.3698 4.53422H26.119C25.7267 4.53422 25.4078 4.8775 25.3833 5.25741C24.6107 10.1604 23.826 15.0634 23.0534 19.9665C22.9431 20.4199 23.3355 20.8858 23.8015 20.8735C24.4882 20.8613 25.1872 20.9226 25.8616 20.8244C26.4012 20.6773 26.3889 20.0521 26.4748 19.5987C26.6709 18.52 26.8059 17.4413 26.9285 16.3504C29.3442 16.8161 32.1524 16.4976 33.955 14.6711C35.4265 13.0655 36.1131 10.8469 36.0396 8.6896ZM32.6061 9.92754C32.5325 11.0552 32.1278 12.1952 31.343 13.0164C30.3253 13.9848 28.78 13.8499 27.5293 13.5191C27.5049 13.4822 27.468 13.4086 27.4557 13.372C27.6519 12.3056 27.75 11.2269 27.9953 10.1727C28.682 9.04512 29.5158 7.90504 30.7053 7.28C31.1468 7.07166 31.7476 7.12066 32.0665 7.52518C32.6061 8.19932 32.6551 9.10636 32.6061 9.92754Z" fill="white"/>
</svg>
