<svg width="224" height="39" viewBox="0 0 224 39" fill="none" xmlns="http://www.w3.org/2000/svg">
<g clip-path="url(#clip0_9881_18268)">
<path d="M145.313 30.2575C143.473 30.3004 141.645 29.9665 139.939 29.2763C138.232 28.586 136.684 27.5539 135.388 26.243C134.093 24.9321 133.077 23.3698 132.403 21.6517C131.73 19.9335 131.412 18.0956 131.47 16.25C131.422 14.4164 131.746 12.5923 132.423 10.8883C133.099 9.1843 134.113 7.63605 135.404 6.33753C136.69 5.01712 138.234 3.9776 139.939 3.28412C141.644 2.59064 143.474 2.25816 145.313 2.30753C147.154 2.26197 148.983 2.63094 150.664 3.38736C152.345 4.14378 153.836 5.26844 155.027 6.67878L152.647 9.06753C151.774 7.95992 150.658 7.06976 149.386 6.46654C148.114 5.86331 146.72 5.56334 145.313 5.59003C143.942 5.55642 142.578 5.8043 141.306 6.31845C140.033 6.8326 138.879 7.60219 137.914 8.58003C136.927 9.58931 136.157 10.7904 135.65 12.1094C135.144 13.4284 134.911 14.8375 134.967 16.25C134.907 17.668 135.137 19.0832 135.644 20.4082C136.151 21.7331 136.923 22.9394 137.914 23.9525C138.877 24.9335 140.031 25.7051 141.303 26.2195C142.576 26.7339 143.941 26.98 145.313 26.9425C146.869 26.9349 148.404 26.5778 149.805 25.8973C151.205 25.2169 152.437 24.2303 153.408 23.01L155.902 25.4475C154.639 26.9618 153.05 28.1677 151.255 28.9738C149.391 29.8321 147.363 30.2703 145.313 30.2575ZM162.103 2.90878V29.6725H158.67V2.90878H162.103ZM165.049 20.5075C165.012 19.2247 165.227 17.9472 165.683 16.7481C166.139 15.549 166.826 14.452 167.705 13.52C168.575 12.6153 169.623 11.9024 170.782 11.4268C171.942 10.9511 173.188 10.7232 174.44 10.7575C175.688 10.7217 176.929 10.9491 178.084 11.425C179.238 11.9008 180.28 12.6146 181.143 13.52C182.031 14.4465 182.725 15.5422 183.184 16.7423C183.642 17.9425 183.857 19.2228 183.814 20.5075C183.862 21.7928 183.649 23.0744 183.19 24.2752C182.731 25.476 182.035 26.5713 181.143 27.495C180.283 28.4038 179.241 29.1197 178.086 29.5958C176.931 30.0719 175.688 30.2974 174.44 30.2575C173.187 30.2959 171.94 30.0698 170.78 29.5939C169.62 29.1181 168.572 28.403 167.705 27.495C166.826 26.563 166.139 25.466 165.683 24.2669C165.227 23.0679 165.012 21.7903 165.049 20.5075ZM168.482 20.5075C168.403 22.265 169.02 23.9824 170.198 25.285C170.743 25.8654 171.4 26.3278 172.13 26.6439C172.859 26.96 173.645 27.123 174.44 27.123C175.235 27.123 176.021 26.96 176.75 26.6439C177.48 26.3278 178.137 25.8654 178.682 25.285C179.86 23.9824 180.477 22.265 180.398 20.5075C180.474 18.7603 179.857 17.0542 178.682 15.7625C178.142 15.1735 177.486 14.7034 176.756 14.3818C176.026 14.0602 175.237 13.8941 174.44 13.8941C173.643 13.8941 172.854 14.0602 172.124 14.3818C171.394 14.7034 170.738 15.1735 170.198 15.7625C169.023 17.0542 168.406 18.7603 168.482 20.5075ZM202.758 29.6725H199.52V27.1213H199.358C198.779 28.075 197.95 28.8508 196.961 29.3638C195.934 29.948 194.774 30.2559 193.594 30.2575C192.647 30.3191 191.698 30.1802 190.808 29.8499C189.918 29.5195 189.108 29.0051 188.429 28.34C187.146 26.817 186.502 24.8539 186.632 22.8638V11.375H190.048V22.6525C189.977 23.2631 190.045 23.8819 190.247 24.4621C190.45 25.0422 190.781 25.5684 191.217 26.0007C191.652 26.4331 192.18 26.7601 192.76 26.9571C193.34 27.1541 193.958 27.2158 194.565 27.1375C195.221 27.149 195.87 27.0083 196.463 26.7264C197.055 26.4445 197.575 26.0291 197.981 25.5125C198.905 24.3963 199.394 22.9818 199.358 21.5313V11.375H202.79L202.758 29.6725ZM214.35 30.2575C213.185 30.2573 212.034 30.0045 210.974 29.5165C209.915 29.0285 208.974 28.3168 208.214 27.43C206.513 25.5321 205.588 23.06 205.624 20.5075C205.568 17.9682 206.47 15.5015 208.149 13.6013C208.903 12.7065 209.843 11.9882 210.903 11.4969C211.964 11.0056 213.118 10.7532 214.286 10.7575C215.563 10.7358 216.825 11.0317 217.961 11.6188C219.001 12.1335 219.885 12.9192 220.519 13.8938H220.665L220.584 11.375V2.90878H224V29.6725H220.762V27.1213H220.616C219.982 28.0958 219.098 28.8815 218.058 29.3963C216.913 29.9886 215.638 30.2847 214.35 30.2575ZM214.917 27.1213C215.699 27.1466 216.476 26.9947 217.19 26.6767C217.905 26.3588 218.539 25.8831 219.046 25.285C220.178 23.9611 220.758 22.2498 220.665 20.5075C220.743 18.7772 220.164 17.0814 219.046 15.7625C218.541 15.1604 217.908 14.6798 217.193 14.3563C216.479 14.0328 215.701 13.8748 214.917 13.8938C214.134 13.8817 213.359 14.0428 212.645 14.3658C211.931 14.6888 211.297 15.1657 210.788 15.7625C209.67 17.0814 209.091 18.7772 209.169 20.5075C209.079 22.2395 209.659 23.9395 210.788 25.2525C211.297 25.8494 211.931 26.3262 212.645 26.6492C213.359 26.9722 214.134 27.1334 214.917 27.1213Z" fill="white"/>
<path d="M15.3651 30.2576C11.3362 30.2709 7.46436 28.6905 4.58837 25.8587C1.71237 23.0269 0.0638611 19.1719 0 15.1288C0.0638611 11.0857 1.71237 7.23066 4.58837 4.3989C7.46436 1.56714 11.3362 -0.013277 15.3651 5.42575e-05C17.2848 -0.0320323 19.1917 0.32083 20.9738 1.03796C22.7559 1.75508 24.3775 2.82205 25.7434 4.1763L22.8129 7.08505C20.8147 5.15404 18.1387 4.09139 15.3651 4.12755C13.929 4.12314 12.5063 4.40541 11.1799 4.95792C9.85345 5.51044 8.64974 6.32218 7.63878 7.34591C6.62781 8.36965 5.82978 9.58493 5.2911 10.9211C4.75243 12.2572 4.48387 13.6875 4.50105 15.1288C4.48387 16.5701 4.75243 18.0004 5.2911 19.3365C5.82978 20.6727 6.62781 21.888 7.63878 22.9117C8.64974 23.9354 9.85345 24.7472 11.1799 25.2997C12.5063 25.8522 13.929 26.1345 15.3651 26.1301C16.7798 26.1883 18.191 25.948 19.5074 25.4246C20.8238 24.9011 22.0161 24.1062 23.0072 23.0913C24.3283 21.6612 25.1224 19.8206 25.2577 17.8751H15.3651V13.7638H29.2892C29.4411 14.6164 29.5115 15.4815 29.4997 16.3476C29.6093 19.9137 28.3184 23.3802 25.9053 26.0001C24.5472 27.416 22.9059 28.5274 21.0893 29.2612C19.2726 29.995 17.3218 30.3346 15.3651 30.2576Z" fill="white"/>
<path d="M51.0332 20.5079C51.0864 21.8078 50.8772 23.105 50.4183 24.3216C49.9594 25.5382 49.2601 26.6492 48.3626 27.5878C47.465 28.5264 46.3877 29.2731 45.1953 29.7833C44.003 30.2934 42.7202 30.5564 41.424 30.5564C40.1278 30.5564 38.845 30.2934 37.6526 29.7833C36.4603 29.2731 35.383 28.5264 34.4854 27.5878C33.5879 26.6492 32.8886 25.5382 32.4297 24.3216C31.9707 23.105 31.7616 21.8078 31.8147 20.5079C31.7616 19.2081 31.9707 17.9109 32.4297 16.6943C32.8886 15.4776 33.5879 14.3667 34.4854 13.4281C35.383 12.4895 36.4603 11.7427 37.6526 11.2326C38.845 10.7224 40.1278 10.4595 41.424 10.4595C42.7202 10.4595 44.003 10.7224 45.1953 11.2326C46.3877 11.7427 47.465 12.4895 48.3626 13.4281C49.2601 14.3667 49.9594 15.4776 50.4183 16.6943C50.8772 17.9109 51.0864 19.2081 51.0332 20.5079ZM46.8236 20.5079C46.895 19.7531 46.8085 18.9915 46.5697 18.2722C46.3308 17.5528 45.9448 16.8914 45.4365 16.3305C44.9281 15.7695 44.3086 15.3214 43.6176 15.0147C42.9267 14.708 42.1795 14.5496 41.424 14.5496C40.6685 14.5496 39.9213 14.708 39.2303 15.0147C38.5394 15.3214 37.9199 15.7695 37.4115 16.3305C36.9032 16.8914 36.5172 17.5528 36.2783 18.2722C36.0394 18.9915 35.9529 19.7531 36.0244 20.5079C35.9529 21.2628 36.0394 22.0243 36.2783 22.7437C36.5172 23.4631 36.9032 24.1244 37.4115 24.6854C37.9199 25.2463 38.5394 25.6945 39.2303 26.0012C39.9213 26.3078 40.6685 26.4663 41.424 26.4663C42.1795 26.4663 42.9267 26.3078 43.6176 26.0012C44.3086 25.6945 44.9281 25.2463 45.4365 24.6854C45.9448 24.1244 46.3308 23.4631 46.5697 22.7437C46.8085 22.0243 46.895 21.2628 46.8236 20.5079Z" fill="white"/>
<path d="M72.5835 20.5079C72.6367 21.8078 72.4275 23.105 71.9686 24.3216C71.5096 25.5382 70.8104 26.6492 69.9129 27.5878C69.0153 28.5264 67.938 29.2731 66.7456 29.7833C65.5533 30.2934 64.2705 30.5564 62.9743 30.5564C61.6781 30.5564 60.3953 30.2934 59.2029 29.7833C58.0106 29.2731 56.9333 28.5264 56.0357 27.5878C55.1382 26.6492 54.4389 25.5382 53.98 24.3216C53.521 23.105 53.3119 21.8078 53.365 20.5079C53.3119 19.2081 53.521 17.9109 53.98 16.6943C54.4389 15.4776 55.1382 14.3667 56.0357 13.4281C56.9333 12.4895 58.0106 11.7427 59.2029 11.2326C60.3953 10.7224 61.6781 10.4595 62.9743 10.4595C64.2705 10.4595 65.5533 10.7224 66.7456 11.2326C67.938 11.7427 69.0153 12.4895 69.9129 13.4281C70.8104 14.3667 71.5096 15.4776 71.9686 16.6943C72.4275 17.9109 72.6367 19.2081 72.5835 20.5079ZM68.3739 20.5079C68.4316 19.7599 68.3347 19.0079 68.0891 18.2993C67.8435 17.5906 67.4546 16.9405 66.9468 16.3899C66.439 15.8393 65.8233 15.3999 65.1383 15.0994C64.4533 14.799 63.7138 14.6439 62.9662 14.6439C62.2186 14.6439 61.4791 14.799 60.7941 15.0994C60.1091 15.3999 59.4934 15.8393 58.9856 16.3899C58.4778 16.9405 58.0889 17.5906 57.8433 18.2993C57.5977 19.0079 57.5007 19.7599 57.5585 20.5079C57.5007 21.256 57.5977 22.008 57.8433 22.7166C58.0889 23.4253 58.4778 24.0753 58.9856 24.626C59.4934 25.1766 60.1091 25.616 60.7941 25.9164C61.4791 26.2169 62.2186 26.372 62.9662 26.372C63.7138 26.372 64.4533 26.2169 65.1383 25.9164C65.8233 25.616 66.439 25.1766 66.9468 24.626C67.4546 24.0753 67.8435 23.4253 68.0891 22.7166C68.3347 22.008 68.4316 21.256 68.3739 20.5079Z" fill="white"/>
<path d="M93.5827 11.375V28.86C93.5827 36.0425 89.3245 39 84.3054 39C82.4582 39.0102 80.6498 38.4687 79.1102 37.4443C77.5706 36.4199 76.3694 34.9591 75.6595 33.2475L79.3995 31.6225C79.7764 32.6189 80.4389 33.4808 81.3033 34.0997C82.1678 34.7186 83.1955 35.0667 84.2568 35.1C87.495 35.1 89.4702 33.1013 89.4702 29.38V27.9825H89.3731C88.7254 28.716 87.9266 29.2994 87.032 29.6922C86.1374 30.085 85.1683 30.2779 84.192 30.2575C81.6156 30.2575 79.1447 29.2303 77.3228 27.4018C75.501 25.5733 74.4775 23.0934 74.4775 20.5075C74.4775 17.9217 75.501 15.4417 77.3228 13.6132C79.1447 11.7847 81.6156 10.7575 84.192 10.7575C85.1649 10.7395 86.1305 10.9302 87.024 11.3169C87.9175 11.7037 88.7184 12.2775 89.3731 13H89.5188V11.375H93.5827ZM89.8102 20.5725C89.8697 19.8358 89.7808 19.0946 89.5489 18.393C89.317 17.6915 88.9468 17.0439 88.4604 16.489C87.9739 15.934 87.3811 15.483 86.7174 15.1628C86.0536 14.8426 85.3325 14.6597 84.5968 14.625C83.8496 14.652 83.1152 14.828 82.4364 15.1428C81.7577 15.4575 81.1481 15.9047 80.6433 16.4582C80.1385 17.0118 79.7485 17.6607 79.496 18.367C79.2436 19.0734 79.1337 19.8231 79.1729 20.5725C79.1382 21.3168 79.2516 22.0606 79.5066 22.7604C79.7617 23.4602 80.1531 24.102 80.6581 24.6482C81.1631 25.1944 81.7716 25.634 82.4478 25.9415C83.1241 26.2489 83.8547 26.418 84.5968 26.4388C85.3295 26.4126 86.0494 26.2377 86.7128 25.9245C87.3763 25.6113 87.9696 25.1663 88.4569 24.6165C88.9442 24.0666 89.3154 23.4234 89.548 22.7255C89.7806 22.0277 89.8698 21.2897 89.8102 20.5563V20.5725Z" fill="white"/>
<path d="M101.079 1.04004V29.6725H96.8047V1.04004H101.079Z" fill="white"/>
<path d="M117.918 23.7252L121.253 26.0002C120.363 27.334 119.158 28.4264 117.746 29.1804C116.333 29.9345 114.757 30.3269 113.158 30.3227C111.885 30.341 110.622 30.0999 109.445 29.6141C108.268 29.1283 107.202 28.4078 106.31 27.4963C105.419 26.5848 104.721 25.5013 104.258 24.3112C103.796 23.1211 103.58 21.8493 103.621 20.5727C103.432 18.378 104.054 16.1901 105.368 14.426C106.683 12.6619 108.598 11.4449 110.749 11.0071C112.9 10.5693 115.136 10.9412 117.032 12.052C118.927 13.1628 120.349 14.9348 121.026 17.0302L121.464 18.1514L108.511 23.5302C108.914 24.4407 109.581 25.209 110.423 25.7362C111.266 26.2633 112.246 26.525 113.239 26.4877C114.189 26.4661 115.117 26.2009 115.936 25.7173C116.755 25.2338 117.437 24.548 117.918 23.7252ZM107.701 20.2152L116.412 16.6077C116.063 15.9605 115.535 15.4288 114.891 15.0769C114.248 14.725 113.516 14.5681 112.785 14.6252C112.086 14.6565 111.399 14.826 110.764 15.124C110.13 15.422 109.56 15.8426 109.088 16.3619C108.616 16.8811 108.25 17.4887 108.012 18.1499C107.774 18.8111 107.669 19.5129 107.701 20.2152Z" fill="white"/>
</g>
<defs>
<clipPath id="clip0_9881_18268">
<rect width="224" height="39" fill="white"/>
</clipPath>
</defs>
</svg>
