<svg width="77" height="77" viewBox="0 0 77 77" fill="none" xmlns="http://www.w3.org/2000/svg">
<path d="M26.7396 5.24885H47.6243L25.944 69.4853C25.7211 70.1454 25.2969 70.7189 24.731 71.1253C24.1651 71.5316 23.486 71.7502 22.7894 71.7504H6.53596C6.00811 71.7504 5.48784 71.6248 5.01818 71.3839C4.54852 71.143 4.14297 70.7937 3.83509 70.365C3.5272 69.9362 3.32583 69.4403 3.24763 68.9183C3.16943 68.3963 3.21664 67.8631 3.38538 67.363L23.5842 7.51393C23.807 6.85358 24.2313 6.27974 24.7973 5.87325C25.3634 5.46675 26.0427 5.24889 26.7396 5.24885Z" fill="url(#paint0_linear_9881_18277)"/>
<path d="M57.0881 48.3345H23.97C23.6621 48.3341 23.3613 48.4265 23.1066 48.5996C22.852 48.7727 22.6554 49.0185 22.5424 49.3049C22.4295 49.5913 22.4054 49.9051 22.4733 50.2054C22.5413 50.5058 22.6981 50.7786 22.9233 50.9886L44.2042 70.8514C44.8238 71.4293 45.6396 71.7507 46.4869 71.7505H65.2396L57.0881 48.3345Z" fill="#0078D4"/>
<path d="M26.7398 5.24905C26.0353 5.24634 25.3484 5.46898 24.7794 5.88443C24.2104 6.29987 23.7891 6.88637 23.5772 7.55825L3.41039 67.3086C3.2303 67.8106 3.17377 68.3486 3.24556 68.877C3.31735 69.4054 3.51536 69.9088 3.82284 70.3445C4.13032 70.7803 4.53822 71.1355 5.01203 71.3803C5.48585 71.625 6.01164 71.752 6.54493 71.7506H23.2178C23.8388 71.6396 24.4192 71.3658 24.8997 70.9572C25.3803 70.5485 25.7437 70.0196 25.9529 69.4245L29.9746 57.5722L44.3399 70.971C44.9419 71.4689 45.697 71.7442 46.4783 71.7506H65.1612L56.9671 48.3346L33.0803 48.3402L47.6998 5.24905H26.7398Z" fill="url(#paint1_linear_9881_18277)"/>
<path d="M53.4145 7.5109C53.1921 6.85161 52.7684 6.27873 52.2032 5.87295C51.638 5.46716 50.9597 5.24894 50.2639 5.24902H26.9883C27.684 5.24906 28.3623 5.46733 28.9275 5.8731C29.4927 6.27886 29.9163 6.85168 30.1389 7.5109L50.3385 67.3624C50.5074 67.8626 50.5547 68.3959 50.4766 68.918C50.3985 69.4402 50.1971 69.9362 49.8892 70.3651C49.5813 70.794 49.1758 71.1435 48.706 71.3845C48.2363 71.6256 47.7159 71.7513 47.1879 71.7514H70.4644C70.9923 71.7512 71.5126 71.6254 71.9822 71.3843C72.4518 71.1432 72.8573 70.7937 73.1651 70.3648C73.4729 69.9359 73.6742 69.4399 73.7523 68.9178C73.8304 68.3957 73.783 67.8625 73.6142 67.3624L53.4145 7.5109Z" fill="#3CCBF4"/>
<defs>
<linearGradient id="paint0_linear_9881_18277" x1="34.3514" y1="10.1768" x2="12.6623" y2="74.2521" gradientUnits="userSpaceOnUse">
<stop stop-color="#114A8B"/>
<stop offset="1" stop-color="#0669BC"/>
</linearGradient>
<linearGradient id="paint1_linear_9881_18277" x1="41.1268" y1="40.0378" x2="36.1097" y2="41.7342" gradientUnits="userSpaceOnUse">
<stop stop-opacity="0.3"/>
<stop offset="0.071" stop-opacity="0.2"/>
<stop offset="0.321" stop-opacity="0.1"/>
<stop offset="0.623" stop-opacity="0.05"/>
<stop offset="1" stop-opacity="0"/>
</linearGradient>
</defs>
</svg>
