<svg width="106" height="25" viewBox="0 0 106 25" fill="none" xmlns="http://www.w3.org/2000/svg">
<path d="M41.7573 9.01128H45.1054V19.1606H41.7573V9.01128Z" fill="white"/>
<mask id="mask0_11751_26005" style="mask-type:luminance" maskUnits="userSpaceOnUse" x="0" y="0" width="106" height="25">
<path d="M0 0H106V25H0V0Z" fill="white"/>
</mask>
<g mask="url(#mask0_11751_26005)">
<path d="M45.8043 9.01128H49.0291V10.3989H49.0906C49.8712 9.30858 50.8776 8.71398 52.336 8.71398C54.6364 8.71398 55.992 10.2998 55.992 12.5596V19.1606H52.6441V13.2138C52.6441 12.1433 52.0895 11.4098 51.0009 11.4098C49.8918 11.4098 49.1523 12.3019 49.1523 13.5507V19.1606H45.8043V9.01128Z" fill="white"/>
<path d="M45.4393 6.29597C45.4393 5.22547 44.5401 4.35777 43.431 4.35777C42.3219 4.35777 41.4227 5.22547 41.4227 6.29597C41.4227 7.36637 42.3219 8.23407 43.431 8.23407C44.5401 8.23407 45.4393 7.36637 45.4393 6.29597Z" fill="white"/>
<path d="M79.5389 8.86472C79.4434 8.85642 79.3339 8.85272 79.2057 8.85272C77.9322 8.85272 77.0696 9.38792 76.3301 10.5971H76.2686V9.01132H73.0643V19.1605H76.4123V14.6013C76.4123 12.4888 77.6245 11.5099 79.5389 11.6807V8.86472Z" fill="white"/>
<path d="M95.9687 12.7577C94.6336 12.5199 93.4423 12.4208 93.4423 11.7072C93.4423 11.0728 94.0792 10.7755 94.9006 10.7755C95.8249 10.7755 96.4617 11.053 96.5849 11.9649H99.666C99.5016 9.96282 97.8995 8.71392 94.9214 8.71392C92.4359 8.71392 90.3819 9.82402 90.3819 11.9649C90.3819 14.3435 92.3332 14.8193 94.1613 15.1167C95.558 15.3546 96.8314 15.4537 96.8314 16.3655C96.8314 17.0197 96.1947 17.3765 95.1883 17.3765C94.1785 17.3765 93.5107 16.9642 93.306 16.1277H90.1157C90.3505 18.2141 92.2482 19.4777 95.2088 19.4777C97.9612 19.4777 99.9945 18.328 99.9945 16.1079C99.9945 13.511 97.8174 13.0551 95.9687 12.7577Z" fill="white"/>
<path d="M84.7325 11.0133C85.8211 11.0133 86.6016 11.7864 86.7249 12.9957H82.5759C82.8017 11.7864 83.4591 11.0133 84.7325 11.0133ZM84.9174 17.1385C83.5411 17.1385 82.7607 16.2862 82.5552 14.9184H90.114C90.1345 12.8569 89.5184 11.0926 88.2653 9.98265C87.3616 9.18975 86.1703 8.71395 84.6708 8.71395C81.4666 8.71395 79.2689 11.0331 79.2689 14.0661C79.2689 17.1385 81.4051 19.4579 84.8762 19.4579C86.2112 19.4579 87.2794 19.1209 88.1627 18.5262C89.0869 17.9117 89.7031 17.0395 89.929 16.1277H86.6632C86.3756 16.762 85.8006 17.1385 84.9174 17.1385Z" fill="white"/>
<path d="M105.891 16.7673C105.736 16.7732 105.528 16.7819 105.336 16.7819C104.617 16.7819 104.166 16.5836 104.166 15.7907V11.0332H105.891V9.01128H104.166V5.79998H100.9V9.01128H99.8721V11.0332H100.9V16.4845C100.9 18.6651 102.296 19.2795 104.248 19.2795C104.992 19.2795 105.555 19.2257 105.891 19.1624V16.7673Z" fill="white"/>
<path d="M61.9709 16.7719C61.8373 16.7769 61.6832 16.7819 61.5391 16.7819C60.8203 16.7819 60.3684 16.5836 60.3684 15.7907V11.0332H61.9709V9.01128H60.3684V5.79998H57.1026V9.01128H56.0135V11.0332H57.1026V16.4845C57.1026 18.6651 58.4992 19.2795 60.4505 19.2795C61.1108 19.2795 61.6277 19.2371 61.9709 19.1834V16.7719Z" fill="white"/>
<path d="M69.2635 12.9957C69.1403 11.7865 68.3596 11.0133 67.271 11.0133C65.9976 11.0133 65.3403 11.7865 65.1143 12.9957H69.2635ZM61.8075 14.0661C61.8075 11.0332 64.0052 8.71405 67.2095 8.71405C68.7088 8.71405 69.9002 9.18975 70.8039 9.98265C72.0569 11.0927 72.673 12.8569 72.6524 14.9185H65.0939C65.2992 16.2862 66.0797 17.1386 67.456 17.1386C68.3391 17.1386 68.9143 16.762 69.2017 16.1277H72.4676C72.2416 17.0395 71.6255 17.9117 70.7011 18.5263C69.818 19.1209 68.7499 19.4579 67.4148 19.4579C63.9436 19.4579 61.8075 17.1386 61.8075 14.0661Z" fill="white"/>
<path d="M35.9429 11.6478C37.2574 11.6478 37.9969 10.8945 37.9969 9.76448C37.9969 8.63468 37.2368 7.94088 35.9429 7.94088H33.3752V11.6478H35.9429ZM29.9857 4.98728H35.7997C37.5865 4.98728 38.9011 5.46299 39.8049 6.29558C40.7497 7.14788 41.2838 8.35718 41.2838 9.78438C41.2838 12.5001 39.3325 14.423 36.3131 14.423H33.3752V19.1606H29.9857V4.98728Z" fill="white"/>
<path d="M25.3899 12.5C25.3899 19.2374 19.7305 24.6992 12.7494 24.6992C5.76835 24.6992 0.109009 19.2374 0.109009 12.5C0.109009 5.76252 5.76835 0.300819 12.7494 0.300819C19.7305 0.300819 25.3899 5.76252 25.3899 12.5Z" fill="#171616"/>
<path d="M12.7492 0.300575C5.76811 0.300575 0.108765 5.76237 0.108765 12.4998C0.108765 17.668 3.44056 22.0861 8.14269 23.8636C8.03224 22.8984 7.93235 21.414 8.18652 20.3603C8.41624 19.4082 9.66876 14.2965 9.66876 14.2965C9.66876 14.2965 9.29066 13.5657 9.29066 12.4853C9.29066 10.789 10.3094 9.52258 11.5779 9.52258C12.6563 9.52258 13.1772 10.304 13.1772 11.241C13.1772 12.2877 12.4867 13.8526 12.1304 15.3028C11.8326 16.517 12.7613 17.5072 14.0022 17.5072C16.2488 17.5072 17.9758 15.221 17.9758 11.9209C17.9758 8.99998 15.8011 6.95778 12.6958 6.95778C9.09918 6.95778 6.98809 9.56128 6.98809 12.2519C6.98809 13.3004 7.4066 14.4247 7.92883 15.0359C8.03213 15.1567 8.04726 15.2625 8.01649 15.3858C7.92054 15.7711 7.7073 16.5997 7.66544 16.7693C7.61031 16.9926 7.48224 17.04 7.24268 16.9324C5.66397 16.2232 4.67692 13.9956 4.67692 12.2064C4.67692 8.35818 7.57404 4.82408 13.029 4.82408C17.4139 4.82408 20.8216 7.83968 20.8216 11.8698C20.8216 16.0741 18.0748 19.4577 14.2623 19.4577C12.9814 19.4577 11.7773 18.8155 11.3651 18.0569C11.3651 18.0569 10.7312 20.3861 10.5776 20.9569C10.2922 22.0165 9.52183 23.3447 9.00655 24.155C10.1892 24.5084 11.4461 24.699 12.7492 24.699C19.7304 24.699 25.3897 19.2372 25.3897 12.4998C25.3897 5.76237 19.7304 0.300575 12.7492 0.300575Z" fill="white"/>
</g>
</svg>
