<svg width="80" height="30" viewBox="0 0 80 30" fill="none" xmlns="http://www.w3.org/2000/svg">
<path fill-rule="evenodd" clip-rule="evenodd" d="M42.0626 10.2804C41.3914 9.71858 40.246 9.438 38.6257 9.438H34.9711V20.6789H37.7038V17.1559H38.9279C40.4137 17.1559 41.5032 16.8304 42.1965 16.1789C42.9775 15.449 43.3705 14.4771 43.3705 13.2638C43.3705 12.0056 42.9343 11.0109 42.0626 10.2804ZM38.86 14.6123H37.7038V11.9815H38.7425C40.006 11.9815 40.6378 12.4226 40.6378 13.3048C40.6378 14.1756 40.0448 14.6123 38.86 14.6123ZM48.0467 9.43736H45.1972V20.6783H51.3496V18.1341H48.0467V9.43736ZM56.9325 9.43736L52.4563 20.6783H55.5242L56.1109 19.0441H60.0005L60.537 20.6783H63.6392L59.1948 9.43736H56.9325ZM56.8989 16.7685L58.0728 12.9263L59.2284 16.7685H56.8989ZM65.0627 20.6783H67.9129V9.43736H65.0627V20.6783ZM78.9784 11.5442C78.6184 11.0247 78.1562 10.5833 77.6197 10.2469C76.7593 9.7072 75.5854 9.438 74.099 9.438H70.344V20.6783H74.7365C76.3238 20.6783 77.5974 20.162 78.5587 19.1281C79.52 18.0949 80 16.7236 80 15.0155C80 13.6568 79.6597 12.4997 78.9784 11.5442ZM74.4177 18.1335H73.1942V11.9822H74.4349C75.3066 11.9822 75.9765 12.2539 76.4463 12.7955C76.9162 13.3371 77.1511 14.1055 77.1511 15.1002C77.1511 17.1224 76.24 18.1335 74.4177 18.1335ZM11.8331 0L2.59685 2.40768L0.051429 11.6523L3.23495 14.9055L0 18.105L2.39557 27.3901L11.5918 29.9475L14.8274 26.7474L18.0109 30L27.2472 27.5923L29.792 18.3471L26.6091 15.0951L29.844 11.8956L27.4485 2.6099L18.2509 0.0524509L15.0166 3.25195L11.8331 0ZM6.16513 4.18596L11.0306 2.91703L13.1582 5.09089L10.0553 8.15958L6.16513 4.18596ZM16.8458 5.11996L19.0078 2.98212L23.8523 4.32941L19.8986 8.23921L16.8458 5.11996ZM2.96637 10.8934L4.3067 6.02427L8.19562 9.99789L5.09337 13.0666L2.96637 10.8927V10.8934ZM21.7265 10.1079L25.6802 6.19679L26.9412 11.088L24.7799 13.2265L21.7265 10.1079ZM11.8839 10.0276L14.9868 6.9589L18.0389 10.0781L14.9366 13.1468L11.8839 10.0276ZM6.92259 14.9346L10.0248 11.8659L13.0788 14.9851L9.97532 18.0538L6.92259 14.9346ZM16.7658 15.0149L19.8681 11.9462L22.9208 15.0654L19.8179 18.1341L16.7658 15.0149ZM2.90161 18.912L5.06417 16.7729L8.11625 19.8928L4.16384 23.802L2.90161 18.912ZM11.8039 19.9219L14.9068 16.8532L17.9595 19.9724L14.8573 23.0411L11.8039 19.9219ZM21.6465 20.0027L24.7494 16.934L26.877 19.1073L25.5373 23.9764L21.6465 20.0027ZM5.99179 25.6712L9.94484 21.7602L12.9988 24.8794L10.8363 27.0185L5.99179 25.6712ZM16.6858 24.9091L19.7881 21.8404L23.6776 25.8147L18.8128 27.083L16.6858 24.9091Z" fill="white"/>
</svg>
