<svg width="107" height="32" viewBox="0 0 107 32" fill="none" xmlns="http://www.w3.org/2000/svg">
<path d="M86.0511 26.817H21.3999L26.5565 31.999L86.0511 26.817ZM96.4288 23.5135V13.1494C96.4288 11.2062 97.7824 9.58679 99.7162 9.58679C101.65 9.58679 103.004 11.2062 103.004 13.1494V23.5135H107V13.1494C107 8.87427 104.099 5.44118 99.8451 5.44118C97.9113 5.44118 96.4288 6.54236 96.4288 6.54236V5.82983H92.4324V23.4487H96.4288V23.5135ZM83.215 5.3764C78.574 5.3764 75.2867 9.45724 75.2867 14.6393C75.2867 20.0804 79.4119 23.9021 83.6017 23.9021C85.7288 23.9021 88.3716 23.1896 90.6276 19.9508L87.0824 17.878C84.3752 21.8941 79.7987 19.8861 79.283 15.8052H90.7565C91.7879 9.58679 87.727 5.3764 83.215 5.3764ZM86.6957 12.3721H79.5409C80.3788 8.29129 85.9222 8.03219 86.6957 12.3721Z" fill="white"/>
<path d="M73.9977 19.3031C73.611 19.5622 73.1597 19.7565 72.6441 19.7565C71.9995 19.7565 70.7748 19.2383 70.7748 17.6189V10.0402H74.1911V5.82983H70.7748V1.42511H66.7784V5.82983H64.6513V10.0402H66.7784V17.6189C66.7784 21.5702 69.7435 23.9021 72.7085 23.9021C73.8043 23.9021 75.3513 23.5135 76.576 22.8009L73.9977 19.3031ZM59.3013 5.82983V16.1939C59.3013 18.1371 57.9477 19.7565 56.014 19.7565C54.0802 19.7565 52.7266 18.1371 52.7266 16.1939V5.82983H48.7302V16.1939C48.7302 20.469 51.6308 23.9021 55.885 23.9021C57.8188 23.9021 59.3013 22.8009 59.3013 22.8009V23.4487H63.2977V5.82983H59.3013Z" fill="white"/>
<path d="M41.2531 14.1211L48.0856 5.82983H42.5422L37.7079 11.9835V6.10352e-05H33.6471V23.5135H37.7079V16.2586L43.638 23.5135H49.1814L41.2531 14.1211ZM27.3947 5.82983V6.60713C26.17 5.82983 25.1386 5.37641 23.6561 5.37641C19.1441 5.37641 15.6633 9.52202 15.6633 14.6393C15.6633 19.7565 19.0796 23.9021 23.6561 23.9021C25.1386 23.9021 26.2344 23.4487 27.3947 22.6714V23.4487H31.391V5.82983H27.3947ZM23.5916 19.6917C21.3356 19.6917 19.7242 17.4894 19.7242 14.704C19.7242 11.9187 21.3356 9.71635 23.5916 9.71635C25.8477 9.71635 27.3947 11.9187 27.3947 14.704C27.4591 17.4894 25.8477 19.6917 23.5916 19.6917Z" fill="white"/>
<path d="M4.18976 23.5135V16.6473H7.09036L12.1825 23.4487H17.4036L11.2157 15.2222C13.1494 13.862 14.3741 11.5948 14.3741 9.00381C14.3741 4.79342 10.9578 1.42511 6.83253 1.42511H0V23.4487H4.18976V23.5135ZM4.18976 5.6355H6.89699C8.76626 5.6355 10.3133 7.19011 10.3133 9.06859C10.3133 10.9471 8.76626 12.5017 6.89699 12.5017H4.18976V5.6355Z" fill="white"/>
</svg>
