<svg width="121" height="30" viewBox="0 0 121 30" fill="none" xmlns="http://www.w3.org/2000/svg">
<path d="M25.2646 0H5.06099C2.27845 0 0 2.23256 0 5.00332V24.9568C0 27.7276 2.27845 29.9601 5.06099 29.9601H25.2445C28.0472 29.9601 30.3055 27.7076 30.3055 24.9568V5.00332C30.3256 2.23256 28.0673 0 25.2646 0ZM24.821 22.9435C24.821 23.8206 24.0951 24.5183 23.2281 24.5183H7.11765C6.23046 24.5183 5.52475 23.8007 5.52475 22.9435V7.03655C5.52475 6.15947 6.25062 5.4618 7.11765 5.4618H23.208C24.0952 5.4618 24.8009 6.1794 24.8009 7.03655V22.9435H24.821ZM11.9367 19.0565C11.4326 19.0565 11.0092 18.6578 11.0092 18.1395V11.8007C11.0092 11.3023 11.4124 10.8837 11.9367 10.8837H18.3688C18.8729 10.8837 19.2963 11.2824 19.2963 11.8007V18.1595C19.2963 18.6578 18.893 19.0764 18.3688 19.0764L11.9367 19.0565ZM38.3708 18.6179H41.6776C41.8389 20.4718 43.1091 21.9269 45.6699 21.9269C47.9685 21.9269 49.3598 20.8106 49.3598 19.1163C49.3598 17.5415 48.2508 16.8239 46.2748 16.3654L43.7141 15.8272C40.9315 15.2292 38.8345 13.4551 38.8345 10.5648C38.8345 7.37541 41.6977 5.18272 45.4279 5.18272C49.3799 5.18272 51.9205 7.23588 52.1423 10.2658H48.9363C48.5532 8.8505 47.3636 8.01329 45.4279 8.01329C43.3914 8.01329 41.98 9.10964 41.98 10.505C41.98 11.9003 43.1898 12.7375 45.2868 13.196L47.8274 13.7342C50.6099 14.3322 52.5254 16.0066 52.5254 18.9169C52.5254 22.6246 49.7026 24.8372 45.6901 24.8372C41.1533 24.8173 38.6531 22.3854 38.3708 18.6179ZM64.3613 29.9801V24.5581L64.5831 22.1861H64.3613C63.5951 23.9003 62.0022 24.8372 59.8447 24.8372C56.3564 24.8372 53.7554 22.0266 53.7554 17.7209C53.7554 13.4153 56.3564 10.6047 59.8447 10.6047C61.982 10.6047 63.4943 11.6013 64.3613 13.1362H64.5831V10.8638H67.4463V30H64.3613V29.9801ZM64.4823 17.701C64.4823 14.9502 62.7684 13.3356 60.6916 13.3356C58.6147 13.3356 56.9009 14.9502 56.9009 17.701C56.9009 20.4518 58.6147 22.0664 60.6916 22.0664C62.7684 22.0664 64.4823 20.4518 64.4823 17.701ZM69.7449 19.1163V10.8439H72.8299V18.8372C72.8299 21.01 73.8784 22.0465 75.6527 22.0465C77.8102 22.0465 79.2216 20.5116 79.2216 18.1395V10.8439H82.3066V24.5382H79.4434V21.7076H79.2216C78.5361 23.5216 77.0642 24.8173 74.7655 24.8173C71.4588 24.8173 69.7449 22.7243 69.7449 19.1163ZM84.1818 20.7309C84.1818 18.1595 85.9965 16.6645 89.2226 16.4851L93.0335 16.2458V15.1694C93.0335 13.8937 92.0858 13.1163 90.4123 13.1163C88.8597 13.1163 87.9523 13.8937 87.7104 14.99H84.6254C84.948 12.1993 87.287 10.6047 90.4123 10.6047C93.961 10.6047 96.1185 12.0997 96.1185 14.99V24.5581H93.2553V22.0266H93.0335C92.3883 23.7209 91.0373 24.8372 88.4363 24.8372C85.936 24.8173 84.1818 23.1628 84.1818 20.7309ZM93.0335 19.0365V18.3189L89.9283 18.5382C88.2548 18.6379 87.4886 19.2558 87.4886 20.4917C87.4886 21.5282 88.3556 22.2857 89.5654 22.2857C91.7632 22.2658 93.0335 20.8904 93.0335 19.0365ZM98.4171 24.5581V10.8638H101.28V13.495H101.502C101.905 11.701 103.297 10.8638 105.353 10.8638H106.765V13.5947H105.01C103.014 13.5947 101.522 14.8704 101.522 17.3223V24.5382L98.4171 24.5581ZM120.879 18.2591H110.354C110.515 20.7708 112.31 22.1861 114.286 22.1861C115.959 22.1861 117.008 21.5083 117.613 20.392H120.677C119.831 23.1827 117.371 24.7973 114.265 24.7973C110.172 24.7973 107.309 21.7674 107.309 17.6811C107.309 13.5947 110.253 10.5648 114.286 10.5648C118.338 10.5648 121 13.3156 121 16.7442C120.98 17.4419 120.919 17.7807 120.879 18.2591ZM117.915 16.1462C117.814 14.2525 116.201 12.9568 114.265 12.9568C112.431 12.9568 110.878 14.113 110.495 16.1462H117.915Z" fill="white"/>
</svg>
