<svg width="427" height="444" viewBox="0 0 427 444" fill="none" xmlns="http://www.w3.org/2000/svg">
<g clip-path="url(#clip0_531_1542)">
<path d="M281.27 322.11V325.266C281.27 325.266 241.338 355.369 241.113 355.496C238.407 357.06 233.952 357.103 231.176 355.496L184.662 328.466C183.294 327.676 182.632 326.648 182.632 325.619V322.462L281.27 322.124V322.11Z" fill="url(#paint0_linear_531_1542)"/>
<path d="M184.69 319.545C184.915 319.418 185.141 319.305 185.394 319.192L236.997 296.39L281.256 322.11L241.719 351.93C241.521 352.071 241.324 352.212 241.099 352.339C238.392 353.903 233.938 353.946 231.162 352.339L184.647 325.309C181.885 323.702 181.969 321.123 184.676 319.559L184.69 319.545Z" fill="#F8F5F4"/>
<path opacity="0.8" d="M215.741 305.79L236.997 296.39L281.27 322.11L271.474 330.918L265.667 334.61L215.741 305.79Z" fill="#BDB6C6"/>
<path d="M382.079 171.54C382.488 173.471 382.586 175.472 382.234 177.375L347.32 359.639C346.658 363.078 344.769 365.347 342.373 366.052L340.385 366.644L255.56 227.644L382.079 171.54Z" fill="#BDB6C6"/>
<path d="M134.229 24.9728C135.849 24.4936 137.696 24.7191 139.542 25.7902L375.947 162.253C376.906 162.802 377.78 163.549 378.569 164.409L254.038 225.164L132.241 25.5647L134.229 24.9728Z" fill="#F8F5F4"/>
<path d="M382.234 177.375V177.473L363.995 181.856L357.905 167.171L375.933 162.239C380.528 164.888 383.333 171.653 382.248 177.375H382.234Z" fill="#E9E6E6"/>
<path d="M137.306 26.8137C135.152 25.5708 133.046 25.5589 131.362 26.4709C129.667 27.3891 128.314 29.2921 127.785 32.0432L92.8799 214.262V214.275L92.8711 214.322C92.3422 217.088 92.7545 220.117 93.8604 222.779C94.8981 225.276 96.5299 227.411 98.5146 228.698L98.916 228.945L335.321 365.407C337.475 366.65 339.575 366.659 341.255 365.741C342.947 364.817 344.298 362.903 344.827 360.137L379.741 177.872C380.27 175.12 379.861 172.098 378.759 169.44C377.655 166.779 375.876 164.527 373.71 163.278L137.305 26.8147L137.306 26.8137Z" fill="black" stroke="white"/>
<path d="M127.294 31.9488C128.393 26.2271 132.988 23.7467 137.555 26.3821L373.96 162.845C378.527 165.48 381.332 172.245 380.232 177.966L349.011 340.994L96.0729 194.977L127.294 31.9488Z" fill="#87120C"/>
<path opacity="0.9" d="M90.4146 193.814L338.716 337.14L338.757 170.884L90.4556 27.5433L90.4146 193.814Z" fill="#FFF9EE" stroke="white"/>
<path d="M90.4556 34.8722L338.757 178.199V159.23L90.4556 15.9025V34.8722Z" fill="#F35048" stroke="white"/>
<path d="M322.047 316.487C322.202 316.487 322.357 316.444 322.484 316.374C322.752 316.219 322.907 315.923 322.907 315.542V249.77C322.907 249.052 322.357 248.164 321.652 247.755L106.447 123.525C106.024 123.286 105.615 123.243 105.305 123.427C105.023 123.582 104.882 123.877 104.882 124.258V190.03C104.882 190.749 105.432 191.637 106.151 192.045L321.356 316.275C321.596 316.416 321.85 316.487 322.061 316.487H322.047ZM105.742 123.934C105.841 123.934 105.968 123.962 106.137 124.061L321.342 248.29C321.864 248.586 322.287 249.263 322.287 249.77V315.542C322.287 315.627 322.272 315.782 322.174 315.838C322.089 315.881 321.906 315.881 321.652 315.74L106.447 191.51C105.939 191.214 105.502 190.537 105.502 190.03V124.258C105.502 124.173 105.502 124.018 105.615 123.962C105.643 123.948 105.686 123.934 105.742 123.934Z" fill="#87120C"/>
<g opacity="0.7" style="mix-blend-mode:multiply">
<path d="M134.088 79.4704C138.203 78.7799 142.446 79.7523 147.224 82.5145C147.703 82.7964 148.197 83.0923 148.69 83.4024C154.089 86.8411 158.599 91.4354 162.785 97.7632C166.972 104.091 169.593 110.278 170.975 117.071C174.428 134.081 166.647 145.003 153.595 141.494C151.396 140.902 149.198 139.958 147.041 138.717C138.936 134.039 131.424 125.075 126.8 114.182C119.485 96.9317 122.755 81.3871 134.102 79.4845L134.088 79.4704ZM134.468 112.871C135.032 114.21 135.708 115.549 136.484 116.887C139.458 122.031 143.362 126.006 147.267 128.26C148.606 129.036 149.931 129.599 151.227 129.952C153.736 130.628 156.104 130.487 158.078 129.36C162.095 127.077 163.434 121.327 162.081 114.675C161.418 111.405 160.121 107.924 158.148 104.528C157.767 103.865 157.373 103.231 156.964 102.611C154.399 98.7215 151.298 95.6351 148.155 93.6339C147.887 93.4648 147.619 93.2957 147.337 93.1407C144.448 91.4777 141.544 90.7449 139.021 91.1676C138.133 91.3086 137.301 91.6045 136.526 92.0414C131.311 95.015 130.62 103.823 134.44 112.857L134.468 112.871Z" fill="#C9C3D0"/>
</g>
<path d="M322.047 195.23C322.202 195.23 322.357 195.188 322.484 195.118C322.752 194.963 322.907 194.667 322.907 194.286V180.827C322.907 180.109 322.357 179.221 321.652 178.812L279.649 154.558C279.226 154.318 278.817 154.276 278.507 154.459C278.239 154.614 278.084 154.91 278.084 155.305V168.764C278.084 169.482 278.634 170.37 279.338 170.779L321.342 195.033C321.582 195.174 321.836 195.244 322.047 195.244V195.23ZM278.944 154.967C279.042 154.967 279.169 154.995 279.338 155.093L321.342 179.348C321.864 179.643 322.287 180.32 322.287 180.827V194.286C322.287 194.371 322.272 194.526 322.174 194.582C322.089 194.638 321.906 194.638 321.652 194.483L279.649 170.229C279.127 169.933 278.704 169.257 278.704 168.75V155.291C278.704 155.206 278.718 155.051 278.817 154.995C278.845 154.981 278.887 154.967 278.944 154.967Z" fill="#87120C"/>
<path d="M271.84 166.241C271.995 166.241 272.15 166.199 272.277 166.128C272.545 165.973 272.7 165.677 272.7 165.297V151.838C272.7 151.119 272.15 150.231 271.431 149.823L229.427 125.569C229.005 125.329 228.596 125.287 228.286 125.47C228.018 125.625 227.863 125.921 227.863 126.301V139.76C227.863 140.479 228.413 141.367 229.117 141.776L271.121 166.03C271.361 166.171 271.614 166.241 271.826 166.241H271.84ZM228.723 125.991C228.821 125.991 228.948 126.02 229.117 126.118L271.121 150.372C271.643 150.668 272.065 151.345 272.065 151.852V165.311C272.065 165.395 272.051 165.55 271.953 165.607C271.868 165.649 271.685 165.649 271.431 165.508L229.427 141.254C228.906 140.958 228.483 140.282 228.483 139.774V126.316C228.483 126.231 228.497 126.076 228.596 126.02C228.624 126.006 228.666 125.991 228.723 125.991Z" fill="#87120C"/>
<path d="M322.047 217.85C322.202 217.85 322.357 217.807 322.484 217.737C322.752 217.582 322.907 217.286 322.907 216.905V203.447C322.907 202.728 322.357 201.84 321.652 201.431L279.649 177.177C279.226 176.938 278.817 176.895 278.507 177.079C278.239 177.234 278.084 177.53 278.084 177.924V191.383C278.084 192.102 278.634 192.99 279.338 193.398L321.342 217.652C321.582 217.793 321.836 217.864 322.047 217.864V217.85ZM278.944 177.586C279.042 177.586 279.169 177.614 279.338 177.713L321.342 201.967C321.864 202.263 322.287 202.939 322.287 203.447V216.905C322.287 216.99 322.272 217.145 322.174 217.201C322.089 217.258 321.906 217.258 321.652 217.103L279.649 192.849C279.127 192.553 278.704 191.876 278.704 191.369V177.91C278.704 177.825 278.718 177.67 278.817 177.614C278.845 177.6 278.887 177.586 278.944 177.586Z" fill="#87120C"/>
<path d="M271.84 188.86C271.995 188.86 272.15 188.818 272.277 188.748C272.545 188.593 272.7 188.297 272.7 187.916V174.457C272.7 173.739 272.15 172.851 271.431 172.442L229.427 148.188C229.005 147.948 228.596 147.906 228.286 148.089C228.018 148.244 227.863 148.54 227.863 148.921V162.38C227.863 163.098 228.413 163.986 229.117 164.395L271.121 188.649C271.361 188.79 271.614 188.86 271.826 188.86H271.84ZM228.723 148.597C228.821 148.597 228.948 148.625 229.117 148.723L271.121 172.977C271.643 173.273 272.065 173.95 272.065 174.457V187.916C272.065 188.001 272.051 188.156 271.953 188.212C271.868 188.254 271.685 188.254 271.431 188.113L229.427 163.859C228.906 163.563 228.483 162.887 228.483 162.38V148.921C228.483 148.836 228.497 148.681 228.596 148.625C228.624 148.611 228.666 148.597 228.723 148.597Z" fill="#87120C"/>
<path d="M322.047 240.257C322.202 240.257 322.357 240.215 322.484 240.145C322.752 239.99 322.907 239.694 322.907 239.313V225.854C322.907 225.136 322.357 224.248 321.652 223.839L279.649 199.585C279.226 199.346 278.803 199.303 278.507 199.486C278.239 199.641 278.084 199.937 278.084 200.318V213.777C278.084 214.495 278.634 215.383 279.338 215.792L321.342 240.032C321.582 240.173 321.836 240.243 322.047 240.243V240.257ZM278.944 200.008C279.042 200.008 279.169 200.036 279.338 200.135L321.342 224.375C321.864 224.671 322.287 225.347 322.287 225.854V239.313C322.287 239.398 322.272 239.553 322.174 239.609C322.089 239.652 321.906 239.651 321.652 239.511L279.649 215.257C279.127 214.961 278.704 214.284 278.704 213.777V200.318C278.704 200.233 278.718 200.078 278.817 200.022C278.845 200.008 278.887 199.994 278.944 199.994V200.008Z" fill="#87120C"/>
<path d="M271.84 211.282C271.995 211.282 272.15 211.24 272.277 211.17C272.545 211.015 272.7 210.719 272.7 210.338V196.879C272.7 196.16 272.15 195.273 271.445 194.864L229.442 170.61C229.019 170.37 228.61 170.328 228.3 170.511C228.018 170.666 227.877 170.962 227.877 171.343V184.802C227.877 185.52 228.427 186.408 229.131 186.817L271.135 211.071C271.375 211.212 271.628 211.282 271.84 211.282ZM228.723 171.019C228.821 171.019 228.948 171.047 229.117 171.145L271.121 195.399C271.643 195.695 272.065 196.372 272.065 196.879V210.338C272.065 210.423 272.051 210.578 271.953 210.634C271.868 210.69 271.685 210.676 271.431 210.535L229.427 186.281C228.906 185.985 228.483 185.309 228.483 184.802V171.343C228.483 171.258 228.497 171.103 228.596 171.047C228.624 171.033 228.666 171.019 228.723 171.019Z" fill="#87120C"/>
<path d="M222.14 137.548C222.295 137.548 222.45 137.505 222.577 137.435C222.845 137.28 223 136.984 223 136.603V123.145C223 122.426 222.45 121.538 221.731 121.129L179.728 96.8753C179.305 96.6357 178.896 96.5934 178.586 96.7766C178.318 96.9317 178.163 97.2276 178.163 97.6222V111.081C178.163 111.8 178.713 112.688 179.432 113.096L221.435 137.35C221.675 137.491 221.929 137.562 222.14 137.562V137.548ZM179.023 97.2981C179.122 97.2981 179.249 97.3263 179.418 97.4249L221.421 121.679C221.943 121.975 222.366 122.651 222.366 123.159V136.618C222.366 136.702 222.366 136.857 222.253 136.914C222.168 136.97 221.985 136.956 221.731 136.815L179.728 112.561C179.206 112.265 178.783 111.588 178.783 111.081V97.6222C178.783 97.5377 178.783 97.3826 178.896 97.3263C178.924 97.3122 178.967 97.2981 179.023 97.2981Z" fill="#87120C"/>
<path d="M222.14 160.167C222.295 160.167 222.45 160.125 222.577 160.054C222.845 159.899 223 159.603 223 159.223V145.764C223 145.045 222.45 144.157 221.731 143.749L179.728 119.495C179.305 119.255 178.896 119.213 178.586 119.396C178.318 119.551 178.163 119.847 178.163 120.241V133.7C178.163 134.419 178.713 135.307 179.432 135.716L221.435 159.97C221.675 160.111 221.929 160.181 222.14 160.181V160.167ZM179.023 119.917C179.122 119.917 179.249 119.946 179.418 120.044L221.421 144.298C221.943 144.594 222.366 145.271 222.366 145.778V159.237C222.366 159.321 222.366 159.476 222.253 159.533C222.168 159.589 221.985 159.589 221.731 159.434L179.728 135.18C179.206 134.884 178.783 134.208 178.783 133.7V120.241C178.783 120.157 178.783 120.002 178.896 119.946C178.924 119.931 178.967 119.917 179.023 119.917Z" fill="#87120C"/>
<path d="M222.14 182.589C222.295 182.589 222.45 182.547 222.577 182.476C222.845 182.321 223 182.025 223 181.645V168.186C223 167.467 222.45 166.579 221.731 166.171L179.728 141.917C179.305 141.677 178.882 141.635 178.586 141.818C178.318 141.973 178.163 142.269 178.163 142.649V156.108C178.163 156.827 178.713 157.715 179.432 158.123L221.435 182.378C221.675 182.518 221.929 182.589 222.14 182.589ZM179.023 142.325C179.122 142.325 179.249 142.353 179.418 142.452L221.421 166.706C221.929 167.002 222.366 167.679 222.366 168.186V181.645C222.366 181.729 222.366 181.884 222.253 181.941C222.168 181.997 221.985 181.997 221.731 181.842L179.728 157.588C179.206 157.292 178.783 156.616 178.783 156.108V142.649C178.783 142.565 178.783 142.41 178.896 142.353C178.924 142.339 178.967 142.325 179.023 142.325Z" fill="#87120C"/>
<path d="M312.843 180.87L318.058 183.885V181.532L312.843 178.53V180.87Z" fill="#87120C"/>
<path d="M297.719 172.146L310.574 179.559V177.219L297.719 169.792V172.146Z" fill="#87120C"/>
<path d="M290.403 167.918L295.449 170.835V168.482L290.403 165.579V167.918Z" fill="#87120C"/>
<path d="M307.233 181.983L318.058 188.24V185.887L307.233 179.643V181.983Z" fill="#87120C"/>
<path d="M301.623 178.742L304.964 180.672V178.333L301.623 176.402V178.742Z" fill="#87120C"/>
<path d="M293.589 174.105L299.354 177.431V175.091L293.589 171.766V174.105Z" fill="#87120C"/>
<path d="M262.889 152.035L268.09 155.037V152.698L262.889 149.682V152.035Z" fill="#87120C"/>
<path d="M254.376 147.117L260.606 150.725V148.371L254.376 144.777V147.117Z" fill="#87120C"/>
<path d="M247.201 142.988L252.092 145.806V143.453L247.201 140.634V142.988Z" fill="#87120C"/>
<path d="M257.279 153.149L268.09 159.392V157.052L257.279 150.795V153.149Z" fill="#87120C"/>
<path d="M249.175 148.47L254.996 151.838V149.484L249.175 146.116V148.47Z" fill="#87120C"/>
<path d="M213.19 123.342L218.405 126.358V124.004L213.19 121.003V123.342Z" fill="#87120C"/>
<path d="M198.066 114.618L210.906 122.031V119.692L198.066 112.265V114.618Z" fill="#87120C"/>
<path d="M207.58 124.455L218.405 130.713V128.359L207.58 122.116V124.455Z" fill="#87120C"/>
<path d="M201.97 121.214L205.296 123.145V120.791L201.97 118.874V121.214Z" fill="#87120C"/>
<path d="M313.252 203.743L318.467 206.744V204.405L313.252 201.389V203.743Z" fill="#87120C"/>
<path d="M298.128 195.005L310.982 202.432V200.078L298.128 192.651V195.005Z" fill="#87120C"/>
<path d="M307.642 204.856L318.467 211.099V208.746L307.642 202.502V204.856Z" fill="#87120C"/>
<path d="M302.032 201.614L305.373 203.531V201.192L302.032 199.261V201.614Z" fill="#87120C"/>
<path d="M262.889 174.669L268.09 177.67V175.317L262.889 172.315V174.669Z" fill="#87120C"/>
<path d="M254.376 169.75L260.606 173.344V171.004L254.376 167.397V169.75Z" fill="#87120C"/>
<path d="M247.201 165.607L252.092 168.44V166.086L247.201 163.267V165.607Z" fill="#87120C"/>
<path d="M257.279 175.782L268.09 182.025V179.672L257.279 173.428V175.782Z" fill="#87120C"/>
<path d="M249.175 171.103L254.996 174.457V172.118L249.175 168.75V171.103Z" fill="#87120C"/>
<path d="M213.19 145.975L218.405 148.977V146.638L213.19 143.622V145.975Z" fill="#87120C"/>
<path d="M198.066 137.238L210.906 144.665V142.311L198.066 134.898V137.238Z" fill="#87120C"/>
<path d="M207.58 147.089L218.405 153.332V150.992L207.58 144.735V147.089Z" fill="#87120C"/>
<path d="M201.97 143.847L205.296 145.778V143.424L201.97 141.508V143.847Z" fill="#87120C"/>
<path d="M313.533 226.291L318.749 229.307V226.954L313.533 223.952V226.291Z" fill="#87120C"/>
<path d="M303.441 220.471L311.25 224.981V222.641L303.441 218.131V220.471Z" fill="#87120C"/>
<path d="M305.781 226.179L318.749 233.662V231.308L305.781 223.825V226.179Z" fill="#87120C"/>
<path d="M262.889 197.062L268.09 200.064V197.725L262.889 194.709V197.062Z" fill="#87120C"/>
<path d="M254.376 192.144L260.606 195.752V193.398L254.376 189.805V192.144Z" fill="#87120C"/>
<path d="M247.201 188.015L252.092 190.833V188.494L247.201 185.661V188.015Z" fill="#87120C"/>
<path d="M257.279 198.176L268.09 204.419V202.08L257.279 195.822V198.176Z" fill="#87120C"/>
<path d="M213.19 168.369L218.405 171.385V169.031L213.19 166.03V168.369Z" fill="#87120C"/>
<path d="M198.066 159.646L210.906 167.058V164.719L198.066 157.292V159.646Z" fill="#87120C"/>
<path d="M207.58 169.482L218.405 175.74V173.386L207.58 167.143V169.482Z" fill="#87120C"/>
<path d="M201.97 166.241L205.296 168.172V165.818L201.97 163.902V166.241Z" fill="#87120C"/>
<path d="M106.292 123.793L321.497 248.023C322.103 248.375 322.597 249.15 322.597 249.77V260.171L105.192 134.673V124.272C105.192 123.666 105.686 123.455 106.292 123.807V123.793Z" fill="#87120C"/>
<path d="M138.217 119.269C139.641 120.58 141.121 121.679 142.601 122.539C143.94 123.314 145.265 123.877 146.562 124.23C149.071 124.906 151.439 124.765 153.412 123.638L150.579 125.287C148.606 126.414 146.224 126.555 143.729 125.879C142.432 125.526 141.093 124.963 139.768 124.188C138.513 123.455 137.259 122.539 136.019 121.468L138.217 119.269Z" fill="#87120C"/>
<path d="M142.601 79.71C143.264 79.1745 143.898 78.5967 144.532 78.0329C149.691 81.4294 154.061 85.925 158.106 92.0414C162.292 98.3691 164.914 104.556 166.295 111.349C168.607 122.708 165.901 131.347 159.966 134.8L157.133 136.448C163.067 132.996 165.774 124.357 163.462 112.998C162.081 106.205 159.459 100.018 155.273 93.6903C151.354 87.7712 147.154 83.3883 142.206 80.0201C142.333 79.9073 142.474 79.8228 142.615 79.71H142.601Z" fill="#87120C"/>
<path d="M139.459 78.8721C135.019 76.3062 131.099 75.3359 127.338 75.792L126.672 75.9043C121.258 76.8121 117.722 80.9662 116.43 87.1074C115.135 93.2611 116.118 101.354 119.748 109.913C124.195 120.391 131.323 129.042 139.03 133.767L139.777 134.211C141.902 135.433 144.062 136.358 146.213 136.938C152.567 138.646 157.548 136.838 160.555 132.614C163.59 128.35 164.683 121.526 162.972 113.098C161.604 106.373 159.01 100.245 154.855 93.9658C150.702 87.6871 146.24 83.1465 140.912 79.752L140.911 79.7529C140.424 79.4466 139.936 79.1524 139.459 78.8721ZM131.445 86.6006C134.116 86.1549 137.133 86.9361 140.079 88.6299C140.376 88.7934 140.657 88.9708 140.923 89.1387L140.925 89.1397C144.135 91.1838 147.284 94.323 149.883 98.2627C150.296 98.8896 150.696 99.5324 151.082 100.204C153.081 103.645 154.399 107.177 155.072 110.502C156.437 117.212 155.138 123.27 150.826 125.721C148.71 126.93 146.199 127.062 143.599 126.361H143.598C142.422 126.042 141.23 125.557 140.031 124.908L139.518 124.62C135.525 122.314 131.564 118.27 128.554 113.064L128.553 113.065C127.801 111.768 127.141 110.466 126.583 109.163L126.553 109.148L126.48 108.979C124.546 104.404 123.742 99.8595 124.099 96.0567C124.455 92.2589 125.981 89.1302 128.779 87.5342L128.782 87.5332L129.095 87.3652C129.83 86.9912 130.614 86.7323 131.444 86.6006H131.445Z" fill="#87120C" stroke="white"/>
<path d="M143.814 125.836L146.153 137.365L143.32 139.013L140.98 127.471L143.814 125.836Z" fill="#87120C"/>
<path d="M126.307 89.5892L131.903 86.3478C126.688 89.3214 125.997 98.1296 129.831 107.163C130.395 108.502 131.071 109.855 131.833 111.18C134.807 116.338 138.711 120.298 142.615 122.553C143.954 123.328 145.279 123.892 146.576 124.244L140.98 127.485C139.684 127.133 138.345 126.569 137.02 125.794C133.115 123.539 129.211 119.565 126.237 114.421C125.476 113.096 124.799 111.758 124.235 110.405C120.401 101.371 121.092 92.5628 126.307 89.5892Z" fill="#87120C"/>
<path d="M136.699 80.4533C131.997 77.7348 127.89 76.8191 123.924 77.4806V77.4836C118.509 78.3982 114.973 82.5521 113.681 88.6916C112.386 94.8434 113.37 102.932 117 111.491C121.447 121.969 128.575 130.62 136.27 135.345L137.017 135.79C138.896 136.864 140.79 137.708 142.681 138.29L140.565 127.866C139.318 127.499 138.053 126.948 136.783 126.213L136.784 126.212C132.916 123.978 129.076 120.128 126.103 115.143L125.817 114.656C125.047 113.316 124.362 111.944 123.79 110.585L123.789 110.586C121.848 106.011 121.04 101.467 121.395 97.6642C121.749 93.866 123.275 90.7368 126.074 89.1408L126.076 89.1398L126.389 88.9718C127.124 88.5977 127.908 88.3389 128.738 88.2072H128.739C131.398 87.7611 134.418 88.5288 137.369 90.2414C137.641 90.399 137.929 90.5722 138.203 90.7453H138.204C141.274 92.695 144.298 95.6697 146.835 99.3918L151.857 95.1886C147.775 89.1039 143.389 84.6757 138.183 81.3488C137.925 81.1915 137.676 81.0366 137.431 80.8869L136.701 80.4543L136.699 80.4533Z" fill="#87120C" stroke="white"/>
<path d="M123.558 91.1676L131.889 86.3478C126.673 89.3214 125.983 98.1296 129.817 107.163L121.486 111.983C117.653 102.949 118.343 94.1412 123.558 91.1676Z" fill="#87120C"/>
<path d="M119.823 78.3994C119.823 78.3994 119.936 78.343 119.978 78.3148L122.572 76.8069C122.854 76.6377 123.15 76.4968 123.446 76.3559C123.122 76.5109 122.797 76.68 122.487 76.8491L125.32 75.2003C126.533 74.4956 127.9 74.0023 129.408 73.7487C133.524 73.0581 137.767 74.0305 142.545 76.7928C142.883 76.9901 143.235 77.2015 143.574 77.4129C143.348 77.6102 143.137 77.8075 142.911 78.0048C142.39 78.4557 141.854 78.8926 141.319 79.3154C141.502 79.4282 141.685 79.5691 141.868 79.6818C140.163 80.8515 138.471 82.0494 136.78 83.2474C136.427 83.0078 136.075 82.7541 135.709 82.5145C135.201 82.1904 134.708 81.8944 134.215 81.6126C129.436 78.8503 125.208 77.892 121.092 78.5826C119.584 78.8362 118.216 79.3295 117.004 80.0342L119.837 78.3853L119.823 78.3994Z" fill="#F35048"/>
<path d="M133.95 82.0458C129.253 79.3306 125.151 78.4143 121.189 79.0712V79.076C115.775 79.9907 112.238 84.1446 110.946 90.2841C109.67 96.3487 110.61 104.295 114.114 112.72L120.802 111.594C119.035 107.217 118.306 102.898 118.646 99.2567C119 95.4585 120.526 92.3293 123.325 90.7333L123.327 90.7323L123.64 90.5643C124.375 90.1902 125.159 89.9314 125.989 89.7997H125.99C128.649 89.3536 131.669 90.1213 134.62 91.8339C134.892 91.9915 135.18 92.1646 135.454 92.3378H135.455C138.525 94.2875 141.549 97.2622 144.086 100.984L149.108 96.7811C145.026 90.6964 140.64 86.2682 135.434 82.9413C135.176 82.784 134.927 82.6291 134.682 82.4794L133.952 82.0468L133.95 82.0458Z" fill="#87120C" stroke="white"/>
<path d="M144.025 101.709L149.762 96.8753L152.595 95.2264L155.343 93.6339L149.55 98.4819L146.717 100.131L144.039 101.681H144.011L144.025 101.709Z" fill="#87120C"/>
<path d="M129.464 73.7487C133.58 73.0581 137.809 74.0164 142.587 76.7787C143.08 77.0605 143.574 77.3706 144.081 77.6806C149.465 81.1193 153.976 85.7136 158.162 92.0414L149.79 96.8894C145.603 90.5616 141.093 85.9673 135.708 82.5286C135.201 82.2045 134.708 81.9085 134.214 81.6267C129.436 78.8644 125.208 77.9061 121.092 78.5967L129.464 73.7487Z" fill="#F35048"/>
<path d="M130.282 76.8773C130.395 76.8773 130.494 76.821 130.55 76.7223C130.635 76.5673 130.592 76.3841 130.437 76.2995L82.4289 48.5786L77.0164 28.3692C76.9882 28.2847 76.9459 28.2142 76.8754 28.186L40.9186 7.42701C40.7776 7.34245 40.5803 7.39883 40.4957 7.53976C40.4112 7.69478 40.4534 7.87799 40.6085 7.96255L76.4526 28.6511L81.8651 48.8604C81.8933 48.945 81.9356 49.0155 82.0061 49.0436L130.127 76.821C130.127 76.821 130.226 76.8632 130.282 76.8632V76.8773Z" fill="#87120C"/>
<path d="M112.635 93.0138C112.747 93.0138 112.846 92.9574 112.902 92.8588C112.987 92.7038 112.945 92.5206 112.79 92.436L82.3441 74.862L80.2721 67.125C80.2439 67.0404 80.2016 66.9699 80.1311 66.9418L57.1842 53.6943C57.0432 53.6098 56.8459 53.6521 56.7613 53.8071C56.6767 53.9621 56.719 54.1453 56.8741 54.2299L79.7083 67.4068L81.7803 75.1439C81.8085 75.2284 81.8507 75.2989 81.9212 75.3271L112.48 92.9715C112.48 92.9715 112.578 93.0138 112.635 93.0138Z" fill="#87120C"/>
<path d="M131.875 127.795C131.988 127.795 132.086 127.739 132.143 127.64C132.227 127.485 132.185 127.302 132.03 127.218L95.5234 106.134C95.4529 106.092 95.3684 106.078 95.2838 106.106L82.3444 109.573L60.074 96.7203C59.933 96.6357 59.7357 96.678 59.6511 96.833C59.5666 96.988 59.6088 97.1713 59.7639 97.2558L82.1471 110.179C82.1471 110.179 82.3021 110.235 82.3867 110.207L95.3261 106.74L131.72 127.753C131.72 127.753 131.819 127.795 131.875 127.795Z" fill="#87120C"/>
<path d="M71.181 16.9962L76.9741 20.3503V17.7431L71.181 14.389V16.9962Z" fill="#87120C"/>
<path d="M54.3656 7.30018L68.644 15.5446V12.9374L54.3656 4.69297V7.30018Z" fill="#87120C"/>
<path d="M46.2465 2.60721L51.8423 5.8486V3.2273L46.2465 0V2.60721Z" fill="#87120C"/>
<path d="M64.9368 18.2363L76.9741 25.1842V22.577L64.9368 15.6291V18.2363Z" fill="#87120C"/>
<path d="M58.7065 14.6426L62.4136 16.7848V14.1776L58.7065 12.0354V14.6426Z" fill="#87120C"/>
<path d="M49.7844 9.48459L56.1836 13.177V10.5698L49.7844 6.87739V9.48459Z" fill="#87120C"/>
<path d="M74.4652 55.8365L80.2583 59.1765V56.5693L74.4652 53.2293V55.8365Z" fill="#87120C"/>
<path d="M65.0075 50.3825L71.9424 54.3849V51.7636L65.0075 47.7753V50.3825Z" fill="#87120C"/>
<path d="M57.0436 45.7741L62.4844 48.9168V46.3096L57.0436 43.1669V45.7741Z" fill="#87120C"/>
<path d="M68.2351 57.0767L80.2583 64.0104V61.4032L68.2351 54.4695V57.0767Z" fill="#87120C"/>
<path d="M59.2281 51.8763L65.7119 55.611V53.0038L59.2281 49.2691V51.8763Z" fill="#87120C"/>
<path d="M76.4666 98.3832L82.2598 101.737V99.1302L76.4666 95.776V98.3832Z" fill="#87120C"/>
<path d="M59.6508 88.6873L73.9434 96.9317V94.3245L59.6508 86.08V88.6873Z" fill="#87120C"/>
<path d="M70.2366 99.6234L82.2598 106.571V103.964L70.2366 97.0162V99.6234Z" fill="#87120C"/>
<path d="M63.9922 96.0297L67.6992 98.1718V95.5646L63.9922 93.4225V96.0297Z" fill="#87120C"/>
<g opacity="0.4" style="mix-blend-mode:multiply">
<path d="M339.215 338.007L305.443 318.516L333.295 279.408C333.718 278.816 334.451 278.816 335.184 279.239C335.917 279.662 336.65 280.507 337.072 281.592L339.229 287.159V338.021L339.215 338.007Z" fill="#A1A8AD"/>
</g>
<g opacity="0.7" style="mix-blend-mode:multiply">
<path d="M146.689 162.478C146.548 162.394 146.407 162.394 146.322 162.506L140.614 170.525C140.445 170.751 140.656 171.272 140.98 171.47L152.341 178.037C152.665 178.22 152.862 177.938 152.707 177.515L147.055 162.929C146.971 162.718 146.83 162.549 146.689 162.478ZM147.055 180.63L152.707 195.216C152.862 195.639 152.665 195.921 152.341 195.738L140.98 189.17C140.656 188.987 140.459 188.466 140.614 188.226L146.322 180.207C146.407 180.094 146.548 180.094 146.689 180.179C146.83 180.264 146.971 180.419 147.055 180.63ZM147.055 198.331L152.707 212.917C152.862 213.34 152.665 213.622 152.341 213.438L140.98 206.871C140.656 206.688 140.459 206.167 140.614 205.927L146.322 197.908C146.407 197.795 146.548 197.795 146.689 197.88C146.83 197.964 146.971 198.119 147.055 198.331Z" fill="#C9C3D0"/>
</g>
<path d="M307.585 260.354L313.097 263.539V261.059L307.585 257.888V260.354Z" fill="#87120C"/>
<path d="M291.616 251.137L305.189 258.973V256.493L291.616 248.671V251.137Z" fill="#87120C"/>
<path d="M283.905 246.684L289.219 249.756V247.276L283.905 244.204V246.684Z" fill="#87120C"/>
<path d="M301.665 261.538L313.097 268.133V265.653L301.665 259.058V261.538Z" fill="#87120C"/>
<path d="M295.745 258.113L299.269 260.157V257.676L295.745 255.633V258.113Z" fill="#87120C"/>
<path d="M287.26 253.223L293.349 256.732V254.252L287.26 250.743V253.223Z" fill="#87120C"/>
<path d="M267.287 237.101L272.798 240.272V237.791L267.287 234.62V237.101Z" fill="#87120C"/>
<path d="M251.332 227.884L264.891 235.72V233.239L251.332 225.404V227.884Z" fill="#87120C"/>
<path d="M261.367 238.27L272.798 244.866V242.386L261.367 235.79V238.27Z" fill="#87120C"/>
<path d="M255.447 234.86L258.971 236.889V234.409L255.447 232.38V234.86Z" fill="#87120C"/>
<path d="M226.581 213.608L232.092 216.779V214.298L226.581 211.127V213.608Z" fill="#87120C"/>
<path d="M210.625 204.377L224.185 212.212V209.732L210.625 201.91V204.377Z" fill="#87120C"/>
<path d="M208.214 200.515V202.996L202.9 199.923V197.443L208.214 200.515Z" fill="#87120C"/>
<path d="M220.661 214.777L232.092 221.373V218.893L220.661 212.297V214.777Z" fill="#87120C"/>
<path d="M214.741 211.353L218.265 213.396V210.916L214.741 208.872V211.353Z" fill="#87120C"/>
<path d="M307.585 276.42L313.097 279.591V277.111L307.585 273.94V276.42Z" fill="#87120C"/>
<path d="M295.562 269.472L305.189 275.039V272.559L295.562 266.992V269.472Z" fill="#87120C"/>
<path d="M286.781 264.399L293.166 268.091V265.611L286.781 261.933V264.399Z" fill="#87120C"/>
<path d="M301.665 277.59L313.097 284.185V281.705L301.665 275.11V277.59Z" fill="#87120C"/>
<path d="M290.008 270.868L299.269 276.209V273.728L290.008 268.387V270.868Z" fill="#87120C"/>
<path d="M267.287 253.153L272.798 256.338V253.857L267.287 250.672V253.153Z" fill="#87120C"/>
<path d="M258.872 248.29L264.891 251.771V249.291L258.872 245.824V248.29Z" fill="#87120C"/>
<path d="M261.367 254.336L272.798 260.932V258.452L261.367 251.856V254.336Z" fill="#87120C"/>
<path d="M226.581 229.66L232.092 232.831V230.35L226.581 227.179V229.66Z" fill="#87120C"/>
<path d="M215.417 223.219L224.185 228.278V225.798L215.417 220.739V223.219Z" fill="#87120C"/>
<path d="M206.27 217.92L212.965 221.796V219.315L206.27 215.454V217.92Z" fill="#87120C"/>
<path d="M220.661 230.829L232.092 237.425V234.944L220.661 228.349V230.829Z" fill="#87120C"/>
<path d="M307.585 292.472L313.097 295.657V293.177L307.585 289.992V292.472Z" fill="#87120C"/>
<path d="M291.616 283.255L305.189 291.091V288.611L291.616 280.775V283.255Z" fill="#87120C"/>
<path d="M301.665 293.656L313.097 300.251V297.771L301.665 291.176V293.656Z" fill="#87120C"/>
<path d="M295.745 290.231L299.269 292.261V289.78L295.745 287.751V290.231Z" fill="#87120C"/>
<path d="M267.287 269.219L272.798 272.39V269.909L267.287 266.738V269.219Z" fill="#87120C"/>
<path d="M251.332 260.002L264.891 267.823V265.343L251.332 257.521V260.002Z" fill="#87120C"/>
<path d="M243.607 255.534L248.921 258.607V256.126L243.607 253.068V255.534Z" fill="#87120C"/>
<path d="M261.367 270.388L272.798 276.984V274.504L261.367 267.908V270.388Z" fill="#87120C"/>
<path d="M255.447 266.964L258.971 269.007V266.527L255.447 264.497V266.964Z" fill="#87120C"/>
<path d="M226.581 245.712L232.092 248.897V246.416L226.581 243.231V245.712Z" fill="#87120C"/>
<path d="M210.625 236.495L224.185 244.33V241.85L210.625 234.014V236.495Z" fill="#87120C"/>
<path d="M220.661 246.895L232.092 253.491V251.01L220.661 244.415V246.895Z" fill="#87120C"/>
<path d="M214.741 243.471L218.265 245.5V243.02L214.741 240.99V243.471Z" fill="#87120C"/>
<path d="M190.99 191.665L193.302 193.004V191.961L190.99 190.622V191.665Z" fill="#87120C"/>
<path d="M183.379 187.268L189.989 191.087V190.044L183.379 186.225V187.268Z" fill="#87120C"/>
<path d="M180.137 185.393L182.364 186.69V185.647L180.137 184.351V185.393Z" fill="#87120C"/>
<path d="M188.509 192.158L193.302 194.934V193.892L188.509 191.115V192.158Z" fill="#87120C"/>
<path d="M186.015 190.721L187.495 191.58V190.537L186.015 189.678V190.721Z" fill="#87120C"/>
<path d="M181.546 188.142L185 190.143V189.1L181.546 187.099V188.142Z" fill="#87120C"/>
<path d="M177.571 183.914L178.981 184.731V183.688L177.571 182.871V183.914Z" fill="#87120C"/>
<path d="M170.862 180.038L176.557 183.336V182.293L170.862 179.009V180.038Z" fill="#87120C"/>
<path d="M175.076 184.407L180.433 187.507V186.465L175.076 183.364V184.407Z" fill="#87120C"/>
<path d="M172.596 182.969L174.076 183.829V182.786L172.596 181.927V182.969Z" fill="#87120C"/>
<path d="M167.169 177.91L169.481 179.249V178.206L167.169 176.881V177.91Z" fill="#87120C"/>
<path d="M160.46 174.049L166.168 177.332V176.289L160.46 173.006V174.049Z" fill="#87120C"/>
<path d="M159.459 172.414V173.457L157.218 172.174V171.131L159.459 172.414Z" fill="#87120C"/>
<path d="M164.688 178.403L171.37 182.265V181.222L164.688 177.375V178.403Z" fill="#87120C"/>
<path d="M162.194 176.98L163.674 177.826V176.783L162.194 175.937V176.98Z" fill="#87120C"/>
<path d="M190.99 195.724L193.302 197.048V196.006L190.99 194.681V195.724Z" fill="#87120C"/>
<path d="M183.379 191.327L189.989 195.132V194.089L183.379 190.284V191.327Z" fill="#87120C"/>
<path d="M180.137 189.452L182.364 190.735V189.706L180.137 188.409V189.452Z" fill="#87120C"/>
<path d="M188.509 196.217L193.302 198.979V197.936L188.509 195.174V196.217Z" fill="#87120C"/>
<path d="M186.015 194.779L187.495 195.625V194.582L186.015 193.737V194.779Z" fill="#87120C"/>
<path d="M181.546 192.2L185 194.187V193.159L181.546 191.158V192.2Z" fill="#87120C"/>
<path d="M177.571 187.972L178.981 188.79V187.747L177.571 186.93V187.972Z" fill="#87120C"/>
<path d="M170.862 184.097L176.557 187.395V186.352L170.862 183.054V184.097Z" fill="#87120C"/>
<path d="M175.076 188.466L180.433 191.552V190.509L175.076 187.423V188.466Z" fill="#87120C"/>
<path d="M172.596 187.028L174.076 187.888V186.845L172.596 185.985V187.028Z" fill="#87120C"/>
<path d="M167.169 181.969L169.481 183.308V182.265L167.169 180.926V181.969Z" fill="#87120C"/>
<path d="M190.99 207.703L193.302 209.027V207.985L190.99 206.66V207.703Z" fill="#87120C"/>
<path d="M183.379 203.306L189.989 207.111V206.068L183.379 202.263V203.306Z" fill="#87120C"/>
<path d="M180.137 201.431L182.364 202.714V201.671L180.137 200.388V201.431Z" fill="#87120C"/>
<path d="M188.509 208.196L193.302 210.958V209.915L188.509 207.153V208.196Z" fill="#87120C"/>
<path d="M186.015 206.758L187.495 207.604V206.561L186.015 205.716V206.758Z" fill="#87120C"/>
<path d="M181.546 204.179L185 206.167V205.124L181.546 203.137V204.179Z" fill="#87120C"/>
<path d="M177.571 199.952L178.981 200.755V199.712L177.571 198.909V199.952Z" fill="#87120C"/>
<path d="M170.862 196.076L176.557 199.36V198.317L170.862 195.033V196.076Z" fill="#87120C"/>
<path d="M175.076 200.445L180.433 203.531V202.488L175.076 199.402V200.445Z" fill="#87120C"/>
<path d="M172.596 199.007L174.076 199.853V198.824L172.596 197.964V199.007Z" fill="#87120C"/>
<path d="M167.169 193.948L169.481 195.287V194.244L167.169 192.905V193.948Z" fill="#87120C"/>
<path d="M160.46 190.072L166.168 193.37V192.327L160.46 189.029V190.072Z" fill="#87120C"/>
<path d="M159.459 188.452V189.495L157.218 188.198V187.155L159.459 188.452Z" fill="#87120C"/>
<path d="M164.688 194.441L171.37 198.303V197.26L164.688 193.398V194.441Z" fill="#87120C"/>
<path d="M162.194 193.004L163.674 193.863V192.82L162.194 191.961V193.004Z" fill="#87120C"/>
<path d="M190.99 211.747L193.302 213.086V212.043L190.99 210.704V211.747Z" fill="#87120C"/>
<path d="M183.379 207.35L189.989 211.17V210.127L183.379 206.307V207.35Z" fill="#87120C"/>
<path d="M180.137 205.476L182.364 206.773V205.73L180.137 204.433V205.476Z" fill="#87120C"/>
<path d="M177.571 203.996L178.981 204.814V203.771L177.571 202.953V203.996Z" fill="#87120C"/>
<path d="M170.862 200.121L176.557 203.418V202.376L170.862 199.092V200.121Z" fill="#87120C"/>
<path d="M160.08 193.906L165.788 197.203V196.161L160.08 192.863V193.906Z" fill="#87120C"/>
<path d="M167.169 197.993L169.481 199.331V198.289L167.169 196.964V197.993Z" fill="#87120C"/>
<path d="M190.99 223.839L193.302 225.178V224.135L190.99 222.796V223.839Z" fill="#87120C"/>
<path d="M183.379 219.442L189.989 223.261V222.218L183.379 218.413V219.442Z" fill="#87120C"/>
<path d="M180.137 217.582L182.364 218.864V217.821L180.137 216.539V217.582Z" fill="#87120C"/>
<path d="M188.509 224.332L193.302 227.109V226.066L188.509 223.29V224.332Z" fill="#87120C"/>
<path d="M186.015 222.895L187.495 223.755V222.712L186.015 221.866V222.895Z" fill="#87120C"/>
<path d="M181.546 220.316L185 222.317V221.274L181.546 219.287V220.316Z" fill="#87120C"/>
<path d="M177.571 216.102L178.981 216.905V215.863L177.571 215.059V216.102Z" fill="#87120C"/>
<path d="M170.862 212.227L176.557 215.51V214.467L170.862 211.184V212.227Z" fill="#87120C"/>
<path d="M175.076 216.595L180.433 219.682V218.639L175.076 215.552V216.595Z" fill="#87120C"/>
<path d="M172.596 215.158L174.076 216.003V214.961L172.596 214.115V215.158Z" fill="#87120C"/>
<path d="M167.169 210.098L169.481 211.423V210.394L167.169 209.056V210.098Z" fill="#87120C"/>
<path d="M160.46 206.223L166.168 209.507V208.464L160.46 205.18V206.223Z" fill="#87120C"/>
<path d="M159.459 204.602V205.645L157.218 204.349V203.306L159.459 204.602Z" fill="#87120C"/>
<path d="M164.688 210.592L171.37 214.439V213.41L164.688 209.549V210.592Z" fill="#87120C"/>
<path d="M158.304 206.899L163.674 210V208.971L158.304 205.857V206.899Z" fill="#87120C"/>
<path d="M190.99 227.898L193.302 229.237V228.194L190.99 226.855V227.898Z" fill="#87120C"/>
<path d="M183.379 223.501L189.989 227.32V226.277L183.379 222.458V223.501Z" fill="#87120C"/>
<path d="M180.137 221.627L182.364 222.923V221.88L180.137 220.584V221.627Z" fill="#87120C"/>
<path d="M188.509 228.391L193.302 231.168V230.125L188.509 227.348V228.391Z" fill="#87120C"/>
<path d="M186.015 226.954L187.495 227.813V226.771L186.015 225.911V226.954Z" fill="#87120C"/>
<path d="M181.546 224.375L185 226.376V225.333L181.546 223.332V224.375Z" fill="#87120C"/>
<path d="M177.571 220.147L178.981 220.964V219.921L177.571 219.104V220.147Z" fill="#87120C"/>
<path d="M170.862 216.271L176.557 219.569V218.526L170.862 215.228V216.271Z" fill="#87120C"/>
<path d="M167.169 214.143L169.481 215.482V214.439L167.169 213.1V214.143Z" fill="#87120C"/>
<path d="M132.086 157.658L134.398 158.997V157.954L132.086 156.616V157.658Z" fill="#87120C"/>
<path d="M124.475 153.275L131.085 157.081V156.038L124.475 152.233V153.275Z" fill="#87120C"/>
<path d="M121.233 151.401L123.474 152.684V151.641L121.233 150.358V151.401Z" fill="#87120C"/>
<path d="M129.606 158.152L134.398 160.928V159.885L129.606 157.123V158.152Z" fill="#87120C"/>
<path d="M127.111 156.714L128.591 157.574V156.531L127.111 155.685V156.714Z" fill="#87120C"/>
<path d="M122.642 154.149L126.11 156.136V155.094L122.642 153.106V154.149Z" fill="#87120C"/>
<path d="M118.668 149.921L120.077 150.725V149.682L118.668 148.878V149.921Z" fill="#87120C"/>
<path d="M132.086 161.717L134.398 163.056V162.013L132.086 160.674V161.717Z" fill="#87120C"/>
<path d="M124.475 157.32L131.085 161.139V160.096L124.475 156.277V157.32Z" fill="#87120C"/>
<path d="M121.233 155.446L123.474 156.742V155.699L121.233 154.403V155.446Z" fill="#87120C"/>
<path d="M129.606 162.21L134.398 164.987V163.944L129.606 161.168V162.21Z" fill="#87120C"/>
<path d="M127.111 160.773L128.591 161.633V160.59L127.111 159.73V160.773Z" fill="#87120C"/>
<path d="M122.642 158.194L126.11 160.195V159.152L122.642 157.151V158.194Z" fill="#87120C"/>
<path d="M132.086 173.696L134.398 175.021V173.992L132.086 172.653V173.696Z" fill="#87120C"/>
<path d="M124.475 169.299L131.085 173.104V172.076L124.475 168.256V169.299Z" fill="#87120C"/>
<path d="M121.233 167.425L123.474 168.721V167.679L121.233 166.382V167.425Z" fill="#87120C"/>
<path d="M129.606 174.19L134.398 176.952V175.923L129.606 173.147V174.19Z" fill="#87120C"/>
<path d="M127.111 172.752L128.591 173.612V172.569L127.111 171.709V172.752Z" fill="#87120C"/>
<path d="M122.642 170.173L126.11 172.174V171.131L122.642 169.13V170.173Z" fill="#87120C"/>
<path d="M118.668 165.945L120.077 166.762V165.72L118.668 164.902V165.945Z" fill="#87120C"/>
<path d="M132.086 177.741L134.398 179.08V178.037L132.086 176.698V177.741Z" fill="#87120C"/>
<path d="M124.475 173.344L131.085 177.163V176.12L124.475 172.315V173.344Z" fill="#87120C"/>
<path d="M132.086 189.847L134.398 191.172V190.129L132.086 188.804V189.847Z" fill="#87120C"/>
<path d="M124.475 185.45L131.085 189.255V188.212L124.475 184.407V185.45Z" fill="#87120C"/>
<path d="M121.233 183.575L123.474 184.858V183.829L121.233 182.533V183.575Z" fill="#87120C"/>
<path d="M129.606 190.34L134.398 193.102V192.059L129.606 189.297V190.34Z" fill="#87120C"/>
<path d="M127.111 188.903L128.591 189.748V188.705L127.111 187.86V188.903Z" fill="#87120C"/>
<path d="M122.642 186.324L126.11 188.311V187.282L122.642 185.281V186.324Z" fill="#87120C"/>
<path d="M118.668 182.096L120.077 182.899V181.87L118.668 181.053V182.096Z" fill="#87120C"/>
<path d="M132.086 193.892L134.398 195.23V194.187L132.086 192.849V193.892Z" fill="#87120C"/>
<path d="M124.475 189.495L131.085 193.314V192.271L124.475 188.452V189.495Z" fill="#87120C"/>
<path d="M129.606 194.385L134.398 197.161V196.118L129.606 193.342V194.385Z" fill="#87120C"/>
<path d="M127.111 192.947L128.591 193.807V192.764L127.111 191.904V192.947Z" fill="#87120C"/>
<path d="M142.7 159.589C142.784 159.547 142.897 159.561 142.996 159.617C143.137 159.702 143.278 159.857 143.362 160.068L149.014 174.655C149.113 174.922 149.071 175.134 148.944 175.204L147.365 176.12L141.121 160.491L142.7 159.575V159.589Z" fill="#87120C"/>
<path d="M141.417 160.533C141.276 160.449 141.135 160.449 141.051 160.562L135.342 168.58C135.173 168.806 135.384 169.327 135.709 169.525L147.069 176.092C147.394 176.275 147.591 175.993 147.436 175.571L141.784 160.984C141.699 160.773 141.558 160.604 141.417 160.533Z" fill="#87120C"/>
<path d="M140.896 169.792C140.628 169.821 140.543 170.145 140.698 170.539C140.797 170.793 140.98 171.019 141.177 171.131C141.276 171.188 141.361 171.216 141.445 171.202C141.713 171.174 141.798 170.849 141.643 170.455C141.544 170.187 141.361 169.976 141.163 169.863C141.065 169.807 140.98 169.778 140.896 169.792ZM140.614 165.1C140.614 164.155 140.896 163.859 141.177 164.014C141.459 164.183 141.741 164.804 141.741 165.748C141.741 167.622 141.473 169.398 141.163 169.229C140.853 169.046 140.6 166.974 140.614 165.1Z" fill="#F2F2F2"/>
<path d="M142.7 177.29C142.784 177.248 142.897 177.262 142.996 177.318C143.137 177.403 143.278 177.558 143.362 177.769L149.014 192.355C149.113 192.623 149.071 192.835 148.944 192.905L147.365 193.821L141.121 178.192L142.7 177.276V177.29Z" fill="#87120C"/>
<path d="M141.417 178.234C141.276 178.15 141.135 178.15 141.051 178.262L135.342 186.281C135.173 186.507 135.384 187.028 135.709 187.226L147.069 193.793C147.394 193.976 147.591 193.694 147.436 193.271L141.784 178.685C141.699 178.474 141.558 178.305 141.417 178.234Z" fill="#87120C"/>
<path d="M140.896 187.493C140.628 187.521 140.543 187.846 140.698 188.24C140.797 188.494 140.98 188.719 141.177 188.832C141.276 188.889 141.361 188.917 141.445 188.903C141.713 188.874 141.798 188.55 141.643 188.156C141.544 187.888 141.361 187.677 141.163 187.564C141.065 187.507 140.98 187.479 140.896 187.493ZM140.614 182.8C140.614 181.856 140.896 181.56 141.177 181.715C141.459 181.884 141.741 182.504 141.741 183.449C141.741 185.323 141.473 187.099 141.163 186.93C140.853 186.746 140.6 184.675 140.614 182.8Z" fill="#F2F2F2"/>
<path d="M142.7 194.991C142.784 194.949 142.897 194.963 142.996 195.019C143.137 195.104 143.278 195.259 143.362 195.47L149.014 210.056C149.113 210.324 149.071 210.535 148.944 210.606L147.365 211.522L141.121 195.893L142.7 194.977V194.991Z" fill="#87120C"/>
<path d="M141.417 195.935C141.276 195.85 141.135 195.85 141.051 195.963L135.342 203.982C135.173 204.208 135.384 204.729 135.709 204.926L147.069 211.494C147.394 211.677 147.591 211.395 147.436 210.972L141.784 196.386C141.699 196.175 141.558 196.005 141.417 195.935Z" fill="#87120C"/>
<path d="M140.896 205.194C140.628 205.222 140.543 205.546 140.698 205.941C140.797 206.195 140.98 206.42 141.177 206.533C141.276 206.589 141.361 206.618 141.445 206.603C141.713 206.575 141.798 206.251 141.643 205.857C141.544 205.589 141.361 205.377 141.163 205.265C141.065 205.208 140.98 205.18 140.896 205.194ZM140.614 200.501C140.614 199.557 140.896 199.261 141.177 199.416C141.459 199.585 141.741 200.205 141.741 201.149C141.741 203.024 141.473 204.8 141.163 204.63C140.853 204.447 140.6 202.376 140.614 200.501Z" fill="#F2F2F2"/>
<path opacity="0.9" d="M311.053 152.458C311.053 153.741 312.096 155.389 313.379 156.122C314.661 156.869 315.705 156.418 315.705 155.136C315.705 153.853 314.661 152.204 313.379 151.472C312.096 150.725 311.053 151.176 311.053 152.458ZM321.639 156.249C322.921 156.996 323.964 158.631 323.964 159.913C323.964 161.196 322.921 161.633 321.639 160.9C320.356 160.153 319.313 158.518 319.313 157.236C319.313 155.953 320.356 155.516 321.639 156.249ZM329.898 161.013C331.181 161.759 332.224 163.394 332.224 164.677C332.224 165.959 331.181 166.396 329.898 165.663C328.616 164.916 327.573 163.281 327.573 161.999C327.573 160.717 328.616 160.28 329.898 161.013Z" fill="#FFF9EE"/>
<path d="M327.389 282.677C327.812 282.438 328.376 282.508 328.926 282.832C329.659 283.255 330.391 284.101 330.814 285.186L359.85 360.147C360.372 361.5 360.146 362.585 359.498 362.965L354.424 365.897L322.315 285.609L327.389 282.677Z" fill="#F8F5F4"/>
<path d="M322.823 285.981C322.642 285.993 322.492 286.067 322.37 286.236V286.237L292.996 327.487V327.486C292.868 327.67 292.79 327.945 292.795 328.31C292.8 328.673 292.887 329.092 293.052 329.518C293.385 330.382 293.997 331.19 294.711 331.597L294.713 331.598L353.136 365.321C353.491 365.524 353.764 365.57 353.949 365.549C354.123 365.528 354.26 365.445 354.364 365.298C354.592 364.976 354.697 364.27 354.311 363.273V363.272L325.274 288.313C324.887 287.318 324.222 286.569 323.602 286.211C323.292 286.032 323.024 285.968 322.823 285.981Z" fill="#F35048" stroke="white"/>
<path d="M321.173 333.356C319.834 333.469 319.369 335.188 320.13 337.175C320.652 338.514 321.596 339.641 322.569 340.205C323.048 340.473 323.527 340.614 323.964 340.586C325.317 340.473 325.783 338.753 325.007 336.766C324.486 335.428 323.541 334.3 322.583 333.736C322.104 333.455 321.624 333.314 321.173 333.356ZM319.736 309.243C319.736 304.423 321.216 302.845 322.668 303.69C324.119 304.536 325.571 307.777 325.557 312.611C325.529 322.265 324.204 331.397 322.597 330.481C320.99 329.551 319.708 318.911 319.736 309.257V309.243Z" fill="#FFF9EE"/>
<path d="M60.4189 263.628L60.4082 263.634C56.3573 265.973 55.296 271.98 58.3213 277.154C61.2523 282.153 66.7713 284.242 70.7998 282.24L71.1846 282.033L105.021 261.436L94.249 243.035L60.4189 263.628Z" fill="#F35048" stroke="white"/>
<path d="M94.4239 242.343C98.8075 239.821 104.868 242.075 107.983 247.403C111.084 252.716 110.07 259.072 105.686 261.594C104.657 262.186 103.529 262.524 102.359 262.609C98.6101 262.877 94.5084 260.594 92.1404 256.549C89.6738 252.335 89.8006 247.459 92.1404 244.373C92.7465 243.555 93.5218 242.865 94.4239 242.343Z" fill="#87120C"/>
<path d="M92.1404 244.373C87.8273 251.377 94.1419 262.468 102.374 262.609C93.1976 263.891 86.0654 251.433 92.1404 244.373Z" fill="url(#paint1_radial_531_1542)"/>
<path d="M97.9052 245.472L108.899 238.792C109.661 239.891 110.408 240.99 111.112 242.075C112.846 244.767 114.932 247.064 116.962 249.39L104.6 256.915C102.007 258.409 98.4127 257.07 96.5662 253.914C94.7197 250.757 95.3258 246.98 97.9193 245.486L97.9052 245.472Z" fill="#E9E6E6"/>
<path d="M95.664 191.284C97.1863 189.142 99.0046 187.493 101.048 186.309L110.605 180.757C108.561 181.941 106.743 183.59 105.221 185.732C100.597 192.229 99.3429 202.206 101.697 213.791C104.065 225.403 109.745 237.242 117.709 247.149C123.023 253.744 128.915 258.945 134.891 262.398C137.879 264.131 140.896 265.413 143.87 266.217C149.86 267.837 155.188 267.344 159.445 264.864L149.888 270.417C145.632 272.883 140.304 273.376 134.313 271.769C131.339 270.966 128.323 269.684 125.334 267.95C119.358 264.497 113.466 259.297 108.152 252.702C100.203 242.794 94.5082 230.956 92.1402 219.343C89.7863 207.759 91.0408 197.781 95.6782 191.284H95.664Z" fill="url(#paint2_linear_531_1542)"/>
<path opacity="0.6" d="M94.7479 217.836C97.1159 229.448 102.796 241.286 110.76 251.194C116.074 257.789 121.966 262.99 127.942 266.442C130.93 268.176 133.947 269.458 136.921 270.262C145.829 272.671 153.285 270.402 157.908 263.877C167.465 250.433 161.869 222.895 145.448 202.46C140.036 195.724 134.116 190.608 128.266 187.226C116.342 180.348 104.699 180.743 98.2858 189.762C93.6625 196.259 92.4081 206.237 94.7619 217.821L94.7479 217.836Z" fill="#393939"/>
<path d="M108.885 177.811C115.919 173.724 125.476 174.81 135.215 180.433C141.474 184.041 147.802 189.523 153.595 196.724C171.172 218.582 177.163 248.051 166.93 262.426C165.309 264.709 163.363 266.513 161.136 267.795L151.58 273.348C153.807 272.051 155.752 270.261 157.373 267.978C167.606 253.618 161.616 224.135 144.039 202.277C138.246 195.089 131.917 189.607 125.659 185.985C115.919 180.362 106.362 179.277 99.3289 183.364L108.885 177.811Z" fill="url(#paint3_linear_531_1542)"/>
<path d="M93.5779 188.677C100.442 179.037 112.888 178.615 125.659 185.985C131.917 189.593 138.246 195.075 144.039 202.277C150.508 210.31 155.399 219.386 158.5 228.349C163.828 243.767 163.843 258.888 157.373 267.964C152.425 274.94 144.448 277.35 134.919 274.785C131.734 273.94 128.506 272.545 125.306 270.698C118.921 267.006 112.606 261.439 106.94 254.393C98.4267 243.795 92.3375 231.125 89.8145 218.723C87.3056 206.307 88.6305 195.625 93.592 188.677H93.5779ZM92.1261 219.343C94.4941 230.956 100.174 242.794 108.138 252.702C113.452 259.297 119.344 264.497 125.32 267.95C128.309 269.684 131.325 270.966 134.299 271.769C143.207 274.179 150.663 271.91 155.287 265.385C164.843 251.941 159.247 224.403 142.827 203.968C137.414 197.232 131.494 192.116 125.645 188.733C113.72 181.856 102.077 182.251 95.664 191.27C91.0408 197.767 89.7863 207.745 92.1261 219.329V219.343Z" fill="#E9E6E6"/>
<path d="M103.205 181.687C103.755 181.504 104.572 181.25 105.643 181.067C107.758 180.658 110.943 180.433 114.622 181.194C118.301 181.927 122.445 183.477 126.49 185.844C130.536 188.198 134.482 191.298 138.062 194.751C141.614 198.246 144.786 202.094 147.464 205.913C150.156 209.718 152.27 213.523 153.934 216.849C155.597 220.175 156.682 223.092 157.415 225.122C158.134 227.165 158.5 228.349 158.5 228.349C158.5 228.349 158.078 227.193 157.232 225.206C156.4 223.219 155.061 220.443 153.313 217.187C151.58 213.932 149.282 210.282 146.59 206.561C143.898 202.841 140.712 199.064 137.189 195.667C130.268 188.748 121.642 183.519 114.481 181.898C110.915 181.053 107.814 180.996 105.686 181.292C104.615 181.419 103.797 181.602 103.233 181.757C102.669 181.912 102.373 181.997 102.373 181.997C102.373 181.997 102.669 181.898 103.219 181.715L103.205 181.687Z" fill="#F8F5F4"/>
<path d="M29.5013 344.757L57.2407 328.747L29.5013 312.738L1.7761 328.747L29.5013 344.757Z" fill="#F35048"/>
<path d="M29.5013 375.649L57.2407 359.639V328.747L29.5013 344.757V375.649Z" fill="#87120C"/>
<path d="M1.77623 359.639L29.5015 375.649V344.757L1.77623 328.747V359.639Z" fill="#DC150B"/>
<path d="M18.3944 201.629L36.8027 191.002L18.3944 180.376L0.000144958 191.002L18.3944 201.629Z" fill="#F35048"/>
<path d="M18.3944 222.134L36.8027 211.508V191.002L18.3944 201.629V222.134Z" fill="#87120C"/>
<path d="M0.000312805 211.508L18.3945 222.134V201.629L0.000312805 191.002V211.508Z" fill="#DC150B"/>
<path d="M387.477 413.108L415.202 397.098L387.477 381.089L359.738 397.098L387.477 413.108Z" fill="#F35048"/>
<path d="M387.477 444L415.202 427.99V397.098L387.477 413.108V444Z" fill="#87120C"/>
<path d="M359.738 427.99L387.477 444V413.108L359.738 397.098V427.99Z" fill="#DC150B"/>
<path d="M271.361 382.216L281.805 376.184L271.361 370.153L260.902 376.184L271.361 382.216Z" fill="#F35048"/>
<path d="M271.361 393.857L281.805 387.825V376.184L271.361 382.216V393.857Z" fill="#87120C"/>
<path d="M260.902 387.825L271.361 393.857V382.216L260.902 376.184V387.825Z" fill="#DC150B"/>
<path d="M416.555 311.159L427 305.128L416.555 299.096L406.097 305.128L416.555 311.159Z" fill="#F35048"/>
<path d="M416.555 322.8L427 316.768V305.128L416.555 311.159V322.8Z" fill="#87120C"/>
<path d="M406.097 316.768L416.556 322.8V311.159L406.097 305.128V316.768Z" fill="#DC150B"/>
<path d="M303.089 403.793L309.77 399.945L303.089 396.098L296.422 399.945L303.089 403.793Z" fill="#F35048"/>
<path d="M303.089 411.234L309.77 407.372V399.945L303.089 403.793V411.234Z" fill="#87120C"/>
<path d="M296.422 407.372L303.089 411.234V403.793L296.422 399.945V407.372Z" fill="#DC150B"/>
</g>
<defs>
<linearGradient id="paint0_linear_531_1542" x1="241.705" y1="339.388" x2="230.203" y2="339.388" gradientUnits="userSpaceOnUse">
<stop stop-color="#BDB6C6"/>
<stop offset="1" stop-color="#E9E6E6"/>
</linearGradient>
<radialGradient id="paint1_radial_531_1542" cx="0" cy="0" r="1" gradientUnits="userSpaceOnUse" gradientTransform="translate(91.8162 256.605) rotate(180) scale(11.3326 11.3308)">
<stop stop-color="#6789E8"/>
<stop offset="1" stop-color="#3F63C9"/>
</radialGradient>
<linearGradient id="paint2_linear_531_1542" x1="93.7753" y1="190.453" x2="132.852" y2="258.161" gradientUnits="userSpaceOnUse">
<stop stop-color="#C5BCB7"/>
<stop offset="0.23" stop-color="#D2CAC5"/>
<stop offset="0.71" stop-color="#E9E4DF"/>
<stop offset="1" stop-color="#F2EEE9"/>
</linearGradient>
<linearGradient id="paint3_linear_531_1542" x1="117.216" y1="173.006" x2="169.257" y2="263.137" gradientUnits="userSpaceOnUse">
<stop stop-color="#F8F5F4"/>
<stop offset="0.23" stop-color="#F2EFEF"/>
<stop offset="0.52" stop-color="#E2DEE3"/>
<stop offset="0.86" stop-color="#C9C3CF"/>
<stop offset="1" stop-color="#BDB6C6"/>
</linearGradient>
<clipPath id="clip0_531_1542">
<rect width="427" height="444" fill="white" transform="matrix(-1 0 0 1 427 0)"/>
</clipPath>
</defs>
</svg>
