<svg width="404" height="389" viewBox="0 0 404 389" fill="none" xmlns="http://www.w3.org/2000/svg">
<path d="M48.5343 188.361L61.8342 180.683L69.7693 194.427L60.9069 199.543C58.3274 201.033 56.4854 202.677 55.4426 204.491C54.4229 206.264 53.8533 208.081 53.7489 209.942C53.6516 211.679 53.9222 213.39 54.5626 215.065L54.6955 215.398C55.4093 217.132 56.1993 218.747 57.0583 220.235L78.4968 257.367C80.7276 261.231 81.7393 264.825 81.582 268.145C81.4197 271.53 80.7049 274.584 79.445 277.305C78.1778 280.045 76.5639 282.418 74.61 284.426C72.6245 286.467 70.9153 287.976 69.483 288.958L69.1019 289.22L69.8656 290.543L70.2638 290.391C71.9304 289.753 74.1155 289.021 76.814 288.199C79.4525 287.397 82.2742 287.129 85.2761 287.404C88.0663 287.66 90.9396 288.582 93.8927 290.184L94.4843 290.514C97.5913 292.29 100.456 295.402 103.054 299.902L124.454 336.967C125.209 338.275 126.073 339.584 127.047 340.89L127.471 341.449C128.575 342.885 129.891 344.017 131.421 344.847L131.73 345.009C133.396 345.85 135.253 346.268 137.301 346.278L137.303 346.278C139.398 346.283 141.743 345.513 144.322 344.023L153.185 338.907L161.12 352.651L147.82 360.329C144.483 362.256 140.815 363.684 136.815 364.616C132.821 365.543 128.903 365.783 125.056 365.341C121.221 364.899 117.55 363.634 114.041 361.546C110.558 359.468 107.627 356.38 105.248 352.258L83.5049 314.598C81.6898 311.455 79.4103 309.169 76.6582 307.777C73.9522 306.407 71.2005 305.641 68.412 305.482C65.815 305.333 63.2775 305.591 60.805 306.25L60.3109 306.386C57.9282 307.079 55.9056 307.871 54.2504 308.77L45.6327 293.844C47.2382 292.86 48.9385 291.51 50.7304 289.794C52.6994 287.909 54.3443 285.791 55.6651 283.443C56.9963 281.077 57.8035 278.47 58.0828 275.628C58.3674 272.732 57.6565 269.828 55.9839 266.931L34.1982 229.197C31.8261 225.088 30.621 221.014 30.5706 216.97C30.5198 212.894 31.2643 209.089 32.8005 205.553L32.8018 205.553C34.3469 202.004 36.5131 198.734 39.3157 195.744C42.1241 192.748 45.1986 190.287 48.5343 188.361Z" stroke="white"/>
<path d="M333.817 97.8996L333.401 98.0983C331.824 98.8509 329.675 99.6088 326.949 100.37C324.439 101.07 321.753 101.342 318.894 101.181L318.319 101.143L317.748 101.09C314.894 100.782 312.023 99.7734 309.134 98.0516C306.095 96.2405 303.272 93.1168 300.675 88.6197L279.325 51.6403C278.464 50.1485 277.46 48.6592 276.316 47.1701C275.142 45.643 273.722 44.4556 272.064 43.6215C270.399 42.7843 268.538 42.3671 266.496 42.3614L266.496 42.3619C264.399 42.3584 262.058 43.1266 259.482 44.6139L250.618 49.7316L242.683 35.9885L255.985 28.3083C259.319 26.3838 262.987 24.9559 266.986 24.0219C270.724 23.1502 274.403 22.881 278.016 23.2128L278.738 23.2868C282.572 23.7267 286.236 24.9863 289.741 27.0702C293.219 29.1377 296.15 32.2166 298.526 36.3319L320.221 73.9101C322.034 77.0489 324.309 79.3303 327.058 80.7184C329.762 82.0846 332.513 82.8497 335.3 83.0076C338.069 83.1644 340.77 82.8574 343.396 82.0942C345.779 81.4015 347.799 80.6032 349.456 79.7026L358.071 94.6237C356.462 95.6096 354.765 96.9656 352.973 98.6832C351.007 100.571 349.363 102.691 348.042 105.038C346.71 107.407 345.907 110.018 345.63 112.863L345.631 112.864C345.349 115.765 346.064 118.671 347.74 121.573L369.574 159.39C371.952 163.511 373.157 167.593 373.211 171.644C373.261 175.47 372.615 179.056 371.269 182.408L370.991 183.074C369.544 186.403 367.547 189.49 364.999 192.329L364.483 192.893C361.674 195.889 358.604 198.352 355.271 200.276L341.969 207.956L334.034 194.212L342.898 189.095C345.312 187.7 347.078 186.17 348.15 184.485L348.355 184.145C349.371 182.37 349.94 180.549 350.044 178.688C350.148 176.83 349.83 175.007 349.093 173.223C348.373 171.483 347.584 169.868 346.722 168.374L325.232 131.152C323.066 127.401 322.03 123.852 322.083 120.494C322.137 117.089 322.828 114.007 324.153 111.246C325.487 108.461 327.136 106.063 329.09 104.054C331.075 102.014 332.785 100.504 334.219 99.5144L334.598 99.2528L333.817 97.8996Z" stroke="white"/>
<path d="M127.486 65.0661C127.538 64.9432 127.486 64.7851 127.38 64.7149L116.475 58.5859C116.071 58.3224 115.193 57.8658 115.193 57.8658C110.644 55.7409 104.427 56.7243 97.6661 61.4835C87.2345 68.8243 78.8928 83.4531 77.9093 96.0799C77.4176 102.525 78.7874 107.495 81.4567 110.656L95.2777 126.11C95.4007 126.251 105.007 131.554 106.342 132.292C106.412 132.327 106.5 132.292 106.5 132.204L107.202 106.16C115.438 98.24 121.567 86.1927 122.428 75.3748L122.885 74.7425L127.451 65.0837L127.486 65.0661Z" fill="#50DBD9"/>
<path d="M106.412 133.082C106.254 133.082 106.113 133.047 105.973 132.959C94.9265 126.883 94.8212 126.743 94.6982 126.62L80.5436 110.797C77.8215 107.302 76.6273 102.209 77.1015 96.0097C78.1025 83.1019 86.5496 68.315 97.192 60.8337C103.901 56.1097 110.398 54.7925 115.456 57.1282C115.737 57.2336 116.176 57.4619 116.879 57.9185L127.749 64.0299C128.223 64.2934 128.417 64.8905 128.188 65.3998L123.534 75.1991L123.201 75.6382C122.27 86.2981 116.334 98.3454 107.992 106.476L107.272 132.643L106.833 132.959C106.693 133.03 106.552 133.082 106.394 133.082H106.412ZM95.8222 125.496C96.5598 125.952 102.338 129.148 105.762 131.045L106.447 105.791L106.675 105.563C114.947 97.6253 120.83 85.7361 121.655 75.287V75.0586L122.217 74.3211L126.555 65.1539L116.071 59.2532C115.632 58.9722 114.806 58.5507 114.806 58.5507C110.363 56.4785 104.269 57.778 98.1052 62.1157C87.8141 69.3511 79.6479 83.6638 78.682 96.1326C78.2254 102.139 79.3845 106.968 82.0539 110.129L82.1066 110.199L95.8046 125.496H95.8222Z" fill="#1AA8A8"/>
<path d="M118.055 89.5822L118.67 88.1948C121.269 82.1185 122.621 75.7261 122.13 70.001C122.095 69.5444 122.042 69.1054 121.972 68.6663L126.239 64.6271C126.362 64.5042 126.345 64.311 126.186 64.2232L116.141 58.463C115.895 58.305 115.351 58.0064 115.351 58.0064C112.014 56.3029 107.677 56.3556 102.882 58.5157C97.1747 61.0797 91.8535 65.9794 87.6562 71.9152L118.038 89.5822H118.055Z" fill="white"/>
<path d="M118.424 90.7061L86.5322 72.1786L87.0239 71.4761C91.4846 65.1715 96.999 60.3245 102.566 57.8132C107.395 55.6355 112.067 55.4599 115.72 57.3215C115.737 57.3215 116.317 57.6376 116.58 57.8132L126.59 63.5558C126.871 63.7139 127.064 64.0124 127.1 64.3285C127.135 64.6447 127.012 64.9783 126.783 65.2066L122.815 68.9824C122.85 69.2985 122.885 69.6146 122.92 69.9483C123.394 75.5856 122.182 81.9956 119.408 88.5109L118.442 90.7237L118.424 90.7061ZM88.8152 71.6693L117.687 88.4582L117.95 87.8611C120.619 81.5916 121.796 75.4451 121.339 70.0536C121.304 69.6146 121.252 69.1931 121.181 68.7716L121.129 68.3677L125.168 64.5393L115.755 59.1303C115.491 58.9723 114.982 58.6913 114.982 58.6737C111.751 57.0229 107.659 57.1985 103.216 59.2181C98.1053 61.5187 93.03 65.9267 88.8152 71.6693Z" fill="#1AA8A8"/>
<path d="M92.6784 116.908C90.009 113.747 88.6217 108.777 89.131 102.332C90.1144 89.705 98.4562 75.0761 108.888 67.7354C122.375 58.2521 133.79 63.8016 133.79 79.0451C133.79 93.3051 123.78 110.656 111.417 117.804C111.065 118.014 110.714 118.19 110.363 118.383C109.221 121.948 109.221 125.899 109.59 129.306C109.801 131.186 107.518 133.469 106.535 132.38L92.7135 116.925L92.6784 116.908Z" fill="#1AA8A8"/>
<path d="M107.149 133.433C106.675 133.433 106.254 133.24 105.92 132.889L91.7652 117.066C89.0432 113.571 87.849 108.478 88.3232 102.279C89.3242 89.3713 97.7713 74.5844 108.414 67.1032C115.263 62.2737 122.094 61.0093 127.152 63.6435C131.911 66.1197 134.545 71.599 134.545 79.0451C134.545 93.5334 124.324 111.236 111.785 118.471C111.522 118.629 111.241 118.769 110.978 118.91C110.135 121.72 109.906 125.215 110.345 129.201C110.521 130.887 109.257 132.678 108.01 133.223C107.711 133.346 107.43 133.416 107.149 133.416V133.433ZM93.3458 116.469L107.097 131.835C107.097 131.835 107.272 131.835 107.378 131.8C108.098 131.484 108.905 130.29 108.8 129.377C108.326 125.074 108.607 121.298 109.608 118.137L109.766 117.804L109.994 117.681C110.328 117.505 110.679 117.312 111.013 117.119C123.13 110.129 133 93.0417 133 79.0451C133 72.1961 130.682 67.2261 126.449 65.0309C121.936 62.6952 115.702 63.907 109.344 68.3852C99.0533 75.6206 90.8872 89.9333 89.9213 102.402C89.4647 108.408 90.6237 113.238 93.2931 116.399L93.3458 116.469Z" fill="#1AA8A8"/>
<path d="M119.074 87.703C119.074 90.1441 120.795 91.1451 122.902 89.9158C125.027 88.6865 126.731 85.7186 126.731 83.2775C126.731 80.8364 125.01 79.8354 122.902 81.0648C120.777 82.2941 119.074 85.262 119.074 87.703Z" fill="#1AA8A8"/>
<path d="M121.199 91.2329C120.707 91.2329 120.233 91.11 119.812 90.8641C118.828 90.3021 118.301 89.1782 118.301 87.703C118.301 84.9634 120.163 81.7496 122.534 80.3798C123.816 79.6422 125.045 79.5544 126.028 80.1164C127.012 80.6784 127.539 81.8023 127.539 83.2775C127.539 86.0171 125.677 89.2309 123.306 90.6007C122.586 91.0221 121.866 91.2329 121.199 91.2329ZM124.641 81.3281C124.255 81.3281 123.798 81.4686 123.324 81.7496C121.462 82.8209 119.882 85.5605 119.882 87.7206C119.882 88.5986 120.145 89.2484 120.619 89.5294C121.094 89.7928 121.778 89.705 122.551 89.266C124.413 88.1947 125.993 85.4551 125.993 83.295C125.993 82.417 125.73 81.7672 125.256 81.4862C125.08 81.3808 124.887 81.3457 124.641 81.3457V81.3281Z" fill="white"/>
<path d="M107.518 94.394C107.518 96.8351 109.239 97.8361 111.346 96.6068C113.471 95.3775 115.175 92.4095 115.175 89.9685C115.175 87.5274 113.454 86.5264 111.346 87.7557C109.222 88.985 107.518 91.9529 107.518 94.394Z" fill="#1AA8A8"/>
<path d="M109.643 97.9239C109.152 97.9239 108.677 97.801 108.256 97.5551C107.272 96.9931 106.746 95.8692 106.746 94.394C106.746 91.6544 108.607 88.4406 110.978 87.0708C112.26 86.3332 113.489 86.2454 114.473 86.8074C115.456 87.3693 115.983 88.4933 115.983 89.9685C115.983 92.7081 114.121 95.9219 111.751 97.2917C111.031 97.7132 110.311 97.9239 109.643 97.9239ZM113.068 88.0016C112.681 88.0016 112.225 88.1421 111.751 88.423C109.889 89.4943 108.309 92.2339 108.309 94.394C108.309 95.2721 108.572 95.9219 109.046 96.2028C109.503 96.4663 110.205 96.3785 110.978 95.9394C112.839 94.8682 114.42 92.1286 114.42 89.9685C114.42 89.0904 114.157 88.4406 113.682 88.1596C113.507 88.0542 113.314 88.0191 113.068 88.0191V88.0016Z" fill="white"/>
<path d="M96.0679 100.997C96.0679 103.438 97.7889 104.439 99.8963 103.21C102.021 101.981 103.725 99.0127 103.725 96.5716C103.725 94.1306 102.004 93.1296 99.8963 94.3589C97.7713 95.5882 96.0679 98.5561 96.0679 100.997Z" fill="#1AA8A8"/>
<path d="M98.1755 104.527C97.6838 104.527 97.2096 104.404 96.7881 104.158C95.8047 103.596 95.2778 102.472 95.2778 100.997C95.2778 98.2576 97.1393 95.0438 99.5102 93.674C100.792 92.9364 102.021 92.8486 103.005 93.4105C103.988 93.9725 104.515 95.0965 104.515 96.5716C104.515 99.3112 102.654 102.525 100.283 103.895C99.5629 104.316 98.8428 104.527 98.1755 104.527ZM101.618 94.6223C101.231 94.6223 100.775 94.7628 100.3 95.0438C98.4389 96.115 96.8584 98.8546 96.8584 101.015C96.8584 101.893 97.1218 102.543 97.596 102.824C98.0526 103.087 98.755 102.999 99.5277 102.56C101.389 101.489 102.97 98.7493 102.97 96.5892C102.97 95.7111 102.706 95.0613 102.232 94.7804C102.057 94.675 101.863 94.6399 101.635 94.6399L101.618 94.6223Z" fill="white"/>
<path d="M81.0517 108.871L80.2861 110.234L94.2952 118.105L95.0608 116.743L81.0517 108.871Z" fill="#1AA8A8"/>
<path d="M78.1921 97.1655L77.4268 98.5282L91.4372 106.397L92.2026 105.034L78.1921 97.1655Z" fill="#1AA8A8"/>
<path d="M103.036 57.5904L102.271 58.9532L116.281 66.8219L117.046 65.4592L103.036 57.5904Z" fill="#1AA8A8"/>
<path d="M315.06 295.066C315.007 294.943 315.06 294.785 315.165 294.715L326.071 288.586C326.475 288.322 327.353 287.866 327.353 287.866C331.901 285.741 338.118 286.724 344.879 291.484C355.311 298.824 363.653 313.453 364.636 326.08C365.128 332.525 363.758 337.495 361.089 340.656L347.268 356.11C347.145 356.251 337.539 361.554 336.204 362.292C336.134 362.327 336.046 362.292 336.046 362.204L335.343 336.16C327.107 328.24 320.978 316.193 320.117 305.375L319.661 304.743L315.095 295.084L315.06 295.066Z" fill="#50DBD9"/>
<path d="M336.134 363.082C336.292 363.082 336.432 363.047 336.573 362.959C347.619 356.883 347.724 356.743 347.847 356.62L362.002 340.797C364.724 337.302 365.918 332.209 365.444 326.01C364.443 313.102 355.996 298.315 345.353 290.834C338.645 286.11 332.147 284.793 327.089 287.128C326.808 287.234 326.369 287.462 325.667 287.919L314.796 294.03C314.322 294.293 314.129 294.89 314.357 295.4L319.011 305.199L319.345 305.638C320.275 316.298 326.211 328.345 334.553 336.476L335.273 362.643L335.712 362.959C335.853 363.03 335.993 363.082 336.151 363.082H336.134ZM346.723 355.496C345.986 355.952 340.208 359.148 336.783 361.045L336.098 335.791L335.87 335.563C327.599 327.625 321.715 315.736 320.89 305.287V305.059L320.328 304.321L315.99 295.154L326.475 289.253C326.914 288.972 327.739 288.551 327.739 288.551C332.182 286.478 338.276 287.778 344.44 292.116C354.731 299.351 362.898 313.664 363.863 326.133C364.32 332.139 363.161 336.968 360.492 340.129L360.439 340.199L346.741 355.496H346.723Z" fill="#1AA8A8"/>
<path d="M324.49 319.582L323.876 318.195C321.277 312.118 319.924 305.726 320.416 300.001C320.451 299.544 320.504 299.105 320.574 298.666L316.307 294.627C316.184 294.504 316.201 294.311 316.359 294.223L326.405 288.463C326.651 288.305 327.195 288.006 327.195 288.006C330.532 286.303 334.869 286.356 339.664 288.516C345.371 291.08 350.692 295.979 354.89 301.915L324.508 319.582H324.49Z" fill="white"/>
<path d="M324.122 320.706L356.014 302.179L355.522 301.476C351.061 295.171 345.547 290.324 339.98 287.813C335.15 285.635 330.479 285.46 326.826 287.321C326.809 287.321 326.229 287.638 325.966 287.813L315.956 293.556C315.675 293.714 315.481 294.012 315.446 294.328C315.411 294.645 315.534 294.978 315.762 295.207L319.731 298.982C319.696 299.298 319.661 299.615 319.626 299.948C319.152 305.585 320.364 311.995 323.138 318.511L324.104 320.724L324.122 320.706ZM353.731 301.669L324.859 318.458L324.596 317.861C321.927 311.592 320.75 305.445 321.207 300.054C321.242 299.615 321.294 299.193 321.365 298.772L321.417 298.368L317.378 294.539L326.791 289.13C327.055 288.972 327.564 288.691 327.564 288.674C330.795 287.023 334.887 287.198 339.33 289.218C344.441 291.519 349.516 295.927 353.731 301.669Z" fill="#1AA8A8"/>
<path d="M349.867 346.908C352.536 343.747 353.923 338.777 353.414 332.332C352.431 319.705 344.089 305.076 333.657 297.735C320.17 288.252 308.755 293.802 308.755 309.045C308.755 323.305 318.765 340.656 331.128 347.804C331.48 348.014 331.831 348.19 332.182 348.383C333.323 351.948 333.323 355.9 332.955 359.306C332.744 361.186 335.027 363.469 336.01 362.38L349.831 346.926L349.867 346.908Z" fill="#1AA8A8"/>
<path d="M335.396 363.434C335.87 363.434 336.291 363.24 336.625 362.889L350.78 347.066C353.502 343.571 354.696 338.478 354.222 332.279C353.221 319.371 344.774 304.585 334.131 297.103C327.282 292.274 320.451 291.009 315.393 293.644C310.634 296.12 308 301.599 308 309.045C308 323.534 318.22 341.236 330.759 348.471C331.023 348.629 331.304 348.77 331.567 348.91C332.41 351.72 332.639 355.215 332.199 359.201C332.024 360.887 333.288 362.678 334.535 363.223C334.834 363.346 335.115 363.416 335.396 363.416V363.434ZM349.199 346.469L335.448 361.835C335.448 361.835 335.273 361.835 335.167 361.8C334.447 361.484 333.64 360.29 333.745 359.377C334.219 355.074 333.938 351.298 332.937 348.137L332.779 347.804L332.551 347.681C332.217 347.505 331.866 347.312 331.532 347.119C319.415 340.129 309.545 323.042 309.545 309.045C309.545 302.196 311.863 297.226 316.095 295.031C320.609 292.695 326.843 293.907 333.2 298.385C343.492 305.621 351.658 319.933 352.624 332.402C353.08 338.408 351.921 343.238 349.252 346.399L349.199 346.469Z" fill="#1AA8A8"/>
<path d="M323.471 317.703C323.471 320.144 321.75 321.145 319.643 319.916C317.518 318.687 315.814 315.719 315.814 313.278C315.814 310.836 317.535 309.835 319.643 311.065C321.768 312.294 323.471 315.262 323.471 317.703Z" fill="#1AA8A8"/>
<path d="M321.346 321.233C321.838 321.233 322.312 321.11 322.733 320.864C323.717 320.302 324.244 319.178 324.244 317.703C324.244 314.963 322.382 311.75 320.011 310.38C318.729 309.642 317.5 309.554 316.517 310.116C315.533 310.678 315.006 311.802 315.006 313.278C315.006 316.017 316.868 319.231 319.239 320.601C319.959 321.022 320.679 321.233 321.346 321.233ZM317.904 311.328C318.29 311.328 318.747 311.469 319.221 311.75C321.083 312.821 322.663 315.561 322.663 317.721C322.663 318.599 322.4 319.248 321.926 319.529C321.451 319.793 320.766 319.705 319.994 319.266C318.132 318.195 316.552 315.455 316.552 313.295C316.552 312.417 316.815 311.767 317.289 311.486C317.465 311.381 317.658 311.346 317.904 311.346V311.328Z" fill="white"/>
<path d="M335.027 324.394C335.027 326.835 333.306 327.836 331.198 326.607C329.073 325.378 327.37 322.41 327.37 319.969C327.37 317.527 329.091 316.526 331.198 317.756C333.323 318.985 335.027 321.953 335.027 324.394Z" fill="#1AA8A8"/>
<path d="M332.902 327.924C333.393 327.924 333.868 327.801 334.289 327.555C335.272 326.993 335.799 325.869 335.799 324.394C335.799 321.654 333.938 318.441 331.567 317.071C330.285 316.333 329.056 316.245 328.072 316.807C327.089 317.369 326.562 318.493 326.562 319.969C326.562 322.708 328.423 325.922 330.794 327.292C331.514 327.713 332.234 327.924 332.902 327.924ZM329.477 318.002C329.864 318.002 330.32 318.142 330.794 318.423C332.656 319.494 334.236 322.234 334.236 324.394C334.236 325.272 333.973 325.922 333.499 326.203C333.042 326.466 332.34 326.379 331.567 325.939C329.705 324.868 328.125 322.129 328.125 319.969C328.125 319.09 328.388 318.441 328.862 318.16C329.038 318.054 329.231 318.019 329.477 318.019V318.002Z" fill="white"/>
<path d="M346.477 330.997C346.477 333.438 344.756 334.439 342.649 333.21C340.524 331.981 338.82 329.013 338.82 326.572C338.82 324.131 340.541 323.13 342.649 324.359C344.774 325.588 346.477 328.556 346.477 330.997Z" fill="#1AA8A8"/>
<path d="M344.369 334.527C344.861 334.527 345.335 334.404 345.757 334.158C346.74 333.596 347.267 332.472 347.267 330.997C347.267 328.258 345.406 325.044 343.035 323.674C341.753 322.936 340.523 322.849 339.54 323.411C338.557 323.973 338.03 325.097 338.03 326.572C338.03 329.311 339.891 332.525 342.262 333.895C342.982 334.316 343.702 334.527 344.369 334.527ZM340.927 324.622C341.314 324.622 341.77 324.763 342.244 325.044C344.106 326.115 345.687 328.855 345.687 331.015C345.687 331.893 345.423 332.543 344.949 332.824C344.492 333.087 343.79 332.999 343.017 332.56C341.156 331.489 339.575 328.749 339.575 326.589C339.575 325.711 339.839 325.061 340.313 324.78C340.488 324.675 340.681 324.64 340.91 324.64L340.927 324.622Z" fill="white"/>
<path d="M361.494 338.871L362.259 340.234L348.25 348.105L347.485 346.743L361.494 338.871Z" fill="#1AA8A8"/>
<path d="M364.353 327.165L365.119 328.528L351.108 336.397L350.343 335.034L364.353 327.165Z" fill="#1AA8A8"/>
<path d="M339.51 287.59L340.275 288.953L326.264 296.822L325.499 295.459L339.51 287.59Z" fill="#1AA8A8"/>
<ellipse cx="174.421" cy="302.108" rx="74.5" ry="12.3405" transform="rotate(19.173 174.421 302.108)" fill="#1AA8A8"/>
<rect x="123.867" y="220.656" width="149" height="60.3313" transform="rotate(19.173 123.867 220.656)" fill="#1AA8A8"/>
<path d="M197.959 234.412C217.355 241.156 234.44 248.556 246.379 255.06C252.356 258.316 257.001 261.324 259.999 263.89C261.502 265.177 262.544 266.313 263.14 267.272C263.745 268.246 263.793 268.873 263.658 269.263C263.522 269.652 263.095 270.113 262.017 270.502C260.954 270.885 259.433 271.129 257.456 271.206C253.513 271.358 248.002 270.836 241.295 269.681C227.897 267.374 209.906 262.579 190.51 255.834C171.114 249.09 154.029 241.69 142.09 235.186C136.114 231.931 131.468 228.922 128.47 226.356C126.967 225.07 125.925 223.934 125.329 222.974C124.725 222 124.676 221.374 124.811 220.985C124.947 220.595 125.374 220.133 126.452 219.745C127.515 219.362 129.037 219.117 131.014 219.041C134.957 218.888 140.467 219.411 147.174 220.565C160.573 222.872 178.563 227.668 197.959 234.412Z" fill="#50DBD9" stroke="white" stroke-width="2"/>
<ellipse cx="198.421" cy="234.108" rx="74.5" ry="12.3405" transform="rotate(19.173 198.421 234.108)" fill="#1AA8A8"/>
<rect x="147.867" y="152.656" width="149" height="60.3313" transform="rotate(19.173 147.867 152.656)" fill="#1AA8A8"/>
<path d="M221.959 166.412C241.355 173.156 258.44 180.556 270.379 187.06C276.356 190.316 281.001 193.324 283.999 195.89C285.502 197.177 286.544 198.313 287.14 199.272C287.745 200.246 287.793 200.873 287.658 201.263C287.522 201.652 287.095 202.113 286.017 202.502C284.954 202.885 283.433 203.129 281.456 203.206C277.513 203.358 272.002 202.836 265.295 201.681C251.897 199.374 233.906 194.579 214.51 187.834C195.114 181.09 178.029 173.69 166.09 167.186C160.114 163.931 155.468 160.922 152.47 158.356C150.967 157.07 149.925 155.934 149.329 154.974C148.725 154 148.676 153.374 148.811 152.985C148.947 152.595 149.374 152.133 150.452 151.745C151.515 151.362 153.037 151.117 155.014 151.041C158.957 150.888 164.467 151.411 171.174 152.565C184.573 154.872 202.563 159.668 221.959 166.412Z" fill="#50DBD9" stroke="white" stroke-width="2"/>
<ellipse cx="223.052" cy="162.108" rx="74.5" ry="12.3405" transform="rotate(19.173 223.052 162.108)" fill="#1AA8A8"/>
<rect x="172.499" y="80.6559" width="149" height="60.3313" transform="rotate(19.173 172.499 80.6559)" fill="#1AA8A8"/>
<path d="M246.591 94.4119C265.987 101.156 283.072 108.556 295.011 115.06C300.988 118.316 305.633 121.324 308.631 123.89C310.134 125.177 311.176 126.313 311.772 127.272C312.377 128.246 312.425 128.873 312.289 129.263C312.154 129.652 311.727 130.113 310.649 130.502C309.586 130.885 308.065 131.129 306.088 131.206C302.144 131.358 296.634 130.836 289.927 129.681C276.529 127.374 258.538 122.579 239.142 115.834C219.746 109.09 202.661 101.69 190.722 95.1863C184.745 91.9308 180.1 88.9221 177.102 86.3562C175.599 85.0697 174.557 83.9338 173.961 82.9741C173.357 82.0004 173.308 81.3743 173.443 80.9847C173.579 80.595 174.006 80.1335 175.084 79.7448C176.147 79.3618 177.668 79.1171 179.645 79.0407C183.589 78.8884 189.099 79.4109 195.806 80.5655C209.204 82.8721 227.195 87.6677 246.591 94.4119Z" fill="#50DBD9" stroke="white" stroke-width="2"/>
</svg>
