<svg width="518" height="201" viewBox="0 0 518 201" fill="none" xmlns="http://www.w3.org/2000/svg">
<path d="M55.7539 0.5H71.1113V16.3701H60.8779C57.8994 16.3701 55.4819 16.8733 53.6719 17.9229C51.9022 18.9485 50.5007 20.2369 49.4795 21.7969C48.5268 23.2524 47.9058 24.8692 47.623 26.6396L47.5713 26.9951C47.3224 28.8538 47.1992 30.6471 47.1992 32.3652V75.2422C47.1992 79.7038 46.2786 83.3218 44.4824 86.1182C42.649 88.969 40.503 91.2564 38.0518 92.9824C35.5844 94.7216 32.9998 95.9705 30.3037 96.7324C27.5641 97.5066 25.3291 97.9594 23.5977 98.0938L23.1367 98.1299V99.6572L23.5576 99.7246C25.3198 100.006 27.578 100.465 30.3262 101.102C33.0123 101.726 35.5897 102.905 38.0518 104.645C40.3403 106.261 42.3675 108.497 44.124 111.36L44.4717 111.941C46.2741 115.033 47.1992 119.16 47.1992 124.357V167.156C47.1992 168.667 47.2932 170.232 47.4834 171.85L47.5713 172.546C47.809 174.342 48.3831 175.981 49.293 177.464L49.4795 177.759C50.5025 179.32 51.9009 180.61 53.6699 181.644L53.6719 181.645C55.4839 182.696 57.8989 183.201 60.8779 183.201H71.1113V199.071H55.7539C51.9005 199.071 48.0103 198.474 44.0801 197.281C40.1578 196.087 36.6444 194.336 33.5342 192.029C30.4333 189.729 27.8868 186.799 25.8926 183.235C23.9143 179.695 22.9209 175.554 22.9209 170.795V127.31C22.9208 123.68 22.0893 120.561 20.4023 117.979C18.7436 115.44 16.7434 113.401 14.4082 111.868C12.2335 110.441 9.90722 109.395 7.43652 108.729L6.94043 108.601C4.53069 108.009 2.38266 107.684 0.5 107.635V90.3994C2.38231 90.3502 4.52982 90.0312 6.93945 89.4414C9.58714 88.7934 12.0708 87.7812 14.3887 86.4082C16.7242 85.0253 18.7269 83.171 20.3896 80.8496C22.0845 78.4833 22.9209 75.6129 22.9209 72.2676V28.6963C22.9209 23.9519 23.9144 19.8212 25.8926 16.2939C27.8865 12.7388 30.4336 9.81591 33.5322 7.52148L33.5332 7.52246C36.6459 5.22124 40.1569 3.47233 44.0791 2.28418C48.0093 1.09361 51.9021 0.5 55.7539 0.5Z" fill="black" stroke="white"/>
<path d="M494.469 99.6836L494.009 99.6475C492.267 99.5107 490.027 99.0926 487.286 98.3887C484.762 97.7404 482.3 96.633 479.904 95.0635L479.426 94.7432L478.957 94.4121C476.64 92.7184 474.658 90.4095 473.017 87.4736C471.29 84.3855 470.407 80.2689 470.407 75.0762V32.376C470.407 30.6534 470.283 28.8618 470.036 27C469.783 25.0904 469.147 23.3522 468.128 21.8008C467.105 20.2434 465.702 18.9515 463.937 17.9258H463.936C462.122 16.8745 459.71 16.3692 456.735 16.3691H446.5V0.5H461.86C465.709 0.5 469.6 1.09737 473.53 2.28809C477.203 3.40209 480.524 5.00863 483.487 7.10254L484.075 7.52734C487.176 9.82559 489.719 12.7482 491.713 16.3057C493.691 19.8353 494.689 23.9668 494.689 28.7188V72.1104C494.689 75.7346 495.519 78.8478 497.206 81.4248C498.865 83.96 500.864 85.9978 503.199 87.5283C505.519 89.0487 508.011 90.1331 510.667 90.7852C513.078 91.377 515.226 91.6953 517.111 91.7441V108.974C515.225 109.023 513.077 109.349 510.667 109.94C508.02 110.592 505.536 111.606 503.219 112.979C500.881 114.364 498.88 116.224 497.218 118.549V118.55C495.523 120.922 494.69 123.796 494.689 127.146V170.814C494.689 175.572 493.691 179.71 491.713 183.245C489.843 186.584 487.491 189.366 484.649 191.596L484.075 192.034C481.157 194.193 477.885 195.868 474.259 197.053L473.529 197.283C469.599 198.474 465.709 199.071 461.86 199.071H446.5V183.201H456.735C459.524 183.201 461.818 182.758 463.589 181.835L463.937 181.644C465.703 180.614 467.107 179.322 468.128 177.762C469.146 176.205 469.783 174.467 470.036 172.554C470.283 170.686 470.407 168.893 470.407 167.169V124.188C470.407 119.857 471.285 116.265 473.01 113.384C474.759 110.462 476.898 108.138 479.426 106.41C481.974 104.665 484.601 103.413 487.298 102.65C490.037 101.876 492.273 101.423 494.01 101.283L494.469 101.246V99.6836Z" fill="black" stroke="white"/>
<path d="M101.439 68.1728L76 82.8546L204.867 167.401L233.156 151.074L101.439 68.1728Z" fill="#F35048"/>
<path d="M204.866 167.401V200.055L233.156 183.728V151.074L204.866 167.401Z" fill="#87120C"/>
<path d="M76 82.8546V115.508L204.867 200.055V167.401L76 82.8546Z" fill="#DC150B"/>
<path d="M198.564 0.500015L130.782 197.897H104.875L172.653 0.500015H198.564Z" fill="black" stroke="white"/>
<path d="M207.717 0L233.156 14.6818L104.29 99.228L76 82.9011L207.717 0Z" fill="#F35048"/>
<path d="M104.29 99.228L103.492 133.547L76 115.555V82.9011L104.29 99.228Z" fill="#87120C"/>
<path d="M233.156 14.6819V47.3357L103.492 133.547L104.29 99.228L233.156 14.6819Z" fill="#DC150B"/>
<path d="M416.802 68.1728L442.241 82.8546L313.374 167.401L285.085 151.074L416.802 68.1728Z" fill="#F35048"/>
<path d="M313.374 167.401V200.055L285.085 183.728V151.074L313.374 167.401Z" fill="#87120C"/>
<path d="M442.241 82.8546V115.508L313.374 200.055V167.401L442.241 82.8546Z" fill="#DC150B"/>
<path d="M319.615 1.67397L387.397 199.071H413.304L345.526 1.67397H319.615Z" fill="black" stroke="white"/>
<path d="M310.524 1.52588e-05L285.085 14.6818L413.951 99.228L442.241 82.9011L310.524 1.52588e-05Z" fill="#F35048"/>
<path d="M413.951 99.2281L414.749 133.547L442.241 115.555V82.9012L413.951 99.2281Z" fill="#87120C"/>
<path d="M285.085 14.6819V47.3357L414.749 133.547L413.951 99.228L285.085 14.6819Z" fill="#DC150B"/>
<mask id="path-17-inside-1_436_6324" fill="white">
<path d="M494.027 151.509L487.105 153.747L492.562 163.764L485.587 167.565L480.049 157.399L480.015 157.417L474.539 162.126L474.744 139.309L494.027 151.509Z"/>
</mask>
<path d="M494.027 151.509L487.105 153.747L492.562 163.764L485.587 167.565L480.049 157.399L480.015 157.417L474.539 162.126L474.744 139.309L494.027 151.509Z" fill="black"/>
<path d="M494.027 151.509L494.334 152.46L496.364 151.804L494.561 150.664L494.027 151.509ZM487.105 153.747L486.797 152.796L485.65 153.167L486.227 154.226L487.105 153.747ZM492.562 163.764L493.04 164.643L493.919 164.164L493.44 163.286L492.562 163.764ZM485.587 167.565L484.709 168.043L485.187 168.921L486.065 168.443L485.587 167.565ZM480.049 157.399L480.927 156.921L480.448 156.043L479.57 156.521L480.049 157.399ZM480.015 157.417L479.537 156.539L479.444 156.59L479.363 156.659L480.015 157.417ZM474.539 162.126L473.539 162.117L473.519 164.321L475.191 162.884L474.539 162.126ZM474.744 139.309L475.278 138.464L473.76 137.503L473.744 139.3L474.744 139.309ZM494.027 151.509L493.719 150.557L486.797 152.796L487.105 153.747L487.412 154.699L494.334 152.46L494.027 151.509ZM487.105 153.747L486.227 154.226L491.684 164.243L492.562 163.764L493.44 163.286L487.983 153.269L487.105 153.747ZM492.562 163.764L492.084 162.886L485.108 166.686L485.587 167.565L486.065 168.443L493.04 164.643L492.562 163.764ZM485.587 167.565L486.465 167.086L480.927 156.921L480.049 157.399L479.17 157.878L484.709 168.043L485.587 167.565ZM480.049 157.399L479.57 156.521L479.537 156.539L480.015 157.417L480.493 158.295L480.527 158.277L480.049 157.399ZM480.015 157.417L479.363 156.659L473.887 161.367L474.539 162.126L475.191 162.884L480.667 158.176L480.015 157.417ZM474.539 162.126L475.539 162.135L475.744 139.318L474.744 139.309L473.744 139.3L473.539 162.117L474.539 162.126ZM474.744 139.309L474.209 140.154L493.492 152.354L494.027 151.509L494.561 150.664L475.278 138.464L474.744 139.309Z" fill="white" mask="url(#path-17-inside-1_436_6324)"/>
</svg>
