<svg width="57" height="57" viewBox="0 0 57 57" fill="none" xmlns="http://www.w3.org/2000/svg">
<path d="M28.5 7.125C30.4713 7.125 32.0625 8.71625 32.0625 10.6875C32.0625 12.6588 30.4713 14.25 28.5 14.25C26.5288 14.25 24.9375 12.6588 24.9375 10.6875C24.9375 8.71625 26.5288 7.125 28.5 7.125ZM28.5 4.75C25.2225 4.75 22.5625 7.41 22.5625 10.6875C22.5625 13.965 25.2225 16.625 28.5 16.625C31.7775 16.625 34.4375 13.965 34.4375 10.6875C34.4375 7.41 31.7775 4.75 28.5 4.75Z" fill="white"/>
<path d="M28.5 7.125C30.4713 7.125 32.0625 8.71625 32.0625 10.6875C32.0625 12.6588 30.4713 14.25 28.5 14.25C26.5288 14.25 24.9375 12.6588 24.9375 10.6875C24.9375 8.71625 26.5288 7.125 28.5 7.125ZM28.5 4.75C25.2225 4.75 22.5625 7.41 22.5625 10.6875C22.5625 13.965 25.2225 16.625 28.5 16.625C31.7775 16.625 34.4375 13.965 34.4375 10.6875C34.4375 7.41 31.7775 4.75 28.5 4.75Z" fill="white"/>
<path d="M28.5 42.75C30.4713 42.75 32.0625 44.3413 32.0625 46.3125C32.0625 48.2838 30.4713 49.875 28.5 49.875C26.5288 49.875 24.9375 48.2838 24.9375 46.3125C24.9375 44.3413 26.5288 42.75 28.5 42.75ZM28.5 40.375C25.2225 40.375 22.5625 43.035 22.5625 46.3125C22.5625 49.59 25.2225 52.25 28.5 52.25C31.7775 52.25 34.4375 49.59 34.4375 46.3125C34.4375 43.035 31.7775 40.375 28.5 40.375Z" fill="white"/>
<path d="M28.5 24.9375C30.4713 24.9375 32.0625 26.5288 32.0625 28.5C32.0625 30.4713 30.4713 32.0625 28.5 32.0625C26.5288 32.0625 24.9375 30.4713 24.9375 28.5C24.9375 26.5288 26.5288 24.9375 28.5 24.9375ZM28.5 22.5625C25.2225 22.5625 22.5625 25.2225 22.5625 28.5C22.5625 31.7775 25.2225 34.4375 28.5 34.4375C31.7775 34.4375 34.4375 31.7775 34.4375 28.5C34.4375 25.2225 31.7775 22.5625 28.5 22.5625Z" fill="white"/>
<path d="M10.6875 24.9375C12.6588 24.9375 14.25 26.5288 14.25 28.5C14.25 30.4713 12.6588 32.0625 10.6875 32.0625C8.71625 32.0625 7.125 30.4713 7.125 28.5C7.125 26.5288 8.71625 24.9375 10.6875 24.9375ZM10.6875 22.5625C7.41 22.5625 4.75 25.2225 4.75 28.5C4.75 31.7775 7.41 34.4375 10.6875 34.4375C13.965 34.4375 16.625 31.7775 16.625 28.5C16.625 25.2225 13.965 22.5625 10.6875 22.5625Z" fill="white"/>
<path d="M10.6875 42.75C12.6588 42.75 14.25 44.3413 14.25 46.3125C14.25 48.2838 12.6588 49.875 10.6875 49.875C8.71625 49.875 7.125 48.2838 7.125 46.3125C7.125 44.3413 8.71625 42.75 10.6875 42.75ZM10.6875 40.375C7.41 40.375 4.75 43.035 4.75 46.3125C4.75 49.59 7.41 52.25 10.6875 52.25C13.965 52.25 16.625 49.59 16.625 46.3125C16.625 43.035 13.965 40.375 10.6875 40.375Z" fill="white"/>
<path d="M46.3125 24.9375C48.2838 24.9375 49.875 26.5288 49.875 28.5C49.875 30.4713 48.2838 32.0625 46.3125 32.0625C44.3413 32.0625 42.75 30.4713 42.75 28.5C42.75 26.5288 44.3413 24.9375 46.3125 24.9375ZM46.3125 22.5625C43.035 22.5625 40.375 25.2225 40.375 28.5C40.375 31.7775 43.035 34.4375 46.3125 34.4375C49.59 34.4375 52.25 31.7775 52.25 28.5C52.25 25.2225 49.59 22.5625 46.3125 22.5625Z" fill="white"/>
<path d="M46.3125 24.9375C48.2838 24.9375 49.875 26.5288 49.875 28.5C49.875 30.4713 48.2838 32.0625 46.3125 32.0625C44.3413 32.0625 42.75 30.4713 42.75 28.5C42.75 26.5288 44.3413 24.9375 46.3125 24.9375ZM46.3125 22.5625C43.035 22.5625 40.375 25.2225 40.375 28.5C40.375 31.7775 43.035 34.4375 46.3125 34.4375C49.59 34.4375 52.25 31.7775 52.25 28.5C52.25 25.2225 49.59 22.5625 46.3125 22.5625Z" fill="white"/>
<path d="M46.3125 42.75C48.2838 42.75 49.875 44.3413 49.875 46.3125C49.875 48.2838 48.2838 49.875 46.3125 49.875C44.3413 49.875 42.75 48.2838 42.75 46.3125C42.75 44.3413 44.3413 42.75 46.3125 42.75ZM46.3125 40.375C43.035 40.375 40.375 43.035 40.375 46.3125C40.375 49.59 43.035 52.25 46.3125 52.25C49.59 52.25 52.25 49.59 52.25 46.3125C52.25 43.035 49.59 40.375 46.3125 40.375Z" fill="white"/>
<path d="M28.5 16.625V23.75" stroke="white" stroke-width="2" stroke-miterlimit="10" stroke-linecap="square"/>
<path d="M23.1087 28.5H15.9837" stroke="white" stroke-width="2" stroke-miterlimit="10" stroke-linecap="square"/>
<path d="M10.6875 40.565V33.44" stroke="white" stroke-width="2" stroke-miterlimit="10" stroke-linecap="square"/>
<path d="M28.5 40.565V33.44" stroke="white" stroke-width="2" stroke-miterlimit="10" stroke-linecap="square"/>
<path d="M46.3125 40.565V33.44" stroke="white" stroke-miterlimit="10" stroke-linecap="square"/>
<path d="M46.3125 40.565V33.44" stroke="white" stroke-width="2" stroke-miterlimit="10" stroke-linecap="square"/>
<path d="M40.9212 28.5H33.7962" stroke="white" stroke-width="2" stroke-miterlimit="10" stroke-linecap="square"/>
</svg>
