<svg width="57" height="57" viewBox="0 0 57 57" fill="none" xmlns="http://www.w3.org/2000/svg">
<path d="M21.375 28.4254V11.875C21.375 7.93997 24.565 4.75 28.5 4.75C32.435 4.75 35.625 7.93997 35.625 11.875V14.2568" stroke="white" stroke-width="2" stroke-linecap="round"/>
<path d="M35.625 28.504V45.1249C35.625 49.0599 32.435 52.2499 28.5 52.2499C24.565 52.2499 21.375 49.0599 21.375 45.1249V42.7142" stroke="white" stroke-width="2" stroke-linecap="round"/>
<path d="M28.5 35.625H11.8562C7.93154 35.625 4.75 32.435 4.75 28.5C4.75 24.565 7.93154 21.375 11.8562 21.375H14.2365" stroke="white" stroke-width="2" stroke-linecap="round"/>
<path d="M28.5 21.375H45.1117C49.0541 21.375 52.25 24.565 52.25 28.5C52.25 32.435 49.0541 35.625 45.1117 35.625H42.8287" stroke="white" stroke-width="2" stroke-linecap="round"/>
</svg>
