<svg width="57" height="57" viewBox="0 0 57 57" fill="none" xmlns="http://www.w3.org/2000/svg">
<path fill-rule="evenodd" clip-rule="evenodd" d="M28.5003 53.4375C32.3247 53.4375 38.8641 48.45 38.8641 28.5C38.8641 8.55 32.3247 3.5625 28.5003 3.5625C24.6759 3.5625 18.1366 8.88609 18.1366 28.5C18.1366 48.1139 24.6759 53.4375 28.5003 53.4375Z" stroke="white" stroke-width="2" stroke-linecap="round" stroke-linejoin="round"/>
<path fill-rule="evenodd" clip-rule="evenodd" d="M6.06237 41.5626C7.9746 44.9022 15.7319 48.0001 33.6823 37.5501C51.6325 27.1001 52.8505 18.7772 50.9383 15.4376C49.0261 12.098 40.9665 9.17616 23.3186 19.4502C5.67057 29.7241 4.15019 38.223 6.06237 41.5626Z" stroke="white" stroke-width="2" stroke-linecap="round" stroke-linejoin="round"/>
<path fill-rule="evenodd" clip-rule="evenodd" d="M6.06223 15.4376C4.15005 18.7772 5.36802 27.1001 23.3184 37.5501C41.2688 48.0001 49.0259 44.9022 50.9381 41.5626C52.8504 38.223 51.33 29.7241 33.682 19.4502C16.0341 9.17616 7.97447 12.098 6.06223 15.4376Z" stroke="white" stroke-width="2" stroke-linecap="round" stroke-linejoin="round"/>
</svg>
