<svg width="463" height="332" viewBox="0 0 463 332" fill="none" xmlns="http://www.w3.org/2000/svg">
<g clip-path="url(#clip0_465_1901)">
<path d="M209.21 175.563C208.804 175.563 208.484 175.244 208.484 174.838V85.4548C208.484 65.2472 192.017 48.8087 171.774 48.8087H41.0815C40.6749 48.8087 40.3555 48.4897 40.3555 48.0838C40.3555 47.678 40.6749 47.359 41.0815 47.359H171.774C192.816 47.359 209.936 64.45 209.936 85.4548V174.838C209.936 175.244 209.617 175.563 209.21 175.563Z" fill="#F35048"/>
<path d="M219.375 175.563C218.969 175.563 218.649 175.244 218.649 174.838V83.4109C218.649 58.0427 197.971 37.4002 172.558 37.4002H153.056C152.65 37.4002 152.33 37.0813 152.33 36.6754C152.33 36.2695 152.65 35.9506 153.056 35.9506H172.558C198.769 35.9506 220.101 57.2454 220.101 83.4109V174.838C220.101 175.244 219.782 175.563 219.375 175.563Z" fill="#F35048"/>
<path d="M230.266 175.563C229.86 175.563 229.54 175.244 229.54 174.838V81.9468C229.54 50.7076 204.084 25.296 172.791 25.296H143.007C142.601 25.296 142.281 24.977 142.281 24.5711C142.281 24.1653 142.601 23.8463 143.007 23.8463H172.791C204.883 23.8463 230.992 49.9104 230.992 81.9468V174.838C230.992 175.244 230.673 175.563 230.266 175.563Z" fill="#F35048"/>
<path d="M38.2499 51.331C36.4492 51.331 34.9971 49.8669 34.9971 48.0839C34.9971 46.3008 36.4637 44.8367 38.2499 44.8367C40.036 44.8367 41.5027 46.3008 41.5027 48.0839C41.5027 49.8669 40.036 51.331 38.2499 51.331ZM38.2499 46.2863C37.2624 46.2863 36.4492 47.0981 36.4492 48.0839C36.4492 49.0696 37.2624 49.8814 38.2499 49.8814C39.2373 49.8814 40.0505 49.0696 40.0505 48.0839C40.0505 47.0981 39.2373 46.2863 38.2499 46.2863Z" fill="#F35048"/>
<path d="M150.151 39.9225C148.351 39.9225 146.898 38.4584 146.898 36.6754C146.898 34.8924 148.365 33.4283 150.151 33.4283C151.937 33.4283 153.404 34.8924 153.404 36.6754C153.404 38.4584 151.937 39.9225 150.151 39.9225ZM150.151 34.8634C149.164 34.8634 148.351 35.6752 148.351 36.6609C148.351 37.6467 149.164 38.4584 150.151 38.4584C151.139 38.4584 151.952 37.6467 151.952 36.6609C151.952 35.6752 151.139 34.8634 150.151 34.8634Z" fill="#F35048"/>
<path d="M140.161 27.8328C138.36 27.8328 136.908 26.3687 136.908 24.5856C136.908 22.8026 138.375 21.3385 140.161 21.3385C141.947 21.3385 143.414 22.8026 143.414 24.5856C143.414 26.3687 141.947 27.8328 140.161 27.8328ZM140.161 22.7881C139.174 22.7881 138.36 23.5999 138.36 24.5856C138.36 25.5714 139.174 26.3832 140.161 26.3832C141.148 26.3832 141.962 25.5714 141.962 24.5856C141.962 23.5999 141.148 22.7881 140.161 22.7881Z" fill="#F35048"/>
<path d="M240.692 175.563C240.286 175.563 239.966 175.244 239.966 174.838V79.4534C239.966 44.3149 211.33 15.714 176.116 15.714H111.815C111.408 15.714 111.089 15.3951 111.089 14.9892C111.089 14.5833 111.408 14.2644 111.815 14.2644H176.116C212.114 14.2644 241.418 43.5031 241.418 79.4534V174.838C241.418 175.244 241.099 175.563 240.692 175.563Z" fill="#F35048"/>
<path d="M109.186 18.2364C107.386 18.2364 105.934 16.7722 105.934 14.9892C105.934 13.2062 107.4 11.7421 109.186 11.7421C110.973 11.7421 112.439 13.2062 112.439 14.9892C112.439 16.7722 110.973 18.2364 109.186 18.2364ZM109.186 13.1917C108.199 13.1917 107.386 14.0035 107.386 14.9892C107.386 15.975 108.199 16.7867 109.186 16.7867C110.174 16.7867 110.987 15.975 110.987 14.9892C110.987 14.0035 110.174 13.1917 109.186 13.1917Z" fill="#F35048"/>
<path d="M252.106 175.563C251.699 175.563 251.38 175.244 251.38 174.838V79.4534C251.38 43.5031 280.67 14.2644 316.683 14.2644H342.763C343.17 14.2644 343.489 14.5833 343.489 14.9892C343.489 15.3951 343.17 15.714 342.763 15.714H316.683C281.483 15.714 252.832 44.3004 252.832 79.4534V174.838C252.832 175.244 252.513 175.563 252.106 175.563Z" fill="#F35048"/>
<path d="M345.29 18.2364C343.489 18.2364 342.037 16.7722 342.037 14.9892C342.037 13.2062 343.504 11.7421 345.29 11.7421C347.076 11.7421 348.543 13.2062 348.543 14.9892C348.543 16.7722 347.076 18.2364 345.29 18.2364ZM345.29 13.1917C344.302 13.1917 343.489 14.0035 343.489 14.9892C343.489 15.975 344.302 16.7867 345.29 16.7867C346.277 16.7867 347.091 15.975 347.091 14.9892C347.091 14.0035 346.277 13.1917 345.29 13.1917Z" fill="#F35048"/>
<path d="M358.17 18.2364C356.369 18.2364 354.917 16.7722 354.917 14.9892C354.917 13.2062 356.384 11.7421 358.17 11.7421C359.956 11.7421 361.423 13.2062 361.423 14.9892C361.423 16.7722 359.956 18.2364 358.17 18.2364ZM358.17 13.1917C357.182 13.1917 356.369 14.0035 356.369 14.9892C356.369 15.975 357.182 16.7867 358.17 16.7867C359.157 16.7867 359.97 15.975 359.97 14.9892C359.97 14.0035 359.157 13.1917 358.17 13.1917Z" fill="#F35048"/>
<path d="M371.065 18.2364C369.265 18.2364 367.812 16.7722 367.812 14.9892C367.812 13.2062 369.279 11.7421 371.065 11.7421C372.851 11.7421 374.318 13.2062 374.318 14.9892C374.318 16.7722 372.851 18.2364 371.065 18.2364ZM371.065 13.1917C370.078 13.1917 369.265 14.0035 369.265 14.9892C369.265 15.975 370.078 16.7867 371.065 16.7867C372.053 16.7867 372.866 15.975 372.866 14.9892C372.866 14.0035 372.053 13.1917 371.065 13.1917Z" fill="#F35048"/>
<path opacity="0.9" d="M383.946 18.2364C382.145 18.2364 380.693 16.7722 380.693 14.9892C380.693 13.2062 382.16 11.7421 383.946 11.7421C385.732 11.7421 387.199 13.2062 387.199 14.9892C387.199 16.7722 385.732 18.2364 383.946 18.2364ZM383.946 13.1917C382.959 13.1917 382.145 14.0035 382.145 14.9892C382.145 15.975 382.959 16.7867 383.946 16.7867C384.934 16.7867 385.747 15.975 385.747 14.9892C385.747 14.0035 384.934 13.1917 383.946 13.1917Z" fill="#F35048"/>
<path opacity="0.7" d="M396.841 18.2364C395.04 18.2364 393.588 16.7722 393.588 14.9892C393.588 13.2062 395.055 11.7421 396.841 11.7421C398.627 11.7421 400.093 13.2062 400.093 14.9892C400.093 16.7722 398.627 18.2364 396.841 18.2364ZM396.841 13.1917C395.853 13.1917 395.04 14.0035 395.04 14.9892C395.04 15.975 395.853 16.7867 396.841 16.7867C397.828 16.7867 398.641 15.975 398.641 14.9892C398.641 14.0035 397.828 13.1917 396.841 13.1917Z" fill="#F35048"/>
<path opacity="0.5" d="M409.722 18.2364C407.921 18.2364 406.469 16.7722 406.469 14.9892C406.469 13.2062 407.935 11.7421 409.722 11.7421C411.508 11.7421 412.974 13.2062 412.974 14.9892C412.974 16.7722 411.508 18.2364 409.722 18.2364ZM409.722 13.1917C408.734 13.1917 407.921 14.0035 407.921 14.9892C407.921 15.975 408.734 16.7867 409.722 16.7867C410.709 16.7867 411.522 15.975 411.522 14.9892C411.522 14.0035 410.709 13.1917 409.722 13.1917Z" fill="#F35048"/>
<path opacity="0.3" d="M422.616 18.2364C420.815 18.2364 419.363 16.7722 419.363 14.9892C419.363 13.2062 420.83 11.7421 422.616 11.7421C424.402 11.7421 425.869 13.2062 425.869 14.9892C425.869 16.7722 424.402 18.2364 422.616 18.2364ZM422.616 13.1917C421.629 13.1917 420.815 14.0035 420.815 14.9892C420.815 15.975 421.629 16.7867 422.616 16.7867C423.604 16.7867 424.417 15.975 424.417 14.9892C424.417 14.0035 423.604 13.1917 422.616 13.1917Z" fill="#F35048"/>
<path opacity="0.1" d="M435.497 18.2364C433.696 18.2364 432.244 16.7722 432.244 14.9892C432.244 13.2062 433.711 11.7421 435.497 11.7421C437.283 11.7421 438.75 13.2062 438.75 14.9892C438.75 16.7722 437.283 18.2364 435.497 18.2364ZM435.497 13.1917C434.509 13.1917 433.696 14.0035 433.696 14.9892C433.696 15.975 434.509 16.7867 435.497 16.7867C436.484 16.7867 437.298 15.975 437.298 14.9892C437.298 14.0035 436.484 13.1917 435.497 13.1917Z" fill="#F35048"/>
<path d="M87.8106 192.163C87.6799 192.163 87.5638 192.134 87.4476 192.062L34.9382 161.794C34.7204 161.664 34.5752 161.432 34.5752 161.171C34.5752 160.91 34.7204 160.678 34.9382 160.547L87.4476 130.279C87.6654 130.149 87.9558 130.149 88.1737 130.279L140.683 160.547C140.901 160.678 141.046 160.91 141.046 161.171C141.046 161.432 140.901 161.664 140.683 161.794L88.1737 192.062C88.0575 192.12 87.9413 192.163 87.8106 192.163ZM36.7534 161.171L87.8106 190.598L138.868 161.171L87.8106 131.744L36.7534 161.171Z" fill="#F35048"/>
<path d="M380.214 192.163C380.083 192.163 379.967 192.134 379.851 192.062L327.342 161.794C327.124 161.664 326.979 161.432 326.979 161.171C326.979 160.91 327.124 160.678 327.342 160.547L379.851 130.279C380.069 130.149 380.359 130.149 380.577 130.279L433.086 160.547C433.304 160.678 433.449 160.91 433.449 161.171C433.449 161.432 433.304 161.664 433.086 161.794L380.577 192.062C380.461 192.12 380.345 192.163 380.214 192.163ZM329.171 161.171L380.228 190.598L431.286 161.171L380.228 131.744L329.171 161.171Z" fill="#F35048"/>
<path d="M232.458 282.808C232.327 282.808 232.211 282.779 232.095 282.706L179.586 252.438C179.368 252.308 179.223 252.076 179.223 251.815C179.223 251.554 179.368 251.322 179.586 251.192L232.095 220.924C232.313 220.793 232.603 220.793 232.821 220.924L285.33 251.192C285.548 251.322 285.693 251.554 285.693 251.815C285.693 252.076 285.548 252.308 285.33 252.438L232.821 282.706C232.705 282.764 232.589 282.808 232.458 282.808ZM181.401 251.815L232.458 281.242L283.515 251.815L232.458 222.388L181.401 251.815Z" fill="#F35048"/>
<path d="M331.799 235.579C331.625 235.579 331.451 235.492 331.363 235.318C331.218 235.072 331.305 234.767 331.552 234.622L461.475 159.721L409.706 129.975C409.459 129.83 409.372 129.526 409.518 129.279C409.663 129.033 409.968 128.96 410.215 129.091L462.753 159.272C462.913 159.359 463.014 159.533 463.014 159.707C463.014 159.881 462.913 160.054 462.753 160.141L332.075 235.478C331.988 235.521 331.901 235.55 331.814 235.55L331.799 235.579Z" fill="white"/>
<path d="M313.691 311.22C311.832 311.22 310.06 310.843 308.695 310.06L272.842 289.403C271.419 288.592 270.635 287.417 270.635 286.113C270.635 284.605 271.709 283.112 273.597 282.025L307.926 262.238C311.324 260.281 316.305 260.078 319.281 261.803L355.135 282.46C356.558 283.271 357.342 284.446 357.342 285.75C357.342 287.272 356.267 288.751 354.38 289.838L320.051 309.625C318.207 310.684 315.898 311.234 313.691 311.234V311.22ZM309.436 308.799C311.948 310.249 316.392 310.06 319.34 308.364L353.668 288.577C355.091 287.751 355.904 286.722 355.904 285.736C355.904 284.75 355.106 284.098 354.423 283.706L318.57 263.049C316.058 261.6 311.614 261.788 308.666 263.484L274.338 283.271C272.915 284.098 272.101 285.127 272.101 286.113C272.101 287.098 272.9 287.751 273.583 288.142L309.436 308.799Z" fill="#F35048"/>
<path d="M131.201 236.087C131.114 236.087 131.027 236.058 130.939 236.014L0.261385 160.678C0.10165 160.591 0 160.417 0 160.243C0 160.054 0.10165 159.895 0.261385 159.808L52.7998 129.627C53.0321 129.482 53.3516 129.569 53.4968 129.816C53.642 130.062 53.5549 130.366 53.308 130.511L1.52475 160.243L131.448 235.144C131.694 235.289 131.782 235.594 131.636 235.84C131.549 236 131.375 236.101 131.201 236.101V236.087Z" fill="white"/>
<path d="M150.602 311.22C148.743 311.22 146.971 310.843 145.606 310.06L109.753 289.403C108.33 288.592 107.546 287.417 107.546 286.113C107.546 284.605 108.62 283.112 110.508 282.025L144.837 262.238C148.235 260.281 153.216 260.078 156.193 261.803L192.046 282.46C193.469 283.271 194.253 284.446 194.253 285.75C194.253 287.272 193.164 288.751 191.291 289.838L156.962 309.625C155.118 310.684 152.809 311.234 150.602 311.234V311.22ZM146.347 308.799C148.874 310.249 153.303 310.06 156.251 308.364L190.579 288.577C192.002 287.751 192.816 286.722 192.816 285.736C192.816 284.75 192.017 284.098 191.334 283.706L155.481 263.049C152.969 261.6 148.525 261.788 145.577 263.484L111.249 283.271C109.826 284.098 109.013 285.127 109.013 286.113C109.013 287.098 109.811 287.751 110.494 288.142L146.347 308.799Z" fill="#F35048"/>
<path d="M232.458 331.674C229.176 331.674 225.909 330.833 222.99 329.152L172.659 300.145C172.34 299.956 172.223 299.551 172.412 299.217C172.601 298.898 173.008 298.782 173.342 298.971L223.687 327.977C229.118 331.109 235.856 331.109 241.287 327.977L291.633 298.971C291.952 298.782 292.373 298.898 292.562 299.217C292.751 299.536 292.635 299.956 292.315 300.145L241.97 329.152C239.051 330.833 235.769 331.674 232.502 331.674H232.458Z" fill="#F35048"/>
<ellipse cx="85.5387" cy="162.433" rx="39.3278" ry="4.76868" fill="#87120C"/>
<rect x="46.2109" y="139.12" width="78.6556" height="23.3136" fill="#87120C"/>
<path d="M85.5391 135.351C96.3718 135.351 106.162 135.884 113.228 136.741C116.767 137.17 119.585 137.676 121.5 138.225C122.465 138.502 123.142 138.773 123.558 139.019C123.62 139.056 123.672 139.09 123.715 139.12C123.672 139.149 123.62 139.183 123.558 139.22C123.142 139.466 122.465 139.738 121.5 140.015C119.585 140.564 116.767 141.069 113.228 141.498C106.162 142.355 96.3718 142.888 85.5391 142.888C74.7064 142.888 64.9164 142.355 57.8506 141.498C54.3109 141.069 51.4917 140.564 49.5771 140.015C48.6122 139.738 47.9347 139.466 47.5195 139.22C47.4566 139.183 47.4049 139.149 47.3623 139.12C47.4049 139.09 47.4567 139.056 47.5195 139.019C47.9347 138.773 48.6122 138.502 49.5771 138.225C51.4917 137.676 54.3108 137.17 57.8506 136.741C64.9164 135.884 74.7064 135.351 85.5391 135.351Z" fill="#F35048" stroke="white" stroke-width="2"/>
<ellipse cx="85.7165" cy="134.568" rx="39.3278" ry="4.76868" fill="#87120C"/>
<rect x="46.3887" y="111.254" width="78.6556" height="23.3136" fill="#87120C"/>
<path d="M85.7168 107.486C96.5496 107.486 106.34 108.019 113.405 108.875C116.945 109.305 119.763 109.811 121.678 110.36C122.643 110.636 123.32 110.908 123.735 111.154C123.798 111.191 123.85 111.225 123.893 111.254C123.85 111.284 123.798 111.318 123.735 111.355C123.32 111.601 122.643 111.873 121.678 112.15C119.763 112.699 116.945 113.204 113.405 113.633C106.34 114.49 96.5496 115.023 85.7168 115.023C74.8841 115.023 65.0941 114.49 58.0283 113.633C54.4886 113.204 51.6695 112.699 49.7549 112.15C48.79 111.873 48.1125 111.601 47.6973 111.355C47.6344 111.318 47.5827 111.284 47.54 111.254C47.5827 111.225 47.6344 111.191 47.6973 111.154C48.1125 110.908 48.79 110.636 49.7549 110.36C51.6695 109.811 54.4885 109.305 58.0283 108.875C65.0941 108.019 74.8841 107.486 85.7168 107.486Z" fill="#F35048" stroke="white" stroke-width="2"/>
<ellipse cx="85.5153" cy="105.163" rx="39.3278" ry="4.76868" fill="#87120C"/>
<rect x="46.1875" y="81.849" width="78.6556" height="23.3136" fill="#87120C"/>
<path d="M85.5156 78.0803C96.3484 78.0803 106.138 78.6132 113.204 79.4699C116.744 79.8991 119.562 80.4055 121.477 80.9543C122.441 81.2309 123.119 81.5022 123.534 81.7483C123.597 81.7855 123.649 81.8192 123.691 81.8488C123.649 81.8785 123.597 81.9122 123.534 81.9494C123.119 82.1955 122.441 82.4677 121.477 82.7444C119.562 83.2932 116.743 83.7986 113.204 84.2278C106.138 85.0845 96.3484 85.6174 85.5156 85.6174C74.6829 85.6174 64.893 85.0845 57.8271 84.2278C54.2875 83.7985 51.4683 83.2932 49.5537 82.7444C48.5888 82.4677 47.9113 82.1955 47.4961 81.9494C47.4332 81.9122 47.3815 81.8785 47.3389 81.8488C47.3815 81.8192 47.4332 81.7855 47.4961 81.7483C47.9113 81.5022 48.5888 81.2309 49.5537 80.9543C51.4683 80.4054 54.2873 79.8992 57.8271 79.4699C64.893 78.6132 74.6829 78.0803 85.5156 78.0803Z" fill="#F35048" stroke="white" stroke-width="2"/>
<ellipse cx="234.239" cy="252.555" rx="39.3278" ry="4.76868" fill="#87120C"/>
<rect x="194.911" y="229.241" width="78.6556" height="23.3136" fill="#87120C"/>
<path d="M234.239 225.473C245.072 225.473 254.862 226.006 261.928 226.862C265.467 227.292 268.286 227.798 270.2 228.347C271.165 228.623 271.843 228.895 272.258 229.141C272.321 229.178 272.372 229.212 272.415 229.241C272.372 229.271 272.321 229.305 272.258 229.342C271.843 229.588 271.165 229.86 270.2 230.137C268.286 230.686 265.467 231.191 261.928 231.62C254.862 232.477 245.072 233.01 234.239 233.01C223.407 233.01 213.617 232.477 206.551 231.62C203.011 231.191 200.192 230.686 198.277 230.137C197.312 229.86 196.635 229.588 196.22 229.342C196.157 229.305 196.105 229.271 196.062 229.241C196.105 229.212 196.157 229.178 196.22 229.141C196.635 228.895 197.312 228.623 198.277 228.347C200.192 227.798 203.011 227.292 206.551 226.862C213.617 226.006 223.407 225.473 234.239 225.473Z" fill="#F35048" stroke="white" stroke-width="2"/>
<ellipse cx="234.417" cy="224.69" rx="39.3278" ry="4.76868" fill="#87120C"/>
<rect x="195.089" y="201.376" width="78.6556" height="23.3136" fill="#87120C"/>
<path d="M234.417 197.607C245.25 197.607 255.04 198.14 262.105 198.997C265.645 199.426 268.463 199.933 270.378 200.481C271.343 200.758 272.02 201.029 272.436 201.275C272.498 201.313 272.55 201.346 272.593 201.376C272.55 201.406 272.498 201.439 272.436 201.477C272.02 201.723 271.343 201.995 270.378 202.271C268.463 202.82 265.645 203.326 262.105 203.755C255.04 204.612 245.25 205.144 234.417 205.145C223.584 205.145 213.794 204.612 206.729 203.755C203.189 203.326 200.37 202.82 198.455 202.271C197.49 201.995 196.813 201.723 196.397 201.477C196.335 201.439 196.283 201.406 196.24 201.376C196.283 201.346 196.335 201.313 196.397 201.275C196.813 201.029 197.49 200.758 198.455 200.481C200.37 199.933 203.189 199.426 206.729 198.997C213.794 198.14 223.584 197.607 234.417 197.607Z" fill="#F35048" stroke="white" stroke-width="2"/>
<ellipse cx="234.215" cy="195.284" rx="39.3278" ry="4.76868" fill="#87120C"/>
<rect x="194.888" y="171.971" width="78.6556" height="23.3136" fill="#87120C"/>
<path d="M234.216 168.202C245.049 168.202 254.839 168.735 261.904 169.592C265.444 170.021 268.262 170.527 270.177 171.076C271.142 171.353 271.819 171.624 272.234 171.87C272.297 171.907 272.349 171.941 272.392 171.971C272.349 172 272.297 172.034 272.234 172.071C271.819 172.317 271.142 172.589 270.177 172.866C268.262 173.415 265.444 173.92 261.904 174.349C254.839 175.206 245.049 175.739 234.216 175.739C223.383 175.739 213.593 175.206 206.527 174.349C202.988 173.92 200.168 173.415 198.254 172.866C197.289 172.589 196.611 172.317 196.196 172.071C196.133 172.034 196.082 172 196.039 171.971C196.082 171.941 196.133 171.907 196.196 171.87C196.611 171.624 197.289 171.353 198.254 171.076C200.168 170.527 202.988 170.021 206.527 169.592C213.593 168.735 223.383 168.202 234.216 168.202Z" fill="#F35048" stroke="white" stroke-width="2"/>
<ellipse cx="380.687" cy="162.433" rx="39.3278" ry="4.76868" fill="#87120C"/>
<rect x="341.359" y="139.12" width="78.6556" height="23.3136" fill="#87120C"/>
<path d="M380.688 135.351C391.52 135.351 401.31 135.884 408.376 136.741C411.915 137.17 414.734 137.676 416.648 138.225C417.613 138.502 418.291 138.773 418.706 139.019C418.769 139.056 418.821 139.09 418.863 139.12C418.821 139.149 418.769 139.183 418.706 139.22C418.291 139.466 417.613 139.738 416.648 140.015C414.734 140.564 411.915 141.069 408.376 141.498C401.31 142.355 391.52 142.888 380.688 142.888C369.855 142.888 360.065 142.355 352.999 141.498C349.459 141.069 346.64 140.564 344.726 140.015C343.761 139.738 343.083 139.466 342.668 139.22C342.605 139.183 342.553 139.149 342.511 139.12C342.553 139.09 342.605 139.056 342.668 139.019C343.083 138.773 343.761 138.502 344.726 138.225C346.64 137.676 349.459 137.17 352.999 136.741C360.065 135.884 369.855 135.351 380.688 135.351Z" fill="#F35048" stroke="white" stroke-width="2"/>
<ellipse cx="380.865" cy="134.568" rx="39.3278" ry="4.76868" fill="#87120C"/>
<rect x="341.537" y="111.254" width="78.6556" height="23.3136" fill="#87120C"/>
<path d="M380.865 107.486C391.698 107.486 401.488 108.019 408.554 108.875C412.093 109.305 414.912 109.811 416.826 110.36C417.791 110.636 418.469 110.908 418.884 111.154C418.947 111.191 418.998 111.225 419.041 111.254C418.998 111.284 418.947 111.318 418.884 111.355C418.469 111.601 417.791 111.873 416.826 112.15C414.912 112.699 412.093 113.204 408.554 113.633C401.488 114.49 391.698 115.023 380.865 115.023C370.033 115.023 360.243 114.49 353.177 113.633C349.637 113.204 346.818 112.699 344.903 112.15C343.938 111.873 343.261 111.601 342.846 111.355C342.783 111.318 342.731 111.284 342.688 111.254C342.731 111.225 342.783 111.191 342.846 111.154C343.261 110.908 343.938 110.636 344.903 110.36C346.818 109.811 349.637 109.305 353.177 108.875C360.243 108.019 370.033 107.486 380.865 107.486Z" fill="#F35048" stroke="white" stroke-width="2"/>
<ellipse cx="380.664" cy="105.163" rx="39.3278" ry="4.76868" fill="#87120C"/>
<rect x="341.336" y="81.849" width="78.6556" height="23.3136" fill="#87120C"/>
<path d="M380.664 78.0803C391.497 78.0803 401.287 78.6132 408.353 79.4699C411.892 79.8991 414.71 80.4055 416.625 80.9543C417.59 81.2309 418.267 81.5022 418.683 81.7483C418.745 81.7855 418.797 81.8192 418.84 81.8488C418.797 81.8785 418.745 81.9122 418.683 81.9494C418.267 82.1955 417.59 82.4677 416.625 82.7444C414.71 83.2932 411.892 83.7986 408.353 84.2278C401.287 85.0845 391.497 85.6174 380.664 85.6174C369.831 85.6174 360.041 85.0845 352.976 84.2278C349.436 83.7985 346.617 83.2932 344.702 82.7444C343.737 82.4677 343.06 82.1955 342.645 81.9494C342.582 81.9122 342.53 81.8785 342.487 81.8488C342.53 81.8192 342.582 81.7855 342.645 81.7483C343.06 81.5022 343.737 81.2309 344.702 80.9543C346.617 80.4054 349.436 79.8992 352.976 79.4699C360.041 78.6132 369.831 78.0803 380.664 78.0803Z" fill="#F35048" stroke="white" stroke-width="2"/>
<path d="M110.399 271.729L150.795 248.311L191.193 271.72L150.798 295.137L110.399 271.729Z" fill="black" stroke="white" stroke-width="0.4" stroke-linejoin="round"/>
<path d="M110.399 271.735L150.795 295.14V306.835L110.399 283.43V271.735Z" fill="#87120C" stroke="white" stroke-width="0.4" stroke-linejoin="round"/>
<path d="M150.798 295.137L191.196 271.723L191.193 283.424L150.795 306.835L150.798 295.137Z" fill="#DC150B" stroke="white" stroke-width="0.4" stroke-linejoin="round"/>
<path d="M273.745 271.729L314.141 248.311L354.539 271.72L314.144 295.137L273.745 271.729Z" fill="black" stroke="white" stroke-width="0.4" stroke-linejoin="round"/>
<path d="M273.745 271.735L314.141 295.14V306.835L273.745 283.43V271.735Z" fill="#87120C" stroke="white" stroke-width="0.4" stroke-linejoin="round"/>
<path d="M314.144 295.137L354.542 271.723L354.539 283.424L314.141 306.835L314.144 295.137Z" fill="#DC150B" stroke="white" stroke-width="0.4" stroke-linejoin="round"/>
</g>
<defs>
<clipPath id="clip0_465_1901">
<rect width="463" height="331.674" fill="white"/>
</clipPath>
</defs>
</svg>
