<svg width="431" height="330" viewBox="0 0 431 330" fill="none" xmlns="http://www.w3.org/2000/svg">
<path d="M6.79184 45.8849L85.5998 0.199997L164.414 45.8673L85.6056 91.5523L6.79184 45.8849Z" fill="#C76FF2" stroke="white" stroke-width="0.4" stroke-linejoin="round"/>
<path d="M25.8099 45.7138L85.5783 11.0674L145.351 45.7005L85.5827 80.347L25.8099 45.7138Z" fill="black" stroke="white" stroke-width="0.4" stroke-linejoin="round"/>
<path d="M6.79216 45.8969L85.6001 91.5584V114.374L6.79216 68.713V45.8969Z" fill="#5D137D" stroke="white" stroke-width="0.4" stroke-linejoin="round"/>
<path d="M85.6052 91.5523L164.419 45.8733L164.413 68.7011L85.5993 114.374L85.6052 91.5523Z" fill="#9E4EC4" stroke="white" stroke-width="0.4" stroke-linejoin="round"/>
<path d="M358.192 147.372C357.809 147.372 357.402 147.276 357.043 147.061L254.097 87.6687C246.821 83.4828 237.773 83.4828 230.497 87.6687L194.857 108.24C185.57 113.598 174.034 113.598 164.747 108.24L124.224 84.8702C123.123 84.2243 122.74 82.837 123.387 81.7367C124.033 80.6364 125.421 80.2537 126.522 80.8995L167.045 104.269C174.895 108.814 184.685 108.814 192.536 104.269L228.175 83.6981C236.864 78.675 247.683 78.675 256.371 83.6981L359.317 143.09C360.418 143.736 360.801 145.123 360.155 146.224C359.724 146.965 358.958 147.372 358.168 147.372H358.192Z" fill="#C76FF2"/>
<path d="M273.043 135.541L351.851 89.8559L430.665 135.523L351.857 181.208L273.043 135.541Z" fill="#C76FF2" stroke="white" stroke-width="0.4" stroke-linejoin="round"/>
<path d="M292.061 135.37L351.829 100.723L411.602 135.356L351.834 170.003L292.061 135.37Z" fill="black" stroke="white" stroke-width="0.4" stroke-linejoin="round"/>
<path d="M273.043 135.553L351.851 181.214V204.03L273.043 158.369V135.553Z" fill="#5D137D" stroke="white" stroke-width="0.4" stroke-linejoin="round"/>
<path d="M351.856 181.208L430.67 135.529L430.664 158.357L351.85 204.03L351.856 181.208Z" fill="#9E4EC4" stroke="white" stroke-width="0.4" stroke-linejoin="round"/>
<path d="M145.79 296.056C145.407 296.056 145 295.96 144.641 295.745L42.1261 236.592C36.0944 233.123 32.5041 226.88 32.5041 219.944C32.5041 212.983 36.0944 206.764 42.1261 203.272L76.4733 183.443C78.9865 182.007 80.4705 179.424 80.4705 176.53C80.4705 173.636 78.9865 171.052 76.4733 169.617L8.40129 130.341C3.13552 127.303 0 121.874 0 115.798C0 109.723 3.13552 104.293 8.40129 101.255L43.7059 80.8756C44.8069 80.2298 46.2191 80.6125 46.8414 81.7128C47.4876 82.8131 47.1047 84.2243 46.0037 84.8462L10.6991 105.226C6.86943 107.426 4.59558 111.373 4.59558 115.774C4.59558 120.175 6.86943 124.122 10.6991 126.323L78.7711 165.599C82.7204 167.871 85.0661 171.961 85.0661 176.506C85.0661 181.051 82.7204 185.141 78.7711 187.413L44.4239 207.242C39.8283 209.898 37.0997 214.634 37.0997 219.92C37.0997 225.206 39.8283 229.942 44.4239 232.597L146.939 291.75C148.04 292.396 148.423 293.783 147.777 294.908C147.346 295.649 146.58 296.056 145.79 296.056Z" fill="#C76FF2"/>
<path d="M313.796 174.42C313.796 177.338 316.233 181.073 319.23 182.766C322.226 184.459 324.663 183.446 324.663 180.528C324.663 177.61 322.226 173.876 319.23 172.182C316.233 170.489 313.796 171.502 313.796 174.42Z" fill="#C76FF2"/>
<path d="M189.591 301.868C188.802 301.868 188.012 301.461 187.605 300.72C186.959 299.62 187.341 298.208 188.443 297.563L278.918 245.346C280.115 244.653 280.833 243.409 280.833 242.021C280.833 240.634 280.115 239.39 278.918 238.697L257.783 226.498C255.15 224.967 253.57 222.24 253.57 219.178C253.57 216.117 255.15 213.39 257.783 211.883L319.416 176.315C320.518 175.669 321.93 176.051 322.552 177.152C323.198 178.252 322.815 179.663 321.714 180.285L260.081 215.853C258.884 216.547 258.166 217.791 258.166 219.178C258.166 220.566 258.884 221.809 260.081 222.503L281.216 234.702C283.849 236.233 285.428 238.96 285.428 241.998C285.428 245.035 283.849 247.786 281.216 249.317L190.74 301.533C190.381 301.749 189.974 301.844 189.591 301.844V301.868Z" fill="#C76FF2"/>
<path d="M133.697 80.6688C132.729 84.1061 128.693 87.7175 124.692 88.7441C120.691 89.7707 118.229 87.79 119.197 84.3528C120.164 80.9156 124.2 77.3041 128.201 76.2775C132.202 75.2509 134.664 77.2316 133.697 80.6688Z" fill="#C76FF2"/>
<path d="M39.394 78.3119C39.394 81.5542 42.1361 85.7036 45.5069 87.5852C48.8778 89.4667 51.6199 88.3411 51.6199 85.0989C51.6199 81.8566 48.8778 77.7071 45.5069 75.8256C42.1361 73.944 39.394 75.0696 39.394 78.3119Z" fill="#C76FF2"/>
<path d="M91.014 259.157L169.822 213.472L248.636 259.14L169.828 304.825L91.014 259.157Z" fill="#C76FF2" stroke="white" stroke-width="0.4" stroke-linejoin="round"/>
<path d="M110.032 258.986L169.8 224.34L229.573 258.973L169.805 293.619L110.032 258.986Z" fill="black" stroke="white" stroke-width="0.4" stroke-linejoin="round"/>
<path d="M91.0138 259.169L169.822 304.831V327.647L91.0138 281.985V259.169Z" fill="#5D137D" stroke="white" stroke-width="0.4" stroke-linejoin="round"/>
<path d="M169.827 304.825L248.641 259.146L248.635 281.973L169.821 327.647L169.827 304.825Z" fill="#9E4EC4" stroke="white" stroke-width="0.4" stroke-linejoin="round"/>
<path d="M91.014 215.688L169.822 170.003L248.636 215.67L169.828 261.355L91.014 215.688Z" fill="#C76FF2" stroke="white" stroke-width="0.4" stroke-linejoin="round"/>
<path d="M110.032 215.517L169.8 180.87L229.573 215.503L169.805 250.15L110.032 215.517Z" fill="black" stroke="white" stroke-width="0.4" stroke-linejoin="round"/>
<path d="M91.0138 215.7L169.822 261.361V284.177L91.0138 238.516V215.7Z" fill="#5D137D" stroke="white" stroke-width="0.4" stroke-linejoin="round"/>
<path d="M169.827 261.355L248.641 215.676L248.635 238.504L169.821 284.177L169.827 261.355Z" fill="#9E4EC4" stroke="white" stroke-width="0.4" stroke-linejoin="round"/>
</svg>
