<svg width="96" height="125" viewBox="0 0 96 125" fill="none" xmlns="http://www.w3.org/2000/svg">
<path d="M8.27246 92.1104L48.6129 112.705L87.4214 92.1104V11.5776H8.27246V92.1104Z" fill="white"/>
<path d="M88.2381 11.8853L7.45508 93.5451L49.3274 114.344L88.2381 94.3648V11.8853Z" fill="#F2F3F2"/>
<path d="M5.61719 38.4223V93.8526L7.04697 94.5698L47.3874 115.164L48.6129 115.779L49.8385 115.164L88.7491 94.5698L90.1789 93.8526V8.91406H5.61719V38.4223ZM8.27251 92.3157V11.578H87.5236V92.3157L48.6129 112.91L8.27251 92.3157Z" fill="#DCDEDC"/>
<path d="M47.8981 12.91C48.3066 12.91 48.7151 12.91 49.1236 13.0124L47.8981 15.369C46.0598 15.2665 44.4257 16.7009 44.3236 18.5452C44.2215 20.3895 45.6512 22.0288 47.4895 22.1313H47.8981C48.7151 22.1313 49.5321 21.8239 50.1449 21.3116L51.4725 23.5657C50.4512 24.2829 49.2257 24.6928 47.8981 24.6928C44.63 24.7952 41.8725 22.3362 41.7704 19.0575C41.6683 15.7788 44.1193 13.0124 47.3874 12.91H47.8981ZM52.0853 17.9305L53.6172 20.4919L52.0853 22.9509L50.6555 20.4919H47.6938L49.2257 17.9305H52.0853ZM49.6342 17.0083C49.6342 16.5985 49.7364 16.1887 49.9406 15.8813C50.1449 15.5739 50.5534 15.2665 50.8598 15.0616L51.064 14.9591C51.4725 14.7542 51.5746 14.6518 51.5746 14.4468C51.5746 14.2419 51.2683 14.037 51.064 14.037C50.6555 14.037 50.3491 14.2419 50.1449 14.6518L49.6342 14.1395C49.7363 13.9346 49.9406 13.7296 50.1449 13.5247C50.4512 13.3198 50.7576 13.3198 51.064 13.3198C51.3704 13.3198 51.7789 13.4223 51.9832 13.6272C52.1874 13.8321 52.3917 14.1395 52.3917 14.4468C52.3917 14.9591 52.0853 15.369 51.4725 15.5739L51.1661 15.7788C50.8598 15.9837 50.6555 16.0862 50.5534 16.3936H52.3917V17.1108L49.6342 17.0083ZM47.8981 29.8157L57.6002 24.2829V8.91406H38.0938V24.1805L47.8981 29.8157ZM92.1193 66.0862H3.67678L0.408691 73.2583L3.67678 80.4305H92.1193L95.2853 73.2583L92.1193 66.0862Z" fill="#FF492C"/>
<path d="M19.4962 61.4753C19.4349 61.4753 19.3839 61.4548 19.343 61.4138C19.3022 61.366 19.2817 61.3113 19.2817 61.2499V48.7908C19.2817 48.7294 19.3022 48.6747 19.343 48.6269C19.3839 48.5859 19.4349 48.5654 19.4962 48.5654H21.6511C21.7124 48.5654 21.7634 48.5859 21.8043 48.6269C21.852 48.6747 21.8758 48.7294 21.8758 48.7908V59.1494C21.8758 59.2109 21.9064 59.2417 21.9677 59.2417H27.9728C28.0341 59.2417 28.0885 59.2621 28.1362 59.3031C28.1771 59.3509 28.1975 59.4056 28.1975 59.4671V61.2499C28.1975 61.3113 28.1771 61.366 28.1362 61.4138C28.0885 61.4548 28.0341 61.4753 27.9728 61.4753H19.4962ZM37.9915 55.758C38.0664 56.2225 38.0903 56.7451 38.063 57.3257C38.0562 57.4759 37.9779 57.5511 37.8281 57.5511H32.1498C32.0749 57.5511 32.0511 57.5818 32.0783 57.6433C32.1124 57.8892 32.1771 58.1351 32.2724 58.381C32.5924 59.0641 33.2426 59.4056 34.223 59.4056C35.006 59.3988 35.6256 59.0811 36.0817 58.4527C36.1294 58.3776 36.1839 58.34 36.2451 58.34C36.286 58.34 36.3302 58.3639 36.3779 58.4117L37.6954 59.7232C37.7566 59.7847 37.7873 59.8393 37.7873 59.8871C37.7873 59.9145 37.7634 59.9657 37.7158 60.0408C37.3141 60.5395 36.7932 60.9288 36.1532 61.2089C35.52 61.4821 34.8222 61.6187 34.0596 61.6187C33.0043 61.6187 32.1124 61.3796 31.3839 60.9015C30.6554 60.4234 30.1311 59.754 29.8111 58.8933C29.5524 58.2785 29.423 57.4725 29.423 56.4753C29.423 55.799 29.5149 55.2048 29.6988 54.6925C29.9847 53.8182 30.4783 53.1214 31.1796 52.6023C31.8877 52.09 32.7251 51.8339 33.692 51.8339C34.9175 51.8339 35.9013 52.1891 36.6434 52.8994C37.3856 53.6098 37.8349 54.5627 37.9915 55.758ZM33.7124 54.0777C32.9362 54.0777 32.4256 54.4397 32.1805 55.1638C32.1328 55.3277 32.092 55.5258 32.0579 55.758C32.0579 55.8195 32.0885 55.8503 32.1498 55.8503H35.326C35.4009 55.8503 35.4247 55.8195 35.3975 55.758C35.3362 55.4029 35.3056 55.2321 35.3056 55.2458C35.1966 54.8769 35.006 54.59 34.7337 54.3851C34.4545 54.1802 34.1141 54.0777 33.7124 54.0777ZM43.343 51.8441C44.1396 51.8441 44.8511 51.9841 45.4775 52.2642C46.1039 52.5374 46.5907 52.9165 46.9379 53.4015C47.2851 53.8796 47.4588 54.4124 47.4588 54.9999V61.2499C47.4588 61.3113 47.4383 61.366 47.3975 61.4138C47.3566 61.4548 47.3056 61.4753 47.2443 61.4753H45.0894C45.0281 61.4753 44.9771 61.4548 44.9362 61.4138C44.8885 61.366 44.8647 61.3113 44.8647 61.2499V60.6453C44.8647 60.6112 44.8545 60.5873 44.8341 60.5736C44.8068 60.56 44.783 60.5702 44.7626 60.6044C44.2451 61.2806 43.4179 61.6187 42.2809 61.6187C41.3209 61.6187 40.5481 61.3865 39.9626 60.922C39.3703 60.4575 39.0741 59.7676 39.0741 58.8523C39.0741 57.9097 39.4077 57.1754 40.0749 56.6494C40.7354 56.1303 41.6783 55.8708 42.9039 55.8708H44.7728C44.8341 55.8708 44.8647 55.84 44.8647 55.7785V55.3687C44.8647 54.9657 44.7422 54.6481 44.4971 54.4158C44.252 54.1904 43.8843 54.0777 43.3941 54.0777C43.0196 54.0777 42.7064 54.146 42.4545 54.2826C42.2026 54.4193 42.0392 54.6105 41.9643 54.8564C41.9303 54.993 41.852 55.0545 41.7294 55.0408L39.503 54.7437C39.3532 54.7164 39.2851 54.6617 39.2988 54.5798C39.3464 54.0606 39.5507 53.5928 39.9115 53.1761C40.2724 52.7594 40.7524 52.435 41.3515 52.2027C41.9439 51.9637 42.6077 51.8441 43.343 51.8441ZM42.9754 59.6822C43.4996 59.6822 43.9456 59.5422 44.3132 59.2621C44.6809 58.9821 44.8647 58.6201 44.8647 58.1761V57.5101C44.8647 57.4486 44.8341 57.4179 44.7728 57.4179H43.4554C42.9039 57.4179 42.4715 57.5238 42.1583 57.7355C41.8451 57.9404 41.6885 58.2341 41.6885 58.6167C41.6885 58.9514 41.8043 59.2109 42.0358 59.3953C42.2673 59.5866 42.5805 59.6822 42.9754 59.6822ZM55.149 48.7908C55.149 48.7294 55.1694 48.6747 55.2103 48.6269C55.2511 48.5859 55.3022 48.5654 55.3634 48.5654H57.5183C57.5796 48.5654 57.6307 48.5859 57.6715 48.6269C57.7124 48.6747 57.7328 48.7294 57.7328 48.7908V61.2499C57.7328 61.3113 57.7124 61.366 57.6715 61.4138C57.6307 61.4548 57.5796 61.4753 57.5183 61.4753H55.3634C55.3022 61.4753 55.2511 61.4548 55.2103 61.4138C55.1694 61.366 55.149 61.3113 55.149 61.2499V60.6453C55.149 60.6112 55.1354 60.5907 55.1081 60.5839C55.0809 60.577 55.0571 60.5839 55.0366 60.6044C54.5192 61.2806 53.8145 61.6187 52.9226 61.6187C52.0647 61.6187 51.326 61.3796 50.7064 60.9015C50.0868 60.4234 49.6409 59.7676 49.3685 58.9343C49.1643 58.2922 49.0622 57.5477 49.0622 56.7007C49.0622 55.8264 49.1711 55.0647 49.389 54.4158C49.6749 53.6235 50.1209 52.9985 50.7268 52.5408C51.3328 52.0764 52.0817 51.8441 52.9737 51.8441C53.8588 51.8441 54.5464 52.1515 55.0366 52.7662C55.0571 52.8072 55.0809 52.8209 55.1081 52.8072C55.1354 52.7936 55.149 52.7697 55.149 52.7355V48.7908ZM54.7609 58.5962C55.006 58.1453 55.1285 57.5238 55.1285 56.7314C55.1285 55.9117 54.9924 55.2662 54.72 54.7949C54.4409 54.3168 54.0324 54.0777 53.4945 54.0777C52.9158 54.0777 52.48 54.3168 52.1873 54.7949C51.8809 55.2799 51.7277 55.9322 51.7277 56.7519C51.7277 57.4896 51.8571 58.1044 52.1158 58.5962C52.4222 59.129 52.8749 59.3953 53.4741 59.3953C54.0256 59.3953 54.4545 59.129 54.7609 58.5962ZM68.0477 55.758C68.1226 56.2225 68.1464 56.7451 68.1192 57.3257C68.1124 57.4759 68.0341 57.5511 67.8843 57.5511H62.206C62.1311 57.5511 62.1073 57.5818 62.1345 57.6433C62.1685 57.8892 62.2332 58.1351 62.3285 58.381C62.6485 59.0641 63.2988 59.4056 64.2792 59.4056C65.0622 59.3988 65.6817 59.0811 66.1379 58.4527C66.1856 58.3776 66.24 58.34 66.3013 58.34C66.3422 58.34 66.3864 58.3639 66.4341 58.4117L67.7515 59.7232C67.8128 59.7847 67.8434 59.8393 67.8434 59.8871C67.8434 59.9145 67.8196 59.9657 67.772 60.0408C67.3703 60.5395 66.8494 60.9288 66.2094 61.2089C65.5762 61.4821 64.8783 61.6187 64.1158 61.6187C63.0605 61.6187 62.1685 61.3796 61.44 60.9015C60.7115 60.4234 60.1873 59.754 59.8673 58.8933C59.6085 58.2785 59.4792 57.4725 59.4792 56.4753C59.4792 55.799 59.5711 55.2048 59.7549 54.6925C60.0409 53.8182 60.5345 53.1214 61.2358 52.6023C61.9439 52.09 62.7813 51.8339 63.7481 51.8339C64.9737 51.8339 65.9575 52.1891 66.6996 52.8994C67.4417 53.6098 67.8911 54.5627 68.0477 55.758ZM63.7685 54.0777C62.9924 54.0777 62.4817 54.4397 62.2366 55.1638C62.189 55.3277 62.1481 55.5258 62.1141 55.758C62.1141 55.8195 62.1447 55.8503 62.206 55.8503H65.3822C65.4571 55.8503 65.4809 55.8195 65.4537 55.758C65.3924 55.4029 65.3617 55.2321 65.3617 55.2458C65.2528 54.8769 65.0622 54.59 64.7898 54.3851C64.5107 54.1802 64.1702 54.0777 63.7685 54.0777ZM74.4307 51.8646C74.8732 51.8646 75.2205 51.95 75.4724 52.1208C75.5745 52.1754 75.612 52.2676 75.5847 52.3974L75.1966 54.5081C75.1898 54.6515 75.1047 54.6925 74.9413 54.631C74.7575 54.5695 74.543 54.5388 74.2979 54.5388C74.2026 54.5388 74.0698 54.5525 73.8996 54.5798C73.4571 54.6139 73.0826 54.7744 72.7762 55.0613C72.4698 55.355 72.3166 55.741 72.3166 56.2191V61.2499C72.3166 61.3113 72.2962 61.366 72.2554 61.4138C72.2077 61.4548 72.1532 61.4753 72.0919 61.4753H69.9473C69.886 61.4753 69.8315 61.4548 69.7839 61.4138C69.743 61.366 69.7226 61.3113 69.7226 61.2499V52.213C69.7226 52.1515 69.743 52.1003 69.7839 52.0593C69.8315 52.0183 69.886 51.9978 69.9473 51.9978H72.0919C72.1532 51.9978 72.2077 52.0183 72.2554 52.0593C72.2962 52.1003 72.3166 52.1515 72.3166 52.213V52.9199C72.3166 52.9541 72.3268 52.978 72.3473 52.9917C72.3745 53.0053 72.3949 52.9985 72.4086 52.9712C72.9124 52.2335 73.5864 51.8646 74.4307 51.8646Z" fill="#252530"/>
<path d="M31.864 77.2542C31.7891 77.2542 31.7414 77.22 31.721 77.1517L29.8623 70.2152L29.8521 70.1742C29.8521 70.1128 29.8895 70.082 29.9644 70.082H30.9652C31.0401 70.082 31.0878 70.1162 31.1082 70.1845L32.2725 74.8566C32.2793 74.8771 32.2895 74.8874 32.3031 74.8874C32.3167 74.8874 32.3269 74.8771 32.3338 74.8566L33.4469 70.1845C33.4674 70.1162 33.5116 70.082 33.5797 70.082H34.5601C34.635 70.082 34.6827 70.1162 34.7031 70.1845L35.8878 74.8669C35.8946 74.8874 35.9048 74.8976 35.9184 74.8976C35.932 74.8976 35.9423 74.8874 35.9491 74.8669L37.0929 70.1845C37.1133 70.1162 37.161 70.082 37.2359 70.082H38.1857C38.281 70.082 38.3184 70.1264 38.298 70.2152L36.5312 77.1517C36.5108 77.22 36.4631 77.2542 36.3882 77.2542H35.4384C35.3635 77.2542 35.3159 77.22 35.2955 77.1517L34.1006 72.2644C34.0938 72.2439 34.0835 72.2303 34.0699 72.2234C34.0563 72.2234 34.0461 72.2371 34.0393 72.2644L32.8955 77.1517C32.875 77.22 32.8308 77.2542 32.7627 77.2542H31.864ZM39.4316 77.2542C39.3976 77.2542 39.3669 77.2405 39.3397 77.2132C39.3193 77.1927 39.3091 77.1654 39.3091 77.1312V70.205C39.3091 70.1708 39.3193 70.1435 39.3397 70.123C39.3669 70.0957 39.3976 70.082 39.4316 70.082H40.3712C40.4052 70.082 40.4325 70.0957 40.4529 70.123C40.4801 70.1435 40.4938 70.1708 40.4938 70.205V77.1312C40.4938 77.1654 40.4801 77.1927 40.4529 77.2132C40.4325 77.2405 40.4052 77.2542 40.3712 77.2542H39.4316ZM46.1414 70.205C46.1414 70.1708 46.1516 70.1435 46.1721 70.123C46.1993 70.0957 46.2299 70.082 46.264 70.082H47.2035C47.2376 70.082 47.2648 70.0957 47.2852 70.123C47.3125 70.1435 47.3261 70.1708 47.3261 70.205V77.1312C47.3261 77.1654 47.3125 77.1927 47.2852 77.2132C47.2648 77.2405 47.2376 77.2542 47.2035 77.2542H46.2946C46.2265 77.2542 46.1789 77.2268 46.1516 77.1722L43.2104 72.3361C43.1967 72.3156 43.1831 72.3054 43.1695 72.3054C43.1559 72.3122 43.1491 72.3293 43.1491 72.3566L43.1695 77.1312C43.1695 77.1654 43.1559 77.1927 43.1286 77.2132C43.1082 77.2405 43.081 77.2542 43.0469 77.2542H42.1074C42.0733 77.2542 42.0427 77.2405 42.0155 77.2132C41.995 77.1927 41.9848 77.1654 41.9848 77.1312V70.205C41.9848 70.1708 41.995 70.1435 42.0155 70.123C42.0427 70.0957 42.0733 70.082 42.1074 70.082H43.0163C43.0844 70.082 43.132 70.1094 43.1593 70.164L46.0904 75.0001C46.104 75.0206 46.1176 75.0274 46.1312 75.0206C46.1448 75.0206 46.1516 75.0069 46.1516 74.9796L46.1414 70.205ZM53.515 70.082C53.5491 70.082 53.5763 70.0957 53.5967 70.123C53.624 70.1435 53.6376 70.1708 53.6376 70.205V70.9939C53.6376 71.0281 53.624 71.0554 53.5967 71.0759C53.5763 71.1032 53.5491 71.1169 53.515 71.1169H51.6359C51.6018 71.1169 51.5848 71.1339 51.5848 71.1681V77.1312C51.5848 77.1654 51.5746 77.1927 51.5542 77.2132C51.5269 77.2405 51.4963 77.2542 51.4623 77.2542H50.5227C50.4886 77.2542 50.4614 77.2405 50.441 77.2132C50.4138 77.1927 50.4001 77.1654 50.4001 77.1312V71.1681C50.4001 71.1339 50.3831 71.1169 50.3491 71.1169H48.5414C48.5074 71.1169 48.4767 71.1032 48.4495 71.0759C48.4291 71.0554 48.4189 71.0281 48.4189 70.9939V70.205C48.4189 70.1708 48.4291 70.1435 48.4495 70.123C48.4767 70.0957 48.5074 70.082 48.5414 70.082H53.515ZM59.5712 70.9837C59.5712 71.0178 59.5576 71.0451 59.5303 71.0656C59.5099 71.093 59.4827 71.1066 59.4486 71.1066H55.9661C55.9321 71.1066 55.915 71.1237 55.915 71.1578V73.0738C55.915 73.108 55.9321 73.1251 55.9661 73.1251H58.3048C58.3389 73.1251 58.3695 73.1353 58.3967 73.1558C58.4172 73.1831 58.4274 73.2139 58.4274 73.248V74.0267C58.4274 74.0609 58.4172 74.0916 58.3967 74.1189C58.3695 74.1394 58.3389 74.1497 58.3048 74.1497H55.9661C55.9321 74.1497 55.915 74.1667 55.915 74.2009V76.1783C55.915 76.2125 55.9321 76.2296 55.9661 76.2296H59.4486C59.4827 76.2296 59.5099 76.2432 59.5303 76.2706C59.5576 76.291 59.5712 76.3184 59.5712 76.3525V77.1312C59.5712 77.1654 59.5576 77.1927 59.5303 77.2132C59.5099 77.2405 59.4827 77.2542 59.4486 77.2542H54.8529C54.8189 77.2542 54.7882 77.2405 54.761 77.2132C54.7406 77.1927 54.7303 77.1654 54.7303 77.1312V70.205C54.7303 70.1708 54.7406 70.1435 54.761 70.123C54.7882 70.0957 54.8189 70.082 54.8529 70.082H59.4486C59.4827 70.082 59.5099 70.0957 59.5303 70.123C59.5576 70.1435 59.5712 70.1708 59.5712 70.205V70.9837ZM64.7899 77.2542C64.7218 77.2542 64.6742 77.2234 64.6469 77.1619L63.2989 74.2111C63.2852 74.1838 63.2648 74.1701 63.2376 74.1701H62.0121C61.978 74.1701 61.961 74.1872 61.961 74.2214V77.1312C61.961 77.1654 61.9474 77.1927 61.9201 77.2132C61.8997 77.2405 61.8725 77.2542 61.8384 77.2542H60.8989C60.8648 77.2542 60.8342 77.2405 60.8069 77.2132C60.7865 77.1927 60.7763 77.1654 60.7763 77.1312V70.205C60.7763 70.1708 60.7865 70.1435 60.8069 70.123C60.8342 70.0957 60.8648 70.082 60.8989 70.082H63.7074C64.1227 70.082 64.4903 70.1674 64.8103 70.3382C65.1303 70.5158 65.3789 70.7617 65.5559 71.0759C65.7329 71.3969 65.8214 71.7624 65.8214 72.1722C65.8214 72.6435 65.6989 73.0431 65.4538 73.371C65.2155 73.7057 64.8818 73.9379 64.4529 74.0677C64.4393 74.0677 64.4291 74.0745 64.4223 74.0882C64.4155 74.1018 64.4155 74.1155 64.4223 74.1292L65.8623 77.1107C65.8759 77.138 65.8827 77.1585 65.8827 77.1722C65.8827 77.2268 65.8452 77.2542 65.7704 77.2542H64.7899ZM62.0121 71.1066C61.978 71.1066 61.961 71.1237 61.961 71.1578V73.1968C61.961 73.2309 61.978 73.248 62.0121 73.248H63.544C63.8708 73.248 64.1363 73.149 64.3406 72.9509C64.538 72.7596 64.6367 72.5035 64.6367 72.1824C64.6367 71.8614 64.538 71.6018 64.3406 71.4038C64.1363 71.2057 63.8708 71.1066 63.544 71.1066H62.0121Z" fill="white"/>
<path d="M34.5803 95.7584C34.5599 95.7789 34.5531 95.7994 34.5599 95.8199C34.5735 95.8404 34.5939 95.8506 34.6212 95.8506H38.6348C38.6824 95.8506 38.7233 95.8677 38.7573 95.9018C38.7982 95.936 38.8186 95.977 38.8186 96.0248V97.4695C38.8186 97.5173 38.7982 97.5583 38.7573 97.5924C38.7233 97.6266 38.6824 97.6436 38.6348 97.6436H31.9761C31.9216 97.6436 31.8773 97.6266 31.8433 97.5924C31.8093 97.5583 31.7922 97.5173 31.7922 97.4695V96.0965C31.7922 96.0077 31.8229 95.9326 31.8841 95.8711C32.3676 95.3998 32.8612 94.8841 33.365 94.324C33.8688 93.7639 34.1854 93.4155 34.3148 93.2789C34.5871 92.951 34.8663 92.6368 35.1522 92.3363C36.051 91.339 36.5003 90.5979 36.5003 90.1129C36.5003 89.7645 36.3778 89.4777 36.1327 89.2522C35.8876 89.0337 35.5676 88.9244 35.1727 88.9244C34.7778 88.9244 34.4578 89.0337 34.2127 89.2522C33.9607 89.4777 33.8348 89.7748 33.8348 90.1436V90.5125C33.8348 90.5603 33.8178 90.6013 33.7837 90.6354C33.7497 90.6696 33.7088 90.6867 33.6612 90.6867H31.9148C31.8671 90.6867 31.8263 90.6696 31.7922 90.6354C31.7514 90.6013 31.731 90.5603 31.731 90.5125V89.8158C31.765 89.283 31.9352 88.8082 32.2416 88.3916C32.548 87.9817 32.9531 87.6675 33.4569 87.449C33.9676 87.2304 34.5395 87.1211 35.1727 87.1211C35.8739 87.1211 36.4833 87.2543 37.0007 87.5207C37.5182 87.7802 37.9165 88.132 38.1956 88.576C38.4816 89.0268 38.6246 89.5221 38.6246 90.0617C38.6246 90.4783 38.519 90.9052 38.308 91.3424C38.1037 91.7796 37.7939 92.2509 37.3786 92.7563C37.0722 93.1389 36.742 93.5214 36.388 93.9039C36.0339 94.2796 35.5063 94.8226 34.805 95.533L34.5803 95.7584ZM43.6288 97.8076C42.5395 97.8076 41.6816 97.5036 41.0552 96.8957C40.422 96.2878 40.1054 95.4578 40.1054 94.4059V90.4817C40.1054 89.4503 40.422 88.6341 41.0552 88.033C41.6816 87.4251 42.5395 87.1211 43.6288 87.1211C44.7114 87.1211 45.5727 87.4251 46.2127 88.033C46.8459 88.6341 47.1624 89.4503 47.1624 90.4817V94.4059C47.1624 95.4578 46.8459 96.2878 46.2127 96.8957C45.5727 97.5036 44.7114 97.8076 43.6288 97.8076ZM43.6288 96.0145C44.0714 96.0145 44.422 95.8779 44.6807 95.6047C44.9463 95.3315 45.079 94.966 45.079 94.5084V90.4203C45.079 89.9695 44.9463 89.6074 44.6807 89.3342C44.422 89.061 44.0714 88.9244 43.6288 88.9244C43.1931 88.9244 42.8459 89.061 42.5871 89.3342C42.3216 89.6074 42.1888 89.9695 42.1888 90.4203V94.5084C42.1888 94.966 42.3216 95.3315 42.5871 95.6047C42.8459 95.8779 43.1931 96.0145 43.6288 96.0145ZM51.3088 95.7584C51.2884 95.7789 51.285 95.7994 51.2986 95.8199C51.3054 95.8404 51.3259 95.8506 51.3599 95.8506H55.3735C55.4212 95.8506 55.462 95.8677 55.4961 95.9018C55.5301 95.936 55.5471 95.977 55.5471 96.0248V97.4695C55.5471 97.5173 55.5301 97.5583 55.4961 97.5924C55.462 97.6266 55.4212 97.6436 55.3735 97.6436H48.7046C48.6569 97.6436 48.6161 97.6266 48.582 97.5924C48.548 97.5583 48.531 97.5173 48.531 97.4695V96.0965C48.531 96.0077 48.5582 95.9326 48.6127 95.8711C49.1029 95.3998 49.5965 94.8841 50.0935 94.324C50.5973 93.7639 50.9139 93.4155 51.0433 93.2789C51.3224 92.951 51.605 92.6368 51.891 92.3363C52.7897 91.339 53.239 90.5979 53.239 90.1129C53.239 89.7645 53.1165 89.4777 52.8714 89.2522C52.6195 89.0337 52.2961 88.9244 51.9012 88.9244C51.5063 88.9244 51.1863 89.0337 50.9412 89.2522C50.6961 89.4777 50.5735 89.7748 50.5735 90.1436V90.5125C50.5735 90.5603 50.5565 90.6013 50.5224 90.6354C50.4884 90.6696 50.4441 90.6867 50.3897 90.6867H48.6433C48.5956 90.6867 48.5548 90.6696 48.5207 90.6354C48.4867 90.6013 48.4697 90.5603 48.4697 90.5125V89.8158C48.4969 89.283 48.6637 88.8082 48.9701 88.3916C49.2765 87.9817 49.685 87.6675 50.1956 87.449C50.7063 87.2304 51.2748 87.1211 51.9012 87.1211C52.6024 87.1211 53.2118 87.2543 53.7293 87.5207C54.2535 87.7802 54.6552 88.132 54.9344 88.576C55.2135 89.0268 55.3531 89.5221 55.3531 90.0617C55.3531 90.4783 55.251 90.9052 55.0467 91.3424C54.8356 91.7796 54.5224 92.2509 54.1071 92.7563C53.8007 93.1389 53.4705 93.5214 53.1165 93.9039C52.7624 94.2796 52.2348 94.8226 51.5335 95.533L51.3088 95.7584ZM63.4212 92.8998C63.571 93.3848 63.6459 93.8561 63.6459 94.3137C63.6459 94.8192 63.5676 95.2768 63.411 95.6867C63.1863 96.3151 62.788 96.8171 62.2161 97.1928C61.6373 97.5617 60.9633 97.7461 60.1939 97.7461C59.445 97.7461 58.788 97.5651 58.2229 97.2031C57.651 96.841 57.2493 96.3492 57.0178 95.7277C56.9156 95.4681 56.8407 95.1949 56.7931 94.908V94.8772C56.7931 94.768 56.851 94.7133 56.9667 94.7133H58.7642C58.8595 94.7133 58.9241 94.768 58.9582 94.8772C58.965 94.9387 58.9786 94.9899 58.999 95.0309C59.0195 95.0719 59.0331 95.1061 59.0399 95.1334C59.142 95.393 59.2918 95.591 59.4893 95.7277C59.6867 95.8643 59.9182 95.9326 60.1837 95.9326C60.4629 95.9326 60.7046 95.8574 60.9088 95.7072C61.1131 95.5637 61.2663 95.3588 61.3684 95.0924C61.4637 94.8943 61.5114 94.6348 61.5114 94.3137C61.5114 94.0268 61.4671 93.7707 61.3786 93.5453C61.3105 93.2857 61.1744 93.0876 60.9701 92.951C60.759 92.8076 60.5173 92.7359 60.245 92.7359C59.9659 92.7359 59.7071 92.8007 59.4688 92.9305C59.2373 93.0603 59.0807 93.2311 58.999 93.4428C58.9718 93.5384 58.9071 93.5863 58.805 93.5863H56.9871C56.9327 93.5863 56.8884 93.5692 56.8544 93.535C56.8203 93.5009 56.8033 93.4599 56.8033 93.4121V87.4182C56.8033 87.3704 56.8203 87.3294 56.8544 87.2953C56.8884 87.2611 56.9327 87.244 56.9871 87.244H63.1046C63.1522 87.244 63.1931 87.2611 63.2271 87.2953C63.2612 87.3294 63.2782 87.3704 63.2782 87.4182V88.8629C63.2782 88.9107 63.2612 88.9517 63.2271 88.9858C63.1931 89.02 63.1522 89.0371 63.1046 89.0371H58.9684C58.9207 89.0371 58.8969 89.0644 58.8969 89.119L58.8765 91.3117C58.8765 91.38 58.9071 91.397 58.9684 91.3629C59.411 91.076 59.925 90.9326 60.5105 90.9326C61.1982 90.9326 61.8007 91.1068 62.3182 91.4551C62.8424 91.8103 63.2101 92.2919 63.4212 92.8998Z" fill="#252530"/>
</svg>
