<svg width="60" height="60" viewBox="0 0 60 60" fill="none" xmlns="http://www.w3.org/2000/svg">
<path d="M49.1915 25.4588V7H7V49.1915H21.5033" stroke="white" stroke-width="2" stroke-linecap="round"/>
<path d="M43.1846 29.196C43.1846 36.4778 49.0874 42.3805 56.3691 42.3806C49.0874 42.3806 43.1846 48.2844 43.1846 55.5662C43.1846 48.2844 37.2818 42.3806 30 42.3806C37.2818 42.3806 43.1846 36.4778 43.1846 29.196Z" fill="#DC150B"/>
<path d="M13.4946 36.0066L19.9288 17.5479H23.436L29.8702 36.0066H27.1277L25.4928 31.2073H17.872L16.2371 36.0066H13.4946ZM18.6895 28.8604H24.6754L21.7483 20.3958H21.5901L18.6895 28.8604Z" fill="white"/>
<path d="M33.358 36.0066V17.5479H35.9686V36.0066H33.358Z" fill="white"/>
</svg>
