<svg width="197" height="38" viewBox="0 0 197 38" fill="none" xmlns="http://www.w3.org/2000/svg">
<path d="M48.8579 17.1005C50.4081 17.1005 51.6294 16.484 52.6159 15.251L54.6358 17.3376C53.0386 19.1397 51.2066 20.0407 49.0458 20.0407C46.885 20.0407 45.147 19.3768 43.7378 18.0015C42.3285 16.6263 41.6709 14.919 41.6709 12.8324C41.6709 10.7458 42.3755 8.99117 43.7847 7.61591C45.194 6.24064 46.932 5.5293 48.9989 5.5293C51.3006 5.5293 53.2265 6.43033 54.7297 8.18498L52.8038 10.4139C51.8173 9.18086 50.596 8.56436 49.1398 8.56436C47.9654 8.56436 46.979 8.94375 46.1334 9.70252C45.2879 10.4613 44.8651 11.5046 44.8651 12.8324C44.8651 14.1603 45.2409 15.2036 46.0395 16.0098C46.7911 16.6737 47.7306 17.1005 48.8579 17.1005Z" fill="white"/>
<path d="M57.0781 19.8512V5.7666H60.1784V17.0533H66.1441V19.8512H57.0781Z" fill="white"/>
<path d="M79.7667 17.9067C78.3575 19.282 76.6194 19.9934 74.5526 19.9934C72.4857 19.9934 70.7477 19.282 69.3384 17.9067C67.9292 16.5315 67.2246 14.7768 67.2246 12.7376C67.2246 10.651 67.9292 8.94381 69.3384 7.56854C70.7477 6.19328 72.4857 5.48193 74.5526 5.48193C76.6194 5.48193 78.3575 6.19328 79.7667 7.56854C81.1759 8.94381 81.8805 10.6985 81.8805 12.7376C81.8805 14.8243 81.1759 16.5315 79.7667 17.9067ZM78.6863 12.7376C78.6863 11.5046 78.2635 10.4139 77.465 9.51288C76.6664 8.61185 75.6799 8.18504 74.5056 8.18504C73.3312 8.18504 72.3448 8.61185 71.5462 9.51288C70.7477 10.4139 70.3249 11.4572 70.3249 12.7376C70.3249 13.9706 70.7477 15.0614 71.5462 15.9624C72.3448 16.8634 73.3312 17.2902 74.5056 17.2902C75.6799 17.2902 76.6664 16.8634 77.465 15.9624C78.3105 15.0614 78.6863 14.0181 78.6863 12.7376Z" fill="white"/>
<path d="M88.2222 16.247C88.7389 16.9109 89.4435 17.2429 90.336 17.2429C91.2285 17.2429 91.9331 16.9109 92.4029 16.247C92.9196 15.5831 93.1545 14.6821 93.1545 13.5913V5.81396H96.2548V13.6862C96.2548 15.7254 95.6911 17.2903 94.5637 18.381C93.4363 19.4718 92.0271 20.0408 90.289 20.0408C88.551 20.0408 87.0948 19.4718 85.9674 18.381C84.8401 17.2903 84.2764 15.7254 84.2764 13.6862V5.81396H87.3767V13.5913C87.4236 14.6821 87.7055 15.5831 88.2222 16.247Z" fill="white"/>
<path d="M110.159 7.6161C111.474 8.84909 112.179 10.5563 112.179 12.7378C112.179 14.9192 111.521 16.6739 110.253 17.9543C108.938 19.2347 106.965 19.8512 104.334 19.8512H99.4961V5.7666H104.428C106.918 5.7666 108.844 6.3831 110.159 7.6161ZM107.904 16.01C108.656 15.2986 109.032 14.2079 109.032 12.8326C109.032 11.4574 108.656 10.3666 107.904 9.65528C107.153 8.89652 105.979 8.51713 104.381 8.51713H102.643V17.1007H104.616C106.025 17.1007 107.106 16.7213 107.904 16.01Z" fill="white"/>
<path d="M129.888 5.7666H132.989V19.8512H129.888L123.218 11.0305V19.8512H120.118V5.7666H123.03L129.888 14.8244V5.7666Z" fill="white"/>
<path d="M146.376 19.8512L145.061 16.8161H139.189L137.874 19.8512H134.539L140.551 5.7666H143.558L149.57 19.8512H146.376ZM142.195 9.98724L140.457 14.0656H143.933L142.195 9.98724Z" fill="white"/>
<path d="M156.24 8.51707V19.8986H153.14V8.51707H149.194V5.81396H160.233V8.51707H156.24Z" fill="white"/>
<path d="M162.441 5.7666H165.542V19.8512H162.441V5.7666Z" fill="white"/>
<path d="M174.138 14.7295L177.708 5.7666H181.09L175.5 19.8512H172.87L167.28 5.7666H170.662L174.138 14.7295Z" fill="white"/>
<path d="M192.786 5.7666V8.56455H185.834V11.4574H192.082V14.1605H185.834V17.1007H193.021V19.8986H182.734V5.81402H192.786V5.7666Z" fill="white"/>
<path d="M45.2878 31.849C46.1334 31.849 46.838 31.517 47.4017 30.8057L48.529 31.9913C47.6365 32.9871 46.6031 33.5088 45.3818 33.5088C44.1604 33.5088 43.174 33.1294 42.4224 32.3706C41.6238 31.6119 41.248 30.616 41.248 29.4778C41.248 28.2923 41.6238 27.3438 42.4224 26.5376C43.221 25.7314 44.2074 25.3521 45.3348 25.3521C46.6031 25.3521 47.6835 25.8263 48.576 26.8222L47.4956 28.0552C46.9319 27.3438 46.2743 27.0119 45.4287 27.0119C44.7711 27.0119 44.2074 27.249 43.7377 27.6758C43.2679 28.1026 43.0331 28.6717 43.0331 29.4304C43.0331 30.1892 43.2679 30.7583 43.6907 31.1851C44.1135 31.6593 44.6772 31.849 45.2878 31.849Z" fill="white"/>
<path d="M56.2799 32.3232C55.4813 33.082 54.4949 33.5088 53.3675 33.5088C52.1932 33.5088 51.2537 33.1294 50.4551 32.3232C49.6566 31.5645 49.2808 30.5686 49.2808 29.4304C49.2808 28.2923 49.6566 27.2964 50.4551 26.5376C51.2537 25.7789 52.2401 25.3521 53.3675 25.3521C54.5419 25.3521 55.4813 25.7314 56.2799 26.5376C57.0785 27.2964 57.4543 28.2923 57.4543 29.4304C57.4543 30.5686 57.0785 31.5645 56.2799 32.3232ZM55.7162 29.4304C55.7162 28.7191 55.4813 28.1026 55.0586 27.6284C54.5888 27.1541 54.0721 26.8696 53.4145 26.8696C52.7568 26.8696 52.1932 27.1067 51.7704 27.6284C51.3006 28.1026 51.1128 28.7191 51.1128 29.4304C51.1128 30.1418 51.3476 30.7108 51.7704 31.2325C52.2401 31.7067 52.7568 31.9913 53.4145 31.9913C54.0721 31.9913 54.6358 31.7541 55.0586 31.2325C55.4813 30.7583 55.7162 30.1418 55.7162 29.4304Z" fill="white"/>
<path d="M65.9567 28.4349L63.8428 32.7503H62.8094L60.6956 28.4349V33.4143H58.9575V25.4946H61.3062L63.3261 29.8101L65.346 25.4946H67.6947V33.4143H65.9567V28.4349Z" fill="white"/>
<path d="M75.0225 26.2534C75.5862 26.7276 75.8681 27.439 75.8681 28.4349C75.8681 29.4307 75.5862 30.1421 75.0225 30.5689C74.4588 31.0431 73.6133 31.2328 72.4389 31.2328H71.4055V33.4143H69.6675V25.4946H72.4389C73.6133 25.5421 74.4588 25.7792 75.0225 26.2534ZM73.7542 29.3359C73.9421 29.0988 74.083 28.7668 74.083 28.2926C74.083 27.8184 73.9421 27.5338 73.6603 27.3441C73.3784 27.1544 72.9557 27.0596 72.392 27.0596H71.4055V29.7153H72.5799C73.1436 29.7153 73.5194 29.573 73.7542 29.3359Z" fill="white"/>
<path d="M79.297 31.3746C79.5789 31.754 80.0017 31.9437 80.4714 31.9437C80.9411 31.9437 81.3639 31.754 81.6457 31.3746C81.9276 30.9953 82.0685 30.521 82.0685 29.8571V25.4942H83.8066V29.9045C83.8066 31.0427 83.4777 31.9437 82.8671 32.5602C82.2564 33.1767 81.4579 33.4613 80.4714 33.4613C79.4849 33.4613 78.6864 33.1293 78.0757 32.5128C77.465 31.8963 77.1362 30.9953 77.1362 29.8571V25.4468H78.8743V29.8097C78.8743 30.521 79.0152 31.0427 79.297 31.3746Z" fill="white"/>
<path d="M88.9268 27.0595V33.4142H87.1887V27.0595H84.981V25.542H91.1815V27.0595H88.9268Z" fill="white"/>
<path d="M92.4497 25.542H94.1877V33.4616H92.4497V25.542Z" fill="white"/>
<path d="M101.563 25.542H103.301V33.4616H101.563L97.8518 28.5296V33.4616H96.1138V25.542H97.7579L101.61 30.6162V25.542H101.563Z" fill="white"/>
<path d="M110.347 29.4304H112.085V32.2283C111.286 33.0819 110.253 33.5562 108.844 33.5562C107.716 33.5562 106.73 33.1768 105.931 32.418C105.133 31.6592 104.757 30.6634 104.757 29.5252C104.757 28.3396 105.133 27.3912 105.931 26.585C106.73 25.7788 107.669 25.3994 108.797 25.3994C109.924 25.3994 110.91 25.7788 111.709 26.5376L110.816 27.8654C110.488 27.5334 110.159 27.3438 109.83 27.2489C109.548 27.1541 109.219 27.0592 108.891 27.0592C108.233 27.0592 107.669 27.2963 107.199 27.7231C106.73 28.1974 106.495 28.7664 106.495 29.5252C106.495 30.284 106.73 30.8531 107.153 31.3273C107.575 31.7541 108.092 31.9912 108.703 31.9912C109.313 31.9912 109.83 31.8964 110.206 31.6592V29.4304H110.347Z" fill="white"/>
<path d="M121.95 25.542V27.1069H118.333V28.8142H121.762V30.3791H118.333V33.4616H116.595V25.542H121.95Z" fill="white"/>
<path d="M130.029 32.3232C129.23 33.082 128.244 33.5088 127.117 33.5088C125.942 33.5088 125.003 33.1294 124.204 32.3232C123.406 31.5645 123.03 30.5686 123.03 29.4304C123.03 28.2923 123.406 27.2964 124.204 26.5376C125.003 25.7789 125.989 25.3521 127.117 25.3521C128.291 25.3521 129.23 25.7314 130.029 26.5376C130.827 27.2964 131.203 28.2923 131.203 29.4304C131.203 30.5686 130.827 31.5645 130.029 32.3232ZM129.418 29.4304C129.418 28.7191 129.183 28.1026 128.761 27.6284C128.291 27.1541 127.774 26.8696 127.117 26.8696C126.459 26.8696 125.895 27.1067 125.472 27.6284C125.003 28.1026 124.815 28.7191 124.815 29.4304C124.815 30.1418 125.05 30.7108 125.472 31.2325C125.942 31.7067 126.459 31.9913 127.117 31.9913C127.774 31.9913 128.338 31.7541 128.761 31.2325C129.23 30.7583 129.418 30.1418 129.418 29.4304Z" fill="white"/>
<path d="M134.774 31.3746C135.055 31.754 135.478 31.9437 135.948 31.9437C136.418 31.9437 136.84 31.754 137.122 31.3746C137.404 30.9953 137.545 30.521 137.545 29.8571V25.4942H139.283V29.9045C139.283 31.0427 138.954 31.9437 138.344 32.5602C137.733 33.1767 136.934 33.4613 135.948 33.4613C134.962 33.4613 134.163 33.1293 133.552 32.5128C132.942 31.8963 132.613 30.9953 132.613 29.8571V25.4468H134.351V29.8097C134.304 30.521 134.492 31.0427 134.774 31.3746Z" fill="white"/>
<path d="M146.564 25.542H148.302V33.4616H146.564L142.853 28.5296V33.4616H141.115V25.542H142.759L146.611 30.6162V25.542H146.564Z" fill="white"/>
<path d="M156.194 26.5853C156.945 27.2966 157.321 28.2451 157.321 29.4781C157.321 30.7111 156.945 31.6595 156.241 32.3709C155.536 33.0822 154.409 33.4616 152.906 33.4616H150.228V25.542H152.999C154.409 25.542 155.489 25.874 156.194 26.5853ZM154.925 31.2802C155.348 30.8534 155.583 30.2843 155.583 29.5255C155.583 28.7668 155.348 28.1503 154.925 27.7234C154.503 27.2966 153.845 27.1069 152.953 27.1069H151.966V31.8967H153.093C153.892 31.8492 154.503 31.6596 154.925 31.2802Z" fill="white"/>
<path d="M164.179 33.4143L163.475 31.707H160.187L159.482 33.4143H157.603L160.985 25.4946H162.676L166.058 33.4143H164.179ZM161.831 27.8658L160.844 30.1421H162.817L161.831 27.8658Z" fill="white"/>
<path d="M169.722 27.0595V33.4142H167.984V27.0595H165.729V25.542H171.93V27.0595H169.722Z" fill="white"/>
<path d="M173.198 25.542H174.936V33.4616H173.198V25.542Z" fill="white"/>
<path d="M183.439 32.3232C182.64 33.082 181.654 33.5088 180.526 33.5088C179.352 33.5088 178.412 33.1294 177.614 32.3232C176.815 31.5645 176.439 30.5686 176.439 29.4304C176.439 28.2923 176.815 27.2964 177.614 26.5376C178.412 25.7789 179.399 25.3521 180.526 25.3521C181.701 25.3521 182.64 25.7314 183.439 26.5376C184.237 27.2964 184.613 28.2923 184.613 29.4304C184.613 30.5686 184.237 31.5645 183.439 32.3232ZM182.875 29.4304C182.875 28.7191 182.64 28.1026 182.217 27.6284C181.748 27.1541 181.231 26.8696 180.573 26.8696C179.916 26.8696 179.352 27.1067 178.929 27.6284C178.459 28.1026 178.271 28.7191 178.271 29.4304C178.271 30.1418 178.506 30.7108 178.929 31.2325C179.399 31.7067 179.916 31.9913 180.573 31.9913C181.231 31.9913 181.795 31.7541 182.217 31.2325C182.64 30.7583 182.875 30.1418 182.875 29.4304Z" fill="white"/>
<path d="M191.565 25.542H193.303V33.4616H191.565L187.854 28.5296V33.4616H186.116V25.542H187.76L191.612 30.6162L191.565 25.542Z" fill="white"/>
<path d="M8.13109 24.0718H3.85645V34.2203H13.8619V29.8574H8.13109V24.0718Z" fill="white"/>
<path d="M29.6454 24.1192V29.8574H23.9146V29.81V34.2203H33.92V24.0718H29.5984L29.6454 24.1192Z" fill="white"/>
<path d="M3.85645 13.9708H8.17806L8.13109 13.9234V8.18518H13.8619V3.82227H3.85645V13.9708Z" fill="white"/>
<path d="M23.9146 3.82227V8.18518H29.6454V13.9708H33.92V3.82227H23.9146Z" fill="white"/>
<g opacity="0.8">
<path d="M23.3506 13.9708L17.6197 8.18518H23.9143V3.82227H13.8618V8.18518L19.5927 13.9708H23.3506Z" fill="white"/>
<path d="M18.1834 24.0718H14.4255L19.1699 28.8615L20.1094 29.8574H13.8618V34.2203H23.9143V29.81L21.0489 26.9646L18.1834 24.0718Z" fill="white"/>
<path d="M29.6454 13.9707V20.278L28.6589 19.2821L23.9146 14.4924V18.3336L26.733 21.179L29.5984 24.0718H33.92V13.9707H29.6454Z" fill="white"/>
<path d="M13.8619 19.7089L8.17806 13.9707H3.85645V24.0718H8.13109V17.7645L13.8619 23.5501V19.7089Z" fill="white"/>
</g>
</svg>
