<svg width="65" height="65" viewBox="0 0 65 65" fill="none" xmlns="http://www.w3.org/2000/svg">
<path d="M32.025 63.0494C49.1593 63.0494 63.0494 49.1593 63.0494 32.025C63.0494 14.8906 49.1593 1.00049 32.025 1.00049C14.8906 1.00049 1.00049 14.8906 1.00049 32.025C1.00049 49.1593 14.8906 63.0494 32.025 63.0494Z" fill="#5D137D" stroke="#5D137D" stroke-width="1.18612" stroke-linejoin="round"/>
<path d="M32.0249 45.2555L16.6027 54.4528L20.5859 36.949L7.0752 25.1297L24.9593 23.5084L32.0249 7.00537L39.0905 23.5084L56.9746 25.1297L43.4639 36.949L47.447 54.4528L32.0249 45.2555Z" stroke="white" stroke-width="1.18612" stroke-linejoin="round"/>
<path d="M32.0249 20.5859L35.4275 28.5422L44.0443 29.3228L37.5392 35.0273L39.4607 43.464L32.0249 39.0305L24.589 43.464L26.5105 35.0273L20.0054 29.3228L28.6222 28.5422L32.0249 20.5859Z" stroke="white" stroke-width="1.18612" stroke-linejoin="round"/>
<path d="M44.9355 14.9116H46.9371" stroke="white" stroke-width="1.18612" stroke-miterlimit="10"/>
<path d="M17.1133 14.9116H19.1149" stroke="white" stroke-width="1.18612" stroke-miterlimit="10"/>
<path d="M9.62744 38.4404H11.629" stroke="white" stroke-width="1.18612" stroke-miterlimit="10"/>
<path d="M52.4209 38.4404H54.4225" stroke="white" stroke-width="1.18612" stroke-miterlimit="10"/>
<path d="M31.0244 53.4224H33.026" stroke="white" stroke-width="1.18612" stroke-miterlimit="10"/>
</svg>
