<svg width="64" height="64" viewBox="0 0 64 64" fill="none" xmlns="http://www.w3.org/2000/svg">
<path d="M31.6177 62.6422C48.7521 62.6422 62.6422 48.7521 62.6422 31.6177C62.6422 14.4834 48.7521 0.593262 31.6177 0.593262C14.4834 0.593262 0.593262 14.4834 0.593262 31.6177C0.593262 48.7521 14.4834 62.6422 31.6177 62.6422Z" fill="#5D137D" stroke="#5D137D" stroke-width="1.18612" stroke-miterlimit="10"/>
<path d="M25.3164 43.6273V37.6226" stroke="white" stroke-width="1.18612" stroke-miterlimit="10"/>
<path d="M37.3262 43.6273V37.6226" stroke="white" stroke-width="1.18612" stroke-miterlimit="10"/>
<path d="M42.3301 23.6113H41.3293C40.2284 23.6113 39.3277 22.7106 39.3277 21.6097V19.6081C39.3277 18.5073 38.427 17.6066 37.3261 17.6066V15.605L33.323 17.6066H25.3166C24.2158 17.6066 23.3151 18.5073 23.3151 19.6081V21.6097C23.3151 22.7106 22.4143 23.6113 21.3135 23.6113" stroke="white" stroke-width="1.18612" stroke-miterlimit="10"/>
<path d="M21.3133 23.6113H20.3125" stroke="white" stroke-width="1.18612" stroke-miterlimit="10"/>
<path d="M20.3125 15.6053V26.614L21.3133 27.6148C21.3133 32.6187 24.3157 39.6243 31.3212 39.6243C38.3267 39.6243 41.3291 32.6187 41.3291 27.6148L42.3299 26.614V13.6037C42.3299 11.392 40.5385 9.60059 38.3267 9.60059H27.318C25.6567 9.60059 24.3157 10.9416 24.3157 12.603H23.3149C21.6536 12.603 20.3125 13.944 20.3125 15.6053Z" stroke="white" stroke-width="1.18612" stroke-miterlimit="10"/>
<path d="M27.3181 51.6333L18.311 47.6301L23.315 43.627L31.3213 45.6285V47.6301L27.3181 51.6333Z" stroke="white" stroke-width="1.18612" stroke-miterlimit="10"/>
<path d="M35.3244 51.6333L44.3316 47.6301L39.3276 43.627L31.3213 45.6285V47.6301L35.3244 51.6333Z" stroke="white" stroke-width="1.18612" stroke-miterlimit="10"/>
<path d="M31.3213 56.6372V58.6388" stroke="white" stroke-width="1.18612" stroke-miterlimit="10"/>
<path d="M31.3213 52.6343V54.6359" stroke="white" stroke-width="1.18612" stroke-miterlimit="10"/>
<path d="M18.3106 47.6304L15.3083 48.6312C9.30352 50.6327 8.30273 52.6343 8.30273 52.6343" stroke="white" stroke-width="1.18612" stroke-miterlimit="10"/>
<path d="M44.3315 47.6304L47.3339 48.6312C53.3386 50.6327 54.3394 52.6343 54.3394 52.6343" stroke="white" stroke-width="1.18612" stroke-miterlimit="10"/>
</svg>
