<svg width="65" height="65" viewBox="0 0 65 65" fill="none" xmlns="http://www.w3.org/2000/svg">
<path d="M32.5 0.5C36.7089 0.5 40.125 3.91614 40.125 8.125C40.125 12.3339 36.7089 15.75 32.5 15.75C28.2911 15.75 24.875 12.3339 24.875 8.125C24.875 3.91614 28.2911 0.5 32.5 0.5ZM32.5 2.75C29.5264 2.75 27.125 5.15136 27.125 8.125C27.125 11.0986 29.5264 13.5 32.5 13.5C35.4736 13.5 37.875 11.0986 37.875 8.125C37.875 5.15136 35.4736 2.75 32.5 2.75Z" fill="white" stroke="white"/>
<path d="M32.5 49.25C36.7089 49.25 40.125 52.6661 40.125 56.875C40.125 61.0839 36.7089 64.5 32.5 64.5C28.2911 64.5 24.875 61.0839 24.875 56.875C24.875 52.6661 28.2911 49.25 32.5 49.25ZM32.5 51.5C29.5264 51.5 27.125 53.9014 27.125 56.875C27.125 59.8486 29.5264 62.25 32.5 62.25C35.4736 62.25 37.875 59.8486 37.875 56.875C37.875 53.9014 35.4736 51.5 32.5 51.5Z" fill="white" stroke="white"/>
<path d="M32.5 24.875C36.7089 24.875 40.125 28.2911 40.125 32.5C40.125 36.7089 36.7089 40.125 32.5 40.125C28.2911 40.125 24.875 36.7089 24.875 32.5C24.875 28.2911 28.2911 24.875 32.5 24.875ZM32.5 27.125C29.5264 27.125 27.125 29.5264 27.125 32.5C27.125 35.4736 29.5264 37.875 32.5 37.875C35.4736 37.875 37.875 35.4736 37.875 32.5C37.875 29.5264 35.4736 27.125 32.5 27.125Z" fill="white" stroke="white"/>
<path d="M8.125 24.875C12.3339 24.875 15.75 28.2911 15.75 32.5C15.75 36.7089 12.3339 40.125 8.125 40.125C3.91614 40.125 0.5 36.7089 0.5 32.5C0.5 28.2911 3.91614 24.875 8.125 24.875ZM8.125 27.125C5.15136 27.125 2.75 29.5264 2.75 32.5C2.75 35.4736 5.15136 37.875 8.125 37.875C11.0986 37.875 13.5 35.4736 13.5 32.5C13.5 29.5264 11.0986 27.125 8.125 27.125Z" fill="white" stroke="white"/>
<path d="M56.875 24.875C61.0839 24.875 64.5 28.2911 64.5 32.5C64.5 36.7089 61.0839 40.125 56.875 40.125C52.6661 40.125 49.25 36.7089 49.25 32.5C49.25 28.2911 52.6661 24.875 56.875 24.875ZM56.875 27.125C53.9014 27.125 51.5 29.5264 51.5 32.5C51.5 35.4736 53.9014 37.875 56.875 37.875C59.8486 37.875 62.25 35.4736 62.25 32.5C62.25 29.5264 59.8486 27.125 56.875 27.125Z" fill="white" stroke="white"/>
<path d="M32.5 16.25V26" stroke="white" stroke-width="2" stroke-miterlimit="10" stroke-linecap="square"/>
<path d="M25.1226 32.5H15.3726" stroke="white" stroke-width="2" stroke-miterlimit="10" stroke-linecap="square"/>
<path d="M32.5 49.0103V39.2603" stroke="white" stroke-width="2" stroke-miterlimit="10" stroke-linecap="square"/>
<path d="M49.4976 32.5H39.7476" stroke="white" stroke-width="2" stroke-miterlimit="10" stroke-linecap="square"/>
</svg>
