<svg width="60" height="60" viewBox="0 0 60 60" fill="none" xmlns="http://www.w3.org/2000/svg">
<path d="M37.8714 23.4731C37.8714 23.4731 33.8347 34.851 31.9166 36.8374C29.9984 38.8238 26.833 38.879 24.8466 36.9608C22.8601 35.0425 22.8049 31.8773 24.7231 29.8908C26.6414 27.9044 37.8714 23.4731 37.8714 23.4731Z" fill="#9E4EC4" stroke="#FFF9F9" stroke-width="2" stroke-linejoin="round"/>
<path d="M48.5615 48.5615C53.3119 43.8113 56.25 37.2487 56.25 30C56.25 15.5025 44.4975 3.75 30 3.75C15.5025 3.75 3.75 15.5025 3.75 30C3.75 37.2487 6.68814 43.8113 11.4384 48.5615" stroke="#FFF9F9" stroke-width="2" stroke-linecap="round" stroke-linejoin="round"/>
<path d="M30 5V10" stroke="#FFF9F9" stroke-width="2" stroke-linecap="round" stroke-linejoin="round"/>
<path d="M48.5566 13.9277L44.6709 17.0742" stroke="#FFF9F9" stroke-width="2" stroke-linecap="round" stroke-linejoin="round"/>
<path d="M53.1526 34.041L48.2808 32.9163" stroke="#FFF9F9" stroke-width="2" stroke-linecap="round" stroke-linejoin="round"/>
<path d="M6.84668 34.041L11.7185 32.9163" stroke="#FFF9F9" stroke-width="2" stroke-linecap="round" stroke-linejoin="round"/>
<path d="M11.4434 13.9275L15.3291 17.0741" stroke="#FFF9F9" stroke-width="2" stroke-linecap="round" stroke-linejoin="round"/>
</svg>
