<svg width="353" height="389" viewBox="0 0 353 389" fill="none" xmlns="http://www.w3.org/2000/svg">
<path d="M185.552 142.059L349.019 234.839V254.372L166.034 349.594C109.918 312.156 -1.82504 237.281 0.126802 237.281C2.07865 237.281 111.545 172.172 166.034 139.617L185.552 142.059Z" fill="black"/>
<path d="M169.134 138.714L0.544922 236.115" stroke="#1AA8A8" stroke-linejoin="round"/>
<path d="M175.793 337.374L351.042 236.115V286.741L175.793 388V337.374Z" fill="#1AA8A8" stroke="#1AA8A8" stroke-linejoin="round"/>
<path d="M175.794 388L0.544922 286.741V236.115L175.794 337.374V388Z" fill="black" stroke="#1AA8A8" stroke-linejoin="round"/>
<path d="M176.543 135.168L351.792 236.427" stroke="#1AA8A8" stroke-linejoin="round"/>
<g opacity="0.6">
<path d="M176.025 113.891V115.57" stroke="#50DBD9" stroke-miterlimit="10"/>
<path d="M176 119L176 228" stroke="#50DBD9" stroke-miterlimit="10" stroke-dasharray="2.81 2.81"/>
<path d="M184.884 232.618L185.723 233.103L185.688 233.126C184.813 233.635 183.845 234.072 182.817 234.415L182.215 233.812C183.16 233.493 184.046 233.103 184.849 232.642L184.884 232.618Z" fill="#1AA8A8"/>
<path d="M189.281 229.485C188.974 230.159 188.525 230.809 187.91 231.424L186.883 231.081C187.438 230.514 187.851 229.923 188.135 229.308L189.281 229.485Z" fill="#1AA8A8"/>
<path d="M175.871 234.804C176.981 234.804 178.08 234.722 179.167 234.556L179.474 235.218C178.304 235.395 177.088 235.49 175.883 235.49V234.804H175.871Z" fill="#1AA8A8"/>
<path d="M189.224 225.313C189.555 225.999 189.72 226.696 189.732 227.393H188.539C188.539 226.755 188.385 226.117 188.09 225.49L189.224 225.313Z" fill="#1AA8A8"/>
<path d="M169.507 233.824C170.475 234.155 171.515 234.391 172.578 234.557L172.282 235.219C171.113 235.041 169.991 234.769 168.928 234.415L169.507 233.824Z" fill="#1AA8A8"/>
<path d="M185.616 221.731C186.49 222.239 187.223 222.795 187.825 223.374L186.809 223.717C186.266 223.185 185.592 222.677 184.789 222.216H184.766L185.592 221.719H185.628L185.616 221.731Z" fill="#1AA8A8"/>
<path d="M164.83 231.128C165.374 231.672 166.059 232.18 166.85 232.641H166.862L166.035 233.138H166.023C165.149 232.63 164.405 232.062 163.814 231.471L164.83 231.128Z" fill="#1AA8A8"/>
<path d="M161.924 227.441H163.105C163.105 228.079 163.259 228.729 163.554 229.356L162.408 229.533C162.089 228.848 161.924 228.15 161.924 227.441Z" fill="#1AA8A8"/>
<path d="M163.753 223.41L164.781 223.753C164.225 224.32 163.8 224.911 163.529 225.526L162.383 225.349C162.678 224.675 163.139 224.025 163.753 223.41Z" fill="#1AA8A8"/>
<path d="M166.802 222.216H166.778L165.939 221.743H165.963C166.837 221.223 167.782 220.797 168.798 220.455L169.4 221.046C168.467 221.365 167.593 221.743 166.802 222.204V222.216Z" fill="#1AA8A8"/>
<path d="M175.755 220.053C174.645 220.053 173.534 220.147 172.459 220.313L172.152 219.651C173.322 219.474 174.538 219.379 175.743 219.367V220.053H175.755Z" fill="#1AA8A8"/>
<path d="M182.122 221.034C181.142 220.715 180.114 220.467 179.039 220.301L179.334 219.639C180.504 219.816 181.638 220.088 182.701 220.431L182.122 221.022V221.034Z" fill="#1AA8A8"/>
</g>
<path d="M189.142 147.024L209.565 135.145L195.78 147.769L175.357 159.637L189.142 147.024Z" fill="#0F5353"/>
<path d="M216.32 63.4762C233.365 73.3228 247.114 97.1886 247.067 116.764L246.984 144.932C246.925 164.531 233.082 172.427 216.049 162.569L189.153 147.024L175.368 159.637L161.713 131.161L134.794 115.605C117.749 105.77 104 81.9282 104.047 62.3296L104.13 34.161C104.177 14.5978 118.032 6.67798 135.065 16.5246L216.32 63.4762Z" fill="#50DBD9"/>
<path d="M267.467 103.489C267.455 102.993 267.431 102.496 267.396 102C267.384 101.763 267.36 101.527 267.337 101.29C267.337 101.208 267.325 101.125 267.313 101.042C267.301 100.865 267.29 100.676 267.278 100.498C267.23 100.002 267.171 99.4937 267.112 98.9854C267.053 98.4653 266.971 97.957 266.888 97.4369C266.805 96.9168 266.711 96.3967 266.616 95.8766C266.522 95.3328 266.404 94.8009 266.286 94.269C266.25 94.068 266.203 93.8789 266.156 93.6898C266.132 93.5834 266.108 93.4888 266.085 93.3824C266.026 93.146 265.978 92.8978 265.919 92.6496C265.789 92.1058 265.636 91.5621 265.494 91.0065C265.388 90.6046 265.258 90.2027 265.14 89.8008C265.128 89.7417 265.104 89.6708 265.092 89.6117C265.069 89.5289 265.045 89.458 265.022 89.3752C264.856 88.8433 264.691 88.3114 264.514 87.7795C264.337 87.2594 264.148 86.7274 263.97 86.2073C263.935 86.1009 263.888 86.0064 263.852 85.8882C263.829 85.829 263.817 85.77 263.793 85.7109C263.663 85.368 263.545 85.0371 263.403 84.6943C263.214 84.186 263.002 83.6895 262.801 83.193C262.659 82.8503 262.506 82.4956 262.352 82.1528C262.317 82.0701 262.281 81.9873 262.246 81.9164C262.222 81.8455 262.187 81.7864 262.163 81.7155C261.939 81.219 261.714 80.7225 261.49 80.2142C261.242 79.6705 260.97 79.1267 260.71 78.5948C260.663 78.5121 260.628 78.4293 260.58 78.3348C260.533 78.2402 260.486 78.1575 260.439 78.0629C260.214 77.6255 259.99 77.1882 259.753 76.7508C259.47 76.2071 259.151 75.6869 258.856 75.155C258.714 74.895 258.572 74.6349 258.419 74.3748C258.348 74.2566 258.301 74.1503 258.23 74.0439C257.958 73.5829 257.663 73.1455 257.391 72.6963C256.978 72.0344 256.576 71.3606 256.139 70.7104C256.068 70.6041 255.997 70.4859 255.926 70.3795C255.289 69.4338 254.639 68.5118 253.977 67.6016C253.529 66.9988 253.08 66.3959 252.619 65.8167C252.241 65.3439 251.863 64.871 251.473 64.41C251.473 64.41 251.461 64.3864 251.45 64.3864C251.45 64.3864 251.438 64.3628 251.426 64.3628C251.036 63.8899 250.635 63.4289 250.233 62.9679C249.843 62.5187 249.442 62.0696 249.028 61.6322C248.957 61.5495 248.886 61.4785 248.816 61.4076C248.756 61.3485 248.697 61.2894 248.638 61.2303C248.343 60.923 248.06 60.6156 247.764 60.3083C247.339 59.8709 246.902 59.4454 246.465 59.0198C246.323 58.8898 246.181 58.7598 246.052 58.6298C245.957 58.547 245.874 58.4643 245.78 58.3697C245.555 58.1569 245.343 57.956 245.118 57.755C244.658 57.3413 244.209 56.9512 243.748 56.5611C243.547 56.3957 243.335 56.2302 243.146 56.0647C243.039 55.9819 242.945 55.8992 242.85 55.8164C242.697 55.6864 242.543 55.5564 242.39 55.4382C241.941 55.0836 241.492 54.7408 241.031 54.4098C240.712 54.1734 240.382 53.9488 240.063 53.7242C239.992 53.6769 239.921 53.6178 239.838 53.5705C239.791 53.5351 239.732 53.4996 239.685 53.4641C239.248 53.1686 238.811 52.8731 238.374 52.6012C237.937 52.3294 237.5 52.0575 237.063 51.7974C236.968 51.7383 236.862 51.6792 236.755 51.6201L155.489 4.64488C155.158 4.45575 154.827 4.26662 154.508 4.10113C154.083 3.87653 153.67 3.65194 153.244 3.43917C152.973 3.30914 152.701 3.17912 152.429 3.06091C152.359 3.02545 152.288 3.00181 152.229 2.96634C152.146 2.93088 152.063 2.89542 151.992 2.85996C151.579 2.67083 151.166 2.49352 150.752 2.33985C150.339 2.17436 149.925 2.02069 149.512 1.86703C149.441 1.84338 149.358 1.81974 149.287 1.7961C149.228 1.77246 149.181 1.76064 149.122 1.74882C148.839 1.65425 148.555 1.55969 148.272 1.46512C147.846 1.3351 147.421 1.21689 146.996 1.1105C146.795 1.06322 146.583 1.01594 146.382 0.968656C146.299 0.945015 146.216 0.933194 146.134 0.909553C146.004 0.885912 145.862 0.85045 145.732 0.814988C145.283 0.732243 144.834 0.649499 144.385 0.590396C144.102 0.554934 143.83 0.531292 143.559 0.507651C143.476 0.507651 143.381 0.48401 143.299 0.48401C143.204 0.48401 143.11 0.460369 143.015 0.460369C142.531 0.424907 142.047 0.413086 141.574 0.413086C141.362 0.413086 141.149 0.436727 140.936 0.436727C140.783 0.436727 140.617 0.436727 140.464 0.460369C140.299 0.472189 140.133 0.460369 139.968 0.48401C139.365 0.543113 138.763 0.625858 138.196 0.744064C138.184 0.744064 138.172 0.744064 138.161 0.744064C138.031 0.767705 137.924 0.814988 137.794 0.85045C137.192 0.980477 136.601 1.13415 136.034 1.3351C135.987 1.34692 135.952 1.38238 135.904 1.3942C135.078 1.68972 134.286 2.05616 133.542 2.49352L113.131 14.3733C113.875 13.9359 114.678 13.5813 115.505 13.2739C116.131 13.0494 116.781 12.872 117.442 12.7184C117.549 12.6947 117.643 12.6475 117.749 12.6356C118.494 12.482 119.273 12.3992 120.065 12.3401C120.218 12.3401 120.383 12.3283 120.549 12.3165C121.317 12.2928 122.096 12.2928 122.899 12.3638C122.982 12.3638 123.077 12.3756 123.159 12.3874C123.998 12.4701 124.848 12.6002 125.722 12.7775C125.817 12.8011 125.9 12.8129 125.994 12.8366C126.88 13.0375 127.778 13.2858 128.699 13.5931C128.77 13.6167 128.841 13.6286 128.912 13.664C129.868 13.995 130.837 14.3851 131.829 14.8343C131.9 14.8697 131.971 14.9052 132.054 14.9407C133.058 15.4017 134.074 15.9218 135.089 16.5246L216.344 63.4762C217.396 64.0791 218.411 64.741 219.439 65.4384C219.498 65.4739 219.557 65.5212 219.616 65.5685C220.561 66.2304 221.494 66.9278 222.404 67.6725C222.51 67.7671 222.628 67.8499 222.735 67.9444C223.632 68.6773 224.506 69.4456 225.369 70.2494C225.451 70.3322 225.558 70.4149 225.64 70.5095C226.503 71.3251 227.353 72.1762 228.18 73.0509C228.263 73.1455 228.357 73.2282 228.44 73.3228C229.326 74.2685 230.2 75.2496 231.038 76.2662C231.901 77.3064 232.739 78.382 233.554 79.4932C233.613 79.5759 233.673 79.6705 233.743 79.7532C234.417 80.6753 235.078 81.6327 235.716 82.5902C236.153 83.2522 236.566 83.9259 236.98 84.5997C237.322 85.1553 237.677 85.699 238.008 86.2664C238.161 86.5265 238.291 86.7865 238.445 87.0466C238.988 88.0041 239.519 88.9733 240.016 89.9545C240.075 90.0608 240.122 90.1554 240.181 90.2618C240.772 91.432 241.327 92.6141 241.846 93.7962C241.882 93.8907 241.917 93.9735 241.965 94.068C242.472 95.2383 242.945 96.4085 243.382 97.5906C243.406 97.6615 243.441 97.7324 243.465 97.8034C243.914 99.0327 244.327 100.262 244.705 101.491C244.729 101.562 244.74 101.633 244.764 101.704C245.118 102.886 245.437 104.08 245.709 105.262C245.733 105.369 245.756 105.475 245.78 105.57C246.347 108.04 246.737 110.511 246.949 112.922C246.949 113.005 246.961 113.087 246.961 113.17C247.056 114.376 247.115 115.582 247.103 116.764L247.02 144.932C247.02 146.103 246.961 147.237 246.855 148.337C246.855 148.431 246.831 148.514 246.831 148.608C246.725 149.613 246.583 150.583 246.406 151.505C246.382 151.623 246.359 151.741 246.335 151.859C246.146 152.746 245.922 153.597 245.674 154.412C245.626 154.566 245.579 154.72 245.52 154.873C245.26 155.654 244.977 156.398 244.646 157.108C244.61 157.167 244.587 157.238 244.563 157.308C244.185 158.112 243.772 158.857 243.323 159.566C243.264 159.673 243.181 159.755 243.122 159.85C242.756 160.405 242.366 160.914 241.941 161.41C241.787 161.599 241.622 161.765 241.457 161.942C241.09 162.332 240.712 162.699 240.311 163.053C240.146 163.195 239.98 163.349 239.803 163.491C239.236 163.94 238.645 164.365 238.019 164.732L258.442 152.852C259.068 152.486 259.647 152.06 260.214 151.611C260.391 151.469 260.557 151.315 260.722 151.174C261.112 150.831 261.502 150.464 261.868 150.062C262.033 149.885 262.199 149.708 262.352 149.531C262.777 149.034 263.179 148.49 263.557 147.935C263.616 147.852 263.675 147.781 263.734 147.698C263.746 147.675 263.77 147.651 263.781 147.627C264.207 146.965 264.596 146.268 264.951 145.523C264.963 145.5 264.974 145.464 264.986 145.429C265.022 145.37 265.045 145.299 265.069 145.228C265.281 144.755 265.494 144.27 265.683 143.762C265.778 143.502 265.86 143.23 265.943 142.97C265.99 142.828 266.037 142.698 266.085 142.556C266.132 142.414 266.179 142.284 266.226 142.131C266.38 141.622 266.51 141.091 266.64 140.559C266.687 140.358 266.723 140.145 266.77 139.944C266.793 139.838 266.805 139.743 266.829 139.637C266.864 139.447 266.912 139.247 266.947 139.046C267.03 138.561 267.101 138.076 267.171 137.568C267.207 137.272 267.23 136.977 267.254 136.681C267.254 136.599 267.266 136.528 267.278 136.445C267.29 136.315 267.301 136.209 267.313 136.079C267.349 135.606 267.384 135.121 267.408 134.625C267.431 134.14 267.431 133.644 267.443 133.135V133.041L267.526 104.872C267.526 104.411 267.526 103.95 267.514 103.477L267.467 103.489Z" fill="#1AA8A8"/>
<path d="M156.892 82.9209C157.022 82.8973 157.152 82.8855 157.282 82.8618C157.932 82.7791 158.605 82.7318 159.302 82.7436C159.385 82.7436 159.456 82.7436 159.526 82.7436C160.282 82.7673 161.074 82.8382 161.877 82.98L164.96 81.1833C164.712 81.136 164.464 81.1005 164.228 81.0651C163.873 81.0178 163.531 80.9823 163.188 80.9587C162.999 80.9469 162.81 80.9469 162.621 80.9351C162.539 80.9351 162.468 80.9351 162.385 80.9351C162.29 80.9351 162.196 80.9351 162.101 80.9351C161.7 80.9351 161.298 80.9587 160.908 80.9942C160.731 81.006 160.554 81.0414 160.377 81.0769C160.247 81.0887 160.117 81.1124 159.987 81.136C159.857 81.1596 159.715 81.1715 159.574 81.1951C159.089 81.2897 158.617 81.4315 158.156 81.5734C158.097 81.597 158.026 81.6088 157.979 81.6206C157.967 81.6206 157.955 81.6206 157.944 81.6206C157.282 81.8571 156.633 82.1526 156.042 82.5072L152.959 84.3039C153.573 83.9493 154.223 83.6538 154.896 83.4174C154.955 83.3938 155.026 83.3819 155.085 83.3583C155.664 83.1692 156.278 83.0155 156.904 82.9209H156.892Z" fill="url(#paint0_linear_5582_9661)"/>
<path d="M187.357 96.8449C186.897 97.1167 186.412 97.3295 185.905 97.5187C185.739 97.5778 185.574 97.6369 185.408 97.6841C185.208 97.7432 184.995 97.8142 184.782 97.8615C184.546 97.9087 184.31 97.9678 184.062 98.0033C183.956 98.0033 183.861 98.0269 183.755 98.0506C183.389 98.086 183.022 98.1097 182.656 98.1097C182.609 98.1097 182.55 98.1097 182.503 98.1097C182.113 98.1097 181.723 98.0624 181.333 98.0033C181.298 98.0033 181.262 98.0033 181.227 97.9797C180.802 97.9087 180.377 97.8142 179.951 97.6841C179.951 97.6841 179.951 97.6841 179.939 97.6841C179.502 97.5541 179.042 97.3886 178.593 97.1877C178.581 97.1877 178.569 97.1758 178.546 97.164C178.085 96.9631 177.624 96.7267 177.152 96.4548C176.573 96.1238 175.994 95.7337 175.427 95.3082C175.404 95.2845 175.368 95.2727 175.345 95.2491C174.789 94.8354 174.246 94.3744 173.715 93.8779C173.691 93.8542 173.655 93.8306 173.632 93.7951C173.112 93.3105 172.592 92.7786 172.084 92.223C172.049 92.1757 172.002 92.1403 171.966 92.093C171.458 91.5256 170.962 90.9345 170.478 90.3199C170.454 90.2726 170.419 90.2371 170.384 90.2017C169.935 89.6343 169.509 89.0314 169.084 88.4168C169.025 88.3222 168.954 88.2394 168.895 88.1567C168.801 88.003 168.706 87.8494 168.6 87.6957C168.163 87.0337 167.738 86.36 167.324 85.6625C166.946 85.0242 166.58 84.3859 166.226 83.724C166.214 83.6885 166.19 83.6649 166.178 83.6294C165.753 82.8256 165.352 82.0218 164.962 81.1943L161.879 82.9911C162.056 83.3575 162.233 83.7358 162.41 84.1022C162.635 84.5514 162.859 85.0006 163.096 85.438C163.096 85.4498 163.119 85.4734 163.119 85.4852C163.438 86.0763 163.757 86.6673 164.1 87.2465C164.147 87.3293 164.206 87.412 164.253 87.4947C164.631 88.1449 165.033 88.7596 165.434 89.3742C165.541 89.5397 165.647 89.717 165.753 89.8707C165.777 89.9062 165.8 89.9298 165.812 89.9534C165.86 90.0244 165.919 90.0953 165.966 90.1662C166.226 90.5445 166.486 90.9345 166.757 91.2892C166.934 91.5256 167.123 91.7738 167.312 92.0102C167.336 92.0339 167.348 92.0575 167.371 92.0812C167.395 92.1166 167.419 92.1403 167.442 92.1757C167.643 92.4239 167.832 92.6722 168.033 92.9086C168.222 93.1332 168.411 93.346 168.6 93.5706C168.694 93.6888 168.801 93.7833 168.895 93.9015C168.919 93.937 168.942 93.9606 168.978 93.9961C169.037 94.0552 169.096 94.1261 169.143 94.1852C169.332 94.3862 169.521 94.5753 169.698 94.7763C169.887 94.9654 170.076 95.1545 170.265 95.3318C170.348 95.4146 170.443 95.4973 170.525 95.5801C170.561 95.6155 170.596 95.6392 170.632 95.6746C170.702 95.7337 170.762 95.7928 170.832 95.8638C171.021 96.0292 171.199 96.1947 171.388 96.3484C171.565 96.5021 171.754 96.6557 171.931 96.7976C172.025 96.8803 172.132 96.9513 172.238 97.034C172.262 97.0576 172.285 97.0813 172.321 97.0931C172.356 97.1286 172.403 97.164 172.451 97.1877C172.628 97.3177 172.793 97.4359 172.959 97.5541C173.124 97.6605 173.289 97.7787 173.455 97.8851C173.62 97.9915 173.774 98.086 173.939 98.1806C173.974 98.2042 174.01 98.2279 174.045 98.2397C174.163 98.3106 174.293 98.3816 174.411 98.4407C174.565 98.5234 174.719 98.6061 174.884 98.6889C175.037 98.7716 175.203 98.8426 175.356 98.9135C175.38 98.9135 175.415 98.9371 175.439 98.9489C175.463 98.9489 175.486 98.9726 175.51 98.9726C175.616 99.0199 175.723 99.0672 175.841 99.1144C176.006 99.1735 176.16 99.2326 176.325 99.2917C176.49 99.3509 176.656 99.3981 176.821 99.4572C176.821 99.4572 176.845 99.4572 176.857 99.4572C176.857 99.4572 176.857 99.4572 176.88 99.4572C177.034 99.5045 177.187 99.54 177.341 99.5873C177.518 99.6345 177.707 99.67 177.884 99.7055C177.967 99.7173 178.073 99.7409 178.156 99.7528C178.191 99.7528 178.227 99.7528 178.262 99.7646C178.321 99.7764 178.392 99.7882 178.451 99.8C178.664 99.8355 178.865 99.8473 179.065 99.8591C179.184 99.8591 179.302 99.8591 179.408 99.871C179.467 99.871 179.526 99.871 179.585 99.871C179.632 99.871 179.691 99.871 179.739 99.871C179.999 99.871 180.258 99.8591 180.518 99.8355C180.566 99.8355 180.625 99.8118 180.672 99.8118C180.778 99.8118 180.873 99.7882 180.967 99.7646C181.121 99.7409 181.262 99.7291 181.416 99.7055C181.51 99.6818 181.617 99.6464 181.711 99.6227C181.912 99.5754 182.125 99.5163 182.326 99.4572C182.432 99.4218 182.538 99.41 182.644 99.3745C182.704 99.3509 182.763 99.3036 182.833 99.2917C183.33 99.1026 183.814 98.8898 184.274 98.618L187.357 96.8212V96.8449Z" fill="url(#paint1_linear_5582_9661)"/>
<path d="M204.944 128.548C204.944 128.182 204.92 127.803 204.897 127.425C204.873 127.047 204.838 126.669 204.802 126.29C204.767 125.912 204.731 125.534 204.672 125.144C204.672 125.144 204.672 125.144 204.672 125.12V125.096C204.625 124.73 204.578 124.364 204.519 123.985C204.46 123.619 204.401 123.264 204.33 122.898C204.33 122.874 204.33 122.85 204.318 122.815C204.318 122.815 204.318 122.815 204.318 122.803C204.247 122.401 204.164 121.999 204.07 121.597C203.999 121.267 203.916 120.936 203.834 120.605C203.834 120.581 203.822 120.545 203.822 120.522C203.81 120.475 203.798 120.439 203.786 120.392C203.68 119.978 203.574 119.576 203.456 119.162C203.385 118.914 203.314 118.678 203.243 118.43C203.208 118.335 203.184 118.24 203.16 118.146C203.137 118.075 203.125 118.004 203.101 117.945C202.971 117.543 202.853 117.129 202.711 116.727C202.641 116.515 202.57 116.302 202.499 116.101C202.475 116.018 202.44 115.947 202.416 115.864C202.381 115.758 202.345 115.664 202.31 115.557C202.168 115.179 202.026 114.789 201.885 114.411C201.802 114.21 201.719 114.009 201.648 113.808C201.613 113.725 201.589 113.654 201.554 113.571C201.518 113.477 201.471 113.382 201.436 113.288C201.282 112.921 201.129 112.555 200.963 112.188C200.869 111.975 200.774 111.775 200.68 111.562C200.644 111.479 200.609 111.396 200.562 111.314C200.526 111.231 200.479 111.148 200.443 111.065C200.254 110.663 200.065 110.273 199.877 109.883C199.794 109.718 199.711 109.552 199.628 109.387C199.558 109.245 199.487 109.115 199.416 108.973C199.333 108.808 199.25 108.63 199.156 108.465C199.002 108.169 198.825 107.886 198.66 107.59C198.506 107.318 198.353 107.034 198.187 106.751C198.14 106.668 198.093 106.573 198.034 106.479C197.951 106.337 197.857 106.207 197.774 106.065C197.325 105.32 196.864 104.588 196.392 103.867C196.309 103.748 196.238 103.606 196.156 103.488C196.085 103.382 196.002 103.275 195.931 103.169C195.683 102.803 195.423 102.46 195.175 102.093C195.022 101.881 194.88 101.668 194.726 101.455C194.608 101.301 194.502 101.16 194.384 101.006C194.278 100.864 194.171 100.722 194.053 100.58C193.959 100.45 193.852 100.309 193.746 100.178C193.451 99.8002 193.144 99.422 192.837 99.0555C192.813 99.0201 192.777 98.9964 192.754 98.961C192.671 98.8664 192.6 98.7837 192.518 98.6891C192.329 98.4645 192.14 98.2399 191.951 98.0153C191.703 97.7198 191.431 97.4361 191.171 97.1524C191.136 97.1051 191.088 97.0578 191.041 97.0106C190.734 96.6678 190.415 96.3368 190.096 96.0176C189.872 95.7812 189.635 95.5566 189.411 95.332L186.328 97.1288C186.895 97.6725 187.45 98.2517 187.994 98.8428C188.005 98.8428 188.017 98.8664 188.029 98.8782C188.525 99.4102 189.009 99.9657 189.494 100.533C189.553 100.604 189.612 100.663 189.659 100.734C190.108 101.266 190.545 101.822 190.97 102.365C191.088 102.519 191.195 102.673 191.313 102.826C191.584 103.181 191.844 103.547 192.104 103.914C192.352 104.245 192.588 104.588 192.825 104.93C193.002 105.19 193.167 105.462 193.344 105.722C193.817 106.432 194.266 107.153 194.703 107.886C194.833 108.11 194.963 108.323 195.093 108.536C195.27 108.831 195.435 109.139 195.601 109.446C195.849 109.883 196.085 110.321 196.309 110.758C196.38 110.912 196.463 111.065 196.546 111.207C196.876 111.845 197.183 112.496 197.49 113.146C197.514 113.193 197.538 113.252 197.561 113.311C197.868 113.997 198.164 114.682 198.447 115.368C198.483 115.451 198.518 115.534 198.554 115.616C198.825 116.29 199.085 116.976 199.321 117.649C199.357 117.732 199.38 117.815 199.404 117.898C199.652 118.583 199.877 119.281 200.077 119.966C200.101 120.049 200.125 120.132 200.148 120.214C200.349 120.912 200.55 121.609 200.715 122.307C200.715 122.366 200.739 122.425 200.751 122.472C201.294 124.73 201.648 126.976 201.79 129.163C201.79 129.163 201.79 129.175 201.79 129.186C201.837 129.931 201.861 130.664 201.861 131.397L201.837 140.889L204.92 139.092L204.944 129.6C204.944 129.257 204.944 128.903 204.932 128.548H204.944Z" fill="url(#paint2_linear_5582_9661)"/>
<path d="M186.317 97.105C195.4 105.982 201.921 119.694 201.885 131.385L201.862 140.877C193.522 138.773 184.049 134.86 173.997 129.044C163.957 123.24 154.484 116.219 146.168 108.689L146.192 99.1973C146.227 87.4948 152.795 81.3599 161.902 82.9793C165.02 89.6225 169.331 95.4738 174.08 98.228C178.84 100.97 183.163 100.096 186.329 97.0932L186.317 97.105Z" fill="white"/>
<path d="M174.187 57.9432C181.121 61.9504 186.72 70.5677 186.684 79.0431C186.661 87.5185 181.026 94.1617 174.093 90.1545C167.171 86.1591 161.596 73.0382 161.619 64.5628C161.643 56.0756 167.265 53.9478 174.187 57.9432Z" fill="white"/>
<path d="M189.754 76.6319C189.754 76.4073 189.731 76.1827 189.719 75.9581C189.719 75.8753 189.707 75.7808 189.695 75.698C189.695 75.6744 189.695 75.6508 189.695 75.6271C189.695 75.5207 189.683 75.4143 189.672 75.308C189.648 75.0952 189.624 74.8824 189.601 74.6696C189.577 74.4805 189.554 74.2796 189.518 74.0786C189.518 74.0786 189.518 74.0786 189.518 74.0668C189.518 74.0668 189.518 74.0431 189.518 74.0313C189.483 73.8186 189.447 73.6176 189.412 73.4048C189.376 73.1921 189.329 72.9793 189.282 72.7783C189.258 72.7074 189.246 72.6365 189.223 72.5537C189.223 72.5183 189.211 72.4828 189.199 72.4355C189.176 72.341 189.152 72.2346 189.128 72.14C189.081 71.9273 189.022 71.7263 188.963 71.5135C188.916 71.3244 188.857 71.1353 188.798 70.9343V70.9107C188.739 70.7215 188.679 70.5206 188.609 70.3315C188.55 70.1423 188.479 69.9414 188.408 69.7523C188.372 69.6459 188.325 69.5513 188.29 69.4449C188.29 69.4213 188.278 69.4095 188.278 69.3858C188.254 69.3267 188.231 69.2676 188.207 69.2085C188.148 69.0312 188.077 68.8539 187.994 68.6766C187.924 68.4993 187.841 68.322 187.77 68.1446C187.746 68.0855 187.711 68.0264 187.687 67.9673C187.675 67.9319 187.664 67.9082 187.652 67.8728C187.616 67.79 187.581 67.6955 187.534 67.6127C187.439 67.4118 187.345 67.2226 187.25 67.0217C187.156 66.8326 187.049 66.6434 186.955 66.4543C186.943 66.4307 186.931 66.407 186.919 66.3834C186.73 66.0288 186.542 65.686 186.329 65.3432C186.293 65.2841 186.258 65.2368 186.223 65.1777C186.081 64.9413 185.927 64.7167 185.786 64.4921C185.667 64.3029 185.549 64.102 185.419 63.9129C185.384 63.8538 185.337 63.8065 185.301 63.7474C185.242 63.6646 185.195 63.5937 185.136 63.511C185.006 63.3336 184.888 63.1563 184.758 62.9908C184.593 62.7663 184.439 62.5535 184.262 62.3407C184.096 62.1398 183.943 61.9388 183.777 61.7497C183.624 61.5605 183.47 61.3832 183.317 61.2059C183.305 61.1823 183.281 61.1586 183.258 61.135C183.116 60.9813 182.974 60.8158 182.833 60.6622C182.667 60.4731 182.49 60.2957 182.313 60.1184C182.277 60.0711 182.23 60.0357 182.183 59.9884C182.159 59.9648 182.147 59.9411 182.124 59.9175C182.006 59.7993 181.876 59.6811 181.758 59.551C181.569 59.3737 181.38 59.1846 181.179 59.0073C181.143 58.9718 181.096 58.9364 181.061 58.9009C181.025 58.8773 180.99 58.8418 180.954 58.8063C180.824 58.6881 180.695 58.5817 180.565 58.4754C180.364 58.2981 180.151 58.1326 179.939 57.9671C179.903 57.9316 179.868 57.908 179.832 57.8843C179.809 57.8725 179.797 57.8489 179.773 57.837C179.62 57.7188 179.466 57.6006 179.313 57.4824C179.112 57.3288 178.899 57.1869 178.687 57.0332C178.651 57.0096 178.616 56.986 178.58 56.9623C178.568 56.9505 178.545 56.9387 178.521 56.9269C178.368 56.8205 178.214 56.7141 178.049 56.6195C177.848 56.4895 177.635 56.3595 177.423 56.2294C177.375 56.2058 177.328 56.1703 177.281 56.1467C177.116 56.0521 176.962 55.9694 176.808 55.8866C176.608 55.7684 176.407 55.662 176.194 55.5675C176.135 55.532 176.064 55.5084 175.993 55.4729C175.946 55.4493 175.899 55.4256 175.852 55.402C175.769 55.3665 175.686 55.3311 175.604 55.2838C175.415 55.201 175.226 55.1183 175.025 55.0356C174.907 54.9883 174.8 54.9528 174.682 54.9055C174.647 54.8937 174.611 54.8819 174.576 54.8582C174.54 54.8464 174.505 54.8346 174.47 54.8228C174.281 54.7519 174.092 54.6928 173.914 54.6337C173.725 54.5745 173.548 54.5273 173.359 54.48C173.359 54.48 173.359 54.48 173.347 54.48C173.158 54.4327 172.981 54.3972 172.804 54.3618C172.615 54.3263 172.426 54.2909 172.237 54.2672C172.225 54.2672 172.202 54.2672 172.178 54.2672C172.154 54.2672 172.131 54.2672 172.095 54.2672C171.954 54.2554 171.8 54.2318 171.658 54.2199C171.458 54.2081 171.257 54.1963 171.068 54.1963H171.032C171.032 54.1963 170.973 54.1963 170.938 54.1963C170.772 54.1963 170.607 54.1963 170.442 54.2199C170.312 54.2318 170.194 54.2554 170.064 54.279C169.993 54.279 169.934 54.2909 169.875 54.3027C169.839 54.3027 169.804 54.3027 169.768 54.3145C169.485 54.3736 169.213 54.4445 168.953 54.5391C168.634 54.6455 168.327 54.7873 168.044 54.9646L164.961 56.7614C165.256 56.5959 165.552 56.454 165.87 56.3358C166.166 56.2294 166.473 56.1585 166.792 56.0994C166.851 56.0876 166.922 56.0758 166.981 56.0758C167.276 56.0285 167.571 56.0048 167.879 55.993C167.902 55.993 167.926 55.993 167.938 55.993C168.28 55.993 168.634 56.0167 169.001 56.0521C169.036 56.0521 169.06 56.0521 169.083 56.0521C169.851 56.1467 170.654 56.3595 171.481 56.655C171.517 56.655 171.54 56.6786 171.564 56.6904C171.954 56.8323 172.355 57.0096 172.757 57.1987C172.792 57.2106 172.84 57.2342 172.875 57.2578C173.3 57.4588 173.725 57.6834 174.174 57.9434C174.588 58.1798 174.989 58.4399 175.391 58.7C175.426 58.7236 175.462 58.7472 175.485 58.7591C175.863 59.0191 176.241 59.291 176.608 59.5747C176.655 59.6101 176.69 59.6338 176.738 59.6692C177.104 59.9529 177.458 60.2485 177.812 60.5676C177.848 60.6031 177.895 60.6385 177.942 60.674C178.285 60.9813 178.627 61.3123 178.97 61.6433C179.005 61.6906 179.053 61.726 179.1 61.7615C179.442 62.1043 179.773 62.4589 180.092 62.8135C180.128 62.849 180.151 62.8726 180.175 62.9081C180.813 63.641 181.415 64.4093 181.994 65.2013C182.065 65.3077 182.147 65.4141 182.218 65.5205C182.348 65.7096 182.478 65.9224 182.608 66.1233C182.785 66.3952 182.951 66.6552 183.116 66.9389C183.364 67.3408 183.588 67.7546 183.813 68.1683C183.837 68.2037 183.848 68.2392 183.86 68.2747C184.096 68.712 184.309 69.1612 184.522 69.6222C184.533 69.6577 184.557 69.6931 184.569 69.7286C184.782 70.1896 184.971 70.6624 185.159 71.1353C185.171 71.1707 185.195 71.218 185.195 71.2535C185.372 71.7381 185.549 72.2228 185.691 72.7074V72.7311C185.833 73.2157 185.975 73.7122 186.093 74.2086C186.093 74.2441 186.104 74.2914 186.116 74.3268C186.234 74.8351 186.329 75.3316 186.412 75.8399C186.412 75.8399 186.412 75.8517 186.412 75.8635C186.494 76.36 186.541 76.8446 186.589 77.3411C186.589 77.4002 186.589 77.4593 186.601 77.5184C186.636 78.0149 186.66 78.5232 186.66 79.0196C186.66 79.6225 186.624 80.2135 186.565 80.8046C186.565 80.8755 186.553 80.9464 186.541 81.0173C186.482 81.5493 186.4 82.0812 186.293 82.5895C186.282 82.6604 186.258 82.7313 186.258 82.7904C186.152 83.2987 186.01 83.7834 185.868 84.2562C185.833 84.3626 185.797 84.4571 185.762 84.5635C185.632 84.9654 185.478 85.3437 185.313 85.7219C185.278 85.8283 185.23 85.9347 185.183 86.0293C185.041 86.3248 184.876 86.6085 184.722 86.8922C184.628 87.0577 184.545 87.2468 184.439 87.4005C184.191 87.7906 183.931 88.157 183.648 88.4998C183.577 88.5825 183.494 88.6653 183.423 88.7598C183.199 89.0081 182.962 89.2445 182.714 89.4691C182.62 89.5518 182.537 89.6346 182.443 89.7055C182.112 89.9774 181.781 90.2256 181.427 90.4266L184.51 88.6298C184.864 88.4289 185.195 88.1806 185.526 87.9088C185.62 87.826 185.715 87.7433 185.809 87.6605C186.045 87.4478 186.27 87.2113 186.494 86.9749C186.577 86.8804 186.66 86.7858 186.742 86.6912C187.014 86.3603 187.262 86.0175 187.498 85.651C187.498 85.6392 187.51 85.6274 187.51 85.6156C187.628 85.4382 187.723 85.2255 187.829 85.0363C187.971 84.7999 188.101 84.5753 188.231 84.3153C188.242 84.2798 188.254 84.2562 188.266 84.2207C188.313 84.1262 188.349 84.0198 188.396 83.9252C188.502 83.677 188.62 83.4287 188.715 83.1687C188.762 83.0387 188.798 82.9086 188.845 82.7786C188.88 82.6722 188.916 82.554 188.951 82.4476C188.987 82.3412 189.022 82.2467 189.057 82.1403C189.14 81.8329 189.223 81.5256 189.306 81.2065C189.317 81.1355 189.329 81.0646 189.341 80.9937C189.353 80.9346 189.365 80.8755 189.376 80.8046C189.412 80.6509 189.447 80.4854 189.471 80.3317C189.518 80.0599 189.554 79.7762 189.601 79.4925C189.601 79.3861 189.613 79.2797 189.624 79.1733C189.624 79.126 189.624 79.0906 189.636 79.0315C189.636 78.9251 189.66 78.8187 189.672 78.7005C189.695 78.4641 189.707 78.2158 189.719 77.9676C189.731 77.7312 189.743 77.4948 189.743 77.2465V77.1993C189.743 76.9865 189.743 76.7855 189.743 76.5728L189.754 76.6319Z" fill="url(#paint3_linear_5582_9661)"/>
<g opacity="0.6">
<path d="M82.1367 183.81V184.897" stroke="#50DBD9" stroke-miterlimit="10"/>
<path d="M82 187L82 258" stroke="#50DBD9" stroke-miterlimit="10" stroke-dasharray="2.81 2.81"/>
<path d="M87.8728 260.673L88.4157 260.987L88.3928 261.002C87.8269 261.331 87.1998 261.614 86.5345 261.836L86.1445 261.446C86.7563 261.239 87.3298 260.987 87.8498 260.688L87.8728 260.673Z" fill="#1AA8A8"/>
<path d="M90.7203 258.645C90.5215 259.081 90.2309 259.502 89.8333 259.9L89.168 259.678C89.5274 259.31 89.795 258.928 89.9786 258.53L90.7203 258.645Z" fill="#1AA8A8"/>
<path d="M82.041 262.089C82.7598 262.089 83.471 262.035 84.1746 261.928L84.3734 262.357C83.6163 262.471 82.8287 262.533 82.0487 262.533V262.089H82.041Z" fill="#1AA8A8"/>
<path d="M90.6814 255.943C90.8955 256.387 91.0026 256.839 91.0102 257.29H90.2379C90.2379 256.877 90.1384 256.464 89.9473 256.058L90.6814 255.943Z" fill="#1AA8A8"/>
<path d="M77.9177 261.453C78.5447 261.668 79.2177 261.821 79.9059 261.928L79.7147 262.356C78.9577 262.242 78.2312 262.066 77.543 261.836L77.9177 261.453Z" fill="#1AA8A8"/>
<path d="M88.3494 253.624C88.9153 253.953 89.3894 254.313 89.7794 254.688L89.1218 254.91C88.77 254.566 88.3341 254.237 87.8141 253.938H87.7988L88.3341 253.617H88.3571L88.3494 253.624Z" fill="#1AA8A8"/>
<path d="M74.8901 259.708C75.2418 260.061 75.6854 260.39 76.1977 260.688H76.2054L75.6701 261.009H75.6624C75.0965 260.68 74.6148 260.313 74.2324 259.93L74.8901 259.708Z" fill="#1AA8A8"/>
<path d="M73.0078 257.321H73.7725C73.7725 257.734 73.8719 258.155 74.0631 258.561L73.3213 258.676C73.1149 258.232 73.0078 257.78 73.0078 257.321Z" fill="#1AA8A8"/>
<path d="M74.1957 254.711L74.8609 254.933C74.5015 255.3 74.2262 255.683 74.0504 256.081L73.3086 255.966C73.4998 255.53 73.798 255.109 74.1957 254.711Z" fill="#1AA8A8"/>
<path d="M76.1657 253.939H76.1504L75.6074 253.632H75.6227C76.1886 253.296 76.8004 253.02 77.458 252.798L77.848 253.181C77.2439 253.388 76.678 253.632 76.1657 253.931V253.939Z" fill="#1AA8A8"/>
<path d="M81.9613 252.538C81.2424 252.538 80.5236 252.599 79.8277 252.706L79.6289 252.278C80.386 252.163 81.1736 252.102 81.9536 252.094V252.538H81.9613Z" fill="#1AA8A8"/>
<path d="M86.0838 253.173C85.4491 252.966 84.7838 252.806 84.0879 252.699L84.2791 252.27C85.0361 252.385 85.7702 252.561 86.4585 252.783L86.0838 253.165V253.173Z" fill="#1AA8A8"/>
</g>
<path d="M90.6273 205.261L103.849 197.57L94.9249 205.743L81.7031 213.427L90.6273 205.261Z" fill="#0F5353"/>
<path d="M108.225 151.172C119.259 157.547 128.161 172.998 128.13 185.67L128.076 203.907C128.038 216.595 119.076 221.707 108.049 215.325L90.6363 205.261L81.7122 213.427L72.8722 194.991L55.4445 184.921C44.4097 178.553 35.5086 163.118 35.5391 150.43L35.5927 132.194C35.6233 119.529 44.5933 114.401 55.6204 120.776L108.225 151.172Z" fill="#50DBD9"/>
<path d="M141.335 177.076C141.327 176.755 141.312 176.434 141.289 176.112C141.281 175.959 141.266 175.806 141.251 175.653C141.251 175.599 141.243 175.546 141.235 175.492C141.228 175.377 141.22 175.255 141.212 175.14C141.182 174.819 141.143 174.49 141.105 174.161C141.067 173.824 141.013 173.495 140.96 173.158C140.906 172.822 140.845 172.485 140.784 172.148C140.723 171.796 140.646 171.452 140.57 171.107C140.547 170.977 140.516 170.855 140.486 170.732C140.471 170.663 140.455 170.602 140.44 170.533C140.402 170.38 140.371 170.22 140.333 170.059C140.249 169.707 140.149 169.355 140.058 168.995C139.989 168.735 139.905 168.475 139.828 168.215C139.821 168.176 139.805 168.13 139.798 168.092C139.782 168.039 139.767 167.993 139.752 167.939C139.645 167.595 139.538 167.25 139.423 166.906C139.308 166.569 139.186 166.225 139.071 165.888C139.048 165.819 139.018 165.758 138.995 165.682C138.979 165.643 138.972 165.605 138.956 165.567C138.872 165.345 138.796 165.131 138.704 164.909C138.582 164.58 138.444 164.258 138.314 163.937C138.222 163.715 138.123 163.485 138.023 163.263C138.001 163.21 137.978 163.156 137.955 163.11C137.939 163.064 137.916 163.026 137.901 162.98C137.756 162.659 137.611 162.337 137.465 162.008C137.305 161.656 137.129 161.304 136.961 160.96C136.93 160.906 136.907 160.853 136.876 160.792C136.846 160.73 136.815 160.677 136.785 160.616C136.639 160.332 136.494 160.049 136.341 159.766C136.158 159.414 135.951 159.077 135.76 158.733C135.668 158.565 135.576 158.396 135.477 158.228C135.431 158.151 135.401 158.082 135.355 158.014C135.179 157.715 134.988 157.432 134.812 157.141C134.544 156.713 134.284 156.276 134.001 155.856C133.955 155.787 133.909 155.71 133.863 155.641C133.451 155.029 133.03 154.432 132.602 153.843C132.311 153.453 132.021 153.062 131.722 152.687C131.478 152.381 131.233 152.075 130.981 151.777C130.981 151.777 130.973 151.761 130.965 151.761C130.965 151.761 130.958 151.746 130.95 151.746C130.698 151.44 130.438 151.142 130.178 150.843C129.925 150.552 129.665 150.261 129.398 149.978C129.352 149.925 129.306 149.879 129.26 149.833C129.222 149.795 129.183 149.756 129.145 149.718C128.954 149.519 128.771 149.32 128.579 149.121C128.304 148.838 128.021 148.563 127.738 148.287C127.646 148.203 127.555 148.119 127.471 148.035C127.409 147.981 127.356 147.927 127.295 147.866C127.149 147.728 127.012 147.598 126.866 147.468C126.568 147.2 126.278 146.948 125.979 146.695C125.849 146.588 125.712 146.481 125.589 146.374C125.521 146.32 125.459 146.267 125.398 146.213C125.299 146.129 125.199 146.045 125.1 145.968C124.809 145.739 124.519 145.517 124.22 145.303C124.014 145.149 123.8 145.004 123.593 144.859C123.548 144.828 123.502 144.79 123.448 144.759C123.418 144.736 123.379 144.713 123.349 144.69C123.066 144.499 122.783 144.308 122.5 144.132C122.217 143.956 121.934 143.78 121.651 143.611C121.59 143.573 121.521 143.535 121.452 143.497L68.8404 113.085C68.6263 112.962 68.4121 112.84 68.2057 112.733C67.9304 112.587 67.6627 112.442 67.3874 112.304C67.2116 112.22 67.0357 112.136 66.8598 112.059C66.8139 112.036 66.768 112.021 66.7298 111.998C66.6763 111.975 66.6227 111.952 66.5768 111.929C66.3092 111.807 66.0416 111.692 65.7739 111.593C65.5063 111.485 65.2386 111.386 64.971 111.286C64.9251 111.271 64.8715 111.256 64.8257 111.241C64.7874 111.225 64.7568 111.218 64.7186 111.21C64.5351 111.149 64.3515 111.088 64.168 111.026C63.8927 110.942 63.6174 110.866 63.3421 110.797C63.2121 110.766 63.0745 110.736 62.9445 110.705C62.891 110.69 62.8374 110.682 62.7839 110.667C62.6998 110.651 62.608 110.628 62.5239 110.605C62.2333 110.552 61.9427 110.498 61.6521 110.46C61.4686 110.437 61.2927 110.422 61.1168 110.406C61.0633 110.406 61.0021 110.391 60.9486 110.391C60.8874 110.391 60.8262 110.376 60.7651 110.376C60.4515 110.353 60.138 110.345 59.8321 110.345C59.6945 110.345 59.5568 110.361 59.4192 110.361C59.3198 110.361 59.2127 110.361 59.1133 110.376C59.0062 110.383 58.8992 110.376 58.7921 110.391C58.4021 110.429 58.0121 110.483 57.6451 110.559C57.6374 110.559 57.6298 110.559 57.6221 110.559C57.538 110.575 57.4692 110.605 57.3851 110.628C56.9951 110.713 56.6127 110.812 56.2456 110.942C56.2151 110.95 56.1921 110.973 56.1615 110.98C55.6262 111.172 55.1139 111.409 54.6321 111.692L41.418 119.383C41.8997 119.1 42.4197 118.87 42.955 118.671C43.3603 118.526 43.7809 118.411 44.2092 118.312C44.278 118.296 44.3392 118.266 44.408 118.258C44.8897 118.159 45.3944 118.105 45.9068 118.067C46.0062 118.067 46.1133 118.059 46.2203 118.051C46.7174 118.036 47.2221 118.036 47.7421 118.082C47.7956 118.082 47.8568 118.09 47.9103 118.097C48.4533 118.151 49.0039 118.235 49.5698 118.35C49.6309 118.365 49.6845 118.373 49.7456 118.388C50.3192 118.518 50.9003 118.679 51.4968 118.878C51.5427 118.893 51.5886 118.901 51.6345 118.924C52.2539 119.138 52.8809 119.391 53.5233 119.681C53.5692 119.704 53.6151 119.727 53.6686 119.75C54.3186 120.049 54.9762 120.386 55.6339 120.776L108.238 151.172C108.919 151.562 109.576 151.991 110.242 152.442C110.28 152.465 110.318 152.496 110.356 152.527C110.968 152.955 111.572 153.407 112.161 153.889C112.23 153.95 112.306 154.004 112.375 154.065C112.956 154.539 113.522 155.037 114.08 155.557C114.134 155.611 114.203 155.664 114.256 155.725C114.815 156.254 115.365 156.804 115.9 157.371C115.954 157.432 116.015 157.486 116.069 157.547C116.642 158.159 117.208 158.794 117.751 159.452C118.309 160.126 118.852 160.822 119.38 161.541C119.418 161.595 119.456 161.656 119.502 161.71C119.938 162.307 120.366 162.927 120.779 163.546C121.062 163.975 121.33 164.411 121.598 164.847C121.819 165.207 122.049 165.559 122.263 165.926C122.362 166.095 122.446 166.263 122.546 166.432C122.898 167.051 123.242 167.679 123.563 168.314C123.601 168.383 123.632 168.444 123.67 168.513C124.052 169.271 124.412 170.036 124.748 170.801C124.771 170.862 124.794 170.916 124.825 170.977C125.153 171.735 125.459 172.492 125.742 173.258C125.758 173.304 125.78 173.35 125.796 173.395C126.086 174.191 126.354 174.987 126.599 175.783C126.614 175.829 126.622 175.875 126.637 175.921C126.866 176.686 127.073 177.459 127.249 178.224C127.264 178.293 127.279 178.362 127.295 178.423C127.662 180.023 127.914 181.622 128.052 183.183C128.052 183.237 128.059 183.29 128.059 183.344C128.12 184.124 128.159 184.905 128.151 185.67L128.098 203.907C128.098 204.664 128.059 205.399 127.991 206.111C127.991 206.172 127.975 206.225 127.975 206.287C127.906 206.937 127.815 207.565 127.7 208.161C127.685 208.238 127.669 208.315 127.654 208.391C127.532 208.965 127.386 209.516 127.226 210.044C127.195 210.144 127.165 210.243 127.126 210.342C126.958 210.848 126.775 211.33 126.561 211.789C126.538 211.827 126.522 211.873 126.507 211.919C126.262 212.439 125.995 212.921 125.704 213.381C125.666 213.449 125.612 213.503 125.574 213.564C125.337 213.924 125.085 214.253 124.809 214.574C124.71 214.697 124.603 214.804 124.496 214.919C124.259 215.171 124.014 215.409 123.754 215.638C123.647 215.73 123.54 215.829 123.425 215.921C123.058 216.212 122.676 216.488 122.27 216.725L135.492 209.034C135.898 208.797 136.272 208.521 136.639 208.23C136.754 208.139 136.861 208.039 136.968 207.947C137.221 207.725 137.473 207.488 137.71 207.228C137.817 207.113 137.924 206.998 138.023 206.883C138.299 206.562 138.559 206.21 138.803 205.85C138.842 205.797 138.88 205.751 138.918 205.697C138.926 205.682 138.941 205.667 138.949 205.651C139.224 205.223 139.476 204.771 139.706 204.289C139.713 204.274 139.721 204.251 139.729 204.228C139.752 204.19 139.767 204.144 139.782 204.098C139.92 203.792 140.058 203.478 140.18 203.149C140.241 202.981 140.295 202.805 140.348 202.636C140.379 202.544 140.409 202.46 140.44 202.368C140.471 202.277 140.501 202.192 140.532 202.093C140.631 201.764 140.715 201.419 140.799 201.075C140.83 200.945 140.853 200.807 140.883 200.677C140.899 200.608 140.906 200.547 140.922 200.478C140.945 200.356 140.975 200.226 140.998 200.096C141.052 199.782 141.098 199.468 141.143 199.139C141.166 198.948 141.182 198.756 141.197 198.565C141.197 198.511 141.205 198.466 141.212 198.412C141.22 198.328 141.228 198.259 141.235 198.175C141.258 197.869 141.281 197.555 141.296 197.233C141.312 196.92 141.312 196.598 141.319 196.269V196.208L141.373 177.972C141.373 177.673 141.373 177.375 141.365 177.069L141.335 177.076Z" fill="#1AA8A8"/>
<path d="M69.7516 163.76C69.8357 163.745 69.9198 163.737 70.0039 163.722C70.4245 163.668 70.8604 163.638 71.3116 163.645C71.3651 163.645 71.411 163.645 71.4569 163.645C71.9463 163.661 72.4586 163.707 72.9786 163.799L74.9745 162.635C74.8139 162.605 74.6533 162.582 74.5004 162.559C74.271 162.528 74.0492 162.505 73.8274 162.49C73.7051 162.482 73.5827 162.482 73.4604 162.475C73.4069 162.475 73.361 162.475 73.3074 162.475C73.2463 162.475 73.1851 162.475 73.1239 162.475C72.8639 162.475 72.6039 162.49 72.3516 162.513C72.2369 162.521 72.1221 162.543 72.0074 162.566C71.9233 162.574 71.8392 162.589 71.7551 162.605C71.671 162.62 71.5792 162.628 71.4874 162.643C71.1739 162.704 70.868 162.796 70.5698 162.888C70.5316 162.903 70.4857 162.911 70.4551 162.918C70.4474 162.918 70.4398 162.918 70.4321 162.918C70.0039 163.072 69.5833 163.263 69.201 163.492L67.2051 164.656C67.6027 164.426 68.0233 164.235 68.4592 164.082C68.4974 164.066 68.5433 164.059 68.5816 164.043C68.9563 163.921 69.3539 163.821 69.7592 163.76H69.7516Z" fill="url(#paint4_linear_5582_9661)"/>
<path d="M89.4752 172.776C89.177 172.952 88.8634 173.089 88.5346 173.212C88.4276 173.25 88.3205 173.288 88.2134 173.319C88.0834 173.357 87.9458 173.403 87.8081 173.434C87.6552 173.464 87.5023 173.503 87.3417 173.526C87.2729 173.526 87.2117 173.541 87.1429 173.556C86.9058 173.579 86.6687 173.595 86.4317 173.595C86.4011 173.595 86.3628 173.595 86.3323 173.595C86.0799 173.595 85.8276 173.564 85.5752 173.526C85.5523 173.526 85.5293 173.526 85.5064 173.51C85.2311 173.464 84.9558 173.403 84.6805 173.319C84.6805 173.319 84.6805 173.319 84.6728 173.319C84.3899 173.235 84.0917 173.128 83.8011 172.998C83.7934 172.998 83.7858 172.99 83.7705 172.982C83.4723 172.852 83.174 172.699 82.8681 172.523C82.4934 172.309 82.1187 172.056 81.7517 171.781C81.7364 171.766 81.7134 171.758 81.6981 171.743C81.3387 171.475 80.987 171.176 80.6428 170.855C80.6275 170.84 80.6046 170.824 80.5893 170.801C80.2528 170.488 79.9164 170.143 79.5875 169.783C79.5646 169.753 79.534 169.73 79.5111 169.699C79.1822 169.332 78.8611 168.949 78.5475 168.551C78.5322 168.521 78.5093 168.498 78.4864 168.475C78.1958 168.108 77.9205 167.717 77.6452 167.319C77.607 167.258 77.5611 167.205 77.5228 167.151C77.4617 167.051 77.4005 166.952 77.3317 166.853C77.0487 166.424 76.7734 165.988 76.5058 165.536C76.2611 165.123 76.024 164.71 75.7946 164.281C75.7869 164.258 75.7717 164.243 75.764 164.22C75.4887 163.7 75.2287 163.179 74.9764 162.644L72.9805 163.807C73.0952 164.044 73.2099 164.289 73.3246 164.526C73.4699 164.817 73.6152 165.108 73.7681 165.391C73.7681 165.399 73.7834 165.414 73.7834 165.421C73.9899 165.804 74.1964 166.187 74.4181 166.562C74.4487 166.615 74.4869 166.669 74.5175 166.722C74.7622 167.143 75.0222 167.541 75.2822 167.939C75.3511 168.046 75.4199 168.161 75.4887 168.261C75.504 168.284 75.5193 168.299 75.5269 168.314C75.5575 168.36 75.5958 168.406 75.6264 168.452C75.7946 168.697 75.9628 168.949 76.1387 169.179C76.2534 169.332 76.3758 169.493 76.4981 169.646C76.5134 169.661 76.5211 169.676 76.5364 169.692C76.5517 169.715 76.5669 169.73 76.5822 169.753C76.7122 169.914 76.8346 170.074 76.9646 170.227C77.0869 170.373 77.2093 170.51 77.3317 170.656C77.3928 170.732 77.4617 170.794 77.5228 170.87C77.5381 170.893 77.5534 170.908 77.5764 170.931C77.6146 170.97 77.6528 171.016 77.6834 171.054C77.8058 171.184 77.9281 171.306 78.0428 171.436C78.1652 171.559 78.2875 171.681 78.4099 171.796C78.4634 171.85 78.5246 171.903 78.5781 171.957C78.6011 171.98 78.624 171.995 78.647 172.018C78.6928 172.056 78.7311 172.095 78.777 172.141C78.8993 172.248 79.014 172.355 79.1364 172.454C79.2511 172.554 79.3734 172.653 79.4881 172.745C79.5493 172.799 79.6181 172.845 79.687 172.898C79.7022 172.913 79.7175 172.929 79.7405 172.936C79.7634 172.959 79.794 172.982 79.8246 172.998C79.9393 173.082 80.0464 173.158 80.1534 173.235C80.2605 173.304 80.3675 173.38 80.4746 173.449C80.5817 173.518 80.6811 173.579 80.7881 173.64C80.8111 173.656 80.834 173.671 80.857 173.679C80.9334 173.725 81.0175 173.771 81.094 173.809C81.1934 173.862 81.2928 173.916 81.3999 173.969C81.4993 174.023 81.6064 174.069 81.7058 174.115C81.7211 174.115 81.744 174.13 81.7593 174.138C81.7746 174.138 81.7899 174.153 81.8052 174.153C81.874 174.184 81.9428 174.214 82.0193 174.245C82.1264 174.283 82.2258 174.322 82.3328 174.36C82.4399 174.398 82.547 174.429 82.654 174.467C82.654 174.467 82.6693 174.467 82.677 174.467C82.677 174.467 82.677 174.467 82.6923 174.467C82.7917 174.498 82.8911 174.52 82.9905 174.551C83.1052 174.582 83.2275 174.605 83.3423 174.628C83.3958 174.635 83.4646 174.651 83.5181 174.658C83.5411 174.658 83.564 174.658 83.587 174.666C83.6252 174.674 83.6711 174.681 83.7093 174.689C83.847 174.712 83.977 174.719 84.107 174.727C84.1834 174.727 84.2599 174.727 84.3287 174.735C84.367 174.735 84.4052 174.735 84.4434 174.735C84.474 174.735 84.5123 174.735 84.5428 174.735C84.7111 174.735 84.8793 174.727 85.0476 174.712C85.0781 174.712 85.1164 174.696 85.147 174.696C85.2158 174.696 85.277 174.681 85.3381 174.666C85.4376 174.651 85.5293 174.643 85.6287 174.628C85.6899 174.612 85.7587 174.589 85.8199 174.574C85.9499 174.543 86.0876 174.505 86.2176 174.467C86.2864 174.444 86.3552 174.436 86.424 174.413C86.4623 174.398 86.5005 174.367 86.5464 174.36C86.8676 174.237 87.1811 174.1 87.4793 173.924L89.4752 172.76V172.776Z" fill="url(#paint5_linear_5582_9661)"/>
<path d="M100.86 193.3C100.86 193.063 100.845 192.818 100.83 192.573C100.814 192.328 100.792 192.083 100.769 191.838C100.746 191.593 100.723 191.348 100.684 191.096C100.684 191.096 100.684 191.096 100.684 191.081V191.065C100.654 190.828 100.623 190.591 100.585 190.346C100.547 190.109 100.509 189.879 100.463 189.642C100.463 189.627 100.463 189.611 100.455 189.588C100.455 189.588 100.455 189.588 100.455 189.581C100.409 189.32 100.356 189.06 100.294 188.8C100.249 188.586 100.195 188.372 100.142 188.157C100.142 188.142 100.134 188.119 100.134 188.104C100.126 188.073 100.119 188.05 100.111 188.02C100.042 187.752 99.9733 187.491 99.8969 187.224C99.851 187.063 99.8051 186.91 99.7592 186.749C99.7363 186.688 99.721 186.627 99.7057 186.566C99.6904 186.52 99.6827 186.474 99.6674 186.435C99.5833 186.175 99.5068 185.907 99.4151 185.647C99.3692 185.509 99.3233 185.372 99.2774 185.242C99.2621 185.188 99.2392 185.142 99.2239 185.089C99.201 185.02 99.178 184.958 99.1551 184.89C99.0633 184.645 98.9716 184.392 98.8798 184.147C98.8263 184.017 98.7727 183.887 98.7268 183.757C98.7039 183.703 98.6886 183.658 98.6657 183.604C98.6427 183.543 98.6121 183.482 98.5892 183.42C98.4898 183.183 98.3904 182.946 98.2833 182.709C98.2221 182.571 98.161 182.441 98.0998 182.303C98.0768 182.249 98.0539 182.196 98.0233 182.142C98.0004 182.089 97.9698 182.035 97.9468 181.982C97.8245 181.721 97.7021 181.469 97.5798 181.216C97.5263 181.109 97.4727 181.002 97.4192 180.895C97.3733 180.803 97.3274 180.719 97.2815 180.627C97.228 180.52 97.1745 180.405 97.1133 180.298C97.0139 180.107 96.8992 179.923 96.7921 179.732C96.6927 179.556 96.5933 179.372 96.4863 179.188C96.4557 179.135 96.4251 179.074 96.3868 179.012C96.3333 178.921 96.2721 178.836 96.2186 178.745C95.928 178.262 95.6298 177.788 95.3239 177.321C95.2704 177.245 95.2245 177.153 95.171 177.076C95.1251 177.007 95.0715 176.938 95.0257 176.87C94.8651 176.632 94.6968 176.41 94.5363 176.173C94.4368 176.035 94.3451 175.898 94.2457 175.76C94.1692 175.66 94.1004 175.569 94.0239 175.469C93.9551 175.377 93.8862 175.286 93.8098 175.194C93.7486 175.109 93.6798 175.018 93.611 174.933C93.4198 174.689 93.221 174.444 93.0221 174.206C93.0068 174.184 92.9839 174.168 92.9686 174.145C92.9151 174.084 92.8692 174.03 92.8157 173.969C92.6933 173.824 92.571 173.678 92.4486 173.533C92.288 173.342 92.1121 173.158 91.9439 172.974C91.921 172.944 91.8904 172.913 91.8598 172.883C91.661 172.661 91.4545 172.446 91.248 172.24C91.1027 172.087 90.9498 171.941 90.8045 171.796L88.8086 172.959C89.1757 173.311 89.5351 173.686 89.8868 174.069C89.8945 174.069 89.9021 174.084 89.9098 174.092C90.2309 174.436 90.5445 174.796 90.858 175.163C90.8962 175.209 90.9345 175.247 90.9651 175.293C91.2557 175.638 91.5386 175.997 91.8139 176.349C91.8904 176.449 91.9592 176.548 92.0357 176.648C92.2115 176.877 92.3798 177.114 92.548 177.352C92.7086 177.566 92.8615 177.788 93.0145 178.01C93.1292 178.178 93.2362 178.354 93.351 178.523C93.6568 178.982 93.9474 179.449 94.2304 179.923C94.3145 180.068 94.3986 180.206 94.4827 180.344C94.5974 180.535 94.7045 180.734 94.8115 180.933C94.9721 181.216 95.1251 181.499 95.2704 181.783C95.3163 181.882 95.3698 181.982 95.4233 182.073C95.6374 182.487 95.8363 182.908 96.0351 183.328C96.0504 183.359 96.0657 183.397 96.081 183.436C96.2798 183.879 96.471 184.323 96.6545 184.767C96.6774 184.821 96.7004 184.874 96.7233 184.928C96.8992 185.364 97.0674 185.808 97.2204 186.244C97.2433 186.298 97.2586 186.351 97.2739 186.405C97.4345 186.849 97.5798 187.3 97.7098 187.744C97.7251 187.798 97.7404 187.851 97.7557 187.905C97.8857 188.356 98.0157 188.808 98.1227 189.259C98.1227 189.298 98.138 189.336 98.1457 189.366C98.4974 190.828 98.7268 192.282 98.8186 193.698C98.8186 193.698 98.8186 193.705 98.8186 193.713C98.8492 194.195 98.8645 194.67 98.8645 195.144L98.8492 201.289L100.845 200.126L100.86 193.981C100.86 193.759 100.86 193.529 100.853 193.3H100.86Z" fill="url(#paint6_linear_5582_9661)"/>
<path d="M88.801 172.944C94.6816 178.691 98.9028 187.568 98.8798 195.136L98.8645 201.281C93.4657 199.919 87.3328 197.386 80.8251 193.621C74.3251 189.864 68.1921 185.318 62.8086 180.443L62.8239 174.298C62.8468 166.722 67.0986 162.75 72.9945 163.799C75.0133 168.099 77.8045 171.888 80.8786 173.671C83.9604 175.446 86.7592 174.88 88.8086 172.936L88.801 172.944Z" fill="white"/>
<path d="M80.949 147.591C85.4379 150.185 89.0626 155.764 89.0396 161.251C89.0243 166.738 85.3767 171.038 80.8879 168.444C76.4067 165.858 72.7973 157.363 72.8125 151.876C72.8278 146.382 76.4678 145.004 80.949 147.591Z" fill="white"/>
<path d="M91.0258 159.689C91.0258 159.544 91.0105 159.398 91.0029 159.253C91.0029 159.2 90.9952 159.138 90.9876 159.085C90.9876 159.069 90.9876 159.054 90.9876 159.039C90.9876 158.97 90.9799 158.901 90.9723 158.832C90.957 158.694 90.9417 158.557 90.9264 158.419C90.9111 158.297 90.8958 158.166 90.8729 158.036C90.8729 158.036 90.8729 158.036 90.8729 158.029C90.8729 158.029 90.8729 158.013 90.8729 158.006C90.8499 157.868 90.827 157.738 90.8041 157.6C90.7811 157.462 90.7505 157.325 90.7199 157.195C90.7046 157.149 90.697 157.103 90.6817 157.049C90.6817 157.026 90.6741 157.003 90.6664 156.973C90.6511 156.911 90.6358 156.843 90.6205 156.781C90.5899 156.644 90.5517 156.513 90.5135 156.376C90.4829 156.253 90.4446 156.131 90.4064 156.001V155.985C90.3682 155.863 90.3299 155.733 90.2841 155.61C90.2458 155.488 90.1999 155.358 90.1541 155.235C90.1311 155.167 90.1005 155.105 90.0776 155.036C90.0776 155.021 90.0699 155.014 90.0699 154.998C90.0546 154.96 90.0393 154.922 90.0241 154.883C89.9858 154.769 89.9399 154.654 89.8864 154.539C89.8405 154.424 89.787 154.309 89.7411 154.195C89.7258 154.156 89.7029 154.118 89.6876 154.08C89.6799 154.057 89.6723 154.042 89.6646 154.019C89.6417 153.965 89.6188 153.904 89.5882 153.85C89.527 153.72 89.4658 153.598 89.4046 153.468C89.3435 153.345 89.2746 153.223 89.2135 153.1C89.2058 153.085 89.1982 153.07 89.1905 153.054C89.0682 152.825 88.9458 152.603 88.8082 152.381C88.7852 152.343 88.7623 152.312 88.7393 152.274C88.6476 152.121 88.5482 151.975 88.4564 151.83C88.3799 151.708 88.3035 151.577 88.2193 151.455C88.1964 151.417 88.1658 151.386 88.1429 151.348C88.1046 151.294 88.074 151.248 88.0358 151.195C87.9517 151.08 87.8752 150.965 87.7911 150.858C87.684 150.713 87.5846 150.575 87.4699 150.437C87.3629 150.307 87.2635 150.177 87.1564 150.055C87.057 149.932 86.9576 149.817 86.8582 149.703C86.8505 149.687 86.8352 149.672 86.8199 149.657C86.7282 149.557 86.6364 149.45 86.5446 149.351C86.4376 149.228 86.3229 149.113 86.2082 148.999C86.1852 148.968 86.1546 148.945 86.124 148.914C86.1088 148.899 86.1011 148.884 86.0858 148.868C86.0093 148.792 85.9252 148.715 85.8488 148.631C85.7264 148.516 85.604 148.394 85.474 148.279C85.4511 148.256 85.4205 148.233 85.3976 148.21C85.3746 148.195 85.3517 148.172 85.3287 148.149C85.2446 148.073 85.1605 148.004 85.0764 147.935C84.9464 147.82 84.8087 147.713 84.6711 147.606C84.6482 147.583 84.6252 147.567 84.6023 147.552C84.587 147.545 84.5793 147.529 84.564 147.522C84.4646 147.445 84.3652 147.369 84.2658 147.292C84.1358 147.193 83.9982 147.101 83.8605 147.001C83.8376 146.986 83.8146 146.971 83.7917 146.955C83.784 146.948 83.7687 146.94 83.7535 146.932C83.654 146.863 83.5546 146.795 83.4476 146.733C83.3176 146.649 83.1799 146.565 83.0423 146.481C83.0117 146.466 82.9811 146.443 82.9505 146.427C82.8435 146.366 82.744 146.312 82.6446 146.259C82.5146 146.182 82.3846 146.113 82.247 146.052C82.2087 146.029 82.1629 146.014 82.117 145.991C82.0864 145.976 82.0558 145.96 82.0252 145.945C81.9717 145.922 81.9182 145.899 81.8646 145.869C81.7423 145.815 81.6199 145.761 81.4899 145.708C81.4134 145.677 81.3446 145.654 81.2682 145.624C81.2452 145.616 81.2223 145.608 81.1993 145.593C81.1764 145.585 81.1534 145.578 81.1305 145.57C81.0082 145.524 80.8858 145.486 80.7711 145.448C80.6487 145.409 80.534 145.379 80.4117 145.348C80.4117 145.348 80.4117 145.348 80.404 145.348C80.2817 145.318 80.167 145.295 80.0523 145.272C79.9299 145.249 79.8076 145.226 79.6852 145.21C79.6776 145.21 79.6623 145.21 79.647 145.21C79.6317 145.21 79.6164 145.21 79.5934 145.21C79.5017 145.203 79.4023 145.188 79.3105 145.18C79.1805 145.172 79.0505 145.165 78.9281 145.165H78.9052C78.9052 145.165 78.867 145.165 78.844 145.165C78.737 145.165 78.6299 145.165 78.5229 145.18C78.4387 145.188 78.3623 145.203 78.2781 145.218C78.2323 145.218 78.194 145.226 78.1558 145.233C78.1329 145.233 78.1099 145.233 78.087 145.241C77.9034 145.279 77.7276 145.325 77.5593 145.386C77.3529 145.455 77.154 145.547 76.9705 145.662L74.9746 146.825C75.1658 146.718 75.357 146.626 75.5634 146.55C75.7546 146.481 75.9534 146.435 76.1599 146.397C76.1981 146.389 76.244 146.381 76.2823 146.381C76.4734 146.351 76.6646 146.335 76.8634 146.328C76.8787 146.328 76.894 146.328 76.9017 146.328C77.1234 146.328 77.3529 146.343 77.5899 146.366C77.6129 146.366 77.6281 146.366 77.6434 146.366C78.1405 146.427 78.6605 146.565 79.1958 146.756C79.2187 146.756 79.234 146.772 79.2493 146.779C79.5017 146.871 79.7617 146.986 80.0217 147.108C80.0446 147.116 80.0752 147.131 80.0982 147.147C80.3734 147.277 80.6487 147.422 80.9393 147.59C81.207 147.743 81.467 147.912 81.727 148.08C81.7499 148.096 81.7729 148.111 81.7882 148.118C82.0329 148.287 82.2776 148.463 82.5146 148.647C82.5452 148.669 82.5682 148.685 82.5987 148.708C82.8358 148.891 83.0652 149.083 83.2946 149.289C83.3176 149.312 83.3482 149.335 83.3787 149.358C83.6005 149.557 83.8223 149.771 84.044 149.986C84.067 150.016 84.0976 150.039 84.1282 150.062C84.3499 150.284 84.564 150.514 84.7705 150.743C84.7935 150.766 84.8087 150.782 84.824 150.805C85.237 151.279 85.627 151.776 86.0017 152.289C86.0476 152.358 86.1011 152.427 86.147 152.496C86.2311 152.618 86.3152 152.756 86.3993 152.886C86.514 153.062 86.6211 153.23 86.7282 153.414C86.8888 153.674 87.034 153.942 87.1793 154.21C87.1946 154.233 87.2023 154.256 87.2099 154.279C87.3629 154.562 87.5005 154.853 87.6382 155.151C87.6458 155.174 87.6611 155.197 87.6688 155.22C87.8064 155.519 87.9288 155.825 88.0511 156.131C88.0588 156.154 88.074 156.184 88.074 156.207C88.1888 156.521 88.3035 156.835 88.3952 157.149V157.164C88.487 157.478 88.5788 157.799 88.6552 158.12C88.6552 158.143 88.6629 158.174 88.6705 158.197C88.747 158.526 88.8082 158.848 88.8617 159.177C88.8617 159.177 88.8617 159.184 88.8617 159.192C88.9152 159.513 88.9458 159.827 88.9764 160.148C88.9764 160.187 88.9764 160.225 88.9841 160.263C89.007 160.585 89.0223 160.914 89.0223 161.235C89.0223 161.625 88.9993 162.008 88.9611 162.391C88.9611 162.437 88.9535 162.483 88.9458 162.528C88.9076 162.873 88.854 163.217 88.7852 163.546C88.7776 163.592 88.7623 163.638 88.7623 163.676C88.6935 164.005 88.6017 164.319 88.5099 164.625C88.487 164.694 88.4641 164.755 88.4411 164.824C88.357 165.084 88.2576 165.329 88.1505 165.574C88.1276 165.643 88.097 165.712 88.0664 165.773C87.9746 165.964 87.8676 166.148 87.7682 166.332C87.707 166.439 87.6535 166.561 87.5846 166.661C87.424 166.913 87.2558 167.151 87.0723 167.373C87.0264 167.426 86.9729 167.48 86.927 167.541C86.7817 167.702 86.6288 167.855 86.4682 168C86.407 168.054 86.3535 168.107 86.2923 168.153C86.0782 168.329 85.864 168.49 85.6346 168.62L87.6305 167.457C87.8599 167.327 88.0741 167.166 88.2882 166.99C88.3493 166.936 88.4105 166.883 88.4717 166.829C88.6246 166.691 88.7699 166.538 88.9152 166.385C88.9688 166.324 89.0223 166.263 89.0758 166.202C89.2517 165.987 89.4123 165.766 89.5652 165.528C89.5652 165.521 89.5729 165.513 89.5729 165.505C89.6493 165.391 89.7105 165.253 89.7793 165.13C89.8711 164.977 89.9552 164.832 90.0393 164.664C90.047 164.641 90.0546 164.625 90.0623 164.602C90.0929 164.541 90.1158 164.472 90.1464 164.411C90.2152 164.25 90.2917 164.09 90.3529 163.921C90.3835 163.837 90.4064 163.753 90.437 163.669C90.4599 163.6 90.4829 163.523 90.5058 163.454C90.5288 163.386 90.5517 163.324 90.5746 163.255C90.6282 163.056 90.6817 162.857 90.7352 162.651C90.7429 162.605 90.7505 162.559 90.7582 162.513C90.7658 162.475 90.7735 162.437 90.7811 162.391C90.8041 162.291 90.827 162.184 90.8423 162.085C90.8729 161.909 90.8958 161.725 90.9264 161.541C90.9264 161.472 90.9341 161.403 90.9417 161.335C90.9417 161.304 90.9417 161.281 90.9493 161.243C90.9493 161.174 90.9646 161.105 90.9723 161.029C90.9876 160.875 90.9952 160.715 91.0029 160.554C91.0105 160.401 91.0182 160.248 91.0182 160.087V160.057C91.0182 159.919 91.0182 159.789 91.0182 159.651L91.0258 159.689Z" fill="url(#paint7_linear_5582_9661)"/>
<g opacity="0.6">
<path d="M242.785 206.27V207.356" stroke="#50DBD9" stroke-miterlimit="10"/>
<path d="M243 210L243 280" stroke="#50DBD9" stroke-miterlimit="10" stroke-dasharray="2.81 2.81"/>
<path d="M248.519 283.133L249.062 283.447L249.039 283.462C248.473 283.791 247.846 284.074 247.181 284.296L246.791 283.906C247.403 283.699 247.976 283.447 248.496 283.148L248.519 283.133Z" fill="#1AA8A8"/>
<path d="M251.367 281.105C251.168 281.541 250.877 281.962 250.48 282.36L249.814 282.138C250.174 281.771 250.442 281.388 250.625 280.99L251.367 281.105Z" fill="#1AA8A8"/>
<path d="M242.688 284.549C243.406 284.549 244.118 284.495 244.821 284.388L245.02 284.817C244.263 284.932 243.475 284.993 242.695 284.993V284.549H242.688Z" fill="#1AA8A8"/>
<path d="M251.328 278.404C251.542 278.847 251.649 279.299 251.657 279.75H250.884C250.884 279.337 250.785 278.924 250.594 278.518L251.328 278.404Z" fill="#1AA8A8"/>
<path d="M238.564 283.913C239.191 284.128 239.864 284.281 240.552 284.388L240.361 284.816C239.604 284.702 238.878 284.526 238.189 284.296L238.564 283.913Z" fill="#1AA8A8"/>
<path d="M248.996 276.085C249.562 276.414 250.036 276.773 250.426 277.148L249.768 277.37C249.416 277.026 248.981 276.697 248.461 276.398H248.445L248.981 276.077H249.004L248.996 276.085Z" fill="#1AA8A8"/>
<path d="M235.537 282.168C235.888 282.52 236.332 282.85 236.844 283.148H236.852L236.317 283.469H236.309C235.743 283.14 235.261 282.773 234.879 282.39L235.537 282.168Z" fill="#1AA8A8"/>
<path d="M233.654 279.781H234.419C234.419 280.194 234.518 280.615 234.71 281.021L233.968 281.136C233.761 280.692 233.654 280.24 233.654 279.781Z" fill="#1AA8A8"/>
<path d="M234.84 277.171L235.505 277.393C235.146 277.761 234.871 278.143 234.695 278.541L233.953 278.426C234.144 277.99 234.443 277.569 234.84 277.171Z" fill="#1AA8A8"/>
<path d="M236.812 276.399H236.797L236.254 276.092H236.269C236.835 275.756 237.447 275.48 238.104 275.258L238.494 275.641C237.89 275.848 237.324 276.092 236.812 276.391V276.399Z" fill="#1AA8A8"/>
<path d="M242.608 274.998C241.889 274.998 241.17 275.059 240.474 275.166L240.275 274.738C241.032 274.623 241.82 274.562 242.6 274.554V274.998H242.608Z" fill="#1AA8A8"/>
<path d="M246.73 275.633C246.096 275.427 245.43 275.266 244.734 275.159L244.926 274.73C245.683 274.845 246.417 275.021 247.105 275.243L246.73 275.626V275.633Z" fill="#1AA8A8"/>
</g>
<path d="M251.27 227.72L264.492 220.029L255.567 228.202L242.346 235.886L251.27 227.72Z" fill="#0F5353"/>
<path d="M268.867 173.631C279.902 180.005 288.803 195.456 288.772 208.129L288.719 226.365C288.681 239.053 279.718 244.165 268.691 237.783L251.279 227.72L242.355 235.885L233.515 217.45L216.087 207.379C205.052 201.012 196.151 185.577 196.182 172.888L196.235 154.652C196.266 141.987 205.236 136.86 216.263 143.234L268.867 173.631Z" fill="#50DBD9"/>
<path d="M301.977 199.535C301.97 199.214 301.954 198.893 301.931 198.571C301.924 198.418 301.908 198.265 301.893 198.112C301.893 198.058 301.885 198.005 301.878 197.951C301.87 197.836 301.863 197.714 301.855 197.599C301.824 197.278 301.786 196.949 301.748 196.62C301.71 196.283 301.656 195.954 301.603 195.617C301.549 195.28 301.488 194.944 301.427 194.607C301.365 194.255 301.289 193.911 301.213 193.566C301.19 193.436 301.159 193.314 301.128 193.191C301.113 193.122 301.098 193.061 301.083 192.992C301.044 192.839 301.014 192.679 300.975 192.518C300.891 192.166 300.792 191.814 300.7 191.454C300.631 191.194 300.547 190.934 300.471 190.674C300.463 190.635 300.448 190.589 300.44 190.551C300.425 190.498 300.41 190.452 300.394 190.398C300.287 190.054 300.18 189.709 300.065 189.365C299.951 189.028 299.828 188.684 299.714 188.347C299.691 188.278 299.66 188.217 299.637 188.141C299.622 188.102 299.614 188.064 299.599 188.026C299.515 187.804 299.438 187.59 299.347 187.368C299.224 187.039 299.087 186.717 298.957 186.396C298.865 186.174 298.765 185.944 298.666 185.722C298.643 185.669 298.62 185.615 298.597 185.569C298.582 185.523 298.559 185.485 298.544 185.439C298.398 185.118 298.253 184.796 298.108 184.467C297.947 184.115 297.771 183.763 297.603 183.419C297.573 183.365 297.55 183.312 297.519 183.251C297.488 183.189 297.458 183.136 297.427 183.075C297.282 182.791 297.137 182.508 296.984 182.225C296.8 181.873 296.594 181.536 296.403 181.192C296.311 181.024 296.219 180.855 296.12 180.687C296.074 180.61 296.043 180.541 295.997 180.473C295.821 180.174 295.63 179.891 295.454 179.6C295.187 179.172 294.927 178.735 294.644 178.315C294.598 178.246 294.552 178.169 294.506 178.1C294.093 177.488 293.673 176.891 293.244 176.302C292.954 175.912 292.663 175.521 292.365 175.146C292.12 174.84 291.875 174.534 291.623 174.236C291.623 174.236 291.615 174.22 291.608 174.22C291.608 174.22 291.6 174.205 291.592 174.205C291.34 173.899 291.08 173.601 290.82 173.302C290.568 173.011 290.308 172.72 290.04 172.437C289.994 172.384 289.948 172.338 289.902 172.292C289.864 172.254 289.826 172.215 289.788 172.177C289.597 171.978 289.413 171.779 289.222 171.58C288.947 171.297 288.664 171.022 288.381 170.746C288.289 170.662 288.197 170.578 288.113 170.494C288.052 170.44 287.998 170.386 287.937 170.325C287.792 170.187 287.654 170.057 287.509 169.927C287.211 169.659 286.92 169.407 286.622 169.154C286.492 169.047 286.354 168.94 286.232 168.833C286.163 168.779 286.102 168.726 286.041 168.672C285.941 168.588 285.842 168.504 285.742 168.427C285.452 168.198 285.161 167.976 284.863 167.762C284.657 167.608 284.442 167.463 284.236 167.318C284.19 167.287 284.144 167.249 284.091 167.218C284.06 167.195 284.022 167.172 283.991 167.149C283.708 166.958 283.425 166.767 283.142 166.591C282.86 166.415 282.577 166.239 282.294 166.07C282.232 166.032 282.164 165.994 282.095 165.956L229.483 135.544C229.269 135.421 229.055 135.299 228.848 135.192C228.573 135.046 228.305 134.901 228.03 134.763C227.854 134.679 227.678 134.595 227.502 134.518C227.456 134.495 227.411 134.48 227.372 134.457C227.319 134.434 227.265 134.411 227.219 134.388C226.952 134.266 226.684 134.151 226.416 134.052C226.149 133.944 225.881 133.845 225.614 133.745C225.568 133.73 225.514 133.715 225.468 133.7C225.43 133.684 225.399 133.677 225.361 133.669C225.178 133.608 224.994 133.547 224.811 133.485C224.535 133.401 224.26 133.325 223.985 133.256C223.855 133.225 223.717 133.194 223.587 133.164C223.534 133.149 223.48 133.141 223.426 133.126C223.342 133.11 223.251 133.087 223.166 133.064C222.876 133.011 222.585 132.957 222.295 132.919C222.111 132.896 221.935 132.881 221.759 132.865C221.706 132.865 221.645 132.85 221.591 132.85C221.53 132.85 221.469 132.835 221.408 132.835C221.094 132.812 220.781 132.804 220.475 132.804C220.337 132.804 220.199 132.82 220.062 132.82C219.962 132.82 219.855 132.82 219.756 132.835C219.649 132.842 219.542 132.835 219.435 132.85C219.045 132.888 218.655 132.942 218.288 133.018C218.28 133.018 218.272 133.018 218.265 133.018C218.181 133.034 218.112 133.064 218.028 133.087C217.638 133.172 217.255 133.271 216.888 133.401C216.858 133.409 216.835 133.432 216.804 133.439C216.269 133.631 215.756 133.868 215.275 134.151L202.061 141.842C202.542 141.559 203.062 141.329 203.598 141.13C204.003 140.985 204.423 140.87 204.852 140.771C204.921 140.755 204.982 140.725 205.051 140.717C205.532 140.618 206.037 140.564 206.549 140.526C206.649 140.526 206.756 140.518 206.863 140.51C207.36 140.495 207.865 140.495 208.385 140.541C208.438 140.541 208.499 140.549 208.553 140.556C209.096 140.61 209.646 140.694 210.212 140.809C210.274 140.824 210.327 140.832 210.388 140.847C210.962 140.977 211.543 141.138 212.139 141.337C212.185 141.352 212.231 141.36 212.277 141.383C212.896 141.597 213.524 141.85 214.166 142.14C214.212 142.163 214.258 142.186 214.311 142.209C214.961 142.508 215.619 142.844 216.276 143.235L268.881 173.631C269.561 174.021 270.219 174.45 270.884 174.901C270.922 174.924 270.961 174.955 270.999 174.986C271.611 175.414 272.215 175.866 272.804 176.348C272.872 176.409 272.949 176.463 273.018 176.524C273.599 176.998 274.165 177.496 274.723 178.016C274.777 178.07 274.845 178.123 274.899 178.184C275.457 178.712 276.008 179.263 276.543 179.83C276.597 179.891 276.658 179.945 276.711 180.006C277.285 180.618 277.851 181.253 278.394 181.911C278.952 182.585 279.495 183.281 280.022 184C280.061 184.054 280.099 184.115 280.145 184.169C280.581 184.766 281.009 185.386 281.422 186.005C281.705 186.434 281.972 186.87 282.24 187.306C282.462 187.666 282.691 188.018 282.905 188.385C283.005 188.554 283.089 188.722 283.188 188.891C283.54 189.51 283.884 190.138 284.205 190.773C284.244 190.842 284.274 190.903 284.312 190.972C284.695 191.73 285.054 192.495 285.391 193.26C285.414 193.321 285.437 193.375 285.467 193.436C285.796 194.194 286.102 194.951 286.385 195.717C286.4 195.763 286.423 195.809 286.438 195.854C286.729 196.65 286.997 197.446 287.241 198.242C287.257 198.288 287.264 198.334 287.28 198.38C287.509 199.145 287.715 199.918 287.891 200.683C287.907 200.752 287.922 200.821 287.937 200.882C288.304 202.482 288.557 204.081 288.694 205.642C288.694 205.696 288.702 205.749 288.702 205.803C288.763 206.583 288.801 207.364 288.794 208.129L288.74 226.366C288.74 227.123 288.702 227.858 288.633 228.57C288.633 228.631 288.618 228.684 288.618 228.746C288.549 229.396 288.457 230.024 288.342 230.62C288.327 230.697 288.312 230.774 288.297 230.85C288.174 231.424 288.029 231.975 287.868 232.503C287.838 232.603 287.807 232.702 287.769 232.801C287.601 233.307 287.417 233.789 287.203 234.248C287.18 234.286 287.165 234.332 287.15 234.378C286.905 234.898 286.637 235.38 286.347 235.84C286.308 235.908 286.255 235.962 286.217 236.023C285.98 236.383 285.727 236.712 285.452 237.033C285.352 237.156 285.245 237.263 285.138 237.378C284.901 237.63 284.657 237.868 284.397 238.097C284.29 238.189 284.182 238.288 284.068 238.38C283.701 238.671 283.318 238.947 282.913 239.184L296.135 231.493C296.54 231.256 296.915 230.98 297.282 230.689C297.397 230.598 297.504 230.498 297.611 230.406C297.863 230.184 298.115 229.947 298.353 229.687C298.46 229.572 298.567 229.457 298.666 229.342C298.941 229.021 299.201 228.669 299.446 228.309C299.484 228.256 299.523 228.21 299.561 228.156C299.568 228.141 299.584 228.126 299.591 228.11C299.867 227.682 300.119 227.23 300.348 226.748C300.356 226.733 300.364 226.71 300.371 226.687C300.394 226.649 300.41 226.603 300.425 226.557C300.563 226.251 300.7 225.937 300.823 225.608C300.884 225.44 300.937 225.264 300.991 225.095C301.021 225.003 301.052 224.919 301.083 224.827C301.113 224.736 301.144 224.651 301.174 224.552C301.274 224.223 301.358 223.878 301.442 223.534C301.473 223.404 301.495 223.266 301.526 223.136C301.541 223.067 301.549 223.006 301.564 222.937C301.587 222.815 301.618 222.685 301.641 222.555C301.694 222.241 301.74 221.927 301.786 221.598C301.809 221.407 301.824 221.215 301.84 221.024C301.84 220.97 301.847 220.925 301.855 220.871C301.863 220.787 301.87 220.718 301.878 220.634C301.901 220.328 301.924 220.014 301.939 219.692C301.954 219.379 301.954 219.057 301.962 218.728V218.667L302.015 200.431C302.015 200.132 302.015 199.834 302.008 199.528L301.977 199.535Z" fill="#1AA8A8"/>
<path d="M230.396 186.219C230.48 186.204 230.564 186.196 230.648 186.181C231.069 186.127 231.505 186.097 231.956 186.104C232.01 186.104 232.056 186.104 232.101 186.104C232.591 186.12 233.103 186.166 233.623 186.257L235.619 185.094C235.458 185.064 235.298 185.041 235.145 185.018C234.916 184.987 234.694 184.964 234.472 184.949C234.35 184.941 234.227 184.941 234.105 184.934C234.051 184.934 234.006 184.934 233.952 184.934C233.891 184.934 233.83 184.934 233.768 184.934C233.508 184.934 233.248 184.949 232.996 184.972C232.881 184.98 232.767 185.002 232.652 185.025C232.568 185.033 232.484 185.048 232.4 185.064C232.316 185.079 232.224 185.087 232.132 185.102C231.818 185.163 231.513 185.255 231.214 185.347C231.176 185.362 231.13 185.37 231.1 185.377C231.092 185.377 231.084 185.377 231.077 185.377C230.648 185.53 230.228 185.722 229.845 185.951L227.85 187.115C228.247 186.885 228.668 186.694 229.104 186.541C229.142 186.525 229.188 186.518 229.226 186.502C229.601 186.38 229.998 186.28 230.404 186.219H230.396Z" fill="url(#paint8_linear_5582_9661)"/>
<path d="M250.12 195.234C249.822 195.41 249.508 195.548 249.179 195.67C249.072 195.709 248.965 195.747 248.858 195.778C248.728 195.816 248.59 195.862 248.453 195.892C248.3 195.923 248.147 195.961 247.986 195.984C247.917 195.984 247.856 195.999 247.787 196.015C247.55 196.038 247.313 196.053 247.076 196.053C247.046 196.053 247.007 196.053 246.977 196.053C246.724 196.053 246.472 196.022 246.22 195.984C246.197 195.984 246.174 195.984 246.151 195.969C245.876 195.923 245.6 195.862 245.325 195.778C245.325 195.778 245.325 195.778 245.317 195.778C245.034 195.693 244.736 195.586 244.446 195.456C244.438 195.456 244.43 195.448 244.415 195.441C244.117 195.311 243.819 195.158 243.513 194.982C243.138 194.767 242.763 194.515 242.396 194.239C242.381 194.224 242.358 194.216 242.343 194.201C241.983 193.933 241.631 193.635 241.287 193.313C241.272 193.298 241.249 193.283 241.234 193.26C240.897 192.946 240.561 192.602 240.232 192.242C240.209 192.211 240.179 192.188 240.156 192.158C239.827 191.79 239.506 191.408 239.192 191.01C239.177 190.979 239.154 190.956 239.131 190.933C238.84 190.566 238.565 190.176 238.29 189.778C238.251 189.717 238.206 189.663 238.167 189.609C238.106 189.51 238.045 189.41 237.976 189.311C237.693 188.882 237.418 188.446 237.15 187.995C236.906 187.582 236.669 187.168 236.439 186.74C236.431 186.717 236.416 186.701 236.409 186.679C236.133 186.158 235.873 185.638 235.621 185.102L233.625 186.265C233.74 186.502 233.854 186.747 233.969 186.985C234.114 187.275 234.26 187.566 234.413 187.849C234.413 187.857 234.428 187.872 234.428 187.88C234.634 188.263 234.841 188.645 235.063 189.02C235.093 189.074 235.131 189.127 235.162 189.181C235.407 189.602 235.667 190 235.927 190.398C235.996 190.505 236.064 190.62 236.133 190.719C236.149 190.742 236.164 190.757 236.171 190.773C236.202 190.819 236.24 190.865 236.271 190.91C236.439 191.155 236.607 191.408 236.783 191.637C236.898 191.79 237.02 191.951 237.143 192.104C237.158 192.12 237.166 192.135 237.181 192.15C237.196 192.173 237.211 192.188 237.227 192.211C237.357 192.372 237.479 192.533 237.609 192.686C237.731 192.831 237.854 192.969 237.976 193.114C238.037 193.191 238.106 193.252 238.167 193.329C238.183 193.352 238.198 193.367 238.221 193.39C238.259 193.428 238.297 193.474 238.328 193.512C238.45 193.642 238.573 193.765 238.687 193.895C238.81 194.017 238.932 194.14 239.054 194.255C239.108 194.308 239.169 194.362 239.223 194.415C239.246 194.438 239.269 194.454 239.291 194.477C239.337 194.515 239.376 194.553 239.421 194.599C239.544 194.706 239.659 194.813 239.781 194.913C239.896 195.012 240.018 195.112 240.133 195.204C240.194 195.257 240.263 195.303 240.331 195.357C240.347 195.372 240.362 195.387 240.385 195.395C240.408 195.418 240.439 195.441 240.469 195.456C240.584 195.54 240.691 195.617 240.798 195.693C240.905 195.762 241.012 195.839 241.119 195.908C241.226 195.976 241.326 196.038 241.433 196.099C241.456 196.114 241.479 196.13 241.501 196.137C241.578 196.183 241.662 196.229 241.739 196.267C241.838 196.321 241.937 196.374 242.044 196.428C242.144 196.482 242.251 196.527 242.35 196.573C242.366 196.573 242.389 196.589 242.404 196.596C242.419 196.596 242.434 196.612 242.45 196.612C242.519 196.642 242.587 196.673 242.664 196.703C242.771 196.742 242.87 196.78 242.977 196.818C243.084 196.857 243.191 196.887 243.299 196.925C243.299 196.925 243.314 196.925 243.321 196.925C243.321 196.925 243.321 196.925 243.337 196.925C243.436 196.956 243.536 196.979 243.635 197.01C243.75 197.04 243.872 197.063 243.987 197.086C244.04 197.094 244.109 197.109 244.163 197.117C244.186 197.117 244.209 197.117 244.231 197.124C244.27 197.132 244.316 197.14 244.354 197.147C244.491 197.17 244.621 197.178 244.751 197.186C244.828 197.186 244.904 197.186 244.973 197.193C245.011 197.193 245.05 197.193 245.088 197.193C245.119 197.193 245.157 197.193 245.187 197.193C245.356 197.193 245.524 197.186 245.692 197.17C245.723 197.17 245.761 197.155 245.791 197.155C245.86 197.155 245.921 197.14 245.983 197.124C246.082 197.109 246.174 197.101 246.273 197.086C246.334 197.071 246.403 197.048 246.464 197.033C246.594 197.002 246.732 196.964 246.862 196.925C246.931 196.902 247 196.895 247.069 196.872C247.107 196.857 247.145 196.826 247.191 196.818C247.512 196.696 247.826 196.558 248.124 196.382L250.12 195.219V195.234Z" fill="url(#paint9_linear_5582_9661)"/>
<path d="M261.505 215.758C261.505 215.521 261.49 215.276 261.474 215.031C261.459 214.786 261.436 214.542 261.413 214.297C261.39 214.052 261.367 213.807 261.329 213.554C261.329 213.554 261.329 213.554 261.329 213.539V213.524C261.298 213.287 261.268 213.049 261.23 212.804C261.191 212.567 261.153 212.338 261.107 212.1C261.107 212.085 261.107 212.07 261.1 212.047C261.1 212.047 261.1 212.047 261.1 212.039C261.054 211.779 261 211.519 260.939 211.259C260.893 211.044 260.84 210.83 260.786 210.616C260.786 210.6 260.778 210.578 260.778 210.562C260.771 210.532 260.763 210.509 260.755 210.478C260.687 210.21 260.618 209.95 260.541 209.682C260.496 209.521 260.45 209.368 260.404 209.208C260.381 209.146 260.366 209.085 260.35 209.024C260.335 208.978 260.327 208.932 260.312 208.894C260.228 208.634 260.151 208.366 260.06 208.106C260.014 207.968 259.968 207.83 259.922 207.7C259.907 207.647 259.884 207.601 259.868 207.547C259.845 207.478 259.823 207.417 259.8 207.348C259.708 207.103 259.616 206.851 259.524 206.606C259.471 206.476 259.417 206.346 259.371 206.215C259.348 206.162 259.333 206.116 259.31 206.062C259.287 206.001 259.257 205.94 259.234 205.879C259.134 205.642 259.035 205.404 258.928 205.167C258.867 205.029 258.805 204.899 258.744 204.761C258.721 204.708 258.698 204.654 258.668 204.601C258.645 204.547 258.614 204.494 258.591 204.44C258.469 204.18 258.347 203.927 258.224 203.675C258.171 203.568 258.117 203.461 258.064 203.353C258.018 203.262 257.972 203.177 257.926 203.086C257.873 202.978 257.819 202.864 257.758 202.756C257.658 202.565 257.544 202.382 257.437 202.19C257.337 202.014 257.238 201.831 257.131 201.647C257.1 201.593 257.07 201.532 257.031 201.471C256.978 201.379 256.917 201.295 256.863 201.203C256.573 200.721 256.274 200.246 255.968 199.78C255.915 199.703 255.869 199.611 255.815 199.535C255.77 199.466 255.716 199.397 255.67 199.328C255.51 199.091 255.341 198.869 255.181 198.632C255.081 198.494 254.99 198.356 254.89 198.218C254.814 198.119 254.745 198.027 254.668 197.928C254.6 197.836 254.531 197.744 254.454 197.652C254.393 197.568 254.324 197.476 254.255 197.392C254.064 197.147 253.865 196.902 253.667 196.665C253.651 196.642 253.628 196.627 253.613 196.604C253.56 196.543 253.514 196.489 253.46 196.428C253.338 196.282 253.215 196.137 253.093 195.992C252.933 195.8 252.757 195.617 252.588 195.433C252.565 195.402 252.535 195.372 252.504 195.341C252.305 195.119 252.099 194.905 251.893 194.698C251.747 194.545 251.594 194.4 251.449 194.254L249.453 195.418C249.82 195.77 250.18 196.145 250.531 196.527C250.539 196.527 250.547 196.543 250.554 196.55C250.875 196.895 251.189 197.254 251.503 197.622C251.541 197.667 251.579 197.706 251.61 197.752C251.9 198.096 252.183 198.456 252.458 198.808C252.535 198.907 252.604 199.007 252.68 199.106C252.856 199.336 253.024 199.573 253.193 199.81C253.353 200.024 253.506 200.246 253.659 200.468C253.774 200.637 253.881 200.813 253.995 200.981C254.301 201.44 254.592 201.907 254.875 202.382C254.959 202.527 255.043 202.665 255.127 202.802C255.242 202.994 255.349 203.193 255.456 203.392C255.617 203.675 255.77 203.958 255.915 204.241C255.961 204.341 256.014 204.44 256.068 204.532C256.282 204.945 256.481 205.366 256.68 205.787C256.695 205.818 256.71 205.856 256.725 205.894C256.924 206.338 257.115 206.782 257.299 207.226C257.322 207.279 257.345 207.333 257.368 207.386C257.544 207.823 257.712 208.266 257.865 208.703C257.888 208.756 257.903 208.81 257.918 208.863C258.079 209.307 258.224 209.759 258.354 210.203C258.37 210.256 258.385 210.31 258.4 210.363C258.53 210.815 258.66 211.266 258.767 211.718C258.767 211.756 258.783 211.794 258.79 211.825C259.142 213.287 259.371 214.741 259.463 216.156C259.463 216.156 259.463 216.164 259.463 216.172C259.494 216.654 259.509 217.128 259.509 217.603L259.494 223.748L261.49 222.585L261.505 216.439C261.505 216.218 261.505 215.988 261.497 215.758H261.505Z" fill="url(#paint10_linear_5582_9661)"/>
<path d="M249.446 195.403C255.326 201.15 259.547 210.027 259.524 217.595L259.509 223.74C254.11 222.378 247.977 219.845 241.47 216.08C234.97 212.323 228.837 207.777 223.453 202.902L223.468 196.757C223.491 189.181 227.743 185.209 233.639 186.258C235.658 190.558 238.449 194.347 241.523 196.13C244.605 197.905 247.404 197.339 249.453 195.395L249.446 195.403Z" fill="white"/>
<path d="M241.594 170.05C246.082 172.644 249.707 178.223 249.684 183.71C249.669 189.197 246.021 193.497 241.532 190.903C237.051 188.317 233.442 179.822 233.457 174.335C233.472 168.841 237.112 167.463 241.594 170.05Z" fill="white"/>
<path d="M251.67 182.148C251.67 182.002 251.655 181.857 251.647 181.712C251.647 181.658 251.64 181.597 251.632 181.543C251.632 181.528 251.632 181.513 251.632 181.497C251.632 181.428 251.624 181.36 251.617 181.291C251.602 181.153 251.586 181.015 251.571 180.877C251.556 180.755 251.54 180.625 251.517 180.495C251.517 180.495 251.517 180.495 251.517 180.487C251.517 180.487 251.517 180.472 251.517 180.464C251.494 180.326 251.472 180.196 251.449 180.059C251.426 179.921 251.395 179.783 251.364 179.653C251.349 179.607 251.342 179.561 251.326 179.508C251.326 179.485 251.319 179.462 251.311 179.431C251.296 179.37 251.28 179.301 251.265 179.24C251.234 179.102 251.196 178.972 251.158 178.834C251.127 178.712 251.089 178.589 251.051 178.459V178.444C251.013 178.321 250.974 178.191 250.929 178.069C250.89 177.946 250.844 177.816 250.799 177.694C250.776 177.625 250.745 177.564 250.722 177.495C250.722 177.48 250.714 177.472 250.714 177.457C250.699 177.418 250.684 177.38 250.669 177.342C250.63 177.227 250.584 177.112 250.531 176.998C250.485 176.883 250.432 176.768 250.386 176.653C250.37 176.615 250.347 176.577 250.332 176.538C250.324 176.515 250.317 176.5 250.309 176.477C250.286 176.424 250.263 176.362 250.233 176.309C250.172 176.179 250.11 176.056 250.049 175.926C249.988 175.804 249.919 175.681 249.858 175.559C249.85 175.544 249.843 175.528 249.835 175.513C249.713 175.283 249.59 175.061 249.453 174.84C249.43 174.801 249.407 174.771 249.384 174.732C249.292 174.579 249.193 174.434 249.101 174.289C249.024 174.166 248.948 174.036 248.864 173.914C248.841 173.875 248.81 173.845 248.787 173.806C248.749 173.753 248.719 173.707 248.68 173.653C248.596 173.539 248.52 173.424 248.436 173.317C248.329 173.171 248.229 173.033 248.114 172.896C248.007 172.766 247.908 172.636 247.801 172.513C247.702 172.391 247.602 172.276 247.503 172.161C247.495 172.146 247.48 172.13 247.464 172.115C247.373 172.016 247.281 171.909 247.189 171.809C247.082 171.687 246.967 171.572 246.853 171.457C246.83 171.426 246.799 171.403 246.769 171.373C246.753 171.358 246.746 171.342 246.73 171.327C246.654 171.25 246.57 171.174 246.493 171.09C246.371 170.975 246.249 170.852 246.119 170.738C246.096 170.715 246.065 170.692 246.042 170.669C246.019 170.653 245.996 170.631 245.973 170.608C245.889 170.531 245.805 170.462 245.721 170.393C245.591 170.279 245.453 170.171 245.316 170.064C245.293 170.041 245.27 170.026 245.247 170.011C245.232 170.003 245.224 169.988 245.209 169.98C245.109 169.904 245.01 169.827 244.91 169.75C244.78 169.651 244.643 169.559 244.505 169.46C244.482 169.444 244.459 169.429 244.436 169.414C244.429 169.406 244.413 169.398 244.398 169.391C244.299 169.322 244.199 169.253 244.092 169.192C243.962 169.108 243.824 169.023 243.687 168.939C243.656 168.924 243.626 168.901 243.595 168.886C243.488 168.825 243.389 168.771 243.289 168.717C243.159 168.641 243.029 168.572 242.892 168.511C242.853 168.488 242.807 168.472 242.762 168.45C242.731 168.434 242.7 168.419 242.67 168.404C242.616 168.381 242.563 168.358 242.509 168.327C242.387 168.274 242.264 168.22 242.134 168.166C242.058 168.136 241.989 168.113 241.913 168.082C241.89 168.075 241.867 168.067 241.844 168.052C241.821 168.044 241.798 168.036 241.775 168.029C241.653 167.983 241.53 167.944 241.416 167.906C241.293 167.868 241.179 167.837 241.056 167.807C241.056 167.807 241.056 167.807 241.049 167.807C240.926 167.776 240.812 167.753 240.697 167.73C240.574 167.707 240.452 167.684 240.33 167.669C240.322 167.669 240.307 167.669 240.292 167.669C240.276 167.669 240.261 167.669 240.238 167.669C240.146 167.661 240.047 167.646 239.955 167.638C239.825 167.631 239.695 167.623 239.573 167.623H239.55C239.55 167.623 239.512 167.623 239.489 167.623C239.382 167.623 239.274 167.623 239.167 167.638C239.083 167.646 239.007 167.661 238.923 167.677C238.877 167.677 238.839 167.684 238.8 167.692C238.777 167.692 238.754 167.692 238.731 167.7C238.548 167.738 238.372 167.784 238.204 167.845C237.997 167.914 237.799 168.006 237.615 168.12L235.619 169.284C235.81 169.177 236.001 169.085 236.208 169.008C236.399 168.939 236.598 168.893 236.804 168.855C236.843 168.847 236.889 168.84 236.927 168.84C237.118 168.809 237.309 168.794 237.508 168.786C237.523 168.786 237.539 168.786 237.546 168.786C237.768 168.786 237.997 168.802 238.234 168.825C238.257 168.825 238.273 168.825 238.288 168.825C238.785 168.886 239.305 169.023 239.84 169.215C239.863 169.215 239.879 169.23 239.894 169.238C240.146 169.33 240.406 169.444 240.666 169.567C240.689 169.574 240.72 169.59 240.743 169.605C241.018 169.735 241.293 169.881 241.584 170.049C241.852 170.202 242.112 170.37 242.372 170.539C242.394 170.554 242.417 170.569 242.433 170.577C242.677 170.745 242.922 170.921 243.159 171.105C243.19 171.128 243.213 171.143 243.243 171.166C243.48 171.35 243.71 171.541 243.939 171.748C243.962 171.771 243.993 171.794 244.023 171.817C244.245 172.016 244.467 172.23 244.689 172.444C244.712 172.475 244.742 172.498 244.773 172.521C244.994 172.743 245.209 172.972 245.415 173.202C245.438 173.225 245.453 173.24 245.469 173.263C245.882 173.738 246.272 174.235 246.646 174.748C246.692 174.817 246.746 174.885 246.792 174.954C246.876 175.077 246.96 175.214 247.044 175.345C247.159 175.521 247.266 175.689 247.373 175.873C247.533 176.133 247.679 176.401 247.824 176.668C247.839 176.691 247.847 176.714 247.854 176.737C248.007 177.021 248.145 177.311 248.283 177.61C248.29 177.633 248.306 177.656 248.313 177.679C248.451 177.977 248.573 178.283 248.696 178.589C248.703 178.612 248.719 178.643 248.719 178.666C248.833 178.98 248.948 179.293 249.04 179.607V179.622C249.132 179.936 249.223 180.258 249.3 180.579C249.3 180.602 249.307 180.633 249.315 180.656C249.392 180.985 249.453 181.306 249.506 181.635C249.506 181.635 249.506 181.643 249.506 181.65C249.56 181.972 249.59 182.286 249.621 182.607C249.621 182.645 249.621 182.683 249.629 182.722C249.652 183.043 249.667 183.372 249.667 183.694C249.667 184.084 249.644 184.467 249.606 184.849C249.606 184.895 249.598 184.941 249.59 184.987C249.552 185.331 249.499 185.676 249.43 186.005C249.422 186.051 249.407 186.097 249.407 186.135C249.338 186.464 249.246 186.778 249.154 187.084C249.132 187.153 249.109 187.214 249.086 187.283C249.002 187.543 248.902 187.788 248.795 188.033C248.772 188.102 248.742 188.17 248.711 188.232C248.619 188.423 248.512 188.607 248.413 188.79C248.352 188.897 248.298 189.02 248.229 189.119C248.069 189.372 247.9 189.609 247.717 189.831C247.671 189.885 247.617 189.938 247.572 189.999C247.426 190.16 247.273 190.313 247.113 190.459C247.052 190.512 246.998 190.566 246.937 190.612C246.723 190.788 246.509 190.948 246.279 191.078L248.275 189.915C248.504 189.785 248.719 189.624 248.933 189.448C248.994 189.395 249.055 189.341 249.116 189.288C249.269 189.15 249.414 188.997 249.56 188.844C249.613 188.783 249.667 188.721 249.72 188.66C249.896 188.446 250.057 188.224 250.21 187.987C250.21 187.979 250.217 187.971 250.217 187.964C250.294 187.849 250.355 187.711 250.424 187.589C250.516 187.436 250.6 187.29 250.684 187.122C250.692 187.099 250.699 187.084 250.707 187.061C250.737 187 250.76 186.931 250.791 186.869C250.86 186.709 250.936 186.548 250.997 186.38C251.028 186.296 251.051 186.211 251.082 186.127C251.104 186.058 251.127 185.982 251.15 185.913C251.173 185.844 251.196 185.783 251.219 185.714C251.273 185.515 251.326 185.316 251.38 185.109C251.387 185.063 251.395 185.018 251.403 184.972C251.41 184.933 251.418 184.895 251.426 184.849C251.449 184.75 251.472 184.643 251.487 184.543C251.517 184.367 251.54 184.183 251.571 184C251.571 183.931 251.579 183.862 251.586 183.793C251.586 183.762 251.586 183.74 251.594 183.701C251.594 183.632 251.609 183.564 251.617 183.487C251.632 183.334 251.64 183.173 251.647 183.013C251.655 182.859 251.663 182.706 251.663 182.546V182.515C251.663 182.377 251.663 182.247 251.663 182.11L251.67 182.148Z" fill="url(#paint11_linear_5582_9661)"/>
<defs>
<linearGradient id="paint0_linear_5582_9661" x1="152.947" y1="82.6254" x2="164.96" y2="82.6254" gradientUnits="userSpaceOnUse">
<stop stop-color="#F2F2F2"/>
<stop offset="1" stop-color="#D3D3D3"/>
</linearGradient>
<linearGradient id="paint1_linear_5582_9661" x1="161.891" y1="90.5445" x2="187.357" y2="90.5445" gradientUnits="userSpaceOnUse">
<stop stop-color="#F2F2F2"/>
<stop offset="1" stop-color="#D3D3D3"/>
</linearGradient>
<linearGradient id="paint2_linear_5582_9661" x1="186.316" y1="118.099" x2="204.956" y2="118.099" gradientUnits="userSpaceOnUse">
<stop stop-color="#F2F2F2"/>
<stop offset="1" stop-color="#D3D3D3"/>
</linearGradient>
<linearGradient id="paint3_linear_5582_9661" x1="164.949" y1="72.3292" x2="189.766" y2="72.3292" gradientUnits="userSpaceOnUse">
<stop stop-color="#F2F2F2"/>
<stop offset="1" stop-color="#D3D3D3"/>
</linearGradient>
<linearGradient id="paint4_linear_5582_9661" x1="67.1974" y1="163.569" x2="74.9745" y2="163.569" gradientUnits="userSpaceOnUse">
<stop stop-color="#F2F2F2"/>
<stop offset="1" stop-color="#D3D3D3"/>
</linearGradient>
<linearGradient id="paint5_linear_5582_9661" x1="72.9881" y1="168.697" x2="89.4752" y2="168.697" gradientUnits="userSpaceOnUse">
<stop stop-color="#F2F2F2"/>
<stop offset="1" stop-color="#D3D3D3"/>
</linearGradient>
<linearGradient id="paint6_linear_5582_9661" x1="88.8009" y1="186.535" x2="100.868" y2="186.535" gradientUnits="userSpaceOnUse">
<stop stop-color="#F2F2F2"/>
<stop offset="1" stop-color="#D3D3D3"/>
</linearGradient>
<linearGradient id="paint7_linear_5582_9661" x1="74.967" y1="156.904" x2="91.0335" y2="156.904" gradientUnits="userSpaceOnUse">
<stop stop-color="#F2F2F2"/>
<stop offset="1" stop-color="#D3D3D3"/>
</linearGradient>
<linearGradient id="paint8_linear_5582_9661" x1="227.842" y1="186.028" x2="235.619" y2="186.028" gradientUnits="userSpaceOnUse">
<stop stop-color="#F2F2F2"/>
<stop offset="1" stop-color="#D3D3D3"/>
</linearGradient>
<linearGradient id="paint9_linear_5582_9661" x1="233.633" y1="191.155" x2="250.12" y2="191.155" gradientUnits="userSpaceOnUse">
<stop stop-color="#F2F2F2"/>
<stop offset="1" stop-color="#D3D3D3"/>
</linearGradient>
<linearGradient id="paint10_linear_5582_9661" x1="249.445" y1="208.993" x2="261.513" y2="208.993" gradientUnits="userSpaceOnUse">
<stop stop-color="#F2F2F2"/>
<stop offset="1" stop-color="#D3D3D3"/>
</linearGradient>
<linearGradient id="paint11_linear_5582_9661" x1="235.611" y1="179.362" x2="251.678" y2="179.362" gradientUnits="userSpaceOnUse">
<stop stop-color="#F2F2F2"/>
<stop offset="1" stop-color="#D3D3D3"/>
</linearGradient>
</defs>
</svg>
