<svg width="1440" height="360" viewBox="0 0 1440 360" fill="none" xmlns="http://www.w3.org/2000/svg">
<mask id="mask0_8128_19151" style="mask-type:luminance" maskUnits="userSpaceOnUse" x="0" y="0" width="1440" height="360">
<path d="M1440 0H0V360H1440V0Z" fill="white"/>
</mask>
<g mask="url(#mask0_8128_19151)">
<path d="M1254.09 49.3702L1165.05 100.822V-2.09549L1254.09 -53.5478V49.3702Z" fill="black" stroke="white" stroke-width="0.5" stroke-linecap="round" stroke-linejoin="round"/>
<path d="M1165.05 -2.09549V100.822L1076 49.3702V-53.5478L1165.05 -2.09549Z" fill="black" stroke="white" stroke-width="0.5" stroke-linecap="round" stroke-linejoin="round"/>
<path d="M1143 13.1663L1053.95 64.6186L964.906 13.1663L1053.95 -38.2859L1143 13.1663Z" fill="black" stroke="white" stroke-width="0.5" stroke-linecap="round" stroke-linejoin="round"/>
<path d="M1143 116.071L1053.95 167.523V64.6186L1143 13.1663V116.071Z" fill="black" stroke="white" stroke-width="0.5" stroke-linecap="round" stroke-linejoin="round"/>
<path d="M1053.95 64.6186V167.523L964.906 116.084V13.1663L1053.95 64.6186Z" fill="black" stroke="white" stroke-width="0.5" stroke-linecap="round" stroke-linejoin="round"/>
<path d="M364.094 -49.5477L275.047 1.90453L186 -49.5477L275.047 -101L364.094 -49.5477Z" fill="black" stroke="white" stroke-width="0.5" stroke-linecap="round" stroke-linejoin="round"/>
<path d="M364.094 53.3568L275.047 104.809V1.90455L364.094 -49.5477V53.3568Z" fill="black" stroke="white" stroke-width="0.5" stroke-linecap="round" stroke-linejoin="round"/>
<path d="M275.047 1.90455V104.809L186 53.3702V-49.5477L275.047 1.90455Z" fill="black" stroke="white" stroke-width="0.5" stroke-linecap="round" stroke-linejoin="round"/>
<path d="M1143 -12.6604L1053.95 38.7919V-64.1261L1143 -115.578V-12.6604Z" fill="black" stroke="white" stroke-width="0.5" stroke-linecap="round" stroke-linejoin="round"/>
<path d="M1053.95 -64.1261V38.7919L964.906 -12.6604V-115.578L1053.95 -64.1261Z" fill="black" stroke="white" stroke-width="0.5" stroke-linecap="round" stroke-linejoin="round"/>
<path d="M1032.09 77.4523L943.047 128.905L854 77.4523L943.047 26L1032.09 77.4523Z" fill="black" stroke="white" stroke-width="0.5" stroke-linecap="round" stroke-linejoin="round"/>
<path d="M1032.09 180.357L943.047 231.809V128.905L1032.09 77.4523V180.357Z" fill="black" stroke="white" stroke-width="0.5" stroke-linecap="round" stroke-linejoin="round"/>
<path d="M943.047 128.905V231.809L854 180.357V77.4523L943.047 128.905Z" fill="black" stroke="white" stroke-width="0.5" stroke-linecap="round" stroke-linejoin="round"/>
<path d="M1031.67 -51.4675L942.624 -0.0152664L853.577 -51.4675L942.624 -102.92L1031.67 -51.4675Z" fill="black" stroke="white" stroke-width="0.5" stroke-linecap="round" stroke-linejoin="round"/>
<path d="M1031.67 51.4505L942.624 102.903V-0.0152283L1031.67 -51.4675V51.4505Z" fill="black" stroke="white" stroke-width="0.5" stroke-linecap="round" stroke-linejoin="round"/>
<path d="M942.624 -0.0152283V102.903L853.577 51.4505V-51.4675L942.624 -0.0152283Z" fill="black" stroke="white" stroke-width="0.5" stroke-linecap="round" stroke-linejoin="round"/>
<path d="M920.342 141.602L831.295 193.055L742.248 141.616L831.295 90.1502L920.342 141.602Z" fill="black" stroke="white" stroke-width="0.5" stroke-linecap="round" stroke-linejoin="round"/>
<path d="M920.342 244.52L831.295 295.973V193.055L920.342 141.602V244.52Z" fill="black" stroke="white" stroke-width="0.5" stroke-linecap="round" stroke-linejoin="round"/>
<path d="M831.295 193.055V295.973L742.248 244.52V141.616L831.295 193.055Z" fill="black" stroke="white" stroke-width="0.5" stroke-linecap="round" stroke-linejoin="round"/>
<path d="M920.342 12.8713L831.295 64.3235L742.248 12.8713L831.295 -38.581L920.342 12.8713Z" fill="black" stroke="white" stroke-width="0.5" stroke-linecap="round" stroke-linejoin="round"/>
<path d="M920.342 115.776L831.295 167.228V64.3235L920.342 12.8713V115.776Z" fill="black" stroke="white" stroke-width="0.5" stroke-linecap="round" stroke-linejoin="round"/>
<path d="M831.295 64.3235V167.228L742.248 115.776V12.8713L831.295 64.3235Z" fill="black" stroke="white" stroke-width="0.5" stroke-linecap="round" stroke-linejoin="round"/>
<path d="M920.342 -12.8347L831.295 38.6176V-64.3004L920.342 -115.753V-12.8347Z" fill="black" stroke="white" stroke-width="0.5" stroke-linecap="round" stroke-linejoin="round"/>
<path d="M831.295 -64.3004V38.6176L742.248 -12.8347V-115.753L831.295 -64.3004Z" fill="black" stroke="white" stroke-width="0.5" stroke-linecap="round" stroke-linejoin="round"/>
<path d="M475.094 12.8578L386.047 64.3101L297 12.8578L386.047 -38.5944L475.094 12.8578Z" fill="black" stroke="white" stroke-width="0.5" stroke-linecap="round" stroke-linejoin="round"/>
<path d="M475.094 115.776L386.047 167.228V64.3101L475.094 12.8578V115.776Z" fill="black" stroke="white" stroke-width="0.5" stroke-linecap="round" stroke-linejoin="round"/>
<path d="M386.047 64.3101V167.228L297 115.776V12.8578L386.047 64.3101Z" fill="black" stroke="white" stroke-width="0.5" stroke-linecap="round" stroke-linejoin="round"/>
<path d="M475.094 -12.9689L386.047 38.4834V-64.4212L475.094 -115.873V-12.9689Z" fill="black" stroke="white" stroke-width="0.5" stroke-linecap="round" stroke-linejoin="round"/>
<path d="M386.047 -64.4212V38.4834L297 -12.9689V-115.873L386.047 -64.4212Z" fill="black" stroke="white" stroke-width="0.5" stroke-linecap="round" stroke-linejoin="round"/>
<path d="M586.409 77.1699L497.362 128.622L408.315 77.1699L497.349 25.7176L586.409 77.1699Z" fill="black" stroke="white" stroke-width="0.5" stroke-linecap="round" stroke-linejoin="round"/>
<path d="M586.409 180.088L497.362 231.54V128.622L586.409 77.1698V180.088Z" fill="black" stroke="white" stroke-width="0.5" stroke-linecap="round" stroke-linejoin="round"/>
<path d="M497.362 128.622V231.54L408.315 180.088V77.1698L497.362 128.622Z" fill="black" stroke="white" stroke-width="0.5" stroke-linecap="round" stroke-linejoin="round"/>
<path d="M586.409 -51.5748L497.362 -0.122505L408.315 -51.5748L497.349 -103.027L586.409 -51.5748Z" fill="black" stroke="white" stroke-width="0.5" stroke-linecap="round" stroke-linejoin="round"/>
<path d="M586.409 51.3432L497.362 102.795V-0.12254L586.409 -51.5748V51.3432Z" fill="black" stroke="white" stroke-width="0.5" stroke-linecap="round" stroke-linejoin="round"/>
<path d="M497.362 -0.12254V102.795L408.315 51.3432V-51.5748L497.362 -0.12254Z" fill="black" stroke="white" stroke-width="0.5" stroke-linecap="round" stroke-linejoin="round"/>
<path d="M697.725 141.602L608.678 193.055L519.631 141.602L608.678 90.1502L697.725 141.602Z" fill="black" stroke="white" stroke-width="0.5" stroke-linecap="round" stroke-linejoin="round"/>
<path d="M697.725 244.52L608.678 295.973V193.055L697.725 141.602V244.52Z" fill="black" stroke="white" stroke-width="0.5" stroke-linecap="round" stroke-linejoin="round"/>
<path d="M608.678 193.055V295.973L519.631 244.52V141.602L608.678 193.055Z" fill="black" stroke="white" stroke-width="0.5" stroke-linecap="round" stroke-linejoin="round"/>
<path d="M697.725 12.8578L608.678 64.3101L519.631 12.8578L608.678 -38.5944L697.725 12.8578Z" fill="black" stroke="white" stroke-width="0.5" stroke-linecap="round" stroke-linejoin="round"/>
<path d="M697.725 115.776L608.678 167.228V64.3101L697.725 12.8578V115.776Z" fill="black" stroke="white" stroke-width="0.5" stroke-linecap="round" stroke-linejoin="round"/>
<path d="M608.678 64.3101V167.228L519.631 115.776V12.8578L608.678 64.3101Z" fill="black" stroke="white" stroke-width="0.5" stroke-linecap="round" stroke-linejoin="round"/>
<path d="M809.04 205.914L719.993 257.367L630.933 205.914L719.98 154.462L809.04 205.914Z" fill="#F35048"/>
<path d="M809.04 308.819L719.993 360.271V257.367L809.04 205.914V308.819Z" fill="#DC150B"/>
<path d="M719.993 257.367V360.271L630.933 308.832V205.914L719.993 257.367Z" fill="#87120C"/>
<path d="M809.04 77.1699L719.993 128.622L630.933 77.1699L719.98 25.7176L809.04 77.1699Z" fill="black" stroke="white" stroke-width="0.5" stroke-linecap="round" stroke-linejoin="round"/>
<path d="M809.04 180.088L719.993 231.54V128.622L809.04 77.1698V180.088Z" fill="black" stroke="white" stroke-width="0.5" stroke-linecap="round" stroke-linejoin="round"/>
<path d="M719.993 128.622V231.54L630.933 180.088V77.1698L719.993 128.622Z" fill="black" stroke="white" stroke-width="0.5" stroke-linecap="round" stroke-linejoin="round"/>
<path d="M697.725 -12.8481L608.678 38.6042V-64.3004L697.725 -115.753V-12.8481Z" fill="black" stroke="white" stroke-width="0.5" stroke-linecap="round" stroke-linejoin="round"/>
<path d="M608.678 -64.3004V38.6042L519.631 -12.8481V-115.753L608.678 -64.3004Z" fill="black" stroke="white" stroke-width="0.5" stroke-linecap="round" stroke-linejoin="round"/>
<path d="M809.04 -51.4542L719.993 -0.00189972L630.933 -51.4542L719.98 -102.906L809.04 -51.4542Z" fill="black" stroke="white" stroke-width="0.5" stroke-linecap="round" stroke-linejoin="round"/>
<path d="M809.04 51.4638L719.993 102.916V-0.00190353L809.04 -51.4542V51.4638Z" fill="black" stroke="white" stroke-width="0.5" stroke-linecap="round" stroke-linejoin="round"/>
<path d="M719.993 -0.00190353V102.916L630.933 51.4638V-51.4542L719.993 -0.00190353Z" fill="black" stroke="white" stroke-width="0.5" stroke-linecap="round" stroke-linejoin="round"/>
</g>
</svg>
