<svg width="444" height="554" viewBox="0 0 444 554" fill="none" xmlns="http://www.w3.org/2000/svg">
<g clip-path="url(#clip0_4673_8148)">
<mask id="mask0_4673_8148" style="mask-type:luminance" maskUnits="userSpaceOnUse" x="0" y="0" width="444" height="554">
<path d="M443.11 0H0V553.92H443.11V0Z" fill="white"/>
</mask>
<g mask="url(#mask0_4673_8148)">
<path d="M350.22 71.5804L349.82 70.8804L358.04 66.1304L358.44 66.8304L350.22 71.5804ZM366.66 62.0904L366.26 61.3904L374.48 56.6404L374.88 57.3404L366.66 62.0904ZM383.11 52.6004L382.71 51.9004L390.93 47.1504L391.33 47.8504L383.11 52.6004ZM399.55 43.1004L399.15 42.4004L407.37 37.6504L407.77 38.3504L399.55 43.1004ZM415.99 33.6104L415.59 32.9104L423.81 28.1604L424.21 28.8604L415.99 33.6104ZM432.43 24.1204L432.03 23.4204L440.25 18.6704L440.65 19.3704L432.43 24.1204Z" fill="white"/>
<path d="M341.597 75.6119L337.415 78.0283L337.82 78.7297L342.002 76.3132L341.597 75.6119Z" fill="white"/>
<path d="M350.22 71.5804L349.82 70.8804L358.04 66.1304L358.44 66.8304L350.22 71.5804ZM366.66 62.0904L366.26 61.3904L374.48 56.6404L374.88 57.3404L366.66 62.0904ZM383.11 52.6004L382.71 51.9004L390.93 47.1504L391.33 47.8504L383.11 52.6004ZM399.55 43.1004L399.15 42.4004L407.37 37.6504L407.77 38.3504L399.55 43.1004ZM415.99 33.6104L415.59 32.9104L423.81 28.1604L424.21 28.8604L415.99 33.6104ZM432.43 24.1204L432.03 23.4204L440.25 18.6704L440.65 19.3704L432.43 24.1204Z" fill="white"/>
<path d="M341.597 75.6119L337.415 78.0283L337.82 78.7297L342.002 76.3132L341.597 75.6119Z" fill="white"/>
<path d="M222.79 11.3804H221.98V16.2104H222.79V11.3804Z" fill="white"/>
<path d="M222.79 130.12H221.98V120.63H222.79V130.12ZM222.79 111.14H221.98V101.65H222.79V111.14ZM222.79 92.1505H221.98V82.6605H222.79V92.1505ZM222.79 73.1704H221.98V63.6805H222.79V73.1704ZM222.79 54.1805H221.98V44.6904H222.79V54.1805ZM222.79 35.2005H221.98V25.7104H222.79V35.2005Z" fill="white"/>
<path d="M222.79 139.61H221.98V144.44H222.79V139.61Z" fill="white"/>
<path d="M222.79 411.57H221.98V416.4H222.79V411.57Z" fill="white"/>
<path d="M222.79 651.95H221.98V642.14H222.79V651.95ZM222.79 632.33H221.98V622.52H222.79V632.33ZM222.79 612.7H221.98V602.88H222.79V612.7ZM222.79 593.07H221.98V583.26H222.79V593.07ZM222.79 573.44H221.98V563.63H222.79V573.44ZM222.79 553.81H221.98V544H222.79V553.81ZM222.79 534.18H221.98V524.37H222.79V534.18ZM222.79 514.55H221.98V504.74H222.79V514.55ZM222.79 494.92H221.98V485.11H222.79V494.92ZM222.79 475.29H221.98V465.48H222.79V475.29ZM222.79 455.66H221.98V445.84H222.79V455.66ZM222.79 436.03H221.98V426.22H222.79V436.03Z" fill="white"/>
<path d="M107.12 344.54H106.31V349.37H107.12V344.54Z" fill="white"/>
<path d="M107.12 463.28H106.31V453.79H107.12V463.28ZM107.12 444.29H106.31V434.8H107.12V444.29ZM107.12 425.31H106.31V415.82H107.12V425.31ZM107.12 406.32H106.31V396.83H107.12V406.32ZM107.12 387.34H106.31V377.85H107.12V387.34ZM107.12 368.35H106.31V358.86H107.12V368.35Z" fill="white"/>
<path d="M107.12 472.77H106.31V477.6H107.12V472.77Z" fill="white"/>
<path d="M107.12 477.57H106.31V482.4H107.12V477.57Z" fill="white"/>
<path d="M107.12 596.31H106.31V586.82H107.12V596.31ZM107.12 577.32H106.31V567.83H107.12V577.32ZM107.12 558.34H106.31V548.85H107.12V558.34ZM107.12 539.35H106.31V529.86H107.12V539.35ZM107.12 520.37H106.31V510.88H107.12V520.37ZM107.12 501.38H106.31V491.89H107.12V501.38Z" fill="white"/>
<path d="M337.82 477.57H337.01V482.4H337.82V477.57Z" fill="white"/>
<path d="M337.82 596.31H337.01V586.82H337.82V596.31ZM337.82 577.32H337.01V567.83H337.82V577.32ZM337.82 558.34H337.01V548.85H337.82V558.34ZM337.82 539.35H337.01V529.86H337.82V539.35ZM337.82 520.37H337.01V510.88H337.82V520.37ZM337.82 501.38H337.01V491.89H337.82V501.38Z" fill="white"/>
<path d="M107.12 77.9102H106.31V82.7402H107.12V77.9102Z" fill="white"/>
<path d="M107.12 196.65H106.31V187.16H107.12V196.65ZM107.12 177.67H106.31V168.18H107.12V177.67ZM107.12 158.68H106.31V149.19H107.12V158.68ZM107.12 139.7H106.31V130.21H107.12V139.7ZM107.12 120.71H106.31V111.22H107.12V120.71ZM107.12 101.73H106.31V92.2402H107.12V101.73Z" fill="white"/>
<path d="M107.12 206.14H106.31V210.97H107.12V206.14Z" fill="white"/>
<path d="M107.12 63.5902H106.31V54.1002H107.12V63.5902ZM107.12 44.6102H106.31V35.1202H107.12V44.6102ZM107.12 25.6202H106.31V16.1302H107.12V25.6202ZM107.12 6.64017H106.31V-2.85983H107.12V6.64017ZM107.12 -12.3498H106.31V-21.8398H107.12V-12.3498ZM107.12 -31.3298H106.31V-40.8198H107.12V-31.3298Z" fill="white"/>
<path d="M107.12 73.0801H106.31V77.9101H107.12V73.0801Z" fill="white"/>
<path d="M337.41 78.0332L333.228 80.4497L333.633 81.1511L337.815 78.7346L337.41 78.0332Z" fill="white"/>
<path d="M234.99 138.11L234.59 137.41L242.81 132.66L243.21 133.36L234.99 138.11ZM251.43 128.62L251.03 127.92L259.25 123.17L259.65 123.87L251.43 128.62ZM267.87 119.13L267.47 118.43L275.69 113.68L276.09 114.38L267.87 119.13ZM284.31 109.63L283.91 108.93L292.13 104.18L292.53 104.88L284.31 109.63ZM300.75 100.14L300.35 99.4402L308.57 94.6902L308.97 95.3902L300.75 100.14ZM317.2 90.6502L316.8 89.9502L325.02 85.2002L325.42 85.9002L317.2 90.6502Z" fill="white"/>
<path d="M226.361 142.151L222.179 144.568L222.584 145.269L226.767 142.853L226.361 142.151Z" fill="white"/>
<path d="M337.41 78.0332L333.228 80.4497L333.633 81.1511L337.815 78.7346L337.41 78.0332Z" fill="white"/>
<path d="M234.99 138.11L234.59 137.41L242.81 132.66L243.21 133.36L234.99 138.11ZM251.43 128.62L251.03 127.92L259.25 123.17L259.65 123.87L251.43 128.62ZM267.87 119.13L267.47 118.43L275.69 113.68L276.09 114.38L267.87 119.13ZM284.31 109.63L283.91 108.93L292.13 104.18L292.53 104.88L284.31 109.63ZM300.75 100.14L300.35 99.4402L308.57 94.6902L308.97 95.3902L300.75 100.14ZM317.2 90.6502L316.8 89.9502L325.02 85.2002L325.42 85.9002L317.2 90.6502Z" fill="white"/>
<path d="M226.361 142.151L222.179 144.568L222.584 145.269L226.767 142.853L226.361 142.151Z" fill="white"/>
<path d="M333.623 208.652L333.218 209.354L337.402 211.768L337.806 211.066L333.623 208.652Z" fill="white"/>
<path d="M325.01 204.64L316.79 199.89L317.19 199.19L325.41 203.94L325.01 204.64ZM308.57 195.15L300.35 190.4L300.75 189.7L308.97 194.45L308.57 195.15ZM292.13 185.66L283.91 180.91L284.31 180.21L292.53 184.96L292.13 185.66ZM275.69 176.16L267.47 171.41L267.87 170.71L276.09 175.46L275.69 176.16ZM259.25 166.67L251.03 161.92L251.43 161.22L259.65 165.97L259.25 166.67ZM242.81 157.18L234.59 152.43L234.99 151.73L243.21 156.48L242.81 157.18Z" fill="white"/>
<path d="M222.575 144.552L222.17 145.254L226.353 147.668L226.758 146.967L222.575 144.552Z" fill="white"/>
<path d="M350.22 204.64L349.82 203.94L358.04 199.19L358.44 199.89L350.22 204.64ZM366.66 195.15L366.26 194.45L374.48 189.7L374.88 190.4L366.66 195.15ZM383.11 185.66L382.71 184.96L390.93 180.21L391.33 180.91L383.11 185.66ZM399.55 176.16L399.15 175.46L407.37 170.71L407.77 171.41L399.55 176.16ZM415.99 166.67L415.59 165.97L423.81 161.22L424.21 161.92L415.99 166.67ZM432.43 157.18L432.03 156.48L440.25 151.73L440.65 152.43L432.43 157.18Z" fill="white"/>
<path d="M341.607 208.672L337.425 211.088L337.83 211.79L342.012 209.373L341.607 208.672Z" fill="white"/>
<path d="M350.22 204.64L349.82 203.94L358.04 199.19L358.44 199.89L350.22 204.64ZM366.66 195.15L366.26 194.45L374.48 189.7L374.88 190.4L366.66 195.15ZM383.11 185.66L382.71 184.96L390.93 180.21L391.33 180.91L383.11 185.66ZM399.55 176.16L399.15 175.46L407.37 170.71L407.77 171.41L399.55 176.16ZM415.99 166.67L415.59 165.97L423.81 161.22L424.21 161.92L415.99 166.67ZM432.43 157.18L432.03 156.48L440.25 151.73L440.65 152.43L432.43 157.18Z" fill="white"/>
<path d="M341.607 208.672L337.425 211.088L337.83 211.79L342.012 209.373L341.607 208.672Z" fill="white"/>
<path d="M338.46 77.9102H337.65V82.7402H338.46V77.9102Z" fill="white"/>
<path d="M338.46 196.65H337.65V187.16H338.46V196.65ZM338.46 177.67H337.65V168.18H338.46V177.67ZM338.46 158.68H337.65V149.19H338.46V158.68ZM338.46 139.7H337.65V130.21H338.46V139.7ZM338.46 120.71H337.65V111.22H338.46V120.71ZM338.46 101.73H337.65V92.2402H338.46V101.73Z" fill="white"/>
<path d="M338.46 206.14H337.65V210.97H338.46V206.14Z" fill="white"/>
<path d="M338.46 63.5902H337.65V54.1002H338.46V63.5902ZM338.46 44.6102H337.65V35.1202H338.46V44.6102ZM338.46 25.6202H337.65V16.1302H338.46V25.6202ZM338.46 6.64017H337.65V-2.85983H338.46V6.64017ZM338.46 -12.3498H337.65V-21.8398H338.46V-12.3498ZM338.46 -31.3298H337.65V-40.8198H338.46V-31.3298Z" fill="white"/>
<path d="M338.46 73.0801H337.65V77.9101H338.46V73.0801Z" fill="white"/>
<path d="M440.25 271.17L432.03 266.42L432.43 265.72L440.65 270.47L440.25 271.17ZM423.8 261.68L415.58 256.93L415.98 256.23L424.2 260.98L423.8 261.68ZM407.36 252.19L399.14 247.44L399.54 246.74L407.76 251.49L407.36 252.19ZM390.92 242.69L382.7 237.94L383.1 237.24L391.32 241.99L390.92 242.69ZM374.48 233.2L366.26 228.45L366.66 227.75L374.88 232.5L374.48 233.2ZM358.04 223.71L349.82 218.96L350.22 218.26L358.44 223.01L358.04 223.71Z" fill="white"/>
<path d="M337.812 211.073L337.407 211.774L341.59 214.189L341.995 213.488L337.812 211.073Z" fill="white"/>
<path d="M106.525 211.104L102.343 213.52L102.748 214.221L106.93 211.805L106.525 211.104Z" fill="white"/>
<path d="M4.08994 271.17L3.68994 270.47L11.9099 265.72L12.3099 266.42L4.08994 271.17ZM20.5299 261.68L20.1299 260.98L28.3499 256.23L28.7499 256.93L20.5299 261.68ZM36.9699 252.19L36.5699 251.49L44.7899 246.74L45.1899 247.44L36.9699 252.19ZM53.4099 242.69L53.0099 241.99L61.2299 237.24L61.6299 237.94L53.4099 242.69ZM69.8499 233.2L69.4499 232.5L77.6699 227.75L78.0699 228.45L69.8499 233.2ZM86.2899 223.71L85.8899 223.01L94.1099 218.26L94.5099 218.96L86.2899 223.71Z" fill="white"/>
<path d="M106.525 211.104L102.343 213.52L102.748 214.221L106.93 211.805L106.525 211.104Z" fill="white"/>
<path d="M4.08994 271.17L3.68994 270.47L11.9099 265.72L12.3099 266.42L4.08994 271.17ZM20.5299 261.68L20.1299 260.98L28.3499 256.23L28.7499 256.93L20.5299 261.68ZM36.9699 252.19L36.5699 251.49L44.7899 246.74L45.1899 247.44L36.9699 252.19ZM53.4099 242.69L53.0099 241.99L61.2299 237.24L61.6299 237.94L53.4099 242.69ZM69.8499 233.2L69.4499 232.5L77.6699 227.75L78.0699 228.45L69.8499 233.2ZM86.2899 223.71L85.8899 223.01L94.1099 218.26L94.5099 218.96L86.2899 223.71Z" fill="white"/>
<path d="M106.51 344.86L102.33 342.45L102.74 341.75L106.92 344.16L106.51 344.86Z" fill="white"/>
<path d="M94.1099 337.7L85.8899 332.95L86.2899 332.25L94.5099 337L94.1099 337.7ZM77.6699 328.21L69.4499 323.46L69.8499 322.76L78.0699 327.51L77.6699 328.21ZM61.2299 318.71L53.0099 313.96L53.4099 313.26L61.6299 318.01L61.2299 318.71ZM44.7899 309.22L36.5699 304.47L36.9699 303.77L45.1899 308.52L44.7899 309.22ZM28.3499 299.73L20.1299 294.98L20.5299 294.28L28.7499 299.03L28.3499 299.73ZM11.8999 290.24L3.67993 285.49L4.07993 284.79L12.2999 289.54L11.8999 290.24Z" fill="white"/>
<path d="M350.22 337.7L349.82 337L358.04 332.25L358.44 332.95L350.22 337.7ZM366.66 328.21L366.26 327.51L374.48 322.76L374.88 323.46L366.66 328.21ZM383.11 318.71L382.71 318.01L390.93 313.26L391.33 313.96L383.11 318.71ZM399.55 309.22L399.15 308.52L407.37 303.77L407.77 304.47L399.55 309.22ZM415.99 299.73L415.59 299.03L423.81 294.28L424.21 294.98L415.99 299.73ZM432.43 290.24L432.03 289.54L440.25 284.79L440.65 285.49L432.43 290.24Z" fill="white"/>
<path d="M337.82 344.86L337.42 344.16L341.6 341.75L342 342.45L337.82 344.86Z" fill="white"/>
<path d="M350.22 337.7L349.82 337L358.04 332.25L358.44 332.95L350.22 337.7ZM366.66 328.21L366.26 327.51L374.48 322.76L374.88 323.46L366.66 328.21ZM383.11 318.71L382.71 318.01L390.93 313.26L391.33 313.96L383.11 318.71ZM399.55 309.22L399.15 308.52L407.37 303.77L407.77 304.47L399.55 309.22ZM415.99 299.73L415.59 299.03L423.81 294.28L424.21 294.98L415.99 299.73ZM432.43 290.24L432.03 289.54L440.25 284.79L440.65 285.49L432.43 290.24Z" fill="white"/>
<path d="M337.82 344.86L337.42 344.16L341.6 341.75L342 342.45L337.82 344.86Z" fill="white"/>
<path d="M217.958 142.139L217.553 142.84L221.737 145.255L222.142 144.553L217.958 142.139Z" fill="white"/>
<path d="M209.34 138.11L201.12 133.36L201.52 132.66L209.74 137.41L209.34 138.11ZM192.9 128.62L184.68 123.87L185.08 123.17L193.3 127.92L192.9 128.62ZM176.46 119.13L168.24 114.38L168.64 113.68L176.86 118.43L176.46 119.13ZM160.02 109.63L151.8 104.88L152.2 104.18L160.42 108.93L160.02 109.63ZM143.58 100.14L135.36 95.3902L135.76 94.6902L143.98 99.4402L143.58 100.14ZM127.14 90.6502L118.92 85.9002L119.32 85.2002L127.54 89.9502L127.14 90.6502Z" fill="white"/>
<path d="M106.914 78.0368L106.509 78.7383L110.691 81.1533L111.096 80.4518L106.914 78.0368Z" fill="white"/>
<path d="M102.733 75.1359L102.328 75.8374L106.511 78.2517L106.916 77.5501L102.733 75.1359Z" fill="white"/>
<path d="M94.1099 71.0999L85.8899 66.3499L86.2899 65.6499L94.5099 70.3999L94.1099 71.0999ZM77.6699 61.6099L69.4499 56.8599L69.8499 56.1599L78.0699 60.9099L77.6699 61.6099ZM61.2299 52.1199L53.0099 47.3699L53.4099 46.6699L61.6299 51.4199L61.2299 52.1199ZM44.7899 42.6199L36.5699 37.8699L36.9699 37.1699L45.1899 41.9199L44.7899 42.6199ZM28.3499 33.1299L20.1299 28.3799L20.5299 27.6799L28.7499 32.4299L28.3499 33.1299ZM11.8999 23.6399L3.67993 18.8899L4.07993 18.1899L12.2999 22.9399L11.8999 23.6399Z" fill="white"/>
<path d="M659.47 531.24L651.11 526.42L651.51 525.72L659.87 530.54L659.47 531.24ZM642.76 521.59L634.4 516.77L634.8 516.07L643.16 520.89L642.76 521.59ZM626.05 511.94L617.69 507.12L618.09 506.42L626.45 511.24L626.05 511.94ZM609.34 502.29L600.98 497.47L601.38 496.77L609.74 501.59L609.34 502.29ZM592.63 492.65L584.27 487.83L584.67 487.13L593.03 491.95L592.63 492.65ZM575.92 483L567.56 478.18L567.96 477.48L576.32 482.3L575.92 483ZM559.21 473.35L550.86 468.53L551.26 467.83L559.61 472.65L559.21 473.35ZM542.5 463.7L534.14 458.88L534.54 458.18L542.9 463L542.5 463.7ZM525.79 454.06L517.44 449.24L517.84 448.54L526.19 453.36L525.79 454.06ZM509.08 444.41L500.72 439.59L501.12 438.89L509.48 443.71L509.08 444.41ZM492.37 434.76L484.02 429.94L484.42 429.24L492.77 434.06L492.37 434.76ZM475.66 425.11L467.3 420.29L467.7 419.59L476.06 424.41L475.66 425.11ZM458.95 415.47L450.59 410.65L450.99 409.95L459.35 414.77L458.95 415.47ZM442.24 405.82L433.88 401L434.28 400.3L442.64 405.12L442.24 405.82ZM425.53 396.17L417.17 391.35L417.57 390.65L425.93 395.47L425.53 396.17ZM408.82 386.53L400.46 381.71L400.86 381.01L409.22 385.83L408.82 386.53ZM392.11 376.88L383.75 372.06L384.15 371.36L392.51 376.18L392.11 376.88ZM375.4 367.23L367.05 362.41L367.45 361.71L375.8 366.53L375.4 367.23ZM358.69 357.58L350.33 352.76L350.73 352.06L359.09 356.88L358.69 357.58Z" fill="white"/>
<path d="M341.98 347.94L337.8 345.52L338.2 344.83L342.38 347.24L341.98 347.94Z" fill="white"/>
<path d="M102.74 480.36L102.33 479.66L106.51 477.25L106.92 477.94L102.74 480.36Z" fill="white"/>
<path d="M4.08994 537.31L3.68994 536.61L11.9099 531.86L12.3099 532.56L4.08994 537.31ZM20.5299 527.82L20.1299 527.12L28.3499 522.37L28.7499 523.07L20.5299 527.82ZM36.9699 518.33L36.5699 517.63L44.7899 512.88L45.1899 513.58L36.9699 518.33ZM53.4099 508.84L53.0099 508.14L61.2299 503.39L61.6299 504.09L53.4099 508.84ZM69.8499 499.34L69.4499 498.64L77.6699 493.89L78.0699 494.59L69.8499 499.34ZM86.2899 489.85L85.8899 489.15L94.1099 484.4L94.5099 485.1L86.2899 489.85Z" fill="white"/>
<path d="M102.74 480.36L102.33 479.66L106.51 477.25L106.92 477.94L102.74 480.36Z" fill="white"/>
<path d="M4.08994 537.31L3.68994 536.61L11.9099 531.86L12.3099 532.56L4.08994 537.31ZM20.5299 527.82L20.1299 527.12L28.3499 522.37L28.7499 523.07L20.5299 527.82ZM36.9699 518.33L36.5699 517.63L44.7899 512.88L45.1899 513.58L36.9699 518.33ZM53.4099 508.84L53.0099 508.14L61.2299 503.39L61.6299 504.09L53.4099 508.84ZM69.8499 499.34L69.4499 498.64L77.6699 493.89L78.0699 494.59L69.8499 499.34ZM86.2899 489.85L85.8899 489.15L94.1099 484.4L94.5099 485.1L86.2899 489.85Z" fill="white"/>
<path d="M102.335 207.499L101.93 208.201L106.114 210.615L106.518 209.913L102.335 207.499Z" fill="white"/>
<path d="M93.3799 203.28L84.83 198.34L85.2299 197.64L93.78 202.58L93.3799 203.28ZM76.28 193.41L67.7299 188.47L68.1299 187.77L76.68 192.71L76.28 193.41ZM59.18 183.53L50.6299 178.59L51.03 177.89L59.58 182.83L59.18 183.53ZM42.0699 173.66L33.52 168.72L33.92 168.02L42.47 172.96L42.0699 173.66ZM24.97 163.78L16.42 158.84L16.8199 158.14L25.3699 163.08L24.97 163.78ZM7.86995 153.91L-0.680038 148.97L-0.280045 148.27L8.26996 153.21L7.86995 153.91ZM-9.24005 144.03L-17.79 139.09L-17.39 138.39L-8.84004 143.33L-9.24005 144.03ZM-26.34 134.16L-34.89 129.22L-34.4901 128.52L-25.94 133.46L-26.34 134.16ZM-43.45 124.28L-52 119.34L-51.6 118.64L-43.05 123.58L-43.45 124.28ZM-60.55 114.41L-69.1 109.47L-68.7 108.77L-60.1501 113.71L-60.55 114.41ZM-77.66 104.53L-86.2101 99.5904L-85.81 98.8904L-77.26 103.83L-77.66 104.53ZM-94.76 94.6604L-103.31 89.7204L-102.91 89.0204L-94.36 93.9604L-94.76 94.6604ZM-111.86 84.7804L-120.41 79.8404L-120.01 79.1404L-111.46 84.0804L-111.86 84.7804ZM-128.97 74.9104L-137.52 69.9704L-137.12 69.2704L-128.57 74.2104L-128.97 74.9104ZM-146.07 65.0304L-154.62 60.0904L-154.22 59.3904L-145.67 64.3304L-146.07 65.0304ZM-163.17 55.1604L-171.72 50.2204L-171.32 49.5204L-162.77 54.4604L-163.17 55.1604ZM-180.28 45.2804L-188.83 40.3404L-188.43 39.6404L-179.88 44.5804L-180.28 45.2804ZM-197.38 35.4104L-205.93 30.4704L-205.53 29.7704L-196.98 34.7104L-197.38 35.4104ZM-214.49 25.5404L-223.04 20.6004L-222.64 19.9004L-214.09 24.8404L-214.49 25.5404Z" fill="white"/>
<path d="M217.97 413.8L217.56 413.11L221.75 410.69L222.15 411.39L217.97 413.8Z" fill="white"/>
<path d="M119.32 470.76L118.92 470.06L127.14 465.31L127.54 466.01L119.32 470.76ZM135.76 461.27L135.36 460.57L143.58 455.82L143.98 456.52L135.76 461.27ZM152.2 451.77L151.8 451.07L160.02 446.32L160.42 447.02L152.2 451.77ZM168.64 442.28L168.24 441.58L176.46 436.83L176.86 437.53L168.64 442.28ZM185.08 432.79L184.68 432.09L192.9 427.34L193.3 428.04L185.08 432.79ZM201.53 423.3L201.13 422.6L209.35 417.85L209.75 418.55L201.53 423.3Z" fill="white"/>
<path d="M106.92 477.92L106.51 477.22L110.7 474.81L111.1 475.51L106.92 477.92Z" fill="white"/>
<path d="M338.24 344.54H337.43V349.37H338.24V344.54Z" fill="white"/>
<path d="M338.24 463.28H337.43V453.79H338.24V463.28ZM338.24 444.29H337.43V434.8H338.24V444.29ZM338.24 425.31H337.43V415.82H338.24V425.31ZM338.24 406.32H337.43V396.83H338.24V406.32ZM338.24 387.34H337.43V377.85H338.24V387.34ZM338.24 368.35H337.43V358.86H338.24V368.35Z" fill="white"/>
<path d="M338.24 472.77H337.43V477.6H338.24V472.77Z" fill="white"/>
<path d="M226.59 413.8L222.4 411.39L222.81 410.69L226.99 413.11L226.59 413.8Z" fill="white"/>
<path d="M325.23 470.76L317.01 466.01L317.41 465.31L325.63 470.06L325.23 470.76ZM308.79 461.27L300.57 456.52L300.97 455.82L309.19 460.57L308.79 461.27ZM292.35 451.77L284.13 447.02L284.53 446.32L292.75 451.07L292.35 451.77ZM275.91 442.28L267.69 437.53L268.09 436.83L276.31 441.58L275.91 442.28ZM259.47 432.79L251.25 428.04L251.65 427.34L259.87 432.09L259.47 432.79ZM243.03 423.3L234.81 418.55L235.21 417.85L243.43 422.6L243.03 423.3Z" fill="white"/>
<path d="M337.63 477.92L333.45 475.51L333.86 474.81L338.04 477.22L337.63 477.92Z" fill="white"/>
<path d="M102.74 347.6L102.33 346.9L106.51 344.49L106.92 345.18L102.74 347.6Z" fill="white"/>
<path d="M4.08994 404.55L3.68994 403.85L11.9099 399.1L12.3099 399.8L4.08994 404.55ZM20.5299 395.06L20.1299 394.36L28.3499 389.61L28.7499 390.31L20.5299 395.06ZM36.9699 385.57L36.5699 384.87L44.7899 380.12L45.1899 380.82L36.9699 385.57ZM53.4099 376.07L53.0099 375.37L61.2299 370.62L61.6299 371.32L53.4099 376.07ZM69.8499 366.58L69.4499 365.88L77.6699 361.13L78.0699 361.83L69.8499 366.58ZM86.2899 357.09L85.8899 356.39L94.1099 351.64L94.5099 352.34L86.2899 357.09Z" fill="white"/>
<path d="M440.25 537.29L432.03 532.54L432.43 531.84L440.65 536.59L440.25 537.29ZM423.8 527.8L415.58 523.05L415.98 522.35L424.2 527.1L423.8 527.8ZM407.36 518.3L399.14 513.55L399.54 512.85L407.76 517.6L407.36 518.3ZM390.92 508.81L382.7 504.06L383.1 503.36L391.32 508.11L390.92 508.81ZM374.48 499.32L366.26 494.57L366.66 493.87L374.88 498.62L374.48 499.32ZM358.04 489.82L349.82 485.07L350.22 484.37L358.44 489.12L358.04 489.82Z" fill="white"/>
<path d="M341.6 480.33L337.42 477.92L337.82 477.22L342 479.64L341.6 480.33Z" fill="white"/>
<path d="M222.39 144.44L106.72 211.22L222.39 278.01L338.06 211.22L222.39 144.44Z" fill="#F35048"/>
<path d="M222.39 278.01V411.57L338.06 344.79V211.22L222.39 278.01Z" fill="#DC150B"/>
<path d="M106.72 211.22V344.79L222.39 411.57V278.01L106.72 211.22Z" fill="#87120C"/>
</g>
</g>
<defs>
<clipPath id="clip0_4673_8148">
<rect width="443.11" height="553.92" fill="white"/>
</clipPath>
</defs>
</svg>
