<svg width="417" height="442" viewBox="0 0 417 442" fill="none" xmlns="http://www.w3.org/2000/svg">
<path d="M224.002 367.925L351.655 294.463V147.538L224.002 221V367.925Z" fill="#9E4EC4"/>
<path d="M96.3491 147.537L224.002 74.0747L351.655 147.537L224.002 221L96.3491 147.537Z" fill="#C76FF2"/>
<path d="M224.002 367.925L96.3491 294.463V147.538L224.002 221V367.925Z" fill="#5D137D"/>
<path d="M96.3491 74.0749L224.002 147.537L351.655 74.0749L224.002 0.612305L96.3491 74.0749Z" stroke="white" stroke-linecap="round" stroke-linejoin="round"/>
<path d="M96.3491 74.0747L224.002 147.537V184.269L96.3491 110.806V74.0747Z" stroke="white" stroke-linecap="round" stroke-linejoin="round"/>
<path d="M224.002 184.269V147.537L351.655 74.0747V110.806L224.002 184.269Z" stroke="white" stroke-linecap="round" stroke-linejoin="round"/>
<path d="M0.614258 202.634L128.267 276.097V423.022L0.614258 349.559V202.634Z" stroke="white" stroke-linecap="round" stroke-linejoin="round"/>
<path d="M0.614258 202.634L128.267 276.097L160.179 257.731L32.5259 184.269L0.614258 202.634Z" stroke="white" stroke-linecap="round" stroke-linejoin="round"/>
<path d="M160.179 257.731L128.267 276.097V423.022L160.179 404.656V257.731Z" stroke="white" stroke-linecap="round" stroke-linejoin="round"/>
<path d="M287.902 404.872L415.549 331.41V221.216L287.902 294.678V404.872Z" stroke="white" stroke-linecap="round" stroke-linejoin="round"/>
<path d="M255.991 276.313L383.637 202.85L415.549 221.216L287.902 294.678L255.991 276.313Z" stroke="white" stroke-linecap="round" stroke-linejoin="round"/>
<path d="M287.902 404.872L255.991 386.506V276.312L287.902 294.678V404.872Z" stroke="white" stroke-linecap="round" stroke-linejoin="round"/>
</svg>
