<svg width="522" height="563" viewBox="0 0 522 563" fill="none" xmlns="http://www.w3.org/2000/svg">
<path d="M39.3773 434.411L261.085 306.547L482.793 434.411L261.085 562.276L39.3773 434.411Z" fill="black" stroke="white" stroke-linecap="round" stroke-linejoin="round"/>
<path d="M39.3769 178.648L261.085 50.7841L261.085 306.546L39.3768 434.411L39.3769 178.648Z" fill="black" stroke="white" stroke-linecap="round" stroke-linejoin="round"/>
<path d="M261.085 306.546L261.085 50.784L482.793 178.648L482.793 434.411L261.085 306.546Z" fill="black" stroke="white" stroke-linecap="round" stroke-linejoin="round"/>
<path d="M482.793 178.648L482.793 434.411" stroke="white" stroke-linecap="round" stroke-linejoin="round"/>
<path d="M433.267 150.088L433.267 405.851" stroke="white" stroke-linecap="round" stroke-linejoin="round"/>
<path d="M376.576 118.2L376.576 370.945" stroke="white" stroke-linecap="round" stroke-linejoin="round"/>
<path d="M319.886 85.1306L319.886 340.893" stroke="white" stroke-linecap="round" stroke-linejoin="round"/>
<path d="M208.866 80.4064L208.866 336.169" stroke="white" stroke-linecap="round" stroke-linejoin="round"/>
<path d="M149.814 114.657L149.814 370.419" stroke="white" stroke-linecap="round" stroke-linejoin="round"/>
<path d="M93.123 147.726L93.123 403.488" stroke="white" stroke-linecap="round" stroke-linejoin="round"/>
<path d="M261.332 306.854C261.81 306.577 261.974 305.966 261.698 305.488C261.422 305.009 260.81 304.845 260.332 305.121L261.332 306.854ZM0.0343933 455.722C-0.108582 456.256 0.207977 456.804 0.741424 456.947L9.43463 459.277C9.96809 459.42 10.5164 459.103 10.6594 458.57C10.8024 458.036 10.4858 457.488 9.95239 457.345L2.2251 455.274L4.29611 447.547C4.43909 447.013 4.12253 446.465 3.58908 446.322C3.0556 446.179 2.50726 446.496 2.36429 447.029L0.0343933 455.722ZM260.332 305.121L0.500366 455.115L1.50027 456.847L261.332 306.854L260.332 305.121Z" fill="white"/>
<path d="M260.332 306.854C259.854 306.577 259.69 305.966 259.966 305.488C260.242 305.009 260.854 304.845 261.332 305.121L260.332 306.854ZM521.63 455.722C521.773 456.256 521.456 456.804 520.923 456.947L512.229 459.277C511.696 459.42 511.148 459.103 511.005 458.57C510.862 458.036 511.178 457.488 511.712 457.345L519.439 455.274L517.368 447.547C517.225 447.013 517.542 446.465 518.075 446.322C518.608 446.179 519.157 446.496 519.3 447.029L521.63 455.722ZM261.332 305.121L521.164 455.115L520.164 456.847L260.332 306.854L261.332 305.121Z" fill="white"/>
<path d="M262.104 306.016C262.105 306.568 261.658 307.016 261.106 307.017C260.553 307.018 260.105 306.571 260.104 306.018L262.104 306.016ZM260.016 5.29335C260.406 4.90233 261.04 4.90154 261.431 5.29156L267.803 11.6475C268.194 12.0375 268.194 12.6707 267.804 13.0617C267.414 13.4527 266.781 13.4535 266.39 13.0635L260.726 7.41378L255.077 13.0778C254.687 13.4688 254.053 13.4696 253.662 13.0796C253.271 12.6896 253.271 12.0564 253.661 11.6654L260.016 5.29335ZM260.104 306.018L259.724 6.00084L261.724 5.99831L262.104 306.016L260.104 306.018Z" fill="white"/>
<path d="M261.086 106.389L482.794 234.254" stroke="white" stroke-linecap="round" stroke-linejoin="round"/>
<path d="M260.502 107.571L38.7944 235.435" stroke="white" stroke-linecap="round" stroke-linejoin="round"/>
<path d="M320.476 340.238L98.7677 468.102" stroke="white" stroke-linecap="round" stroke-linejoin="round"/>
<path d="M261.086 173.399L482.794 301.263" stroke="white" stroke-linecap="round" stroke-linejoin="round"/>
<path d="M260.502 174.58L38.7944 302.444" stroke="white" stroke-linecap="round" stroke-linejoin="round"/>
<path d="M376.246 370.945L154.538 498.81" stroke="white" stroke-linecap="round" stroke-linejoin="round"/>
<path d="M261.086 239.538L482.794 367.402" stroke="white" stroke-linecap="round" stroke-linejoin="round"/>
<path d="M208.866 336.695L430.574 464.56" stroke="white" stroke-linecap="round" stroke-linejoin="round"/>
<path d="M149.813 370.945L371.521 498.81" stroke="white" stroke-linecap="round" stroke-linejoin="round"/>
<path d="M93.1235 404.015L314.832 531.879" stroke="white" stroke-linecap="round" stroke-linejoin="round"/>
<path d="M260.502 240.719L38.7944 368.583" stroke="white" stroke-linecap="round" stroke-linejoin="round"/>
<path d="M432.936 406.377L211.228 534.241" stroke="white" stroke-linecap="round" stroke-linejoin="round"/>
<path d="M260.442 148.908L123.83 227.778L260.442 306.661L397.055 227.778L260.442 148.908Z" fill="#F35048"/>
<path d="M260.442 306.66V464.402L397.055 385.531V227.778L260.442 306.66Z" fill="#DC150B"/>
<path d="M123.83 227.778V385.531L260.442 464.402V306.66L123.83 227.778Z" fill="#87120C"/>
<path d="M284.765 7.7855C284.875 7.75289 284.988 7.72769 285.102 7.69895C285.205 7.67277 285.307 7.64658 285.413 7.62427C285.534 7.59973 285.654 7.57874 285.778 7.55453C285.883 7.53576 285.989 7.51699 286.094 7.50177C286.283 7.47287 286.471 7.45107 286.659 7.43281C286.677 7.43091 286.699 7.42935 286.717 7.42746C286.923 7.40731 287.131 7.39811 287.344 7.38924C287.624 7.37957 287.907 7.3773 288.192 7.386C288.257 7.3884 288.324 7.39822 288.388 7.39707C288.591 7.4088 288.798 7.42087 289.004 7.44002C289.11 7.44992 289.216 7.46691 289.322 7.48036C289.478 7.49843 289.637 7.52037 289.792 7.54553C289.916 7.56417 290.039 7.5899 290.162 7.61208C290.292 7.63847 290.422 7.66131 290.552 7.69124C290.685 7.72151 290.815 7.75144 290.948 7.78524C291.07 7.81451 291.189 7.84699 291.311 7.87981C291.451 7.91782 291.593 7.96324 291.733 8.00479C291.844 8.04016 291.952 8.07165 292.063 8.11056C292.216 8.16051 292.368 8.21756 292.524 8.27493C292.621 8.30898 292.718 8.34302 292.818 8.38094C293.001 8.45159 293.184 8.52932 293.366 8.60705C293.435 8.63491 293.504 8.66277 293.573 8.69417C293.824 8.80685 294.074 8.92307 294.327 9.05025C294.382 9.07679 294.44 9.11075 294.495 9.13729C294.71 9.24666 294.929 9.35991 295.146 9.48379L307.124 4.20794C307.08 4.18239 307.039 4.16071 306.995 4.13516C306.821 4.04038 306.647 3.94914 306.476 3.86177C306.422 3.83168 306.364 3.80127 306.309 3.77473C306.302 3.77407 306.295 3.76632 306.288 3.76566C306.052 3.64722 305.816 3.53586 305.582 3.43192C305.571 3.43093 305.565 3.42318 305.554 3.42219C305.486 3.39079 305.416 3.36647 305.348 3.33507C305.189 3.26673 305.027 3.19807 304.869 3.13328C304.845 3.12388 304.824 3.11836 304.799 3.10896C304.703 3.07138 304.606 3.03733 304.505 2.99941C304.388 2.9563 304.27 2.90964 304.152 2.87007C304.117 2.85969 304.083 2.8493 304.048 2.83891C303.936 2.80354 303.825 2.76818 303.714 2.73281C303.616 2.70231 303.516 2.66793 303.418 2.64097C303.376 2.62993 303.334 2.61888 303.292 2.60783C303.17 2.57502 303.051 2.54608 302.929 2.51326C302.841 2.49084 302.754 2.46487 302.667 2.44598C302.621 2.43461 302.579 2.43064 302.533 2.41927C302.403 2.38934 302.273 2.36649 302.143 2.3401C302.058 2.32509 301.978 2.30333 301.894 2.28832C301.855 2.28469 301.812 2.28072 301.774 2.27001C301.615 2.24452 301.459 2.22291 301.304 2.20484C301.225 2.19757 301.145 2.17935 301.067 2.17209C301.038 2.16945 301.013 2.16714 300.985 2.16449C300.779 2.14535 300.573 2.12974 300.37 2.12155C300.313 2.11627 300.256 2.11099 300.199 2.1057C300.192 2.10504 300.182 2.10405 300.175 2.10339C299.889 2.0947 299.606 2.09342 299.326 2.10664C299.304 2.10466 299.283 2.10267 299.261 2.10778C299.071 2.11508 298.883 2.1298 298.699 2.14485C298.681 2.14675 298.659 2.14831 298.641 2.1502C298.483 2.16402 298.323 2.18138 298.167 2.20261C298.135 2.20673 298.105 2.21471 298.076 2.21916C297.971 2.23439 297.866 2.25316 297.76 2.27193C297.64 2.29292 297.516 2.31358 297.395 2.34166C297.29 2.36397 297.187 2.39016 297.084 2.41635C297.004 2.43388 296.923 2.45142 296.846 2.47283C296.813 2.48049 296.78 2.49523 296.747 2.50289C296.581 2.54827 296.419 2.60106 296.256 2.65385C296.179 2.6788 296.101 2.70376 296.024 2.72871C295.787 2.81388 295.553 2.90291 295.325 3.00678L283.343 8.28938C283.57 8.18906 283.805 8.09648 284.042 8.01132C284.12 7.98282 284.197 7.96141 284.274 7.93646C284.437 7.88367 284.599 7.83088 284.765 7.7855Z" fill="#87120C"/>
<path d="M295.152 9.48458L307.13 4.20898L484.362 103.581L472.385 108.857L295.152 9.48458Z" fill="#DC150B"/>
<path d="M498.406 131.328C498.406 131.328 498.409 131.303 498.41 131.293C498.436 131.009 498.456 130.725 498.468 130.44C498.469 130.423 498.471 130.401 498.473 130.384C498.478 130.295 498.479 130.209 498.483 130.12C498.49 129.939 498.499 129.757 498.502 129.575C498.503 129.525 498.501 129.472 498.502 129.422C498.503 129.3 498.503 129.179 498.5 129.061C498.501 128.936 498.502 128.814 498.499 128.689C498.499 128.607 498.492 128.528 498.489 128.445C498.487 128.313 498.482 128.183 498.476 128.051C498.474 127.961 498.472 127.868 498.466 127.778C498.461 127.674 498.45 127.566 498.442 127.462C498.433 127.321 498.425 127.178 498.413 127.037C498.409 126.969 498.405 126.901 498.4 126.832C498.39 126.706 498.373 126.583 498.36 126.457C498.345 126.309 498.33 126.165 498.315 126.02C498.309 125.966 498.304 125.912 498.297 125.862C498.281 125.735 498.26 125.608 498.243 125.481C498.22 125.311 498.197 125.138 498.17 124.967C498.164 124.917 498.157 124.87 498.148 124.819C498.127 124.699 498.102 124.579 498.085 124.459C498.052 124.27 498.019 124.085 497.983 123.899C497.974 123.848 497.964 123.794 497.955 123.743C497.932 123.637 497.91 123.532 497.887 123.429C497.843 123.214 497.798 123.003 497.75 122.791C497.735 122.726 497.723 122.66 497.708 122.594C497.687 122.51 497.662 122.429 497.645 122.346C497.583 122.09 497.517 121.837 497.448 121.581C497.423 121.496 497.406 121.412 497.382 121.328C497.369 121.277 497.349 121.225 497.335 121.173C497.22 120.766 497.096 120.362 496.966 119.96C496.96 119.945 496.958 119.931 496.952 119.916C496.952 119.916 496.952 119.909 496.949 119.905C496.938 119.868 496.924 119.834 496.912 119.801C496.817 119.514 496.715 119.229 496.613 118.944C496.573 118.837 496.529 118.726 496.489 118.619C496.429 118.459 496.372 118.3 496.308 118.144C496.293 118.111 496.279 118.077 496.264 118.044C496.084 117.591 495.893 117.141 495.691 116.697C495.65 116.604 495.608 116.514 495.563 116.424C495.382 116.029 495.192 115.639 494.996 115.253C494.956 115.178 494.921 115.099 494.881 115.028C494.656 114.596 494.421 114.167 494.177 113.748C494.121 113.653 494.066 113.559 494.007 113.46C493.778 113.074 493.542 112.692 493.301 112.315C493.279 112.281 493.258 112.243 493.236 112.209C493.227 112.194 493.217 112.183 493.208 112.167C493.139 112.061 493.066 111.958 492.994 111.851C492.871 111.668 492.748 111.489 492.622 111.309C492.539 111.194 492.457 111.079 492.375 110.964C492.28 110.834 492.185 110.7 492.089 110.57C492.07 110.547 492.051 110.523 492.035 110.5C491.761 110.135 491.476 109.777 491.187 109.428C491.164 109.401 491.145 109.374 491.122 109.347C491.068 109.281 491.012 109.223 490.957 109.16C490.767 108.935 490.573 108.714 490.375 108.495C490.326 108.441 490.281 108.386 490.233 108.332C490.187 108.281 490.138 108.234 490.089 108.183C489.923 108.003 489.757 107.83 489.587 107.657C489.522 107.59 489.457 107.516 489.392 107.45C489.359 107.414 489.323 107.382 489.286 107.35C489.149 107.213 489.007 107.081 488.862 106.946C488.777 106.867 488.692 106.781 488.606 106.701C488.576 106.673 488.543 106.649 488.513 106.621C488.388 106.509 488.262 106.401 488.14 106.29C488.04 106.205 487.945 106.114 487.845 106.03C487.812 106.002 487.778 105.977 487.745 105.949C487.633 105.853 487.516 105.764 487.399 105.671C487.299 105.59 487.2 105.506 487.096 105.424C487.053 105.392 487.009 105.359 486.966 105.327C486.862 105.245 486.758 105.171 486.655 105.094C486.561 105.024 486.471 104.955 486.38 104.886C486.32 104.841 486.256 104.8 486.195 104.758C486.091 104.684 485.984 104.61 485.879 104.539C485.805 104.49 485.735 104.437 485.661 104.387C485.573 104.329 485.482 104.274 485.394 104.219C485.296 104.156 485.201 104.094 485.103 104.035C485.052 104.005 485.005 103.972 484.954 103.942C484.761 103.824 484.564 103.71 484.367 103.602L472.39 108.88C472.638 109.018 472.882 109.166 473.126 109.317C473.224 109.376 473.319 109.438 473.416 109.501C473.579 109.606 473.74 109.714 473.902 109.821C474.01 109.892 474.114 109.966 474.218 110.04C474.372 110.151 474.527 110.262 474.681 110.376C474.785 110.454 474.888 110.531 474.992 110.609C475.139 110.719 475.282 110.836 475.425 110.953C475.542 111.046 475.655 111.139 475.768 111.231C475.901 111.344 476.033 111.46 476.162 111.572C476.288 111.68 476.414 111.788 476.536 111.903C476.655 112.011 476.77 112.121 476.885 112.232C477.026 112.367 477.168 112.498 477.305 112.636C477.406 112.738 477.508 112.84 477.609 112.943C477.779 113.116 477.946 113.288 478.112 113.465C478.206 113.566 478.304 113.672 478.398 113.777C478.596 113.996 478.786 114.217 478.976 114.442C479.054 114.531 479.128 114.62 479.206 114.71C479.495 115.058 479.777 115.417 480.054 115.782C480.169 115.936 480.283 116.089 480.394 116.246C480.476 116.361 480.562 116.476 480.645 116.591C480.771 116.771 480.89 116.95 481.013 117.133C481.085 117.239 481.158 117.343 481.227 117.449C481.258 117.498 481.289 117.548 481.32 117.597C481.564 117.974 481.797 118.356 482.026 118.742C482.082 118.836 482.137 118.931 482.192 119.029C482.436 119.452 482.672 119.877 482.896 120.309C482.936 120.384 482.972 120.459 483.011 120.534C483.208 120.921 483.397 121.313 483.579 121.706C483.62 121.795 483.665 121.889 483.707 121.978C483.909 122.422 484.1 122.872 484.279 123.325C484.354 123.518 484.43 123.711 484.505 123.903C484.545 124.011 484.588 124.118 484.628 124.226C484.734 124.514 484.832 124.802 484.931 125.09C484.942 125.123 484.953 125.156 484.965 125.186C484.97 125.204 484.975 125.226 484.984 125.245C485.115 125.647 485.238 126.051 485.354 126.459C485.392 126.594 485.429 126.73 485.467 126.862C485.536 127.115 485.602 127.371 485.664 127.627C485.7 127.774 485.737 127.924 485.769 128.07C485.818 128.281 485.866 128.497 485.91 128.711C485.942 128.868 485.977 129.025 486.005 129.185C486.042 129.37 486.074 129.559 486.107 129.745C486.138 129.915 486.165 130.086 486.192 130.253C486.219 130.423 486.242 130.597 486.266 130.767C486.292 130.948 486.314 131.129 486.337 131.306C486.356 131.454 486.367 131.598 486.382 131.746C486.4 131.941 486.421 132.132 486.435 132.326C486.447 132.467 486.455 132.611 486.464 132.751C486.477 132.948 486.488 133.146 486.494 133.343C486.5 133.476 486.506 133.605 486.508 133.737C486.514 133.942 486.516 134.149 486.518 134.353C486.518 134.474 486.52 134.596 486.52 134.714C486.516 134.946 486.512 135.181 486.502 135.413C486.497 135.502 486.496 135.587 486.491 135.676C486.476 135.993 486.454 136.309 486.424 136.624C486.418 136.691 486.412 136.755 486.406 136.819C486.38 137.102 486.349 137.389 486.309 137.667C486.267 137.967 486.218 138.256 486.166 138.547C486.145 138.656 486.128 138.762 486.107 138.871C486.065 139.092 486.016 139.309 485.967 139.522C485.944 139.62 485.924 139.718 485.901 139.813C485.827 140.109 485.75 140.399 485.666 140.684C485.665 140.691 485.664 140.702 485.66 140.708C485.571 141.008 485.472 141.302 485.37 141.589C485.331 141.696 485.289 141.803 485.247 141.91C485.18 142.09 485.11 142.269 485.039 142.445C484.979 142.593 484.912 142.733 484.845 142.877C484.782 143.014 484.723 143.151 484.657 143.284C484.52 143.565 484.372 143.84 484.222 144.105C484.214 144.119 484.209 144.129 484.201 144.142C484.026 144.448 483.837 144.741 483.642 145.027C483.551 145.161 483.456 145.295 483.358 145.422C483.305 145.496 483.251 145.569 483.198 145.639C483.06 145.819 482.915 145.992 482.77 146.16C482.746 146.187 482.726 146.217 482.702 146.243C482.538 146.428 482.367 146.609 482.197 146.782C482.145 146.831 482.098 146.88 482.047 146.929C481.917 147.057 481.784 147.18 481.647 147.299C481.592 147.348 481.538 147.396 481.484 147.441C481.309 147.59 481.13 147.734 480.949 147.871C480.942 147.877 480.93 147.887 480.922 147.893C480.73 148.036 480.535 148.168 480.333 148.296C480.276 148.333 480.216 148.367 480.159 148.404C480.007 148.498 479.855 148.584 479.704 148.67C479.644 148.703 479.583 148.737 479.519 148.77C479.312 148.88 479.098 148.985 478.886 149.079L490.863 143.801C491.079 143.707 491.289 143.601 491.496 143.492C491.557 143.458 491.617 143.424 491.681 143.391C491.836 143.305 491.987 143.219 492.139 143.126C492.196 143.089 492.257 143.055 492.314 143.017C492.512 142.889 492.71 142.758 492.903 142.615C492.911 142.608 492.922 142.602 492.93 142.592C493.115 142.456 493.293 142.312 493.468 142.164C493.522 142.119 493.577 142.07 493.631 142.022C493.768 141.902 493.901 141.779 494.031 141.651C494.082 141.603 494.133 141.557 494.181 141.505C494.35 141.335 494.517 141.161 494.678 140.976C494.678 140.976 494.682 140.969 494.686 140.966C494.71 140.939 494.73 140.909 494.754 140.883C494.899 140.714 495.044 140.538 495.182 140.361C495.235 140.291 495.289 140.218 495.342 140.144C495.416 140.044 495.493 139.947 495.564 139.843C495.584 139.813 495.602 139.779 495.623 139.748C495.818 139.463 496.006 139.173 496.181 138.864C496.189 138.854 496.194 138.84 496.199 138.83C496.352 138.566 496.496 138.29 496.633 138.009C496.643 137.989 496.655 137.972 496.664 137.952C496.717 137.839 496.768 137.718 496.818 137.605C496.885 137.461 496.952 137.317 497.013 137.169C497.022 137.145 497.035 137.125 497.044 137.101C497.108 136.949 497.162 136.794 497.22 136.638C497.262 136.531 497.304 136.428 497.343 136.317C497.348 136.304 497.356 136.286 497.361 136.273C497.458 135.999 497.549 135.722 497.632 135.44C497.633 135.433 497.634 135.423 497.638 135.416C497.712 135.162 497.783 134.904 497.85 134.642C497.856 134.611 497.863 134.576 497.873 134.544C497.897 134.45 497.917 134.348 497.94 134.254C497.971 134.11 498.01 133.967 498.038 133.82C498.051 133.75 498.062 133.676 498.08 133.602C498.1 133.497 498.121 133.388 498.138 133.279C498.154 133.184 498.174 133.093 498.189 133.002C498.222 132.805 498.252 132.604 498.277 132.402C498.285 132.321 498.299 132.244 498.311 132.162C498.337 131.961 498.355 131.759 498.375 131.554C498.381 131.486 498.387 131.423 498.393 131.355L498.406 131.328Z" fill="#87120C"/>
<path d="M282.894 9.0685C286.192 7.31544 290.45 7.41703 294.912 9.91855L472.142 109.287C476.611 111.793 480.394 116.212 482.878 121.353C485.362 126.493 486.527 132.311 485.811 137.581C485.093 142.85 482.643 146.522 479.34 148.277C476.041 150.028 471.785 149.925 467.325 147.424L290.094 48.0581C285.624 45.5525 281.841 41.1332 279.356 35.9923C276.872 30.8523 275.706 25.0355 276.424 19.7653C277.142 14.4981 279.591 10.8244 282.894 9.0685Z" fill="black" stroke="white"/>
<path d="M456.001 113.653C457.566 112.625 459.718 112.462 462.125 113.532C464.54 114.605 466.709 116.702 468.247 119.249C469.783 121.794 470.663 124.746 470.547 127.495C470.478 129.133 470.064 130.496 469.411 131.545L469.213 131.862L469.46 132.141L476.543 140.141C476.64 140.25 476.701 140.385 476.722 140.504C476.733 140.567 476.731 140.612 476.726 140.64C476.724 140.639 476.721 140.639 476.719 140.638C476.699 140.629 476.674 140.615 476.646 140.594L476.556 140.509L469.444 132.474L469.082 132.065L468.706 132.462C467.107 134.152 464.565 134.653 461.657 133.36C459.242 132.287 457.073 130.19 455.536 127.644C453.999 125.099 453.119 122.146 453.235 119.398C453.351 116.652 454.432 114.684 456.001 113.653Z" fill="black" stroke="white"/>
<path d="M520.527 475.069L480.527 498.138L440.527 475.069L480.527 452L520.527 475.069Z" fill="black" stroke="white" stroke-linecap="round" stroke-linejoin="round"/>
<path d="M520.527 521.213L480.527 544.282V498.138L520.527 475.069V521.213Z" fill="black" stroke="white" stroke-linecap="round" stroke-linejoin="round"/>
<path d="M480.527 498.138V544.282L440.527 521.213V475.069L480.527 498.138Z" fill="black" stroke="white" stroke-linecap="round" stroke-linejoin="round"/>
<path d="M133.527 61.069L93.5268 84.1379L53.5269 61.069L93.5268 38L133.527 61.069Z" fill="black" stroke="white" stroke-linecap="round" stroke-linejoin="round"/>
<path d="M133.527 107.213L93.5269 130.282V84.1383L133.527 61.0693V107.213Z" fill="black" stroke="white" stroke-linecap="round" stroke-linejoin="round"/>
<path d="M93.5268 84.1383V130.282L53.5269 107.213V61.0693L93.5268 84.1383Z" fill="black" stroke="white" stroke-linecap="round" stroke-linejoin="round"/>
</svg>
